<?xml version="1.0" encoding="UTF-8"?>
<svg width="14px" height="14px" viewBox="0 0 14 14" version="1.1" xmlns="http://www.w3.org/2000/svg" xmlns:xlink="http://www.w3.org/1999/xlink">
    <!-- Generator: Sketch 61 (89581) - https://sketch.com -->
    <title>icon/action/copy</title>
    <desc>Created with Sketch.</desc>
    <defs>
        <path d="M13.189585,2.81481481 C14.0053547,2.81481481 14.6666667,3.48597972 14.6666667,4.2918965 L14.6666667,13.189585 C14.6666667,14.0053547 13.9955018,14.6666667 13.189585,14.6666667 L4.2918965,14.6666667 C3.47612681,14.6666667 2.81481481,13.9955018 2.81481481,13.189585 L2.81433333,13.1843333 L12.4437988,13.1851852 C12.8214931,13.1851852 13.1297184,12.9062718 13.1784664,12.5444005 L13.1851852,12.4437988 L13.1843333,2.81433333 L13.189585,2.81481481 Z M10.2178825,1.33333333 C11.0384789,1.33333333 11.7037037,1.99782232 11.7037037,2.81915456 L11.7037037,10.2178825 C11.7037037,11.0384789 11.0392147,11.7037037 10.2178825,11.7037037 L2.81915456,11.7037037 C1.99855816,11.7037037 1.33333333,11.0392147 1.33333333,10.2178825 L1.33333333,2.81915456 C1.33333333,1.99855816 1.99782232,1.33333333 2.81915456,1.33333333 L10.2178825,1.33333333 Z M10.2222222,2.81481481 L2.81481481,2.81481481 L2.81481481,10.2222222 L10.2222222,10.2222222 L10.2222222,2.81481481 Z" id="path-1"></path>
    </defs>
    <g id="DevCenter-V1" stroke="none" stroke-width="1" fill="none" fill-rule="evenodd">
        <g id="01-Component-(Card)" transform="translate(-973.000000, -324.000000)">
            <g id="code" transform="translate(376.000000, 309.000000)">
                <g id="button/hover" transform="translate(588.000000, 8.000000)">
                    <g id="icon/action/copy" transform="translate(8.000000, 6.000000)">
                        <mask id="mask-2" fill="white">
                            <use xlink:href="#path-1"></use>
                        </mask>
                        <use id="Combined-Shape" fill="#000000" fill-rule="evenodd" xlink:href="#path-1"></use>
                    </g>
                </g>
            </g>
        </g>
    </g>
</svg>