<svg width="16" height="16" viewBox="0 0 16 16" xmlns="http://www.w3.org/2000/svg"><path d="M7.044 15.537c.27.271.585.402.952.402.375 0 .685-.135.942-.402a1.31 1.31 0 00.393-.942h-2.68c0 .366.131.68.393.942zm8.869-2.173a10.963 10.963 0 01-1.414-2.95c-.319-1.038-.602-2.54-.856-4.505-.147-1.143-.616-2.108-1.135-2.732a4.946 4.946 0 00-.89-.838 5.464 5.464 0 00-1.833-.899A1.74 1.74 0 009.148.42 1.788 1.788 0 007.996.01c-.428 0-.812.14-1.144.41-.332.27-.541.611-.628 1.021a5.474 5.474 0 00-1.842.9 4.967 4.967 0 00-.89.837c-.516.62-.979 1.589-1.126 2.732-.254 1.964-.546 3.464-.865 4.504a11.102 11.102 0 01-1.405 2.95.435.435 0 00-.035.498.464.464 0 00.428.254h15.03a.466.466 0 00.481-.49.453.453 0 00-.087-.261zm-14.551-.218c.523-.9.92-1.887 1.196-2.942.275-1.057.525-2.454.768-4.172.21-1.494.89-2.433 1.737-2.994a4.85 4.85 0 011.72-.742.465.465 0 00.357-.463v-.017c0-.464.393-.838.856-.838.48 0 .855.375.855.838v.017c0 .218.155.409.375.463.601.147 1.124.335 1.711.742.295.204.556.43.777.69.45.526.828 1.335.96 2.304.235 1.72.49 3.107.768 4.163.28 1.056.681 2.043 1.205 2.95H1.362z" fill="currentColor" fill-rule="evenodd"/></svg>