<svg width="100" height="60" xmlns="http://www.w3.org/2000/svg"><title>amex-hint</title><g fill="none" fill-rule="evenodd"><rect fill="#EEE" width="100" height="60" rx="4"/><path fill="#000" d="M72.398 25.37l1.748-.485h.873v6.018h-1.262v-4.659l-1.068.291zm17.864 3.204v-1.845l-1.553 1.845h1.553zm.194-3.689h1.165v3.689h.777v1.067h-.777v1.262h-1.456V29.64h-2.913l-.194-.97 3.398-3.786zm-5.63 1.165H82.3v-1.165h4.175v.97l-1.554 1.457c1.1.194 1.65.744 1.65 1.65a1.846 1.846 0 01-.582 1.456 2.33 2.33 0 01-1.553.582 3.012 3.012 0 01-2.33-.97l.874-.874c.364.426.895.673 1.456.68l.582-.195a.776.776 0 00-.097-1.165l-.873-.194h-.583l-.194-.873 1.553-1.359zm-5.826 0l-.583.194-.582.582-.97-.776a3.5 3.5 0 01.97-.97 2.527 2.527 0 011.262-.292c.56-.04 1.116.134 1.553.486.386.344.6.842.583 1.358 0 .42-.136.83-.388 1.165a6.42 6.42 0 01-1.262 1.262l-.971.776h2.621V31H76.67v-1.068l2.039-1.65.776-.776c.14-.198.21-.438.195-.68a.776.776 0 00-.195-.582L79 26.05z"/><path d="M18.417 8.774l-.582-1.36-.583 1.36h1.165zm1.748 1.844h-.97l-.39-.97h-1.844l-.388.97h-1.068l1.942-4.368h.873l1.845 4.368zm5.049 0h-.971V7.9l-1.165 1.747-1.262-1.844v2.815h-.971v-4.27h.97l1.263 1.843 1.165-1.844h.97zm4.271 0h-3.203v-4.27h3.203v.873h-2.33v.873h2.04v.874h-2.04v.873h2.33zm3.593-2.815a.582.582 0 00-.195-.485l-.582-.194h-.97v1.261h.97l.485-.194a.582.582 0 00.292-.388zm1.068 2.815h-1.068l-.874-1.36h-.777v1.36h-.97v-4.27h1.941a1.75 1.75 0 011.165.387c.28.283.421.673.388 1.068a1.261 1.261 0 01-.873 1.359l1.068 1.456zm.776 0h.971v-4.27h-.97zm9.224-1.844l-.583-1.36-.582 1.36h1.165zm1.747 1.844h-.97l-.389-.97h-1.942l-.388.97h-.971l1.845-4.368h.873l1.942 4.368zm-5.048-.68l-.777.583-.97.194a2.138 2.138 0 01-1.554-.68 2.137 2.137 0 01-.583-1.553 2.135 2.135 0 01.68-1.65 2.136 2.136 0 011.65-.582l.971.194.68.485-.583.68a1.647 1.647 0 00-1.068-.485 1.164 1.164 0 00-.874.388 1.362 1.362 0 00-.388.97 1.36 1.36 0 00.388.97c.223.25.541.391.874.39h.486l.582-.39.486.486zm9.611.68h-.873L47.543 7.9v2.718h-.97v-4.27h.874l2.038 2.62v-2.62h1.068zm6.117 0h-3.301v-4.27h3.204v.873h-2.233v.873h2.039v.874h-2.04v.873h2.33zm4.757 0h-1.165l-.97-1.456-.972 1.456h-1.068l1.457-2.136-1.36-2.135h1.068l.874 1.359.874-1.359h1.068L59.68 8.482zm7.476-2.815a.582.582 0 00-.194-.485l-.583-.194h-.97v1.261h.97l.486-.194a.582.582 0 00.29-.388zm1.068 2.815h-1.068l-.874-1.36h-.777v1.36h-.97v-4.27h1.941a1.75 1.75 0 011.165.387c.28.283.422.673.389 1.068a1.261 1.261 0 01-.874 1.359l1.068 1.456zM64.534 7.9a.582.582 0 00-.194-.485l-.583-.194h-.68v1.358h.777l.583-.194a.582.582 0 00.097-.485zm.97 0c.009.41-.17.804-.485 1.068a1.94 1.94 0 01-1.262.388h-.68v1.262h-.97v-4.27h1.747a1.75 1.75 0 011.165.387c.315.264.494.657.486 1.068V7.9zm8.545 2.718h-3.301v-4.27h3.203v.873h-2.233v.873h2.04v.874h-2.04v.873h2.33zm7.961-1.262c.03.367-.113.727-.389.97a1.75 1.75 0 01-1.165.389 2.72 2.72 0 01-1.844-.68l.582-.68a2.03 2.03 0 001.262.486h.486a.29.29 0 00.194-.291.387.387 0 00-.194-.291l-.68-.291-.582-.194-.389-.195L79 8.191a1.343 1.343 0 01-.097-.485 1.164 1.164 0 01.388-.97c.3-.252.678-.39 1.068-.389a2.52 2.52 0 011.554.582l-.486.68a2.134 2.134 0 00-1.165-.388h-.388a.291.291 0 00-.097.29c.014.123.086.23.194.292l.777.291 1.068.485c.198.21.302.49.29.777h-.096zm-3.98 0c.03.367-.113.727-.39.97a1.75 1.75 0 01-1.164.389 2.72 2.72 0 01-1.845-.68l.583-.68c.353.302.798.473 1.262.486h.485a.29.29 0 00.194-.291.387.387 0 00-.194-.291l-.68-.291-.582-.194-.388-.195-.292-.388a1.343 1.343 0 01-.097-.485 1.164 1.164 0 01.389-.97 1.65 1.65 0 011.068-.389 2.52 2.52 0 011.553.582l-.485.68a2.134 2.134 0 00-1.165-.388h-.389a.291.291 0 00-.097.29c.015.123.087.23.194.292l.777.291 1.068.485c.198.21.303.49.291.777h-.097z" fill="#757575"/><path fill="#1E88E5" d="M31.524 49.441H65.99v-33H31.524z"/><path d="M7.544 16.441h8.543a2.621 2.621 0 012.622 2.62v4.465a2.621 2.621 0 01-2.622 2.621H7.544a2.621 2.621 0 01-2.622-2.62v-4.465a2.621 2.621 0 012.622-2.62" fill="#BDBDBD"/><path d="M70.942 32.941h23.592V22.265H70.942V32.94zm-2.04 1.941h27.574V20.324H68.903v14.558z" fill="#FF5252"/></g></svg>