<svg width="16" height="16" viewBox="0 0 16 16" xmlns="http://www.w3.org/2000/svg"><path d="M4.667 14.333c0 .926.74 1.667 1.666 1.667A1.66 1.66 0 008 14.333a1.66 1.66 0 00-1.667-1.666 1.66 1.66 0 00-1.666 1.666zm5.333 0c0 .926.74 1.667 1.667 1.667a1.66 1.66 0 001.666-1.667 1.66 1.66 0 00-1.666-1.666A1.66 1.66 0 0010 14.333zm5.981-10.926a.259.259 0 00-.055-.277.354.354 0 00-.26-.13H4.316L3.759.76A1.012 1.012 0 002.778 0H1C.444 0 0 .444 0 1s.444 1 1 1h1l2.037 8.24c.093.445.5.76.963.76h7.981a.99.99 0 00.963-.76l2.037-6.833z" fill="currentColor" fill-rule="evenodd"/></svg>