<svg width="16" height="16" viewBox="0 0 16 16" xmlns="http://www.w3.org/2000/svg"><g fill="currentColor" fill-rule="evenodd"><path d="M13.697 15.94H2.243A.242.242 0 012 15.684L2.546 4.23A.242.242 0 012.788 4h10.364c.13 0 .236.101.242.23l.546 11.455a.242.242 0 01-.243.254zm-11.2-.485h10.946l-.523-10.97h-9.9l-.522 10.97z"/><path d="M10.484 5.515a.243.243 0 01-.243-.242v-2.41A2.381 2.381 0 007.863.485a2.381 2.381 0 00-2.378 2.378v2.41a.243.243 0 01-.485 0v-2.41A2.866 2.866 0 017.863 0a2.866 2.866 0 012.863 2.863v2.41a.242.242 0 01-.242.242z"/></g></svg>