<svg width="100" height="60" xmlns="http://www.w3.org/2000/svg"><title>AmericanExpress</title><g fill="none" fill-rule="evenodd"><rect fill="#FFF" width="100" height="60" rx="4"/><path d="M91.289 35.063h-4.24c-.423 0-.704.016-.941.174-.246.156-.34.388-.34.694 0 .364.207.611.509.718.245.085.509.11.896.11l1.26.033c1.273.03 2.122.248 2.64.776.094.073.151.156.216.239v-2.744zm0 6.357c-.565.819-1.666 1.234-3.157 1.234H83.64v-2.068h4.474c.444 0 .754-.058.941-.239a.844.844 0 00.275-.629c0-.28-.113-.504-.284-.637-.169-.148-.414-.214-.82-.214-2.184-.074-4.909.066-4.909-2.985 0-1.399.897-2.871 3.338-2.871h4.634v-1.919h-4.306c-1.299 0-2.243.309-2.91.788v-.788h-6.369c-1.018 0-2.213.25-2.779.788v-.788H63.554v.788c-.905-.647-2.432-.788-3.137-.788h-7.5v.788c-.716-.687-2.309-.788-3.28-.788h-8.394l-1.92 2.06-1.8-2.06h-12.54v13.456h12.304l1.98-2.092 1.864 2.092 7.584.006V41.39h.746c1.006.016 2.193-.025 3.24-.473v3.631h6.255V41.04h.302c.385 0 .423.016.423.397v3.11h19.003c1.207 0 2.468-.306 3.166-.861v.861h6.028c1.254 0 2.479-.174 3.41-.62V41.42zm-9.28-3.852c.454.464.696 1.05.696 2.043 0 2.074-1.308 3.043-3.654 3.043h-4.53v-2.068h4.512c.441 0 .754-.058.95-.239a.851.851 0 00.275-.629.824.824 0 00-.284-.637c-.178-.148-.423-.214-.828-.214-2.176-.074-4.9.066-4.9-2.985 0-1.399.887-2.871 3.326-2.871h4.663v2.052h-4.267c-.423 0-.698.016-.932.175-.255.156-.35.387-.35.693a.74.74 0 00.51.719c.245.084.509.109.905.109l1.252.033c1.263.03 2.13.247 2.657.776zm-20.99-.596c-.311.183-.696.199-1.149.199h-2.826v-2.166h2.865c.414 0 .828.009 1.11.174.301.157.482.455.482.868 0 .412-.18.745-.482.925zm1.405 1.2c.518.19.94.53 1.14.81.328.47.375.91.385 1.76v1.912h-2.336v-1.207c0-.58.057-1.439-.376-1.887-.34-.346-.858-.428-1.706-.428h-2.486v3.522h-2.338V33.01h5.37c1.179 0 2.036.051 2.8.455.734.44 1.196 1.041 1.196 2.141 0 1.54-1.037 2.325-1.65 2.565zm2.938-5.161h7.764v1.994H67.68v1.753h5.314v1.968H67.68v1.918l5.447.009v2h-7.764v-9.642zm-15.694 4.45H46.66v-2.456h3.034c.84 0 1.422.34 1.422 1.183 0 .834-.556 1.273-1.45 1.273zm-5.324 4.316l-3.571-3.928 3.571-3.803v7.73zm-9.223-1.133h-5.72v-1.918h5.108v-1.968h-5.107v-1.753h5.832l2.544 2.81-2.657 2.83zm18.494-4.456c0 2.678-2.018 3.231-4.051 3.231h-2.903v3.235H42.14l-2.864-3.192-2.977 3.192h-9.215V33.01h9.357l2.862 3.16 2.958-3.16h7.434c1.846 0 3.92.506 3.92 3.177zm-37.629-14.29l-1.592-3.843-1.583 3.843h3.175zm35.075-1.53c-.32.192-.697.198-1.15.198h-2.826v-2.141h2.864c.405 0 .828.018 1.103.174.302.14.489.44.489.852 0 .422-.178.76-.48.917zm20.16 1.53l-1.61-3.843-1.6 3.843h3.21zm-37.58 4.16h-2.384l-.009-7.55-3.373 7.55h-2.042l-3.382-7.557v7.557h-4.732l-.893-2.15h-4.844l-.903 2.15H8.553l4.165-9.64h3.457l3.956 9.127v-9.128h3.797l3.044 6.54 2.797-6.54h3.873v9.641zm9.506 0h-7.771v-9.64h7.77v2.007h-5.444v1.738h5.314v1.976h-5.314v1.925h5.445v1.994zm10.956-7.044c0 1.537-1.035 2.331-1.639 2.57.51.191.944.53 1.15.811.33.48.386.908.386 1.77v1.893h-2.346l-.01-1.216c0-.58.057-1.414-.366-1.878-.34-.339-.858-.412-1.696-.412h-2.497v3.506h-2.326v-9.64h5.35c1.19 0 2.065.03 2.817.461.736.43 1.177 1.06 1.177 2.135zm3.723 7.044h-2.374v-9.64h2.374v9.64zm27.537 0h-3.297l-4.409-7.236v7.236h-4.738l-.905-2.15h-4.832l-.878 2.15h-2.722c-1.131 0-2.563-.248-3.374-1.066-.817-.819-1.242-1.928-1.242-3.68 0-1.43.254-2.738 1.254-3.77.752-.77 1.93-1.125 3.532-1.125h2.252v2.066H63.8c-.85 0-1.329.125-1.79.571-.397.406-.67 1.174-.67 2.184 0 1.033.208 1.778.64 2.264.359.382 1.01.497 1.622.497h1.045l3.278-7.581h3.486l3.938 9.118v-9.118h3.542l4.09 6.714v-6.714h2.382v9.64zM8.526 27.952H12.5l.896-2.142h2.007l.894 2.142h7.82v-1.637l.698 1.644h4.06l.698-1.669v1.662h19.435l-.01-3.515h.377c.263.009.34.033.34.463v3.052h10.052v-.819c.81.43 2.071.819 3.73.819h4.23l.905-2.142h2.006l.885 2.142h8.15v-2.034l1.233 2.034h6.53V14.506h-6.462v1.588l-.905-1.588h-6.632v1.588l-.83-1.588h-8.958c-1.5 0-2.818.207-3.882.785v-.785h-6.182v.785c-.677-.596-1.6-.785-2.627-.785H28.375l-1.515 3.473-1.557-3.473H18.19v1.588l-.781-1.588h-6.066l-2.818 6.393v7.053z" fill="#0072CE"/></g></svg>