<svg width="100" height="60" xmlns="http://www.w3.org/2000/svg"><title>dankort</title><g fill="none" fill-rule="evenodd"><rect fill="#FFF" width="100" height="60" rx="4"/><path d="M73.323 12.04c2.684.236 5.804-.512 8.013.905 2.212 1.26 3.751 3.583 3.633 6.259l-15.91.04c-.266.107-.434.51-.75.747-2.21 2.717-4.42 5.472-6.71 8.109.275-2.913.403-5.915.798-8.828l-13.155-.03a255.303 255.303 0 01-.395 7.677c-.592-2.835-2.922-5.944-5.882-6.77-1.382-.434-2.684-.749-4.145-.827l-22.74.079c0 .04-.08.04-.08 0-.039-2.52 1.185-4.803 3.396-6.18.947-.551 1.973-1.055 3.119-1.134l50.808-.047zm-4.935 26.965c.256.865.997.669 1.698.669H84.93c.119 2.755-1.58 5.51-4.186 6.613-.986.433-2.091.63-3.237.63h-24.91l-30.162.079c-2.487-.198-4.974-2.086-5.922-4.449A7.944 7.944 0 0116 39.792l22.266-.118c3.356-.394 6.593-1.85 8.567-4.96.71-1.142 1.263-2.323 1.737-3.543-.237 2.834-.356 5.747-.671 8.62 4.223-.04 13.067 0 13.067 0 .078-3.542.276-7.243.513-10.746l6.909 9.96zM36.727 28.848c.04.945-.593 1.693-1.303 2.283-1.816 1.378-4.48.72-6.83.827l.434-5.354c2.36.178 6.9-.806 7.699 2.244zm48.242 10.51c0 .04-.04.04 0 .079-3.197-3.464-6.08-7.282-8.883-11.022l.04-.158c2.882-2.991 5.566-6.1 8.764-8.778l.079.04v19.84z" fill="#CC2229"/></g></svg>