<svg xmlns="http://www.w3.org/2000/svg" width="100" height="60"><title>dinersclub</title><path fill="#fff" d="M96 0H4C1.8 0 0 1.8 0 4v52c0 2.2 1.8 4 4 4h92c2.2 0 4-1.8 4-4V4c0-2.2-1.8-4-4-4z"/><path fill="#1a1918" d="M19.3 35c0-1.2-.6-1.1-1.2-1.1v-.3H22c3.5 0 5.4 2.3 5.4 4.7 0 1.3-.8 4.7-5.5 4.7h-3.7v-.3c.8-.1 1.2-.1 1.2-1V35h-.1zm1.3 6.3c0 1 .7 1.2 1.4 1.2 2.9 0 3.9-2.2 3.9-4.2 0-2.5-1.6-4.3-4.2-4.3-.6 0-.8 0-1 .1v7.2h-.1zm7.2 1.2h.2c.4 0 .6 0 .6-.4v-3.6c0-.6-.2-.7-.7-.9v-.2c.6-.2 1.4-.4 1.4-.5.1-.1.2-.1.2-.1.1 0 .1.1.1.2v5.2c0 .4.3.4.7.4h.2v.3h-2.9v-.4h.2zm1.4-7.8c-.3 0-.7-.3-.7-.7 0-.3.3-.6.7-.6.3 0 .7.3.7.6 0 .4-.3.7-.7.7zm2.7 3.8c0-.5-.1-.6-.8-.9v-.3c.6-.2 1.1-.4 1.8-.6 0 0 .1 0 .1.1v.9c.8-.5 1.4-1 2.3-1 1.1 0 1.5.8 1.5 1.9v3.5c0 .4.3.4.7.4h.2v.3h-2.9v-.3h.2c.4 0 .6 0 .6-.4v-3.5c0-.8-.5-1.1-1.2-1.1-.4 0-1.1.3-1.6.6v4c0 .4.3.4.7.4h.2v.3h-2.8v-.3h.2c.4 0 .6 0 .6-.4v-3.6m7.1.7v.8c.1 1.3.9 2.3 2 2.3.7 0 1.3-.4 1.8-.9l.2.2c-.6.8-1.4 1.5-2.5 1.5-2.1 0-2.6-2.1-2.6-2.9 0-2.6 1.8-3.4 2.7-3.4 1.1 0 2.3.7 2.3 2.1v.2l-.1.1h-3.8zm2.4-.4c.3 0 .4-.2.4-.3 0-.7-.4-1.2-1.2-1.2-.8 0-1.4.6-1.5 1.6h2.3v-.1zm1.8 3.7h.4c.4 0 .6 0 .6-.4v-3.8c0-.4-.5-.5-.7-.6v-.2c1-.4 1.5-.8 1.6-.8.1 0 .1 0 .1.2v1.2c.3-.5.9-1.4 1.7-1.4.3 0 .8.2.8.7 0 .4-.3.7-.6.7-.4 0-.4-.3-.9-.3-.2 0-1 .3-1 1.1v3.2c0 .4.3.4.6.4h.8v.3h-3.5v-.3m5.3-1.5c.2.9.7 1.6 1.7 1.6.8 0 1.1-.5 1.1-1 0-1.6-2.9-1.1-2.9-3.2 0-.8.6-1.7 2.1-1.7.4 0 1 .1 1.5.4l.1 1.4h-.3c-.1-.8-.6-1.3-1.5-1.3-.5 0-1 .3-1 .9 0 1.6 3.1 1.1 3.1 3.2 0 .9-.7 1.8-2.3 1.8-.5 0-1.2-.2-1.6-.5l-.1-1.5.1-.1m16-5.1h-.3c-.3-1.6-1.4-2.2-2.9-2.2s-3.8 1-3.8 4.3c0 2.7 1.9 4.7 4 4.7 1.3 0 2.4-.9 2.7-2.3l.3.1-.3 2c-.6.3-2.1.7-3 .7-3.1 0-5.1-2-5.1-5 0-2.8 2.5-4.7 5.1-4.7 1.1 0 2.1.3 3.2.7l.1 1.7m.4 6.6h.3c.4 0 .6 0 .6-.4v-7.5c0-.9-.2-.9-.7-1v-.2c.5-.2 1.1-.4 1.4-.6.1-.1.3-.1.3-.1.1 0 .1.1.1.2v9.3c0 .4.3.4.7.4h.2v.3h-2.9v-.4m8.7-.4c0 .2.1.3.4.3h.5v.3c-.6.1-1.7.3-1.9.4h-.1V42c-.8.7-1.4 1.1-2.4 1.1-.7 0-1.5-.5-1.5-1.6v-3.4c0-.3-.1-.7-.8-.8V37c.5 0 1.6-.1 1.7-.1.1 0 .1.1.1.4v3.5c0 .4 0 1.6 1.2 1.6.5 0 1.1-.3 1.6-.8V38c0-.3-.6-.4-1.1-.5v-.2c1.2-.1 2-.2 2.1-.2.1 0 .1.1.1.2v4.8m2.7-4.4c.5-.5 1.3-1 2-1 1.6 0 2.5 1.4 2.5 2.8 0 1.8-1.3 3.5-3.2 3.5-1 0-1.5-.3-1.9-.5l-.4.3-.3-.1c.1-.8.2-1.6.2-2.4v-5.8c0-.9-.2-.9-.7-1v-.2c.5-.2 1.1-.4 1.4-.6.1-.1.3-.1.3-.1.1 0 .1.1.1.2v4.9zm0 3.7c0 .5.5 1.4 1.4 1.4 1.4 0 2-1.4 2-2.6 0-1.4-1.1-2.7-2.1-2.7-.5 0-.9.3-1.3.6v3.3zm-56.8 4.4H18v.3h.1c.3 0 .5 0 .5.4v3.8c0 .4-.2.4-.5.4H18v.3h2.3v-.3h-.1c-.3 0-.5 0-.5-.4v-3.8c0-.4.2-.4.5-.4h.1v-.3h-1.2zm6.4 0h-1v.3h.2c.2 0 .6.1.6.7v2.7L22 45.8h-1.5v.3h.1c.3 0 .6.2.6.6v3.1c0 .6-.1.9-.6.9h-.1v.3h1.9v-.3h-.2c-.5 0-.6-.2-.7-.8V47l3.7 4.1h.3V47c0-.9.3-.9.6-.9h.1v-.3h-.7zm6-.3c0 .2-.2.2-.4.2h-3.8c-.2 0-.3 0-.4-.2h-.2v.6c0 .2-.1.4-.1.6h.3c.1-.5.1-.6.6-.6h1.2V50c0 .6-.2.6-.6.6h-.2v.3h2.4v-.3h-.2c-.3 0-.6 0-.6-.6v-3.9h1.2c.5 0 .5.4.5.7l.3-.1v-.6c0-.2.1-.4.1-.6h-.1zm4.4 4.2c-.2.8-.6.9-1.5.9-.5 0-.9 0-.9-.4v-1.7h.8c.5 0 .5.2.5.7l.3-.1v-1.7h-.3c0 .4-.1.6-.5.6h-.8v-1.8h1c.8 0 .8.4.9.8l.3-.1v-1.1H32v.3c.3 0 .5 0 .5.4v3.8c0 .4-.2.4-.5.4h-.1v.3h3.9c.1-.4.2-.8.2-1.2l-.1-.1zm4.8.5l-1.2-1.8c.6-.2 1-.6 1-1.3 0-1.1-.8-1.3-1.8-1.3h-2.3v.3h.2c.2 0 .5 0 .5.5v3.7c0 .2-.2.4-.5.4h-.2v.3h2.4v-.3h-.2c-.3 0-.6 0-.6-.6v-1.5h.4l1.5 2.4h1.4v-.3c-.2-.1-.4-.2-.6-.5zm-1.2-3.1c0 .8-.4 1.1-1.1 1.1H38v-2.1h.4c.7 0 1 .4 1.1 1zm8-1.3h-1.9v.3h.2c.2 0 .6.1.6.7v2.7l-3.2-3.6h-1.5v.3h.1c.3 0 .6.2.6.6v3.1c0 .6-.1.9-.6.9h-.1v.3h1.9v-.3h-.2c-.6 0-.6-.2-.7-.8v-2.9l3.7 4.1h.3V47c0-.9.3-.9.6-.9h.1v-.3zm4.6 4.6c-.1-.2-.2-.5-.3-.7l-1.3-3.8c0-.1 0-.1-.1-.2h-.2c-.1.1-.4.2-.7.3-.1.3-.2.7-.3.9L48 50.3c-.1.3-.3.5-.6.5h-.1v.3H49v-.3h-.1c-.2 0-.5 0-.5-.2 0-.1.1-.3.2-.6l.2-.7h1.6l.3.8c.1.2.1.4.1.5 0 .1-.3.2-.4.2h-.1v.3h2.1v-.3h-.1c0-.1-.1-.2-.2-.4zm-1.7-1.7h-1.3l.6-2 .7 2zm6.5-3.2c0 .2-.2.2-.4.2h-3.8c-.2 0-.3 0-.4-.2h-.2v.6c0 .2-.1.4-.1.6h.3c.1-.5.1-.6.6-.6h1.2V50c0 .6-.2.6-.6.6h-.2v.3h2.4v-.3h-.2c-.3 0-.6 0-.6-.6v-3.9h1.2c.5 0 .5.4.5.7l.3-.1v-.6c0-.2 0-.4.1-.6h-.1zm1.5.3h-1.1v.3h.1c.3 0 .5 0 .5.4v3.8c0 .4-.2.4-.5.4h-.1v.3h2.3v-.3h-.1c-.3 0-.5 0-.5-.4v-3.8c0-.4.2-.4.5-.4h.1v-.3h-1.2zm4.1-.1c-1.5 0-2.7 1.2-2.7 2.7 0 1.6 1.2 2.6 2.8 2.7 1.6 0 2.8-1.1 2.8-2.8-.1-1.7-1.4-2.6-2.9-2.6zm1.7 2.7c0 1.1-.2 2.3-1.6 2.3-1.2 0-1.8-1.2-1.8-2.5 0-1 .4-2.1 1.6-2.1 1.3 0 1.8 1.2 1.8 2.3zm7.2-2.6h-1.9v.3h.2c.2 0 .6.1.6.7v2.7L67 45.8h-1.5v.3h.1c.3 0 .6.2.6.6v3.1c0 .6-.1.9-.6.9h-.1v.3h1.9v-.3h-.2c-.5 0-.6-.2-.7-.8V47l3.7 4.1h.3V47c0-.9.3-.9.6-.9h.1v-.3zm4.5 4.6c-.1-.2-.2-.5-.3-.7l-1.3-3.8c0-.1 0-.1-.1-.2H74c-.1.1-.4.2-.7.3-.1.3-.2.7-.3.9l-1 3.3c-.1.3-.3.5-.6.5h-.1v.3H73v-.3h-.1c-.2 0-.5 0-.5-.2 0-.1.1-.3.2-.6l.2-.7h1.6l.3.8c.1.2.1.4.1.5 0 .1-.3.2-.4.2h-.1v.3h2.1v-.3h-.1c-.2 0-.3-.1-.4-.3zm-1.7-1.7h-1.3l.6-2 .7 2zm6.3 1c0 .2-.1.4-.2.5-.1.2-.4.3-.7.4h-1c-.2 0-.4-.1-.4-.4v-3.8c0-.4.2-.4.5-.4h.3v-.3h-2.3v.3h.1c.3 0 .5 0 .5.4v3.8c0 .4-.3.5-.5.5h-.1v.3h3.8l.3-1.2-.3-.1zm.2-4.1c-.4 0-.8.3-.8.8 0 .4.3.8.8.8.4 0 .8-.3.8-.8s-.4-.8-.8-.8zm0 1.4c-.3 0-.6-.3-.6-.6s.3-.6.6-.6.6.3.6.6-.3.6-.6.6z"/><path fill="#1a1918" d="M80.9 46.6l-.1-.2c.1 0 .2-.1.2-.2s-.1-.2-.3-.2h-.4c.1 0 .1 0 .1.1v.6c0 .1 0 .1-.1.1h.4c-.1 0-.1 0-.1-.1v-.3h.1c.1.2.2.4.3.4h.1l-.2-.2zm-.2-.2l-.1-.4h.1c.1 0 .2 0 .2.2-.1.1-.1.2-.2.2z"/><path fill="#fff" d="M35.1 20c0-6.8 5.5-12.4 12.4-12.4 6.8 0 12.4 5.5 12.4 12.4s-5.5 12.4-12.4 12.4S35.1 26.9 35.1 20"/><path fill="#0069aa" d="M54.9 19.8c0-3.2-2-5.9-4.8-6.9v13.9c2.8-1.1 4.8-3.8 4.8-7zm-10.1 6.9V12.9C42 14 40 16.7 40 19.8c.1 3.2 2.1 5.8 4.8 6.9zm2.7-18.6c-6.5 0-11.7 5.3-11.7 11.7 0 6.5 5.2 11.7 11.7 11.7 6.5 0 11.7-5.2 11.7-11.7 0-6.5-5.2-11.7-11.7-11.7zm0 24.5c-7.1 0-12.9-5.7-12.9-12.7C34.5 12.3 40.4 7 47.5 7h3.3c7 0 13.4 5.3 13.4 12.9 0 7-6.4 12.7-13.4 12.7h-3.3z"/></svg>