<svg width="100" height="60" xmlns="http://www.w3.org/2000/svg"><title>interpay</title><g fill="none" fill-rule="evenodd"><rect fill="#FFF" width="100" height="60" rx="4"/><path fill="#007695" d="M15.267 16L13 34.163h3.4l2.08-16.758zm7.02 18.162l.845-6.878c.317-2.543 1.33-3.743 2.155-3.743.595 0 .88.457.922 1.1a6.82 6.82 0 01-.06 1.398l-1.003 8.123h3.401l.986-7.97c.112-.905.18-1.724.131-2.484-.106-1.64-.915-2.958-2.813-2.958-1.434 0-2.65.7-3.51 1.972h-.054l.036-1.75h-2.92c-.11 1.25-.216 2.74-.414 4.299l-1.103 8.891h3.401zm10.592-15.528l-.295 2.338h-1.56l-.288 2.436h1.535l-.756 6.014c-.095.7-.138 1.413-.098 2.029.115 1.753 1.187 2.882 3.225 2.882.651 0 1.438-.018 2.02-.212l.24-2.567c-.328.053-.665.048-.92.054-.628 0-1.052-.307-1.106-1.107a7.697 7.697 0 01.048-1.163l.74-5.93h2.515l.295-2.436h-2.495l.43-3.437-3.53 1.1zm12.326 6.044c0 1.357-1.537 2.034-3.466 1.963.37-1.85 1.325-3.162 2.446-3.162.681 0 1.02.44 1.02 1.172v.027zm1.295 6.313c-.846.397-1.667.678-2.836.678-.957 0-1.598-.399-1.935-.965-.3-.458-.34-1.138-.325-1.515 3.91.114 6.913-1.224 6.913-4.809-.02-1.862-1.182-3.63-3.689-3.63-4.37 0-6.616 4.736-6.616 8.585 0 2.86 1.326 4.998 4.712 4.998 1.544 0 2.77-.24 4.003-.76L46.5 30.99zm5.485 3.171l.727-5.993c.272-2.255 1.514-3.986 3.055-3.986.178 0 .436.02.552.041l.426-3.413a2.347 2.347 0 00-.558-.061c-1.164 0-2.321.792-3.168 2.468h-.096a43.03 43.03 0 00.052-2.246H50.06c-.092 1.225-.186 2.79-.376 4.334l-1.102 8.856h3.403z"/><path d="M72.395 30.895c-.32 2.472-1.146 3.95-2.07 3.95-.859 0-1.113-.833-1.177-1.998-.114-1.978.844-6.283 3.078-6.283.198 0 .455.028.724.089l-.555 4.242zm3.011 6.538c-.104-1.456-.033-4.006.179-5.55l.979-7.31c-.862-.306-2.223-.552-3.565-.552-5.715 0-7.416 5.596-7.152 9.63.154 2.351 1.255 4.004 3.211 4.004 1.082 0 2.338-.678 3.28-2.471h.093c.008.809.008 1.532.028 2.249h2.947zm1.949-13.213l2.295 12.404a.996.996 0 01-.046.58c-.276.741-.56 1.17-1.16 1.906-.445.546-1.27 1.14-2.49 1.792l3.533 1.61c1.823-1.844 3.152-4.198 4.497-7.99l3.652-10.302h-3.434l-1.635 6.07c-.363 1.41-.573 2.292-.776 3.343h-.054c-.053-.96-.15-1.87-.264-3.124l-.56-6.29h-3.558zm-19.028 5.768c.207-1.686 1.077-3.076 1.985-3.076.915 0 1.1.924 1.159 1.824.133 2.028-.637 6.376-2.687 6.376-.426 0-.732-.144-1.033-.342l.576-4.782zm.525-5.784c1.017-.232 1.752-.19 2.871-.207 2.35-.034 3.057 2.115 3.192 4.192.288 4.415-1.802 9.466-5.697 9.466-.635 0-1.316-.117-1.708-.335h-.073l-.851 8.644-3.503-1.597 1.92-14.289c.302-2.242 1.514-3.987 3.055-3.987.178 0 .436.02.554.041l.24-1.928z" fill="#221F20"/></g></svg>