<svg xmlns="http://www.w3.org/2000/svg" width="100" height="60"><title>jcb</title><path fill="#fff" d="M4 0h92c2.2 0 4 1.8 4 4v52c0 2.2-1.8 4-4 4H4c-2.2 0-4-1.8-4-4V4c0-2.2 1.8-4 4-4z"/><path fill="#54b230" d="M63.2 34.3v-3.5c1.3 0 2.6-.1 3.9 0 1 .1 1.8.7 1.8 1.8s-.8 1.7-1.8 1.8c-1.3 0-2.6-.1-3.9-.1zm0-5.5v-3.2c1.2 0 2.4-.1 3.6 0 .9.1 1.6.7 1.6 1.6 0 .9-.7 1.5-1.6 1.6-1.2.1-2.4 0-3.6 0zM59.9 50V36.4h10.6c1.4-.1 3-.6 3.7-2 1.2-2.6-1.3-4.4-3.5-4.5v-.1c1.1-.2 2.2-.7 2.7-1.7 1-1.8-.1-3.6-1.9-4.2-.8-.3-1.6-.3-2.5-.3h-9.1l-.1-6c0-1.3.2-2.6.7-3.7.9-1.9 2.7-3.4 4.8-3.8 1.4-.3 2.8-.1 4.2-.1h6.9v31.2c0 1 .1 2-.1 3-.3 2.7-2.4 5-5.1 5.6-1.4.3-2.9.2-4.3.2h-7z"/><path fill="#006cb9" d="M39.5 10v31.3c0 1 .1 2.1-.1 3.1-.4 2.6-2.4 4.8-5 5.4-.7.2-2.2.2-2.2.2H23V35.9c3.5.9 7.8 1.4 11.3.3.9-.3 1.7-.7 2.3-1.3 1.6-1.4 1.4-3.6 1.4-5.5v-5.8h-5.8s.1 5.9.1 7.1c0 1.6-.5 3.1-2.1 3.7-1.6.6-3.5.1-5.1-.4-.5-.2-1-.3-1.4-.5l-.8-.4v-16c0-3 1.5-5.7 4.4-6.8.8-.3 1.7-.4 2.5-.4h7.5c.8.1 1.5.1 2.2.1z"/><path fill="#e10238" d="M41.6 25.3l-.1.1v-7.1c0-2.2.2-4.4 1.7-6.1 1.5-1.7 3.5-2.2 5.7-2.2h9v33c0 2.9-1.7 5.6-4.5 6.6-1 .3-2 .4-3.1.4h-8.9V34.5c1.4 1.2 3.3 1.8 5.2 2 2.3.3 4.6.2 6.9-.2.6-.1 1.3-.2 1.9-.4.7.1.6.1.6-.5v-2.2c-2.4 1.2-5.4 2.1-8 1.1-3.4-1.3-3.8-6.6-.6-8.3 1.6-.8 3.6-.7 5.3-.3 1.2.3 2.3.7 3.3 1.2v-2.7s-1.5-.4-2-.5c-1.1-.2-2.2-.3-3.4-.4-2.2-.1-4.4 0-6.5.7-.9.2-1.8.7-2.5 1.3z"/></svg>