<svg xmlns="http://www.w3.org/2000/svg" width="100" height="60"><title>uatp</title><path fill="#fff" d="M4 0h92c2.2 0 4 1.8 4 4v52c0 2.2-1.8 4-4 4H4c-2.2 0-4-1.8-4-4V4c0-2.2 1.8-4 4-4z"/><path fill="#fefefe" d="M87.4 21.1v.3h.6V23h.4v-1.6h.5v-.3h-1.5zm3.6 0h-.3c-.2 0-.3 0-.4.3-.1.3-.2.7-.3 1-.1-.5-.2-.9-.4-1.3H89V23h.4v-1.3c.1.3.2.7.3 1 .1.3.2.4.4.3.1-.4.2-.9.4-1.3V23h.5v-1.9z"/><path fill="#052c19" d="M27 20.8h-5.1v16.4c-.7.1-1.4.2-2.1.2h-1.4c-1.6 0-2.7-.9-3.1-2.5-.1-.6-.2-1.3-.2-2V20.7H10V35c.1.3.1.7.2 1 .4 1.9 1.3 3.4 3 4.3 1.5.9 3.1 1.2 4.8 1.3 1.6.1 3.2 0 4.7-.3 1.4-.2 2.7-.5 4.1-.7.2 0 .3-.1.3-.4V20.8zm55.9 7.7c-.1 1.6-1.2 2.4-2.7 2.6-.7.1-1.4 0-2.2 0h-.1v-5.8c.2 0 .4 0 .5-.1.8-.1 1.6-.1 2.3.1 1.6.4 2.3 1.6 2.2 3.2m5-2.1c-.4-2.3-1.6-3.9-3.6-4.9-1.4-.7-3-.9-4.5-1-1.7 0-3.4.1-5.1.3-.6.1-1.2.2-1.7.2v20.5h5.1v-6h2.2c1.2 0 2.4-.2 3.5-.7 1.8-.7 3.2-1.9 3.9-3.8.4-1.5.4-3.1.2-4.6m-20.3-5.6H51.3v4.6h6v16.1h5.1V25.4h6v-4.6h-.8M46 29l.2-.2-3-7.8-.3-.2h-5.6l-.3.2-7.8 20.4h5.2l.2-.2L40.1 26l1.8 5.3L46 29m-2.8 5.8l1.2 3.3 1.2 3.3H51c-1.1-2.9-2.2-5.8-3.3-8.6-1.5.7-3 1.4-4.5 2M91 21.1V23h-.4v-1.3c-.1.4-.2.9-.4 1.3-.3.1-.4 0-.4-.3-.1-.3-.2-.7-.3-1V23h-.4v-1.9h.6c.1.4.2.8.4 1.3.1-.4.2-.7.3-1 0-.2.2-.3.4-.3h.2"/><path fill="#4db848" d="M82.5 19.3c-3.5-1-7.1-1.3-10.8-1.3-1.8 0-3.7.3-5.5.6-1.3.2-2.5.5-3.7.9-.3.1-3.1 1-3.4 1.3h9.4s.1-.1.4-.1c.5-.1 1-.3 1.5-.4 4.1-1 8.3-1.3 12.4-.6 0-.3 0-.3-.3-.4m-31.2 6.1c-.1.1-.2.1-.3.2-2.4 1.6-4.7 3.2-7.2 4.6-1 .6-2.1 1.2-3.1 1.8-.9.4-1.7.9-2.6 1.2-.2.1-.7.3-.7.3s-.1.3-.2.7c-.2.5-.3 1-.5 1.5 1.6-.4 3.1-.8 4.7-1.3 3.4-1.1 9-3.8 11.3-5.2 1.1-.7 2.3-1.3 3.4-2 .3-.2 1.3-.8 1.3-.8v-.9c-2-.1-4.1-.1-6.1-.1M27.6 36.9h.3c1-.1 2.1-.2 3.1-.3.1-.3.3-.7.4-1-1.3.3-2.5.6-3.8.9v.4z"/><path fill="#052c19" d="M87.4 21.1h1.5v.3h-.6V23H88v-1.5h-.6z"/><path fill="#fdfdfd" d="M77.9 25.2c.2 0 .4 0 .5-.1.8-.1 1.6-.1 2.3.1 1.6.4 2.3 1.6 2.1 3.2-.1 1.6-1.2 2.4-2.7 2.6-.7.1-1.4 0-2.2 0h-.1v-5.8z"/></svg>