<svg width="100" height="60" xmlns="http://www.w3.org/2000/svg"><title>Visa</title><g fill="none" fill-rule="evenodd"><rect fill="#FFF" width="100" height="60" rx="4"/><path fill="#26337A" d="M37.718 41.456l3.68-22.889h5.88L43.6 41.457h-5.882m27.216-22.328c-1.163-.46-2.992-.96-5.27-.96-5.815 0-9.909 3.106-9.943 7.554-.037 3.29 2.921 5.124 5.152 6.218 2.291 1.12 3.061 1.838 3.052 2.84-.015 1.533-1.829 2.236-3.52 2.236-2.355 0-3.606-.346-5.54-1.2l-.757-.365-.822 5.124c1.371.637 3.914 1.19 6.552 1.22 6.18 0 10.196-3.07 10.243-7.819.021-2.609-1.546-4.586-4.94-6.219-2.056-1.061-3.317-1.764-3.303-2.839.002-.95 1.066-1.97 3.37-1.97 1.924-.03 3.316.415 4.402.88l.528.262.796-4.962m7.832 14.212c.488-1.316 2.343-6.398 2.343-6.398-.034.06.485-1.326.782-2.183l.397 1.974s1.129 5.463 1.361 6.607h-4.883zm7.257-14.75h-4.546c-1.41 0-2.465.404-3.083 1.897L63.66 41.464h6.178s1.008-2.822 1.237-3.44c.674 0 6.676.01 7.533.01.177.8.716 3.43.716 3.43h5.46l-4.76-22.873zm-47.24-.005l-5.757 15.605-.616-3.172c-1.073-3.655-4.413-7.616-8.148-9.6l5.267 20.017 6.224-.004 9.263-22.846h-6.233"/><path d="M21.682 18.57h-9.485l-.078.475c7.38 1.896 12.264 6.473 14.29 11.974l-2.06-10.517c-.356-1.45-1.39-1.88-2.667-1.931" fill="#ED982D"/></g></svg>