<svg width="168" height="99" xmlns="http://www.w3.org/2000/svg" xmlns:xlink="http://www.w3.org/1999/xlink"><defs><path d="M61.464 88.732l4 6.928a2 2 0 11-3.464 2l-4-6.928a2 2 0 013.464-2zm9.464 0l4 6.928a2 2 0 11-3.464 2l-4-6.928a2 2 0 013.464-2zm9.464 0l4 6.928a2 2 0 11-3.464 2l-4-6.928a2 2 0 013.464-2zm9.34 0l4 6.928a2 2 0 11-3.464 2l-4-6.928a2 2 0 113.464-2zm9 0l4 6.928a2 2 0 01-3.464 2l-4-6.928a2 2 0 113.464-2zM80 0c18.807 0 34.462 13.436 37.975 31.332C131.408 32.267 142 43.367 142 57.063c0 14.175-11.343 25.705-25.406 25.935l-.427.003H49c-17.102 0-31-13.954-31-31.125 0-16.03 12.09-29.258 27.642-30.918C52.1 8.508 65.068 0 80 0zm0 10.375c-12.88 0-23.687 8.58-27.22 20.365l-.112.385H49c-11.418 0-20.667 9.286-20.667 20.75 0 11.347 9.06 20.56 20.318 20.747l.349.003h67.167c8.576 0 15.5-6.951 15.5-15.563 0-8.504-6.754-15.39-15.183-15.559l-.317-.003h-7.75v-2.594c0-15.77-12.71-28.531-28.417-28.531zM9.5 63a4.5 4.5 0 110 9 4.5 4.5 0 010-9zm143.273.409l1.818 1.818-2.272 2.273 2.272 2.273-1.818 1.818-2.273-2.272-2.273 2.272-1.818-1.818 2.272-2.273-2.272-2.273 1.818-1.818 2.273 2.272 2.273-2.272zM9.5 65a2.5 2.5 0 100 5 2.5 2.5 0 000-5zM78 49c7.628 0 13.83 6.1 13.997 13.687L92 63h-6a8 8 0 10-16 0h-6c0-7.732 6.268-14 14-14zm11-16a5 5 0 110 10 5 5 0 010-10zm-23 0a5 5 0 110 10 5 5 0 010-10zm99.773 1.409l1.818 1.818-2.272 2.273 2.272 2.273-1.818 1.818-2.273-2.272-2.273 2.272-1.818-1.818 2.272-2.273-2.272-2.273 1.818-1.818 2.273 2.272 2.273-2.272zM4.5 25a4.5 4.5 0 110 9 4.5 4.5 0 010-9zm0 2a2.5 2.5 0 100 5 2.5 2.5 0 000-5zm131-11a4.5 4.5 0 110 9 4.5 4.5 0 010-9zm0 2a2.5 2.5 0 100 5 2.5 2.5 0 000-5zM32.773.409l1.818 1.818L32.32 4.5l2.272 2.273-1.818 1.818L30.5 6.32l-2.273 2.272-1.818-1.818L28.68 4.5l-2.272-2.273L28.227.41 30.5 2.68 32.773.409z" id="a"/></defs><use fill="currentColor" xlink:href="#a" fill-rule="evenodd"/></svg>