<svg width="16" height="16" xmlns="http://www.w3.org/2000/svg"><title>[icon]/location/dark</title><g fill="currentColor" fill-rule="evenodd"><path d="M7.984 6.86c.996 0 1.806-.81 1.806-1.806s-.81-1.807-1.806-1.807-1.806.811-1.806 1.807c0 .996.81 1.806 1.806 1.806zm0-3.096a1.291 1.291 0 010 2.58 1.291 1.291 0 010-2.58z"/><path d="M12.959 9.7h-1.848l.786-1.136c1.485-1.98 1.27-5.234-.46-6.963A4.916 4.916 0 007.939.15 4.917 4.917 0 004.44 1.6c-1.73 1.73-1.945 4.983-.466 6.955l.792 1.143h-1.94L0 15.635h15.785L12.96 9.699zM4.392 8.253c-1.341-1.79-1.15-4.728.412-6.289A4.404 4.404 0 017.94.667c1.184 0 2.297.461 3.134 1.298 1.561 1.561 1.754 4.5.406 6.297l-3.54 5.113-2.546-3.676-1-1.445zm-1.24 1.961h1.97l2.816 4.067 2.816-4.067h1.879l2.335 4.903H.818l2.335-4.903z"/></g></svg>