<svg width="16" height="16" viewBox="0 0 16 16" xmlns="http://www.w3.org/2000/svg"><path d="M8 12c.527 0 .993.201 1.396.604.403.403.604.869.604 1.396 0 .527-.201.993-.604 1.396C8.993 15.799 8.527 16 8 16c-.527 0-.993-.201-1.396-.604C6.201 14.993 6 14.527 6 14c0-.527.201-.993.604-1.396C7.007 12.201 7.473 12 8 12zm0-6c.527 0 .993.201 1.396.604.403.403.604.869.604 1.396 0 .527-.201.993-.604 1.396C8.993 9.799 8.527 10 8 10c-.527 0-.993-.201-1.396-.604C6.201 8.993 6 8.527 6 8c0-.527.201-.993.604-1.396C7.007 6.201 7.473 6 8 6zm0-2c-.527 0-.993-.201-1.396-.604C6.201 2.993 6 2.527 6 2c0-.527.201-.993.604-1.396C7.007.201 7.473 0 8 0c.527 0 .993.201 1.396.604.403.403.604.869.604 1.396 0 .527-.201.993-.604 1.396C8.993 3.799 8.527 4 8 4z" fill="currentColor" fill-rule="evenodd"/></svg>