<svg width="16" height="16" xmlns="http://www.w3.org/2000/svg"><title>[icon]/search/dark</title><path d="M11.276 10.01a6.224 6.224 0 001.255-3.744A6.272 6.272 0 006.266 0 6.272 6.272 0 000 6.266a6.272 6.272 0 006.266 6.265c1.404 0 2.698-.47 3.745-1.255L14.734 16 16 14.734l-4.724-4.723zM6.266.598a5.675 5.675 0 015.668 5.669 5.675 5.675 0 01-5.668 5.668 5.675 5.675 0 01-5.67-5.668 5.675 5.675 0 015.67-5.67zm4.502 10.015c.044-.045.091-.087.133-.133l4.255 4.255-.422.423L10.48 10.9c.046-.042.088-.09.133-.132a7.69 7.69 0 00.156-.157z" fill="currentColor" fill-rule="evenodd"/></svg>