<svg width="16" height="16" xmlns="http://www.w3.org/2000/svg"><title>[icon]/shipping/dark</title><g fill="currentColor" fill-rule="evenodd"><path d="M12.615 1.373C12.503 1.198 12.142 1 11.93 1H4.278c-.215 0-.609.21-.73.388L1 5.132v9.251c0 .043.027.075.055.08a45.132 45.132 0 0013.886 0c.032-.005.059-.037.059-.08V5.118l-2.385-3.745zM15.983 4.8c0 .05.017.117.017.167v9.416c0 .534-.383.984-.9 1.067a46.147 46.147 0 01-14.2 0 1.076 1.076 0 01-.9-1.067V4.967c0-.05 0-.117.017-.167L2.72.825C3.026.377 3.728 0 4.278 0h7.652c.556 0 1.234.374 1.528.836L15.983 4.8z"/><path d="M7.171 0L6 5.392V9.65h4V5.38L8.91 0z"/><path d="M0 5h16v1H0z"/></g></svg>