<svg width="16" height="16" viewBox="0 0 16 16" xmlns="http://www.w3.org/2000/svg"><path d="M14.11 4.055a3.254 3.254 0 001.445-1.82 6.59 6.59 0 01-2.07.796A3.396 3.396 0 0011.07 2a3.268 3.268 0 00-3.273 3.273c0 .258.016.524.07.758-2.719-.148-5.125-1.383-6.758-3.367-.273.484-.445.984-.445 1.594 0 1.125.578 2.125 1.469 2.719A3.29 3.29 0 01.648 6.57v.04a3.28 3.28 0 002.633 3.218 3.282 3.282 0 01-.875.117c-.203 0-.406-.023-.61-.062.407 1.297 1.634 2.265 3.056 2.281-1.11.89-2.54 1.555-4.07 1.555-.266 0-.524-.016-.782-.055C1.445 14.594 3.188 15 5.04 15c6.03 0 9.327-5 9.327-9.336v-.43A6.648 6.648 0 0016 3.531a6.402 6.402 0 01-1.89.524z" fill="currentColor" fill-rule="evenodd"/></svg>