<svg width="16" height="16" viewBox="0 0 16 16" xmlns="http://www.w3.org/2000/svg"><g fill="currentColor" fill-rule="evenodd"><path d="M11.353 8.962H9.182c-.594 0-1.078.506-1.078 1.129v1.744c0 .623.484 1.13 1.078 1.13h2.171c.595 0 1.078-.507 1.078-1.13v-1.744c0-.623-.483-1.13-1.078-1.13zm.294 2.873a.302.302 0 01-.294.308H9.182a.302.302 0 01-.294-.308v-1.744c0-.171.134-.308.294-.308h2.171c.164 0 .294.14.294.308v1.744z"/><path d="M15.98 5.79a.395.395 0 00-.052-.201L13.551 1.21a.391.391 0 00-.34-.208H2.766a.385.385 0 00-.34.208L.052 5.59A.43.43 0 000 5.791c0 .982.565 1.823 1.371 2.196v7.221c0 .226.177.41.392.41h12.451a.403.403 0 00.392-.41v-7.17c0-.017 0-.03-.004-.044.81-.373 1.378-1.218 1.378-2.203zM2.994 1.827h9.989L14.84 5.25H1.14l1.854-3.424zm8.38 4.242c-.125.739-.742 1.3-1.483 1.3-.742 0-1.359-.561-1.483-1.3h2.965zm-3.798 0c-.125.739-.742 1.3-1.483 1.3-.741 0-1.358-.561-1.486-1.3h2.969zm-6.766 0h2.968c-.124.739-.745 1.3-1.486 1.3-.741.003-1.358-.561-1.482-1.3zm5.773 8.73H4.33v-4.43c0-.322.248-.585.558-.585h1.14c.307 0 .558.26.558.585v4.43h-.003zm7.239 0H7.367v-4.43c0-.773-.601-1.406-1.343-1.406h-1.14c-.737 0-1.341.63-1.341 1.406V14.8H2.155V8.19a2.264 2.264 0 002.038-1.057c.411.64 1.11 1.06 1.9 1.06.79 0 1.486-.42 1.9-1.06.412.64 1.11 1.06 1.898 1.06.79 0 1.485-.42 1.897-1.06.411.64 1.11 1.06 1.9 1.06.046 0 .088-.003.134-.003v6.609zm-.134-7.427c-.741 0-1.358-.56-1.482-1.3h2.968c-.127.736-.745 1.3-1.486 1.3z"/></g></svg>