<svg width="16" height="16" xmlns="http://www.w3.org/2000/svg"><title>[icon]/user/dark</title><path d="M14.27 13.799c-.396-.253-1.155-.599-2.268-1.024a13.446 13.446 0 01-1.273-.572c-1.1-.577-1.727-1.449-1.727-2.544v-.435l.319-.297c.117-.11.303-.356.54-.74.432-.682.754-1.485.962-2.411.127-.58.191-1.172.191-1.776 0-.837-.288-1.523-.897-2.122C9.524 1.285 8.833 1 7.99 1c-.828 0-1.51.284-2.106.878-.595.595-.878 1.26-.878 2.043 0 .944.116 1.782.34 2.5.387 1.18.85 2.03 1.365 2.556l.287.291v.41c0 1.1-.632 1.97-1.733 2.528-.398.206-1.013.468-1.824.78-.76.306-1.348.585-1.724.808-.502.327-.715.698-.717 1.206h14c-.002-.516-.214-.88-.73-1.201zm1.73 1.87c0 .091-.027.17-.078.234a.319.319 0 01-.234.097H.333a.32.32 0 01-.235-.097A.32.32 0 010 15.67v-.663c0-.86.392-1.542 1.172-2.05.457-.273 1.088-.573 1.895-.897.809-.312 1.387-.56 1.739-.741.795-.403 1.192-.951 1.192-1.64-.639-.65-1.172-1.632-1.602-2.946-.26-.833-.39-1.77-.39-2.81 0-1.053.39-1.97 1.172-2.751C5.96.39 6.896 0 7.99 0c1.107 0 2.052.39 2.834 1.17.793.782 1.19 1.724 1.19 2.83 0 .676-.072 1.34-.215 1.991-.233 1.04-.598 1.95-1.093 2.73-.274.444-.507.755-.704.938 0 .69.399 1.242 1.192 1.659.352.181.742.358 1.172.526 1.16.443 1.974.812 2.442 1.112.795.495 1.192 1.177 1.192 2.05v.663z" fill="currentColor" fill-rule="evenodd"/></svg>