<svg width="16" height="16" viewBox="0 0 16 16" xmlns="http://www.w3.org/2000/svg"><g fill="currentColor" fill-rule="evenodd"><path d="M11.6 1A4.79 4.79 0 008 2.672 4.79 4.79 0 004.4 1 4.357 4.357 0 000 5.4c0 3.024 2.72 5.488 6.84 9.232L8 15.68l1.16-1.056C13.28 10.888 16 8.424 16 5.4 16 2.936 14.064 1 11.6 1zM8.08 13.44l-.08.08-.08-.08C4.112 9.992 1.6 7.712 1.6 5.4c0-1.6 1.2-2.8 2.8-2.8 1.232 0 2.432.792 2.856 1.888h1.496C9.168 3.392 10.368 2.6 11.6 2.6c1.6 0 2.8 1.2 2.8 2.8 0 2.312-2.512 4.592-6.32 8.04z" fill-rule="nonzero"/><path d="M8.75 7.75V6h-1.5v1.75H5.5v1.5h1.75V11h1.5V9.25h1.75v-1.5H8.75z"/></g></svg>