<svg width="16" height="16" xmlns="http://www.w3.org/2000/svg"><title>[icon]/zoom/dark</title><g fill="currentColor" fill-rule="evenodd"><path d="M13.167 7.333h-2.334v2.334h-2V7.333H6.5v-2h2.333V3h2v2.333h2.334z"/><path d="M4.724 10.01a6.224 6.224 0 01-1.255-3.744A6.272 6.272 0 019.734 0 6.272 6.272 0 0116 6.266a6.272 6.272 0 01-6.266 6.265 6.224 6.224 0 01-3.745-1.255L1.266 16 0 14.734l4.724-4.723zM9.734.598a5.675 5.675 0 00-5.668 5.669 5.675 5.675 0 005.668 5.668 5.675 5.675 0 005.67-5.668 5.675 5.675 0 00-5.67-5.67zM5.232 10.612c-.044-.045-.091-.087-.133-.133L.844 14.734l.422.423L5.52 10.9c-.046-.042-.088-.09-.133-.132a6.462 6.462 0 01-.156-.157z"/></g></svg>