<svg
    viewBox="0 0 46 32"
    fill="none"
    xmlns="http://www.w3.org/2000/svg"
>
    <path
        d="M19.0152 3.47716C20.4934 1.94856 22.5428 0.991075 24.8105 0.991075C27.8341 0.991075 30.4546 2.67087 31.8656 5.17375C33.0919 4.63622 34.4357 4.33386 35.8467 4.33386C41.2892 4.33386 45.7071 8.7853 45.7071 14.2782C45.7071 19.7711 41.2892 24.2226 35.8467 24.2226C35.1748 24.2226 34.5365 24.1554 33.8982 24.021C32.6719 26.2215 30.3034 27.7165 27.6157 27.7165C26.4903 27.7165 25.4152 27.4478 24.4577 26.9942C23.1979 29.9339 20.2919 32 16.8987 32C13.3543 32 10.3475 29.7659 9.18845 26.6247C8.68451 26.7255 8.16378 26.7927 7.62625 26.7927C3.40997 26.7927 0 23.3323 0 19.0824C0 16.2268 1.52861 13.7407 3.81312 12.3968C3.34278 11.3218 3.09081 10.1291 3.09081 8.86929C3.09081 3.9643 7.07191 0 11.9769 0C14.8325 0 17.3858 1.36063 19.0152 3.47716Z"
        fill="#0D9DDA"
    />
</svg>