<svg viewBox="0 0 20 20" fill="none" xmlns="http://www.w3.org/2000/svg">
<path fill-rule="evenodd" clip-rule="evenodd" d="M0.833313 3.3335H19.7222V4.42367H0.833313V3.3335ZM0.833313 5.51383H19.7222V6.604H0.833313V5.51383ZM0.833313 7.69141H19.7222V8.78434H0.833313V7.69141ZM0.833313 9.87174H19.7222V10.9619H0.833313V9.87174ZM0.833313 12.0521H19.7222V13.1423H0.833313V12.0521ZM0.833313 14.2297H19.7222V15.3198H0.833313V14.2297ZM0.833313 16.41H19.7222V17.5002H0.833313V16.41Z" fill="#BD3D44"/>
<path fill-rule="evenodd" clip-rule="evenodd" d="M0.833313 4.42383H19.7222V5.514H0.833313V4.42383ZM0.833313 6.60417H19.7222V7.69157H0.833313V6.60417ZM0.833313 8.78174H19.7222V9.87191H0.833313V8.78174ZM0.833313 10.9621H19.7222V12.0522H0.833313V10.9621ZM0.833313 13.1424H19.7222V14.2326H0.833313V13.1424ZM0.833313 15.32H19.7222V16.4102H0.833313V15.32Z" fill="white"/>
<path fill-rule="evenodd" clip-rule="evenodd" d="M0.833313 3.3335H11.5994V10.9619H0.833313V3.3335Z" fill="#192F5D"/>
<path fill-rule="evenodd" clip-rule="evenodd" d="M1.72974 3.66016L1.82935 3.96175H2.14478L1.89022 4.14714L1.98706 4.4515L1.72974 4.26335L1.47518 4.44873L1.57202 4.14714L1.3147 3.96175H1.63566L1.72974 3.66016ZM3.52547 3.66016L3.62231 3.96175H3.94051L3.68319 4.14714L3.78003 4.4515L3.52547 4.26335L3.26815 4.44873L3.36499 4.14714L3.11043 3.96175H3.42586L3.52547 3.66016ZM5.31844 3.66016L5.41805 3.96175H5.73071L5.47616 4.14714L5.573 4.4515L5.31567 4.26335L5.06112 4.44873L5.15796 4.14714L4.90064 3.96175H5.21883L5.31844 3.66016ZM7.11418 3.66016L7.21102 3.96175H7.52922L7.27189 4.14714L7.3715 4.4515L7.11418 4.26335L6.85685 4.44873L6.95646 4.14714L6.69914 3.96175H7.01457L7.11418 3.66016ZM8.90715 3.66016L9.00675 3.96175H9.32218L9.06763 4.14714L9.16447 4.4515L8.90715 4.26335L8.65259 4.44873L8.74943 4.14714L8.49487 3.96175H8.8103L8.90715 3.66016ZM10.7029 3.66016L10.7997 3.96175H11.1179L10.8606 4.14714L10.9602 4.4515L10.7029 4.26335L10.4456 4.44873L10.5452 4.14714L10.2878 3.96175H10.606L10.7029 3.66016ZM2.62899 4.42383L2.72583 4.72542H3.04403L2.7867 4.91081L2.88078 5.2124L2.63175 5.02702L2.37443 5.2124L2.46574 4.91081L2.21672 4.72542H2.53215L2.62899 4.42383ZM4.42196 4.42383L4.52157 4.72542H4.837L4.57967 4.91081L4.67928 5.2124L4.42196 5.02702L4.16463 5.2124L4.26424 4.91081L4.00692 4.72542H4.32511L4.42196 4.42383ZM6.21769 4.42383L6.31454 4.72542H6.63273L6.37541 4.91081L6.47225 5.2124L6.21769 5.02702L5.96037 5.2124L6.05721 4.91081L5.80265 4.72542H6.11808L6.21769 4.42383ZM8.01066 4.42383L8.11027 4.72542H8.4257L8.16838 4.91081L8.26799 5.2124L8.01066 5.02702L7.7561 5.2124L7.85295 4.91081L7.59562 4.72542H7.91659L8.01066 4.42383ZM9.8064 4.42383L9.90324 4.72542H10.2214L9.96411 4.91081L10.061 5.2124L9.8064 5.02702L9.54907 5.2124L9.64592 4.91081L9.39136 4.72542H9.70679L9.8064 4.42383ZM1.72974 5.18473L1.82935 5.49186H2.14478L1.89022 5.67724L1.98706 5.97884L1.72974 5.79069L1.47518 5.97884L1.57202 5.67448L1.3147 5.48909H1.63566L1.72974 5.18473ZM3.52547 5.18473L3.62231 5.48909H3.94051L3.68319 5.67448L3.78003 5.97607L3.52547 5.78792L3.26815 5.97607L3.36499 5.67171L3.11043 5.48633H3.42586L3.52547 5.18473ZM5.31844 5.18473L5.41805 5.48909H5.73071L5.47616 5.67448L5.573 5.97607L5.31567 5.78792L5.06112 5.97607L5.15796 5.67171L4.90064 5.48633H5.21883L5.31844 5.18473ZM7.11418 5.18473L7.21102 5.48909H7.52922L7.27189 5.67448L7.3715 5.97607L7.11418 5.78792L6.85685 5.97607L6.95646 5.67171L6.69914 5.48633H7.01457L7.11418 5.18473ZM8.90715 5.18473L9.00675 5.48909H9.32218L9.06763 5.67448L9.16447 5.97607L8.90715 5.78792L8.65259 5.97607L8.74943 5.67171L8.49487 5.48633H8.8103L8.90715 5.18473ZM10.7029 5.18473L10.7997 5.48909H11.1179L10.8606 5.67448L10.9602 5.97607L10.7029 5.78792L10.4456 5.97607L10.5452 5.67171L10.2878 5.48633H10.606L10.7029 5.18473ZM2.62899 5.9484L2.72583 6.25H3.04403L2.7867 6.43538L2.88354 6.73974L2.62899 6.55159L2.37166 6.73698L2.46851 6.43538L2.21395 6.25H2.52938L2.62899 5.9484ZM4.42196 5.9484L4.52157 6.25H4.837L4.57967 6.43538L4.67928 6.73974L4.42196 6.55159L4.16463 6.73698L4.26424 6.43538L4.00692 6.25H4.32511L4.42196 5.9484ZM6.21769 5.9484L6.31454 6.25H6.63273L6.37541 6.43538L6.47225 6.73974L6.21769 6.55159L5.96037 6.73698L6.05721 6.43538L5.80265 6.25H6.11808L6.21769 5.9484ZM8.01066 5.9484L8.11027 6.25H8.4257L8.17114 6.43538L8.26799 6.73974L8.01066 6.55159L7.7561 6.73698L7.85295 6.43538L7.59562 6.25H7.91659L8.01066 5.9484ZM9.8064 5.9484L9.90324 6.25H10.2214L9.96411 6.43538L10.061 6.73974L9.8064 6.55159L9.54907 6.73698L9.64592 6.43538L9.39136 6.25H9.70679L9.8064 5.9484ZM1.72974 6.71207L1.82935 7.01367H2.14478L1.89022 7.19905L1.98706 7.50342L1.72974 7.31526L1.47518 7.50065L1.57202 7.19905L1.3147 7.01367H1.63566L1.72974 6.71207ZM3.52547 6.71207L3.62231 7.01367H3.94051L3.68319 7.19905L3.78003 7.50065L3.52547 7.31526L3.26815 7.50065L3.36499 7.19905L3.11043 7.01367H3.42586L3.52547 6.71207ZM5.31844 6.71207L5.41805 7.01367H5.73071L5.47616 7.19905L5.573 7.50342L5.31567 7.31526L5.06112 7.50065L5.15796 7.19905L4.90064 7.01367H5.21883L5.31844 6.71207ZM7.11418 6.71207L7.21102 7.01367H7.52922L7.27189 7.19905L7.3715 7.50342L7.11418 7.31526L6.85685 7.50065L6.95646 7.19905L6.69914 7.01367H7.01457L7.11418 6.71207ZM8.90715 6.71207L9.00675 7.01367H9.32218L9.06763 7.19905L9.16447 7.50342L8.90715 7.31526L8.65259 7.50065L8.74943 7.19905L8.49487 7.01367H8.8103L8.90715 6.71207ZM10.7029 6.71207L10.7997 7.01367H11.1179L10.8606 7.19905L10.9602 7.50342L10.7029 7.31526L10.4456 7.50065L10.5452 7.19905L10.2878 7.01367H10.606L10.7029 6.71207ZM2.62899 7.47575L2.72583 7.77734H3.04403L2.7867 7.96273L2.88354 8.26432L2.62899 8.07617L2.37166 8.26432L2.46851 7.95996L2.21395 7.77457H2.52938L2.62899 7.47575ZM4.42196 7.47575L4.52157 7.77734H4.837L4.57967 7.96273L4.67928 8.26432L4.42196 8.07617L4.16463 8.26432L4.26424 7.95996L4.00692 7.77457H4.32511L4.42196 7.47575ZM6.21769 7.47575L6.31454 7.77734H6.63273L6.37541 7.96273L6.47225 8.26432L6.21769 8.07617L5.96037 8.26432L6.05721 7.95996L5.80265 7.77457H6.11808L6.21769 7.47575ZM8.01066 7.47575L8.11027 7.77734H8.4257L8.17114 7.96273L8.26799 8.26432L8.01066 8.07617L7.7561 8.26432L7.85295 7.95996L7.59562 7.77457H7.91659L8.01066 7.47575ZM9.8064 7.47575L9.90324 7.77734H10.2214L9.96411 7.96273L10.061 8.26432L9.8064 8.07617L9.54907 8.26432L9.64592 7.95996L9.39136 7.77457H9.70679L9.8064 7.47575ZM1.72974 8.23665L1.82935 8.54101H2.14478L1.89022 8.7264L1.98706 9.02522L1.72974 8.83984L1.47518 9.02522L1.57202 8.72363L1.3147 8.53825H1.63566L1.72974 8.23665ZM3.52547 8.23665L3.62231 8.54101H3.94051L3.68319 8.7264L3.7828 9.02522L3.52547 8.83984L3.26815 9.02522L3.36776 8.72363L3.11043 8.53825H3.42586L3.52547 8.23665ZM5.31844 8.23665L5.41805 8.54101H5.73071L5.47616 8.7264L5.573 9.02522L5.31567 8.83984L5.06112 9.02522L5.15796 8.72363L4.90064 8.53825H5.21883L5.31844 8.23665ZM7.11418 8.23665L7.21102 8.54101H7.52922L7.27189 8.7264L7.3715 9.02522L7.11418 8.83984L6.85685 9.02522L6.95646 8.72363L6.69914 8.53825H7.01457L7.11418 8.23665ZM8.90715 8.23665L9.00675 8.54101H9.32218L9.06763 8.7264L9.16447 9.02522L8.90715 8.83984L8.65259 9.02522L8.74943 8.72363L8.49487 8.53825H8.8103L8.90715 8.23665ZM10.7029 8.23665L10.7997 8.54101H11.1179L10.8606 8.7264L10.9602 9.02522L10.7029 8.83984L10.4456 9.02522L10.5452 8.72363L10.2878 8.53825H10.606L10.7029 8.23665ZM2.62899 9.00032L2.72583 9.30192H3.04403L2.7867 9.4873L2.88354 9.79166L2.62899 9.60351L2.37166 9.7889L2.46851 9.4873L2.21395 9.30192H2.52938L2.62899 9.00032ZM4.42196 9.00032L4.52157 9.30192H4.837L4.57967 9.4873L4.67928 9.79166L4.42196 9.60351L4.16463 9.7889L4.26424 9.4873L4.00692 9.30192H4.32511L4.42196 9.00032ZM6.21769 9.00032L6.31454 9.30192H6.63273L6.37541 9.4873L6.47225 9.79166L6.21769 9.60351L5.96037 9.7889L6.05721 9.4873L5.80265 9.30192H6.11808L6.21769 9.00032ZM8.01066 9.00032L8.11027 9.30192H8.4257L8.17114 9.4873L8.26799 9.79166L8.01066 9.60351L7.7561 9.7889L7.85295 9.4873L7.59562 9.30192H7.91659L8.01066 9.00032ZM9.8064 9.00032L9.90324 9.30192H10.2214L9.96411 9.4873L10.061 9.79166L9.8064 9.60351L9.54907 9.7889L9.64592 9.4873L9.39136 9.30192H9.70679L9.8064 9.00032ZM1.72974 9.76399L1.82935 10.0656H2.14478L1.89022 10.251L1.98706 10.5526L1.72974 10.3672L1.47518 10.5526L1.57202 10.2482L1.3147 10.0628H1.63566L1.72974 9.76399ZM3.52547 9.76399L3.62231 10.0656H3.94051L3.68319 10.251L3.7828 10.5526L3.52547 10.3672L3.26815 10.5526L3.36776 10.2482L3.11043 10.0628H3.42586L3.52547 9.76399ZM5.31844 9.76399L5.41805 10.0656H5.73071L5.48169 10.251L5.57853 10.5526L5.32121 10.3672L5.06665 10.5526L5.16349 10.2482L4.90617 10.0628H5.22437L5.31844 9.76399ZM7.11418 9.76399L7.21102 10.0656H7.52922L7.27189 10.251L7.3715 10.5526L7.11418 10.3672L6.85685 10.5526L6.95646 10.2482L6.69914 10.0628H7.01457L7.11418 9.76399ZM8.90715 9.76399L9.00675 10.0656H9.32218L9.06763 10.251L9.16447 10.5526L8.90715 10.3672L8.65259 10.5526L8.74943 10.2482L8.49487 10.0628H8.8103L8.90715 9.76399ZM10.7029 9.76399L10.7997 10.0656H11.1179L10.8606 10.251L10.9602 10.5526L10.7029 10.3672L10.4456 10.5526L10.5452 10.2482L10.2878 10.0628H10.606L10.7029 9.76399Z" fill="white"/>
<path fill-rule="evenodd" clip-rule="evenodd" d="M20 0H0V20H20V0ZM10.4167 17.5C14.3287 17.5 17.5 14.3287 17.5 10.4167C17.5 6.50465 14.3287 3.33333 10.4167 3.33333C6.50465 3.33333 3.33333 6.50465 3.33333 10.4167C3.33333 14.3287 6.50465 17.5 10.4167 17.5Z" fill="white"/>
</svg>
