<svg width="24" height="24" fill="none" xmlns="http://www.w3.org/2000/svg">
    <g clip-path="url(#clip0)">
        <path fill-rule="evenodd" clip-rule="evenodd"
              d="M0 3h22.667v1.308H0V3zm0 2.616h22.667v1.309H0V5.616zM0 8.23h22.667v1.312H0V8.229zm0 2.617h22.667v1.308H0v-1.308zm0 2.616h22.667v1.309H0v-1.309zm0 2.613h22.667v1.309H0v-1.309zm0 2.617h22.667V20H0v-1.308z"
              fill="#BD3D44"/>
        <path fill-rule="evenodd" clip-rule="evenodd"
              d="M0 4.308h22.667v1.308H0V4.308zm0 2.617h22.667V8.23H0V6.925zm0 2.613h22.667v1.308H0V9.538zm0 2.616h22.667v1.308H0v-1.308zm0 2.617h22.667v1.308H0V14.77zm0 2.613h22.667v1.308H0v-1.308z"
              fill="#fff"/>
        <path fill-rule="evenodd" clip-rule="evenodd" d="M0 3h12.92v9.154H0V3z" fill="#192F5D"/>
        <path fill-rule="evenodd" clip-rule="evenodd"
              d="M1.076 3.392l.12.362h.378l-.306.222.116.365-.308-.225-.306.222.116-.362-.308-.222h.385l.113-.362zm2.155 0l.116.362h.382l-.31.222.117.365-.305-.225-.31.222.117-.362-.305-.222h.378l.12-.362zm2.151 0l.12.362h.375l-.306.222.117.365-.31-.225-.305.222.117-.362-.31-.222h.383l.12-.362zm2.155 0l.116.362h.382l-.309.222.12.365-.309-.225-.309.222.12-.362-.309-.222h.378l.12-.362zm2.152 0l.12.362h.378l-.306.222.116.365-.308-.225-.306.222.116-.362-.305-.222h.378l.117-.362zm2.155 0l.116.362h.381l-.308.222.12.365-.31-.225-.308.222.12-.362-.31-.222h.382l.117-.362zm-9.69.916l.117.362h.382l-.309.223.113.362-.299-.223-.309.223.11-.362-.299-.223h.379l.116-.362zm2.152 0l.12.362h.378l-.308.223.12.362-.31-.223-.308.223.12-.362-.31-.223h.382l.116-.362zm2.155 0l.116.362h.382l-.309.223.117.362-.306-.223-.309.223.117-.362-.306-.223h.379l.12-.362zm2.152 0l.12.362h.378l-.309.223.12.362-.31-.223-.305.223.117-.362-.31-.223H8.5l.113-.362zm2.155 0l.116.362h.382l-.31.223.117.362-.305-.223-.31.223.117-.362-.305-.223h.378l.12-.362zm-9.692.913l.12.369h.378l-.306.222.116.362-.308-.226-.306.226.116-.365-.308-.222h.385l.113-.366zm2.155 0l.116.366h.382l-.31.222.117.362-.305-.226-.31.226.117-.365-.305-.223h.378l.12-.362zm2.151 0l.12.366h.375l-.306.222.117.362-.31-.226-.305.226.117-.365-.31-.223h.383l.12-.362zm2.155 0l.116.366h.382l-.309.222.12.362-.309-.226-.309.226.12-.365-.309-.223h.378l.12-.362zm2.152 0l.12.366h.378l-.306.222.116.362-.308-.226-.306.226.116-.365-.305-.223h.378l.117-.362zm2.155 0l.116.366h.381l-.308.222.12.362-.31-.226-.308.226.12-.365-.31-.223h.382l.117-.362zm-9.69.917l.117.362h.382l-.309.222.116.365-.305-.225-.309.222.116-.362-.305-.222h.378l.12-.362zm2.152 0l.12.362h.378l-.308.222.12.365-.31-.225-.308.222.12-.362-.31-.222h.382l.116-.362zm2.155 0l.116.362h.382l-.309.222.117.365-.306-.225-.309.222.117-.362-.306-.222h.379l.12-.362zm2.152 0l.12.362h.378l-.306.222.117.365-.31-.225-.305.222.117-.362-.31-.222H8.5l.113-.362zm2.155 0l.116.362h.382l-.31.222.117.365-.305-.225-.31.222.117-.362-.305-.222h.378l.12-.362zm-9.692.916l.12.362h.378l-.306.223.116.365-.308-.226L.77 8l.116-.361-.308-.223h.385l.113-.362zm2.155 0l.116.362h.382l-.31.223.117.361-.305-.222L2.92 8l.117-.361-.305-.223h.378l.12-.362zm2.151 0l.12.362h.375l-.306.223.117.365-.31-.226L5.074 8l.117-.361-.31-.223h.383l.12-.362zm2.155 0l.116.362h.382l-.309.223.12.365-.309-.226L7.228 8l.12-.361-.309-.223h.378l.12-.362zm2.152 0l.12.362h.378l-.306.223.116.365-.308-.226L9.383 8 9.5 7.64l-.305-.223h.378l.117-.362zm2.155 0l.116.362h.381l-.308.223.12.365-.31-.226-.308.222.12-.361-.31-.223h.382l.117-.362zm-9.69.917l.117.361h.382l-.309.223.116.362-.305-.226-.309.226.116-.365-.305-.223h.378l.12-.358zm2.152 0l.12.361h.378l-.308.223.12.362-.31-.226-.308.226.12-.365-.31-.223h.382l.116-.358zm2.155 0l.116.361h.382l-.309.223.117.362-.306-.226-.309.226.117-.365-.306-.223h.379l.12-.358zm2.152 0l.12.361h.378l-.306.223.117.362-.31-.226-.305.226.117-.365-.31-.223H8.5l.113-.358zm2.155 0l.116.361h.382l-.31.223.117.362-.305-.226-.31.226.117-.365-.305-.223h.378l.12-.358zm-9.692.913l.12.365h.378l-.306.222.116.359-.308-.223-.306.223.116-.362-.308-.222h.385l.113-.362zm2.155 0l.116.365h.382l-.31.222.12.359-.308-.223-.31.223.12-.362-.308-.222h.378l.12-.362zm2.151 0l.12.365h.375l-.306.222.117.359-.31-.223-.305.223.117-.362-.31-.222h.383l.12-.362zm2.155 0l.116.365h.382l-.309.222.12.359-.309-.223-.309.223.12-.362-.309-.222h.378l.12-.362zm2.152 0l.12.365h.378l-.306.222.116.359-.308-.223-.306.223.116-.362-.305-.222h.378l.117-.362zm2.155 0l.116.365h.381l-.308.222.12.359-.31-.223-.308.223.12-.362-.31-.222h.382l.117-.362zm-9.69.916l.117.362h.382l-.309.222.116.366-.305-.226-.309.222.116-.362-.305-.222h.378l.12-.362zm2.152 0l.12.362h.378l-.308.222.12.366-.31-.226-.308.222.12-.362-.31-.222h.382l.116-.362zm2.155 0l.116.362h.382l-.309.222.117.366-.306-.226-.309.222.117-.362-.306-.222h.379l.12-.362zm2.152 0l.12.362h.378l-.306.222.117.366-.31-.226-.305.222.117-.362-.31-.222H8.5l.113-.362zm2.155 0l.116.362h.382l-.31.222.117.366-.305-.226-.31.222.117-.362-.305-.222h.378l.12-.362zm-9.692.916l.12.362h.378l-.306.223.116.362-.308-.223-.306.223.116-.366-.308-.222h.385l.113-.358zm2.155 0l.116.362h.382l-.31.223.12.362-.308-.223-.31.223.12-.366-.308-.222h.378l.12-.358zm2.151 0l.12.362h.375l-.299.223.116.362-.309-.223-.305.223.116-.366-.309-.222h.382l.113-.358zm2.155 0l.116.362h.382l-.309.223.12.362-.309-.223-.309.223.12-.366-.309-.222h.378l.12-.358zm2.152 0l.12.362h.378l-.306.223.116.362-.308-.223-.306.223.116-.366-.305-.222h.378l.117-.358zm2.155 0l.116.362h.381l-.308.223.12.362-.31-.223-.308.223.12-.366-.31-.222h.382l.117-.358z"
              fill="#fff"/>
        <g clip-path="url(#clip1)">
            <path d="M25.25 4H-.25v17h25.5V4z" fill="#009246"/>
            <path d="M25.25 4h-17v17h17V4z" fill="#fff"/>
            <path d="M25.25 4h-8.5v17h8.5V4z" fill="#CE2B37"/>
        </g>
        <path fill-rule="evenodd" clip-rule="evenodd" d="M24 0H0v24h24V0zM12.5 21a8.5 8.5 0 100-17 8.5 8.5 0 000 17z"
              fill="#fff"/>
    </g>
    <defs>
        <clipPath id="clip0">
            <path fill="#fff" d="M0 0h24v24H0z"/>
        </clipPath>
        <clipPath id="clip1">
            <path fill="#fff" transform="translate(-.25 4)" d="M0 0h25.5v17H0z"/>
        </clipPath>
    </defs>
</svg>