<svg viewBox="0 0 30 28" xmlns="http://www.w3.org/2000/svg">
    <path fill-rule="evenodd" clip-rule="evenodd" d="m18.741 11.63 1.837-3.686c0.3732-0.73309 0.5566-1.5481 0.5333-2.3704v-0.46222c0-0.11826-0.0115-0.23382-0.0335-0.34562-1e-3 -0.00477-0.0019-0.00953-0.0029-0.01429-0.0141-0.06846-0.0321-0.13548-0.0538-0.20081-2e-4 -5.9e-4 -4e-4 -0.00118-6e-4 -0.00176-0.2353-0.70617-0.9017-1.2153-1.6869-1.2153h-0.166c-0.2525 0.00188-0.4762 0.16365-0.557 0.40296l-0.7111 2.1096c-0.2206 0.65833-0.7188 1.1868-1.363 1.4459l-0.5096 0.20148c-0.9303 0.38132-1.7178 1.0445-2.2518 1.8963l-1.446 2.3703c-0.4323 0.6918-1.1899 1.1125-2.0053 1.1141h-0.0095-1.0548v9.4815h0.69926c0.03816-5e-4 0.07624-5e-4 0.11434 0 1.0221 0.0144 2.0026 0.4159 2.742 1.1259 0.7573 0.7581 1.7847 1.1844 2.8562 1.1852h7.3956c0.9671-0.0039 1.8348-0.5949 2.1926-1.4933l1.2681-3.1645c0.335-0.841 0.5079-1.7377 0.5097-2.6429v-3.366c0-1.3091-1.0613-2.3703-2.3704-2.3703h-5.9259zm4.3071-2.6667h1.6188c2.7819 0 5.037 2.2552 5.037 5.037v3.3713c-0.0024 1.2413-0.2395 2.471-0.6988 3.6242l-0.0022 0.0054-1.266 3.1591c-3e-4 1e-3 -7e-4 0.0019-0.0011 0.0028-0.761 1.9076-2.6041 3.1623-4.6581 3.1705l-0.0108 1e-4h-7.3975c-1.7659-0.0013-3.4595-0.6988-4.7139-1.9403-0.2595-0.243-0.6032-0.3761-0.95906-0.3711l-0.01884 3e-4h-1.2169c-0.59762 0.6896-1.4799 1.1259-2.4642 1.1259h-2.3704c-1.8 0-3.2593-1.4592-3.2593-3.2593v-10.667c0-1.8001 1.4592-3.2593 3.2593-3.2593h2.3704c1.0395 0 1.9653 0.4866 2.5621 1.2444h1.294l1.3544-2.2204 0.0087-0.01386c0.8301-1.3239 2.054-2.3546 3.4998-2.9472l0.0155-0.00633 0.3842-0.15189 0.6689-1.9846c0.4446-1.3162 1.6745-2.206 3.0637-2.2163l0.0099-7.3e-5h0.1759c2.4546 0 4.4444 1.9898 4.4444 4.4444v0.4286c0.0269 1.1832-0.2234 2.3554-0.7299 3.4232zm-16.455 2.7459c-0.08716-0.0504-0.18836-0.0792-0.2963-0.0792h-2.3704c-0.32728 0-0.59259 0.2653-0.59259 0.5926v10.667c0 0.3273 0.26531 0.5926 0.59259 0.5926h2.3704c0.10794 0 0.20914-0.0288 0.2963-0.0793 0.17713-0.1024 0.2963-0.2939 0.2963-0.5133v-10.667c0-0.2194-0.11917-0.4109-0.2963-0.5134z" fill="currentColor" />
</svg>

