<svg viewBox="0 0 22 28" xmlns="http://www.w3.org/2000/svg">
    <path fill-rule="evenodd" clip-rule="evenodd" d="m17.667 8.6665h3.3334c0.3682 0 0.6666 0.29848 0.6666 0.66667v1.3333c0 0.3682-0.2984 0.6667-0.6666 0.6667h-0.6667v3.12c-0.0094 1.401-0.5698 2.7421-1.56 3.7333l-2.6 2.6667c-0.6733 0.6671-1.5616 1.0735-2.5067 1.1466v4.6667c0 0.3682-0.2984 0.6667-0.6666 0.6667h-4c-0.36819 0-0.66666-0.2985-0.66666-0.6667v-4.6667c-0.93979-0.0622-1.8275-0.4541-2.5067-1.1066l-2.6-2.6667c-0.99994-1.001-1.5611-2.3584-1.56-3.7733v-3.12h-0.66667c-0.36819 0-0.66666-0.2985-0.66666-0.6667v-1.3333c0-0.36819 0.29848-0.66667 0.66666-0.66667h3.3333v-7.3333c0-0.36819 0.29847-0.66667 0.66666-0.66667h1.3333c0.36819 0 0.66666 0.29848 0.66666 0.66667v7.3333h8v-7.3333c0-0.36819 0.2984-0.66667 0.6666-0.66667h1.3334c0.3682 0 0.6666 0.29848 0.6666 0.66667v7.3333zm-0.7866 7.68c0.504-0.5011 0.7872-1.1826 0.7866-1.8933v-3.12h-13.333v3.12c-5.7e-4 0.7107 0.28261 1.3922 0.78666 1.8933l2.4 2.4c0.37472 0.3752 0.88308 0.5862 1.4133 0.5867h4.1333c0.5303-5e-4 1.0387-0.2115 1.4134-0.5867l2.4-2.4z" fill="currentColor"/>
</svg>
