<svg viewBox="0 0 24 24" fill="none" xmlns="http://www.w3.org/2000/svg">
<path fill-rule="evenodd" clip-rule="evenodd" d="M21.9878 11.7C20.3582 7.61646 16.3881 4.95484 11.9939 5C7.629 4.97475 3.69114 7.61877 2.05997 11.67C2.02156 11.7758 2.00129 11.8874 2.00001 12C1.99948 12.1063 2.01986 12.2116 2.05997 12.31C3.68479 16.3691 7.62406 19.022 11.9939 19C16.3588 19.0252 20.2967 16.3812 21.9279 12.33C21.9706 12.2254 21.9911 12.113 21.9878 12C22.0041 11.9007 22.0041 11.7993 21.9878 11.7ZM11.9939 17C8.6124 16.9924 5.5333 15.0498 4.06875 12C5.52824 8.94598 8.61076 7.00199 11.9939 7.00199C15.3771 7.00199 18.4596 8.94598 19.9191 12C18.4545 15.0498 15.3754 16.9924 11.9939 17ZM8.99575 12C8.99575 10.3431 10.3381 9 11.9939 9C13.6498 9 14.9921 10.3431 14.9921 12C14.9921 13.6569 13.6498 15 11.9939 15C10.3381 15 8.99575 13.6569 8.99575 12Z" fill="currentColor"/>
</svg>
