<?xml version="1.0" encoding="utf-8"?>
<svg viewBox="0 0 576 410" width="576px" height="410px" fill="none" xmlns="http://www.w3.org/2000/svg">
  <g stroke="#3a49da" style="visibility: hidden;">
    <title>bear</title>
    <path d="M 338.047 314.931 L 366.368 380.109" stroke="#3a49da" stroke-linecap="round" stroke-width="2"/>
    <path d="M 342.539 187.922 L 342.539 159.264 L 386.608 174.33 L 387.197 174.532 L 387.638 174.091 L 421.962 139.768 L 439.779 152.24 C 439.51 152.56 439.168 152.967 438.757 153.451 C 437.652 154.757 436.059 156.628 434.107 158.886 C 430.201 163.402 424.863 169.464 419.126 175.65 C 413.387 181.838 407.262 188.139 401.782 193.139 C 399.041 195.639 396.474 197.802 394.207 199.46 C 391.921 201.132 390.009 202.237 388.57 202.692 C 385.649 203.614 381.323 203.238 376.311 202.015 C 371.346 200.804 365.883 198.808 360.79 196.674 C 355.702 194.542 351.008 192.282 347.585 190.555 C 345.874 189.691 344.481 188.962 343.518 188.448 C 343.113 188.233 342.784 188.055 342.539 187.922 L 342.539 187.922 Z" fill="#fff" stroke="#3a49da" stroke-width="2"/>
    <rect fill="#fff" height="45.332" rx="7" stroke="#3a49da" stroke-width="2" width="463.559" x="70.963" y="114.577"/>
    <rect fill="#fff" height="29.037" rx="14.519" stroke="#e0e5f8" stroke-width="2" width="258.713" x="181.921" y="122.336"/>
    <circle cx="195.509" cy="135.923" r="6.78" stroke="#3a49da" stroke-width="3.2"/>
    <path d="M 200.165 140.579 L 205.751 146.166" stroke="#3a49da" stroke-width="3.2"/>
    <path clip-rule="evenodd" d="M 94.391 129.003 C 95.328 128.053 96.595 127.438 98.028 127.438 C 99.901 127.438 101.554 128.5 102.436 130.065 C 103.207 129.729 104.034 129.506 104.916 129.506 C 108.332 129.506 111.087 132.3 111.087 135.765 C 111.087 139.23 108.332 142.024 104.916 142.024 C 104.475 142.024 104.089 141.968 103.703 141.912 C 102.932 143.309 101.444 144.259 99.736 144.259 C 99.02 144.259 98.358 144.092 97.752 143.812 C 96.981 145.656 95.162 146.942 93.013 146.942 C 90.809 146.942 88.88 145.545 88.164 143.533 C 87.833 143.589 87.503 143.644 87.172 143.644 C 84.527 143.644 82.378 141.465 82.378 138.783 C 82.378 136.994 83.315 135.429 84.747 134.591 C 84.472 133.921 84.307 133.138 84.307 132.356 C 84.307 129.282 86.786 126.767 89.872 126.767 C 91.801 126.823 93.399 127.662 94.391 129.003" fill="#fff" fill-rule="evenodd"/>
    <path d="M 94.391 129.003 C 95.328 128.053 96.595 127.438 98.028 127.438 C 99.901 127.438 101.554 128.5 102.436 130.065 C 103.207 129.729 104.034 129.506 104.916 129.506 C 108.332 129.506 111.087 132.3 111.087 135.765 C 111.087 139.23 108.332 142.024 104.916 142.024 C 104.475 142.024 104.089 141.968 103.703 141.912 C 102.932 143.309 101.444 144.259 99.736 144.259 C 99.02 144.259 98.358 144.092 97.752 143.812 C 96.981 145.656 95.162 146.942 93.013 146.942 C 90.809 146.942 88.88 145.545 88.164 143.533 C 87.833 143.589 87.503 143.644 87.172 143.644 C 84.527 143.644 82.378 141.465 82.378 138.783 C 82.378 136.994 83.315 135.429 84.747 134.591 C 84.472 133.921 84.307 133.138 84.307 132.356 C 84.307 129.282 86.786 126.767 89.872 126.767 C 91.801 126.823 93.399 127.662 94.391 129.003" stroke="#3a49da" stroke-width="2"/>
    <path d="M 502.933 128.319 L 523.107 128.319 L 523.107 129.871 L 502.933 129.871 L 502.933 128.319 Z" fill="#3a49da"/>
    <path d="M 502.933 136.079 L 523.107 136.079 L 523.107 137.631 L 502.933 137.631 L 502.933 136.079 Z" fill="#3a49da"/>
    <path d="M 502.933 143.838 L 523.107 143.838 L 523.107 145.39 L 502.933 145.39 L 502.933 143.838 Z" fill="#3a49da"/>
    <path d="m284.509 150.494-65.11 130.219c-.555 1.111-.844 2.336-.844 3.578v65.332c0 5.982 6.324 9.848 11.648 7.12l30.944-15.856c2.671-1.368 4.352-4.118 4.352-7.119v-26.536l48.107-10.087 8.411-8.237c18.728-18.342 29.505-43.305 30.011-69.514l1.151-59.589 19.786-15.579s11.251-8.923 11.251-10.475-12.803-16.683-12.803-16.683v-5.774c0-2.902-1.572-5.576-4.107-6.989l-17.806-9.9201c-3.108-1.7315-6.985-1.2027-9.516 1.2977z" fill="#fff" stroke-width="2"/>
    <path d="m371.801 117.129-31.037 30.977v11.311h13.191" stroke-width="2"/>
    <path d="m349.299 139.57 7.371 17.071" stroke-linecap="round" stroke-width="2"/>
    <path d="m296.924 138.467 25.675 26.001c2.84 2.875 7.379 3.181 10.579.713l7.974-6.152" stroke-width="2"/>
    <path d="m327.961 167.504-10.475 60.195" stroke-width="2"/>
    <path d="m291.104 143.899 35.305 34.529" stroke-width="2"/>
    <path d="m332.059 88.1419 7.428 7.6723-11.481 11.1158-7.428-7.6718c-3.07-3.1704-2.988-8.2289.182-11.2986s8.229-2.9881 11.299.1823z" fill="#fff" stroke-width="2"/>
    <path d="m329.517 90.4404 7.51 7.7569-6.559 6.3517-7.511-7.7571c-1.754-1.8114-1.707-4.7017.104-6.4557 1.812-1.7539 4.702-1.7073 6.456.1042z" fill="#fff" stroke-width="2"/>
    <path d="m270.154 179.979 75.653 75.654" stroke-width="2"/>
    <path d="m229.484 206.578-.21.072-.16.153-26.443 25.31-18.038-18.398c.229-.246.515-.552.854-.915.967-1.032 2.361-2.515 4.072-4.32 3.422-3.61 8.109-8.503 13.171-13.638 5.063-5.135 10.495-10.507 15.409-15.076 4.93-4.585 9.285-8.311 12.209-10.197 2.916-1.882 7.829-4.106 13.628-6.397 5.779-2.282 12.368-4.604 18.591-6.686 6.222-2.082 12.069-3.922 16.362-5.242 2.146-.66 3.903-1.19 5.123-1.554.61-.183 1.086-.324 1.409-.419.044-.013.086-.025.124-.037 6.112 3.034 10.886 9.701 11.752 17.041.87 7.369-2.193 15.504-12.082 21.326z" fill="#fff" stroke-width="2"/>
    <rect fill="#fff" height="17.528" rx="3" stroke-width="2" transform="matrix(.73148581 .68185666 -.68185666 .73148581 190.666591 -77.93487)" width="6.09966" x="194.286" y="203.119"/>
    <rect fill="#fff" height="17.528" rx="3" stroke-width="2" transform="matrix(.73148581 .68185666 -.68185666 .73148581 195.1311 -80.065907)" width="6.09966" x="199.224" y="207.722"/>
    <rect fill="#fff" height="17.528" rx="3" stroke-width="2" transform="matrix(.73148581 .68185666 -.68185666 .73148581 199.594659 -82.196531)" width="6.09966" x="204.161" y="212.324"/>
    <rect fill="#fff" height="17.528" rx="3" stroke-width="2" transform="matrix(.73148581 .68185666 -.68185666 .73148581 204.058218 -84.327155)" width="6.09966" x="209.098" y="216.926"/>
    <circle cx="357.446" cy="117.517" r="3.26762" stroke-width="2"/>
    <path d="m399.347 162.133-35.693 35.693" stroke-width="2"/>
    <path d="m281.017 266.108c5.82-17.846 16.683-30.261 36.469-39.573" stroke-width="2"/>
    <path d="m286.836 148.166-57.419 58.971" stroke-width="2"/>
    <path d="m334.168 304.904-33.365 13.191 24.311 57.204c1.255 2.953 4.154 4.871 7.363 4.871h33.892z" fill="#fff" stroke-width="2"/>
    <path d="m202.82 352.46h11.467c15.397 0 27.941 12.217 28.468 27.486h-35.211c-3.866 0-7-3.134-7-7v-18.209c0-1.258 1.019-2.277 2.276-2.277z" fill="#fff" stroke-width="2"/>
    <path d="m203.658 339.482 14.672-8.465v42.256c0 3.866-3.134 7-7 7h-4.174c-3.866 0-7-3.134-7-7v-27.728c0-2.501 1.335-4.813 3.502-6.063z" fill="#fff" stroke-width="2"/>
    <path d="m225.391 279.462h55.612c5.005 0 8.393 5.099 6.453 9.713l-19.121 45.491c-1.457 3.467-5.394 5.163-8.915 3.84l-36.491-13.71c-2.73-1.026-4.538-3.636-4.538-6.553v-31.781c0-3.866 3.134-7 7-7z" fill="#fff" stroke-width="2"/>
    <path d="m220.872 278.065 29.763-59.526 80.674 82.41c2.718 2.777 2.654 7.236-.142 9.934l-21.281 20.534c-2.25 2.171-5.668 2.587-8.373 1.018l-77.893-45.185c-3.198-1.855-4.402-5.878-2.748-9.185z" fill="#fff" stroke-width="2"/>
    <path d="m374.664 379.946h-41.227c-3.621 0-6.889-2.17-8.294-5.508l-9.254-21.978h30.307c15.397 0 27.941 12.217 28.468 27.486z" fill="#fff" stroke-width="2"/>
    <path d="m338.048 313.767-27.546 27.546" stroke-width="2"/>
    <path d="m218.555 330.062 36.468 13.578" stroke-width="2"/>
    <path d="m338.047 314.931 28.321 65.178" stroke-linecap="round" stroke-width="2"/>
    <path d="M 377.62 124.828 L 376.572 133.562 C 376.499 134.171 376.709 134.78 377.143 135.214 L 379.56 137.63" stroke="#3a49da" stroke-linecap="round" stroke-width="2"/>
    <path d="M 366.757 122.112 C 368.309 106.205 353.179 95.342 343.091 103.102 C 333.004 110.861 332.228 130.259 351.627 137.242" stroke="#3a49da" stroke-width="2"/>
  </g>
  <g style="visibility: hidden;">
    <title>cloud-1</title>
    <path d="M 52.298 255.189 C 51.071 257.034 49.339 258.487 47.309 259.373 C 45.278 260.259 43.035 260.542 40.848 260.187 C 38.661 259.832 36.623 258.854 34.977 257.371 C 33.331 255.887 32.148 253.961 31.568 251.823 C 30.988 249.684 31.037 247.424 31.708 245.312 C 32.38 243.201 33.645 241.328 35.354 239.917 C 37.062 238.506 39.141 237.617 41.341 237.356 C 43.541 237.096 45.77 237.475 47.76 238.448 L 47.669 238.378 C 47.674 237.266 47.937 236.169 48.44 235.176 C 48.942 234.183 49.669 233.322 50.563 232.659 C 51.458 231.997 52.494 231.552 53.59 231.36 C 54.686 231.168 55.812 231.235 56.877 231.554 L 57.046 231.723 C 57.046 227.778 58.613 223.994 61.403 221.205 C 64.192 218.415 67.976 216.848 71.921 216.848 C 75.866 216.848 79.649 218.415 82.439 221.205 C 85.228 223.994 86.796 227.778 86.796 231.723 L 86.796 232.024 C 89.328 231.336 92.024 231.59 94.383 232.739 C 96.742 233.889 98.604 235.855 99.623 238.273 C 100.712 237.832 101.877 237.606 103.052 237.607 C 104.732 237.603 106.379 238.069 107.807 238.953 L 107.898 238.953 C 107.864 237.705 108.08 236.462 108.535 235.298 C 108.989 234.134 109.672 233.073 110.543 232.178 C 111.414 231.283 112.456 230.571 113.607 230.085 C 114.757 229.599 115.994 229.349 117.243 229.349 C 118.492 229.349 119.729 229.599 120.88 230.085 C 122.031 230.571 123.072 231.283 123.944 232.178 C 124.815 233.073 125.498 234.134 125.952 235.298 C 126.406 236.462 126.622 237.705 126.588 238.953 L 126.679 238.869 C 127.101 238.745 127.538 238.681 127.977 238.68 C 129.167 238.682 130.307 239.155 131.149 239.996 C 131.99 240.838 132.463 241.978 132.465 243.168 L 132.409 243.21 C 133.66 242.599 135.06 242.362 136.443 242.526 C 137.825 242.69 139.131 243.249 140.204 244.136 C 141.277 245.023 142.072 246.2 142.493 247.527 C 142.914 248.854 142.945 250.274 142.58 251.617 C 142.216 252.961 141.472 254.171 140.438 255.102 C 139.403 256.034 138.123 256.648 136.748 256.871 C 135.374 257.094 133.965 256.916 132.689 256.359 C 131.414 255.802 130.325 254.889 129.555 253.73 L 129.492 253.583 L 129.436 253.583 C 128.608 255.303 127.339 256.771 125.757 257.839 C 124.175 258.906 122.337 259.533 120.433 259.656 C 118.528 259.778 116.625 259.392 114.919 258.537 C 113.213 257.682 111.766 256.388 110.724 254.789 L 110.549 254.789 C 109.843 256.011 108.828 257.025 107.605 257.731 C 106.383 258.436 104.996 258.808 103.585 258.808 L 103.48 258.723 C 103.269 258.976 103.045 259.228 102.779 259.474 C 100.358 261.888 97.08 263.243 93.661 263.243 C 90.243 263.243 86.965 261.888 84.544 259.474 L 84.502 259.474 C 83.728 258.714 83.054 257.859 82.496 256.928 L 82.265 256.928 C 80.607 259.472 78.303 261.529 75.588 262.888 C 72.873 264.248 69.846 264.861 66.816 264.665 C 63.786 264.468 60.863 263.47 58.346 261.771 C 55.83 260.073 53.81 257.736 52.494 254.999 L 52.403 254.95" fill="#fff"/>
    <path d="M 107.877 238.974 C 107.877 237.349 108.301 235.752 109.107 234.341 C 109.912 232.929 111.072 231.752 112.471 230.926 C 113.871 230.099 115.461 229.652 117.086 229.627 C 118.711 229.603 120.314 230.003 121.738 230.787 C 123.161 231.572 124.355 232.714 125.203 234.1 C 126.05 235.487 126.521 237.071 126.57 238.695 C 126.619 240.32 126.243 241.929 125.48 243.364 C 124.717 244.799 123.593 246.01 122.219 246.878" stroke="#3a49da" stroke-linecap="round" stroke-linejoin="round" stroke-width="2"/>
    <path d="M 123.79 232.375 C 125.556 234.142 126.548 236.539 126.548 239.038 C 126.548 241.536 125.556 243.933 123.79 245.7 C 122.375 247.112 120.459 247.904 118.46 247.904 C 116.462 247.904 114.545 247.112 113.13 245.7 C 111.999 244.568 111.364 243.033 111.364 241.433 C 111.364 239.832 111.999 238.297 113.13 237.165 C 114.036 236.262 115.263 235.755 116.542 235.755 C 117.821 235.755 119.048 236.262 119.954 237.165 C 120.678 237.89 121.085 238.872 121.085 239.897 C 121.085 240.921 120.678 241.904 119.954 242.628" stroke="#3a49da" stroke-linecap="round" stroke-linejoin="round" stroke-width="2"/>
    <path d="M 132.388 243.21 C 133.639 242.599 135.039 242.362 136.422 242.526 C 137.804 242.69 139.11 243.249 140.183 244.136 C 141.256 245.023 142.051 246.2 142.472 247.527 C 142.893 248.854 142.924 250.274 142.559 251.617 C 142.195 252.961 141.451 254.171 140.417 255.102 C 139.382 256.034 138.102 256.648 136.727 256.871 C 135.353 257.094 133.944 256.916 132.668 256.359 C 131.393 255.802 130.304 254.889 129.534 253.73" stroke="#3a49da" stroke-linecap="round" stroke-linejoin="round" stroke-width="2"/>
    <path d="M 126.679 238.869 C 127.101 238.745 127.538 238.681 127.977 238.68 C 129.167 238.682 130.307 239.155 131.149 239.996 C 131.99 240.838 132.463 241.978 132.465 243.168" stroke="#3a49da" stroke-linecap="round" stroke-linejoin="round" stroke-width="2"/>
    <path d="M 140.594 254.901 C 139.248 256.245 137.425 257 135.523 257 C 133.622 257 131.798 256.245 130.453 254.901 C 129.379 253.826 128.775 252.368 128.775 250.848 C 128.775 249.328 129.379 247.87 130.453 246.794 C 130.878 246.367 131.384 246.029 131.94 245.797 C 132.497 245.566 133.094 245.447 133.696 245.447 C 134.299 245.447 134.896 245.566 135.452 245.797 C 136.009 246.029 136.514 246.367 136.94 246.794 C 137.282 247.134 137.553 247.539 137.738 247.984 C 137.923 248.429 138.018 248.907 138.018 249.389 C 138.018 249.871 137.923 250.349 137.738 250.794 C 137.553 251.239 137.282 251.644 136.94 251.984" stroke="#3a49da" stroke-linecap="round" stroke-linejoin="round" stroke-width="2"/>
    <path d="M 129.415 253.611 C 128.587 255.331 127.318 256.799 125.736 257.867 C 124.153 258.934 122.316 259.561 120.412 259.684 C 118.507 259.806 116.604 259.42 114.898 258.565 C 113.192 257.71 111.745 256.416 110.703 254.817" stroke="#3a49da" stroke-linecap="round" stroke-linejoin="round" stroke-width="2"/>
    <path d="M 110.549 254.824 C 109.843 256.046 108.828 257.061 107.605 257.766 C 106.383 258.471 104.997 258.843 103.585 258.843" stroke="#3a49da" stroke-linecap="round" stroke-linejoin="round" stroke-width="2"/>
    <path d="M 109.273 256.444 C 107.767 257.954 105.725 258.809 103.592 258.822" stroke="#3a49da" stroke-linecap="round" stroke-linejoin="round" stroke-width="2"/>
    <path d="M 99.602 238.273 C 100.691 237.832 101.856 237.606 103.031 237.607 C 104.711 237.603 106.358 238.069 107.786 238.953" stroke="#3a49da" stroke-linecap="round" stroke-linejoin="round" stroke-width="2"/>
    <path d="M 56.877 231.554 C 55.81 231.234 54.682 231.168 53.585 231.361 C 52.487 231.554 51.45 232 50.555 232.665 C 49.661 233.33 48.934 234.195 48.433 235.19 C 47.932 236.186 47.67 237.285 47.669 238.399" stroke="#3a49da" stroke-linecap="round" stroke-linejoin="round" stroke-width="2"/>
    <path d="M 47.76 238.448 C 45.771 237.477 43.544 237.1 41.346 237.361 C 39.148 237.623 37.072 238.512 35.365 239.922 C 33.659 241.332 32.395 243.204 31.725 245.314 C 31.054 247.423 31.006 249.681 31.585 251.818 C 32.164 253.954 33.346 255.879 34.99 257.361 C 36.634 258.843 38.671 259.821 40.855 260.176 C 43.04 260.532 45.281 260.251 47.311 259.366 C 49.34 258.482 51.071 257.031 52.298 255.189" stroke="#3a49da" stroke-linecap="round" stroke-linejoin="round" stroke-width="2"/>
    <path d="M 34.702 257.047 C 36.842 259.185 39.742 260.386 42.767 260.386 C 45.792 260.386 48.693 259.185 50.832 257.047 C 51.68 256.2 52.353 255.195 52.812 254.088 C 53.272 252.98 53.508 251.794 53.508 250.595 C 53.508 249.397 53.272 248.21 52.812 247.103 C 52.353 245.996 51.68 244.99 50.832 244.143 C 50.155 243.464 49.35 242.926 48.464 242.559 C 47.579 242.192 46.629 242.002 45.67 242.002 C 44.712 242.002 43.762 242.192 42.877 242.559 C 41.991 242.926 41.186 243.464 40.509 244.143 C 39.415 245.239 38.801 246.725 38.801 248.274 C 38.801 249.823 39.415 251.308 40.509 252.405" stroke="#3a49da" stroke-linecap="round" stroke-linejoin="round" stroke-width="2"/>
    <path d="M 52.494 254.992 C 53.81 257.729 55.83 260.066 58.346 261.764 C 60.863 263.463 63.786 264.461 66.816 264.658 C 69.846 264.854 72.873 264.241 75.588 262.881 C 78.303 261.522 80.607 259.465 82.265 256.921" stroke="#3a49da" stroke-linecap="round" stroke-linejoin="round" stroke-width="2"/>
    <path d="M 82.497 256.928 C 83.667 258.948 85.367 260.61 87.413 261.734 C 89.459 262.858 91.774 263.402 94.106 263.306 C 96.439 263.211 98.701 262.48 100.648 261.193 C 102.596 259.906 104.154 258.111 105.156 256.002" stroke="#3a49da" stroke-linecap="round" stroke-linejoin="round" stroke-width="2"/>
    <path d="M 84.545 259.509 C 86.965 261.923 90.244 263.278 93.662 263.278 C 97.08 263.278 100.359 261.923 102.779 259.509 C 103.745 258.553 104.513 257.416 105.038 256.163 C 105.564 254.909 105.837 253.565 105.843 252.206 C 105.848 250.847 105.585 249.5 105.069 248.243 C 104.553 246.986 103.794 245.843 102.835 244.879 C 102.068 244.111 101.156 243.502 100.153 243.086 C 99.15 242.67 98.075 242.456 96.99 242.456 C 95.904 242.456 94.829 242.67 93.826 243.086 C 92.823 243.502 91.911 244.111 91.144 244.879 C 89.905 246.12 89.209 247.801 89.209 249.554 C 89.209 251.307 89.905 252.988 91.144 254.228 C 92.138 255.218 93.483 255.773 94.886 255.773 C 96.288 255.773 97.633 255.218 98.627 254.228 C 99.023 253.837 99.337 253.371 99.551 252.857 C 99.765 252.344 99.875 251.793 99.875 251.237 C 99.875 250.681 99.765 250.13 99.551 249.616 C 99.337 249.103 99.023 248.637 98.627 248.246" stroke="#3a49da" stroke-linecap="round" stroke-linejoin="round" stroke-width="2"/>
    <path d="M 86.768 232.003 L 86.768 231.702 C 86.768 227.757 85.2 223.973 82.411 221.184 C 79.621 218.394 75.838 216.827 71.893 216.827 C 67.948 216.827 64.164 218.394 61.374 221.184 C 58.585 223.973 57.018 227.757 57.018 231.702 C 57.007 233.692 57.395 235.665 58.157 237.504 C 58.92 239.343 60.041 241.011 61.457 242.411 C 63.708 244.66 66.761 245.923 69.943 245.923 C 73.125 245.923 76.178 244.66 78.429 242.411 C 80.227 240.611 81.237 238.17 81.237 235.626 C 81.237 233.081 80.227 230.641 78.429 228.84 C 76.984 227.408 75.032 226.604 72.997 226.604 C 70.963 226.604 69.01 227.408 67.565 228.84 C 66.995 229.41 66.543 230.087 66.234 230.832 C 65.925 231.577 65.766 232.375 65.766 233.181 C 65.766 233.988 65.925 234.786 66.234 235.531 C 66.543 236.276 66.995 236.953 67.565 237.523" stroke="#3a49da" stroke-linecap="round" stroke-linejoin="round" stroke-width="2"/>
    <path d="M 86.768 232.003 C 88.376 231.568 90.063 231.509 91.698 231.831 C 93.332 232.153 94.871 232.848 96.194 233.86 C 97.517 234.873 98.59 236.176 99.328 237.67 C 100.066 239.164 100.45 240.808 100.45 242.474 L 100.45 243.175" stroke="#3a49da" stroke-linecap="round" stroke-linejoin="round" stroke-width="2"/>
  </g>
  <g style="visibility: hidden;">
    <title>cloud-2</title>
    <path d="M 420.798 255.189 C 419.571 257.034 417.839 258.487 415.808 259.373 C 413.778 260.259 411.535 260.542 409.348 260.187 C 407.161 259.832 405.123 258.854 403.477 257.371 C 401.831 255.887 400.648 253.961 400.068 251.823 C 399.488 249.684 399.537 247.424 400.208 245.312 C 400.88 243.201 402.145 241.328 403.854 239.917 C 405.562 238.506 407.641 237.617 409.841 237.356 C 412.041 237.096 414.27 237.475 416.26 238.448 L 416.169 238.378 C 416.174 237.266 416.437 236.169 416.94 235.176 C 417.442 234.183 418.169 233.322 419.063 232.659 C 419.957 231.997 420.994 231.552 422.09 231.36 C 423.186 231.168 424.312 231.235 425.377 231.554 L 425.546 231.723 C 425.546 227.778 427.113 223.994 429.903 221.205 C 432.692 218.415 436.476 216.848 440.421 216.848 C 444.366 216.848 448.149 218.415 450.939 221.205 C 453.728 223.994 455.296 227.778 455.296 231.723 L 455.296 232.024 C 457.828 231.336 460.524 231.59 462.883 232.739 C 465.242 233.889 467.104 235.855 468.123 238.273 C 469.212 237.832 470.377 237.606 471.552 237.607 C 473.232 237.603 474.879 238.069 476.307 238.953 L 476.398 238.953 C 476.364 237.705 476.58 236.462 477.035 235.298 C 477.489 234.134 478.172 233.073 479.043 232.178 C 479.914 231.283 480.956 230.571 482.107 230.085 C 483.257 229.599 484.494 229.349 485.743 229.349 C 486.992 229.349 488.229 229.599 489.38 230.085 C 490.531 230.571 491.572 231.283 492.444 232.178 C 493.315 233.073 493.998 234.134 494.452 235.298 C 494.906 236.462 495.122 237.705 495.088 238.953 L 495.179 238.869 C 495.601 238.745 496.038 238.681 496.477 238.68 C 497.667 238.682 498.807 239.155 499.649 239.996 C 500.49 240.838 500.963 241.978 500.965 243.168 L 500.909 243.21 C 502.16 242.599 503.56 242.362 504.943 242.526 C 506.325 242.69 507.631 243.249 508.704 244.136 C 509.777 245.023 510.572 246.2 510.993 247.527 C 511.414 248.854 511.445 250.274 511.08 251.617 C 510.716 252.961 509.972 254.171 508.938 255.102 C 507.903 256.034 506.623 256.648 505.248 256.871 C 503.874 257.094 502.465 256.916 501.189 256.359 C 499.914 255.802 498.825 254.889 498.055 253.73 L 497.992 253.583 L 497.936 253.583 C 497.108 255.303 495.839 256.771 494.257 257.839 C 492.675 258.906 490.837 259.533 488.933 259.656 C 487.028 259.778 485.125 259.392 483.419 258.537 C 481.713 257.682 480.266 256.388 479.224 254.789 L 479.049 254.789 C 478.343 256.011 477.328 257.025 476.105 257.731 C 474.883 258.436 473.496 258.808 472.085 258.808 L 471.98 258.723 C 471.769 258.976 471.545 259.228 471.279 259.474 C 468.858 261.888 465.58 263.243 462.161 263.243 C 458.743 263.243 455.465 261.888 453.044 259.474 L 453.002 259.474 C 452.228 258.714 451.554 257.859 450.997 256.928 L 450.765 256.928 C 449.107 259.472 446.803 261.529 444.088 262.888 C 441.373 264.248 438.346 264.861 435.316 264.665 C 432.286 264.468 429.363 263.47 426.846 261.771 C 424.33 260.073 422.31 257.736 420.994 254.999 L 420.903 254.95" fill="#fff"/>
    <path d="M 476.377 238.974 C 476.377 237.349 476.801 235.752 477.607 234.341 C 478.412 232.929 479.572 231.752 480.971 230.926 C 482.371 230.099 483.961 229.652 485.586 229.627 C 487.211 229.603 488.814 230.003 490.238 230.787 C 491.661 231.572 492.855 232.714 493.703 234.1 C 494.55 235.487 495.021 237.071 495.07 238.695 C 495.119 240.32 494.743 241.929 493.98 243.364 C 493.217 244.799 492.093 246.01 490.719 246.878" stroke="#3a49da" stroke-linecap="round" stroke-linejoin="round" stroke-width="2"/>
    <path d="M 492.29 232.375 C 494.056 234.142 495.048 236.539 495.048 239.038 C 495.048 241.536 494.056 243.933 492.29 245.7 C 490.875 247.112 488.958 247.904 486.96 247.904 C 484.961 247.904 483.044 247.112 481.63 245.7 C 480.499 244.568 479.863 243.033 479.863 241.433 C 479.863 239.832 480.499 238.297 481.63 237.165 C 482.535 236.262 483.762 235.755 485.041 235.755 C 486.321 235.755 487.548 236.262 488.453 237.165 C 489.178 237.89 489.584 238.872 489.584 239.897 C 489.584 240.921 489.178 241.904 488.453 242.628" stroke="#3a49da" stroke-linecap="round" stroke-linejoin="round" stroke-width="2"/>
    <path d="M 500.888 243.21 C 502.139 242.599 503.539 242.362 504.921 242.526 C 506.304 242.69 507.609 243.249 508.682 244.136 C 509.755 245.023 510.55 246.2 510.972 247.527 C 511.393 248.854 511.423 250.274 511.059 251.617 C 510.694 252.961 509.95 254.171 508.916 255.102 C 507.882 256.034 506.601 256.648 505.227 256.871 C 503.853 257.094 502.444 256.916 501.168 256.359 C 499.892 255.802 498.804 254.889 498.033 253.73" stroke="#3a49da" stroke-linecap="round" stroke-linejoin="round" stroke-width="2"/>
    <path d="M 495.179 238.869 C 495.6 238.745 496.037 238.681 496.476 238.68 C 497.666 238.682 498.807 239.155 499.648 239.996 C 500.49 240.838 500.963 241.978 500.965 243.168" stroke="#3a49da" stroke-linecap="round" stroke-linejoin="round" stroke-width="2"/>
    <path d="M 509.093 254.901 C 507.748 256.245 505.924 257 504.022 257 C 502.121 257 500.297 256.245 498.952 254.901 C 497.878 253.826 497.274 252.368 497.274 250.848 C 497.274 249.328 497.878 247.87 498.952 246.794 C 499.377 246.367 499.883 246.029 500.439 245.797 C 500.996 245.566 501.593 245.447 502.195 245.447 C 502.798 245.447 503.395 245.566 503.951 245.797 C 504.508 246.029 505.013 246.367 505.439 246.794 C 505.781 247.134 506.052 247.539 506.237 247.984 C 506.422 248.429 506.517 248.907 506.517 249.389 C 506.517 249.871 506.422 250.349 506.237 250.794 C 506.052 251.239 505.781 251.644 505.439 251.984" stroke="#3a49da" stroke-linecap="round" stroke-linejoin="round" stroke-width="2"/>
    <path d="M 497.914 253.611 C 497.087 255.331 495.817 256.799 494.235 257.867 C 492.653 258.934 490.816 259.561 488.911 259.684 C 487.007 259.806 485.104 259.42 483.398 258.565 C 481.692 257.71 480.244 256.416 479.203 254.817" stroke="#3a49da" stroke-linecap="round" stroke-linejoin="round" stroke-width="2"/>
    <path d="M 479.049 254.824 C 478.343 256.046 477.327 257.061 476.105 257.766 C 474.883 258.471 473.496 258.843 472.085 258.843" stroke="#3a49da" stroke-linecap="round" stroke-linejoin="round" stroke-width="2"/>
    <path d="M 477.772 256.444 C 476.266 257.954 474.225 258.809 472.092 258.822" stroke="#3a49da" stroke-linecap="round" stroke-linejoin="round" stroke-width="2"/>
    <path d="M 468.102 238.273 C 469.191 237.832 470.356 237.606 471.531 237.607 C 473.211 237.603 474.858 238.069 476.286 238.953" stroke="#3a49da" stroke-linecap="round" stroke-linejoin="round" stroke-width="2"/>
    <path d="M 425.377 231.554 C 424.309 231.234 423.182 231.168 422.084 231.361 C 420.986 231.554 419.949 232 419.055 232.665 C 418.16 233.33 417.433 234.195 416.932 235.19 C 416.431 236.186 416.17 237.285 416.169 238.399" stroke="#3a49da" stroke-linecap="round" stroke-linejoin="round" stroke-width="2"/>
    <path d="M 416.26 238.448 C 414.271 237.477 412.044 237.1 409.846 237.361 C 407.648 237.623 405.572 238.512 403.865 239.922 C 402.159 241.332 400.895 243.204 400.225 245.314 C 399.554 247.423 399.506 249.681 400.085 251.818 C 400.664 253.954 401.846 255.879 403.49 257.361 C 405.134 258.843 407.171 259.821 409.355 260.176 C 411.54 260.532 413.781 260.251 415.81 259.366 C 417.84 258.482 419.571 257.031 420.798 255.189" stroke="#3a49da" stroke-linecap="round" stroke-linejoin="round" stroke-width="2"/>
    <path d="M 403.202 257.047 C 405.341 259.185 408.242 260.386 411.267 260.386 C 414.292 260.386 417.193 259.185 419.332 257.047 C 420.18 256.2 420.853 255.195 421.312 254.088 C 421.771 252.98 422.008 251.794 422.008 250.595 C 422.008 249.397 421.771 248.21 421.312 247.103 C 420.853 245.996 420.18 244.99 419.332 244.143 C 418.655 243.464 417.85 242.926 416.964 242.559 C 416.079 242.192 415.129 242.002 414.17 242.002 C 413.212 242.002 412.262 242.192 411.376 242.559 C 410.491 242.926 409.686 243.464 409.009 244.143 C 407.915 245.239 407.301 246.725 407.301 248.274 C 407.301 249.823 407.915 251.308 409.009 252.405" stroke="#3a49da" stroke-linecap="round" stroke-linejoin="round" stroke-width="2"/>
    <path d="M 420.994 254.992 C 422.309 257.729 424.329 260.066 426.846 261.764 C 429.363 263.463 432.286 264.461 435.316 264.658 C 438.345 264.854 441.373 264.241 444.088 262.881 C 446.803 261.522 449.107 259.465 450.765 256.921" stroke="#3a49da" stroke-linecap="round" stroke-linejoin="round" stroke-width="2"/>
    <path d="M 450.996 256.928 C 452.166 258.948 453.866 260.61 455.912 261.734 C 457.958 262.858 460.272 263.402 462.605 263.306 C 464.938 263.211 467.2 262.48 469.147 261.193 C 471.095 259.906 472.653 258.111 473.655 256.002" stroke="#3a49da" stroke-linecap="round" stroke-linejoin="round" stroke-width="2"/>
    <path d="M 453.044 259.509 C 455.464 261.923 458.743 263.278 462.161 263.278 C 465.579 263.278 468.858 261.923 471.278 259.509 C 472.244 258.553 473.012 257.416 473.537 256.163 C 474.063 254.909 474.337 253.565 474.342 252.206 C 474.347 250.847 474.084 249.5 473.568 248.243 C 473.052 246.986 472.293 245.843 471.334 244.879 C 470.567 244.111 469.655 243.502 468.652 243.086 C 467.649 242.67 466.574 242.456 465.489 242.456 C 464.403 242.456 463.328 242.67 462.325 243.086 C 461.322 243.502 460.41 244.111 459.643 244.879 C 458.404 246.12 457.708 247.801 457.708 249.554 C 457.708 251.307 458.404 252.988 459.643 254.228 C 460.637 255.218 461.982 255.773 463.385 255.773 C 464.787 255.773 466.132 255.218 467.126 254.228 C 467.522 253.837 467.835 253.371 468.05 252.857 C 468.264 252.344 468.374 251.793 468.374 251.237 C 468.374 250.681 468.264 250.13 468.05 249.616 C 467.835 249.103 467.522 248.637 467.126 248.246" stroke="#3a49da" stroke-linecap="round" stroke-linejoin="round" stroke-width="2"/>
    <path d="M 455.267 232.003 L 455.267 231.702 C 455.267 227.757 453.699 223.973 450.91 221.184 C 448.12 218.394 444.337 216.827 440.392 216.827 C 436.447 216.827 432.663 218.394 429.874 221.184 C 427.084 223.973 425.517 227.757 425.517 231.702 C 425.507 233.692 425.894 235.665 426.656 237.504 C 427.419 239.343 428.54 241.011 429.956 242.411 C 432.207 244.66 435.26 245.923 438.442 245.923 C 441.624 245.923 444.677 244.66 446.928 242.411 C 448.726 240.611 449.736 238.17 449.736 235.626 C 449.736 233.081 448.726 230.641 446.928 228.84 C 445.483 227.408 443.531 226.604 441.496 226.604 C 439.462 226.604 437.509 227.408 436.065 228.84 C 435.494 229.41 435.042 230.087 434.733 230.832 C 434.424 231.577 434.265 232.375 434.265 233.181 C 434.265 233.988 434.424 234.786 434.733 235.531 C 435.042 236.276 435.494 236.953 436.065 237.523" stroke="#3a49da" stroke-linecap="round" stroke-linejoin="round" stroke-width="2"/>
    <path d="M 455.268 232.003 C 456.876 231.568 458.563 231.509 460.198 231.831 C 461.832 232.153 463.371 232.848 464.694 233.86 C 466.017 234.873 467.09 236.176 467.828 237.67 C 468.566 239.164 468.95 240.808 468.95 242.474 L 468.95 243.175" stroke="#3a49da" stroke-linecap="round" stroke-linejoin="round" stroke-width="2"/>
  </g>
  <g style="">
    <title>cloud-3</title>
    <path d="M 115.841 85.159 C 114.863 86.629 113.483 87.787 111.864 88.493 C 110.246 89.2 108.459 89.425 106.716 89.142 C 104.973 88.859 103.348 88.079 102.037 86.897 C 100.725 85.715 99.782 84.18 99.32 82.476 C 98.858 80.771 98.897 78.97 99.432 77.288 C 99.967 75.605 100.976 74.112 102.337 72.988 C 103.698 71.863 105.355 71.155 107.109 70.947 C 108.862 70.74 110.638 71.042 112.224 71.817 L 112.152 71.761 C 112.155 70.875 112.366 70.001 112.766 69.21 C 113.166 68.418 113.746 67.732 114.458 67.203 C 115.171 66.675 115.997 66.321 116.87 66.168 C 117.744 66.015 118.641 66.068 119.49 66.323 L 119.624 66.457 C 119.624 63.313 120.873 60.298 123.097 58.075 C 125.32 55.852 128.335 54.603 131.479 54.603 C 134.623 54.603 137.638 55.852 139.861 58.075 C 142.084 60.298 143.333 63.313 143.333 66.457 L 143.333 66.698 C 145.351 66.149 147.5 66.352 149.38 67.268 C 151.26 68.183 152.744 69.75 153.556 71.678 C 154.424 71.326 155.352 71.146 156.289 71.147 C 157.628 71.143 158.94 71.515 160.078 72.22 L 160.151 72.22 C 160.124 71.225 160.296 70.234 160.658 69.307 C 161.02 68.379 161.564 67.534 162.259 66.82 C 162.953 66.107 163.783 65.539 164.7 65.152 C 165.618 64.765 166.603 64.565 167.599 64.565 C 168.594 64.565 169.58 64.765 170.497 65.152 C 171.414 65.539 172.244 66.107 172.938 66.82 C 173.633 67.534 174.177 68.379 174.539 69.307 C 174.901 70.234 175.073 71.225 175.046 72.22 L 175.119 72.153 C 175.454 72.053 175.803 72.003 176.153 72.002 C 177.101 72.003 178.01 72.381 178.68 73.051 C 179.351 73.722 179.728 74.631 179.73 75.579 L 179.685 75.612 C 180.682 75.126 181.798 74.936 182.9 75.067 C 184.001 75.198 185.042 75.643 185.897 76.35 C 186.752 77.057 187.385 77.995 187.721 79.052 C 188.057 80.11 188.081 81.241 187.791 82.312 C 187.5 83.383 186.907 84.347 186.083 85.09 C 185.259 85.832 184.238 86.322 183.143 86.499 C 182.048 86.677 180.925 86.535 179.908 86.091 C 178.892 85.647 178.024 84.92 177.41 83.996 L 177.36 83.879 L 177.315 83.879 C 176.656 85.249 175.644 86.42 174.383 87.27 C 173.122 88.121 171.658 88.621 170.14 88.718 C 168.623 88.816 167.106 88.509 165.747 87.827 C 164.387 87.145 163.233 86.114 162.403 84.84 L 162.264 84.84 C 161.701 85.814 160.892 86.622 159.918 87.184 C 158.943 87.747 157.838 88.042 156.714 88.042 L 156.63 87.975 C 156.462 88.177 156.283 88.378 156.071 88.574 C 154.142 90.497 151.529 91.577 148.805 91.577 C 146.081 91.577 143.468 90.497 141.539 88.574 L 141.506 88.574 C 140.889 87.968 140.352 87.286 139.907 86.545 L 139.723 86.545 C 138.402 88.572 136.565 90.211 134.402 91.295 C 132.238 92.378 129.825 92.867 127.411 92.71 C 124.996 92.554 122.667 91.758 120.661 90.405 C 118.655 89.051 117.046 87.188 115.997 85.008 L 115.924 84.968" fill="#fff"/>
    <path d="M 160.134 72.237 C 160.134 70.941 160.472 69.669 161.114 68.544 C 161.756 67.419 162.68 66.481 163.795 65.822 C 164.911 65.164 166.178 64.807 167.473 64.788 C 168.768 64.768 170.046 65.087 171.18 65.712 C 172.315 66.337 173.266 67.247 173.942 68.352 C 174.617 69.458 174.993 70.72 175.031 72.014 C 175.07 73.309 174.771 74.591 174.163 75.735 C 173.554 76.878 172.659 77.844 171.564 78.536" stroke="#3a49da" stroke-linecap="round" stroke-linejoin="round" stroke-width="2"/>
    <path d="M 172.816 66.977 C 174.224 68.386 175.014 70.296 175.014 72.287 C 175.014 74.278 174.224 76.188 172.816 77.597 C 171.689 78.721 170.161 79.353 168.568 79.353 C 166.976 79.353 165.448 78.721 164.321 77.597 C 163.419 76.694 162.913 75.471 162.913 74.196 C 162.913 72.92 163.419 71.697 164.321 70.795 C 165.042 70.075 166.02 69.671 167.04 69.671 C 168.059 69.671 169.037 70.075 169.759 70.795 C 170.336 71.372 170.66 72.155 170.66 72.972 C 170.66 73.788 170.336 74.571 169.759 75.149" stroke="#3a49da" stroke-linecap="round" stroke-linejoin="round" stroke-width="2"/>
    <path d="M 179.668 75.612 C 180.665 75.126 181.781 74.936 182.883 75.067 C 183.985 75.198 185.025 75.643 185.88 76.35 C 186.735 77.057 187.369 77.995 187.705 79.052 C 188.041 80.11 188.065 81.242 187.774 82.312 C 187.484 83.383 186.891 84.347 186.067 85.09 C 185.242 85.832 184.222 86.322 183.127 86.499 C 182.031 86.677 180.908 86.535 179.892 86.091 C 178.875 85.647 178.008 84.92 177.394 83.996" stroke="#3a49da" stroke-linecap="round" stroke-linejoin="round" stroke-width="2"/>
    <path d="M 175.118 72.153 C 175.454 72.053 175.802 72.003 176.152 72.002 C 177.101 72.003 178.01 72.381 178.68 73.051 C 179.351 73.722 179.728 74.631 179.729 75.579" stroke="#3a49da" stroke-linecap="round" stroke-linejoin="round" stroke-width="2"/>
    <path d="M 186.207 84.93 C 185.135 86.001 183.682 86.602 182.166 86.602 C 180.651 86.602 179.197 86.001 178.125 84.93 C 177.269 84.072 176.788 82.91 176.788 81.699 C 176.788 80.488 177.269 79.326 178.125 78.468 C 178.464 78.128 178.867 77.858 179.311 77.674 C 179.754 77.49 180.23 77.395 180.71 77.395 C 181.19 77.395 181.666 77.49 182.11 77.674 C 182.553 77.858 182.956 78.128 183.295 78.468 C 183.568 78.739 183.784 79.062 183.931 79.417 C 184.079 79.772 184.155 80.152 184.155 80.536 C 184.155 80.921 184.079 81.301 183.931 81.656 C 183.784 82.011 183.568 82.333 183.295 82.604" stroke="#3a49da" stroke-linecap="round" stroke-linejoin="round" stroke-width="2"/>
    <path d="M 177.298 83.901 C 176.639 85.272 175.627 86.442 174.366 87.293 C 173.106 88.143 171.641 88.643 170.123 88.741 C 168.606 88.839 167.089 88.531 165.73 87.849 C 164.37 87.168 163.216 86.137 162.387 84.862" stroke="#3a49da" stroke-linecap="round" stroke-linejoin="round" stroke-width="2"/>
    <path d="M 162.264 84.868 C 161.701 85.842 160.892 86.65 159.918 87.212 C 158.943 87.774 157.838 88.07 156.714 88.07" stroke="#3a49da" stroke-linecap="round" stroke-linejoin="round" stroke-width="2"/>
    <path d="M 161.247 86.159 C 160.046 87.363 158.419 88.043 156.719 88.054" stroke="#3a49da" stroke-linecap="round" stroke-linejoin="round" stroke-width="2"/>
    <path d="M 153.539 71.678 C 154.407 71.326 155.335 71.146 156.272 71.147 C 157.611 71.143 158.923 71.515 160.062 72.22" stroke="#3a49da" stroke-linecap="round" stroke-linejoin="round" stroke-width="2"/>
    <path d="M 119.49 66.323 C 118.639 66.068 117.741 66.015 116.866 66.169 C 115.991 66.323 115.164 66.679 114.452 67.209 C 113.739 67.738 113.16 68.428 112.76 69.221 C 112.361 70.014 112.153 70.89 112.152 71.778" stroke="#3a49da" stroke-linecap="round" stroke-linejoin="round" stroke-width="2"/>
    <path d="M 112.225 71.817 C 110.639 71.044 108.865 70.743 107.113 70.951 C 105.361 71.159 103.706 71.868 102.347 72.992 C 100.987 74.116 99.979 75.607 99.445 77.289 C 98.911 78.97 98.872 80.769 99.334 82.472 C 99.795 84.175 100.737 85.708 102.048 86.89 C 103.358 88.071 104.981 88.85 106.722 89.133 C 108.463 89.417 110.249 89.193 111.866 88.488 C 113.483 87.783 114.863 86.627 115.841 85.158" stroke="#3a49da" stroke-linecap="round" stroke-linejoin="round" stroke-width="2"/>
    <path d="M 101.817 86.64 C 103.523 88.343 105.834 89.301 108.245 89.301 C 110.655 89.301 112.967 88.343 114.672 86.64 C 115.348 85.965 115.885 85.163 116.25 84.281 C 116.616 83.399 116.805 82.453 116.805 81.498 C 116.805 80.543 116.616 79.597 116.25 78.714 C 115.885 77.832 115.348 77.031 114.672 76.356 C 114.132 75.815 113.491 75.386 112.785 75.093 C 112.08 74.801 111.323 74.65 110.559 74.65 C 109.795 74.65 109.038 74.801 108.332 75.093 C 107.626 75.386 106.985 75.815 106.445 76.356 C 105.573 77.23 105.084 78.413 105.084 79.648 C 105.084 80.882 105.573 82.066 106.445 82.94" stroke="#3a49da" stroke-linecap="round" stroke-linejoin="round" stroke-width="2"/>
    <path d="M 115.997 85.002 C 117.045 87.183 118.655 89.045 120.661 90.399 C 122.666 91.753 124.996 92.548 127.411 92.705 C 129.825 92.861 132.238 92.373 134.402 91.289 C 136.565 90.206 138.402 88.566 139.723 86.539" stroke="#3a49da" stroke-linecap="round" stroke-linejoin="round" stroke-width="2"/>
    <path d="M 139.907 86.545 C 140.84 88.154 142.195 89.479 143.826 90.375 C 145.456 91.27 147.3 91.704 149.159 91.628 C 151.018 91.552 152.821 90.97 154.373 89.944 C 155.925 88.918 157.167 87.487 157.966 85.807" stroke="#3a49da" stroke-linecap="round" stroke-linejoin="round" stroke-width="2"/>
    <path d="M 141.539 88.601 C 143.468 90.525 146.081 91.605 148.805 91.605 C 151.529 91.605 154.142 90.525 156.071 88.601 C 156.841 87.84 157.453 86.933 157.872 85.935 C 158.291 84.936 158.508 83.864 158.513 82.781 C 158.517 81.698 158.307 80.625 157.896 79.623 C 157.485 78.621 156.88 77.71 156.116 76.943 C 155.504 76.33 154.778 75.845 153.979 75.513 C 153.179 75.182 152.322 75.011 151.457 75.011 C 150.592 75.011 149.735 75.182 148.936 75.513 C 148.136 75.845 147.41 76.33 146.799 76.943 C 145.811 77.931 145.257 79.271 145.257 80.668 C 145.257 82.065 145.811 83.405 146.799 84.393 C 147.591 85.182 148.663 85.624 149.78 85.624 C 150.898 85.624 151.97 85.182 152.762 84.393 C 153.077 84.081 153.328 83.71 153.498 83.301 C 153.669 82.891 153.757 82.452 153.757 82.009 C 153.757 81.566 153.669 81.127 153.498 80.718 C 153.328 80.308 153.077 79.937 152.762 79.625" stroke="#3a49da" stroke-linecap="round" stroke-linejoin="round" stroke-width="2"/>
    <path d="M 143.311 66.681 L 143.311 66.441 C 143.311 63.297 142.062 60.281 139.839 58.058 C 137.616 55.835 134.601 54.586 131.457 54.586 C 128.313 54.586 125.297 55.835 123.074 58.058 C 120.851 60.281 119.602 63.297 119.602 66.441 C 119.594 68.027 119.903 69.599 120.51 71.065 C 121.118 72.53 122.012 73.86 123.14 74.975 C 124.934 76.768 127.367 77.775 129.903 77.775 C 132.439 77.775 134.871 76.768 136.666 74.975 C 138.099 73.54 138.904 71.596 138.904 69.568 C 138.904 67.54 138.099 65.595 136.666 64.16 C 135.514 63.019 133.958 62.378 132.337 62.378 C 130.715 62.378 129.16 63.019 128.008 64.16 C 127.553 64.614 127.193 65.154 126.947 65.747 C 126.701 66.341 126.574 66.977 126.574 67.62 C 126.574 68.263 126.701 68.899 126.947 69.492 C 127.193 70.086 127.553 70.625 128.008 71.08" stroke="#3a49da" stroke-linecap="round" stroke-linejoin="round" stroke-width="2"/>
    <path d="M 143.311 66.681 C 144.593 66.334 145.937 66.287 147.24 66.544 C 148.543 66.801 149.769 67.354 150.824 68.161 C 151.878 68.968 152.733 70.007 153.321 71.197 C 153.909 72.388 154.215 73.698 154.215 75.026 L 154.215 75.584" stroke="#3a49da" stroke-linecap="round" stroke-linejoin="round" stroke-width="2"/>
  </g>
</svg>