<svg viewBox="15.723 11.986 111.667 47.874" xmlns="http://www.w3.org/2000/svg"><path d="m40.801 49.473c-1.143 1.72-2.757 3.074-4.649 3.9-1.894.826-3.983 1.089-6.022.759-2.038-.331-3.937-1.242-5.472-2.624-1.533-1.383-2.636-3.179-3.177-5.171-.54-1.993-.495-4.099.131-6.068.626-1.967 1.806-3.713 3.397-5.028 1.592-1.315 3.531-2.143 5.58-2.387 2.05-.242 4.128.112 5.983 1.018l-.085-.065c.005-1.037.25-2.059.718-2.985.469-.925 1.147-1.727 1.98-2.345.833-.617 1.799-1.032 2.821-1.211 1.021-.178 2.07-.116 3.064.181l.156.158c0-3.677 1.461-7.204 4.061-9.803 2.599-2.6 6.126-4.06 9.802-4.06 3.677 0 7.202 1.46 9.802 4.06 2.6 2.599 4.061 6.126 4.061 9.803v.28c2.36-.641 4.873-.404 7.071.666 2.198 1.072 3.934 2.904 4.883 5.158 1.015-.412 2.101-.622 3.196-.621 1.566-.004 3.1.431 4.431 1.255h.085c-.032-1.164.17-2.322.594-3.407.423-1.084 1.059-2.073 1.872-2.908.811-.834 1.782-1.498 2.855-1.95 1.072-.453 2.225-.686 3.389-.686 1.163 0 2.316.233 3.389.686 1.073.452 2.043 1.116 2.855 1.95.813.835 1.449 1.824 1.872 2.908.423 1.085.625 2.243.593 3.407l.084-.079c.394-.115.801-.175 1.211-.175 1.108.001 2.171.442 2.955 1.225.784.786 1.225 1.847 1.227 2.957l-.052.039c1.165-.569 2.471-.79 3.76-.637 1.288.152 2.505.674 3.504 1.5 1 .826 1.742 1.923 2.134 3.16s.421 2.56.08 3.812c-.338 1.252-1.031 2.38-1.995 3.248-.965.869-2.158 1.44-3.439 1.649-1.281.208-2.594.042-3.783-.478-1.188-.519-2.204-1.37-2.921-2.449l-.059-.138h-.052c-.771 1.603-1.954 2.972-3.429 3.967-1.474.995-3.187 1.579-4.961 1.693-1.776.114-3.549-.246-5.14-1.043-1.59-.797-2.938-2.002-3.909-3.493h-.163c-.658 1.139-1.604 2.084-2.743 2.742-1.14.657-2.433 1.003-3.747 1.003l-.098-.078c-.197.236-.406.47-.653.7-2.257 2.249-5.312 3.512-8.497 3.512-3.186 0-6.242-1.263-8.497-3.512h-.04c-.721-.709-1.349-1.506-1.868-2.374h-.217c-1.544 2.372-3.692 4.288-6.222 5.555-2.53 1.268-5.352 1.839-8.176 1.656-2.823-.183-5.548-1.113-7.894-2.697-2.345-1.582-4.227-3.76-5.453-6.311l-.085-.046" fill="#fff"/><g fill="none"><path d="m40.809 49.414c-1.144 1.72-2.759 3.074-4.65 3.899-1.893.826-3.984 1.09-6.022.759s-3.937-1.242-5.471-2.624c-1.534-1.383-2.636-3.178-3.177-5.171s-.495-4.1.131-6.068c.625-1.967 1.805-3.712 3.397-5.028 1.592-1.315 3.529-2.144 5.58-2.386 2.05-.243 4.127.11 5.982 1.017l-.084-.065c.004-1.037.25-2.059.718-2.984.468-.926 1.146-1.728 1.98-2.346.833-.617 1.798-1.031 2.819-1.21 1.022-.18 2.072-.117 3.065.181l.157.157c0-3.677 1.46-7.203 4.06-9.802 2.599-2.601 6.126-4.061 9.803-4.061s7.202 1.46 9.802 4.061c2.6 2.599 4.06 6.125 4.06 9.802v.28c2.36-.641 4.872-.404 7.071.667 2.199 1.072 3.934 2.904 4.884 5.157 1.015-.411 2.1-.621 3.195-.62 1.567-.004 3.101.43 4.432 1.254h.085c-.032-1.163.169-2.322.593-3.406.423-1.085 1.06-2.074 1.872-2.908s1.783-1.498 2.855-1.951c1.073-.452 2.225-.685 3.389-.685s2.317.233 3.39.685c1.072.453 2.043 1.117 2.855 1.951s1.448 1.823 1.872 2.908c.423 1.084.624 2.243.593 3.406l.084-.078c.393-.116.801-.176 1.209-.177 1.11.002 2.173.443 2.957 1.227s1.225 1.847 1.227 2.957l-.053.038c1.166-.569 2.47-.79 3.759-.637 1.288.153 2.506.673 3.506 1.5s1.741 1.924 2.134 3.161c.392 1.236.421 2.56.08 3.811-.339 1.253-1.033 2.381-1.996 3.248-.964.868-2.158 1.441-3.439 1.649-1.28.208-2.594.042-3.783-.478-1.188-.518-2.203-1.369-2.92-2.45l-.059-.136h-.053c-.771 1.602-1.954 2.971-3.428 3.966-1.474.994-3.187 1.579-4.962 1.693-1.776.114-3.549-.245-5.139-1.042s-2.938-2.004-3.91-3.493h-.163c-.658 1.138-1.603 2.083-2.743 2.742-1.139.657-2.432 1.003-3.747 1.003l-.098-.079c-.196.235-.405.47-.653.699-2.256 2.25-5.311 3.513-8.497 3.513s-6.241-1.263-8.496-3.513h-.04c-.721-.707-1.35-1.504-1.869-2.372h-.216c-1.544 2.371-3.692 4.288-6.223 5.555-2.529 1.267-5.352 1.838-8.175 1.656-2.824-.184-5.548-1.114-7.894-2.698-2.345-1.582-4.228-3.76-5.454-6.31l-.085-.046"/><path d="m40.655 49.39c-1.144 1.72-2.758 3.074-4.65 3.9-1.892.825-3.983 1.089-6.021.758s-3.938-1.242-5.471-2.625c-1.535-1.383-2.638-3.177-3.178-5.17-.541-1.994-.495-4.1.132-6.068.625-1.968 1.805-3.713 3.397-5.028s3.529-2.144 5.579-2.387c2.051-.242 4.128.111 5.983 1.018l-.086-.065c.005-1.037.252-2.059.719-2.984.468-.926 1.147-1.729 1.979-2.346.834-.617 1.799-1.032 2.821-1.21 1.021-.18 2.07-.117 3.064.18l.157.157c0-3.676 1.46-7.202 4.06-9.802s6.126-4.061 9.803-4.061c3.676 0 7.202 1.461 9.802 4.061s4.061 6.126 4.061 9.802v.281c2.359-.642 4.872-.405 7.07.667 2.199 1.071 3.934 2.904 4.884 5.157 1.015-.411 2.101-.622 3.196-.621 1.565-.004 3.101.43 4.431 1.254h.085c-.032-1.162.17-2.321.594-3.405.423-1.086 1.06-2.075 1.871-2.908.812-.834 1.783-1.498 2.856-1.951 1.071-.453 2.224-.686 3.388-.686s2.317.233 3.389.686c1.074.453 2.044 1.117 2.856 1.951.812.833 1.449 1.822 1.872 2.908.422 1.084.624 2.243.592 3.405l.086-.077c.393-.116.799-.176 1.209-.177 1.109.002 2.171.443 2.957 1.227.783.784 1.223 1.847 1.225 2.956l-.052.039c1.167-.57 2.471-.79 3.76-.637 1.288.153 2.505.673 3.505 1.5 1.001.827 1.741 1.924 2.133 3.16.392 1.237.422 2.561.082 3.812-.34 1.253-1.033 2.381-1.997 3.248-.964.868-2.157 1.441-3.439 1.649-1.281.207-2.593.041-3.783-.478-1.188-.518-2.203-1.37-2.92-2.45l-.059-.137h-.052c-.772 1.604-1.955 2.971-3.429 3.967-1.475.994-3.188 1.578-4.962 1.693-1.775.113-3.548-.246-5.138-1.043-1.59-.796-2.939-2.003-3.91-3.493h-.163c-.658 1.139-1.604 2.084-2.744 2.742-1.139.657-2.431 1.004-3.746 1.004l-.098-.08c-.197.236-.406.471-.654.701-2.256 2.249-5.311 3.512-8.496 3.512-3.187 0-6.242-1.263-8.497-3.512h-.041c-.721-.709-1.349-1.505-1.868-2.373h-.216c-1.545 2.371-3.693 4.288-6.223 5.555-2.529 1.266-5.351 1.838-8.175 1.655s-5.548-1.114-7.894-2.697c-2.344-1.582-4.227-3.76-5.454-6.311l-.084-.045"/><path d="m92.453 34.278c0-1.514.395-3.002 1.146-4.317.75-1.317 1.831-2.413 3.135-3.183 1.304-.771 2.786-1.187 4.301-1.21 1.515-.024 3.008.35 4.335 1.08 1.327.732 2.439 1.796 3.229 3.087.79 1.293 1.229 2.77 1.275 4.284.045 1.514-.305 3.013-1.016 4.351-.711 1.337-1.759 2.465-3.039 3.275" stroke="#3a49da" stroke-linecap="round" stroke-linejoin="round" stroke-width="2"/><path d="m107.283 28.128c1.645 1.647 2.57 3.881 2.57 6.21 0 2.328-.925 4.562-2.57 6.209-1.319 1.316-3.105 2.054-4.967 2.054-1.863 0-3.649-.738-4.968-2.054-1.054-1.055-1.646-2.486-1.646-3.977 0-1.492.592-2.923 1.646-3.978.845-.842 1.988-1.313 3.18-1.313s2.335.471 3.18 1.313c.674.676 1.054 1.592 1.054 2.547 0 .954-.38 1.87-1.054 2.545" stroke="#3a49da" stroke-linecap="round" stroke-linejoin="round" stroke-width="2"/><path d="m115.296 38.226c1.166-.57 2.471-.79 3.76-.637 1.288.153 2.505.673 3.504 1.5 1 .827 1.742 1.924 2.134 3.16.392 1.237.421 2.561.08 3.812-.338 1.253-1.031 2.381-1.995 3.248-.965.868-2.158 1.441-3.439 1.649-1.281.207-2.594.041-3.783-.478-1.188-.518-2.204-1.37-2.921-2.45" stroke="#3a49da" stroke-linecap="round" stroke-linejoin="round" stroke-width="2"/><path d="m109.976 34.181c.393-.116.799-.176 1.209-.177 1.109.002 2.171.443 2.957 1.227.783.784 1.223 1.847 1.225 2.956" stroke="#3a49da" stroke-linecap="round" stroke-linejoin="round" stroke-width="2"/><path d="m122.944 49.122c-1.255 1.252-2.954 1.956-4.726 1.956s-3.472-.704-4.726-1.956c-1.001-1.002-1.563-2.361-1.563-3.777 0-1.418.562-2.776 1.563-3.779.396-.398.868-.712 1.386-.929.519-.215 1.076-.326 1.637-.326.562 0 1.119.111 1.636.326.519.217.99.531 1.387.929.319.317.572.695.744 1.109.172.415.261.86.261 1.31 0 .449-.089.895-.261 1.309-.172.415-.425.792-.744 1.109" stroke="#3a49da" stroke-linecap="round" stroke-linejoin="round" stroke-width="2"/><path d="m112.525 47.92c-.771 1.602-1.954 2.971-3.429 3.965-1.475.995-3.187 1.58-4.961 1.694-1.776.114-3.549-.245-5.14-1.042-1.59-.797-2.938-2.004-3.909-3.493" stroke="#3a49da" stroke-linecap="round" stroke-linejoin="round" stroke-width="2"/><path d="m94.943 49.05c-.658 1.139-1.604 2.085-2.744 2.741-1.139.657-2.43 1.005-3.746 1.005" stroke="#3a49da" stroke-linecap="round" stroke-linejoin="round" stroke-width="2"/><path d="m93.753 50.56c-1.403 1.407-3.306 2.204-5.294 2.215" stroke="#3a49da" stroke-linecap="round" stroke-linejoin="round" stroke-width="2"/><path d="m84.74 33.625c1.015-.411 2.101-.622 3.196-.621 1.566-.004 3.1.43 4.432 1.254" stroke="#3a49da" stroke-linecap="round" stroke-linejoin="round" stroke-width="2"/><path d="m44.923 27.363c-.996-.298-2.047-.36-3.069-.18-1.023.18-1.99.596-2.823 1.216-.834.619-1.511 1.426-1.978 2.353s-.712 1.952-.713 2.99" stroke="#3a49da" stroke-linecap="round" stroke-linejoin="round" stroke-width="2"/><path d="m36.426 33.788c-1.854-.905-3.929-1.256-5.978-1.013-2.048.244-3.984 1.073-5.573 2.387-1.591 1.314-2.77 3.058-3.394 5.025-.624 1.965-.669 4.07-.13 6.061.54 1.991 1.642 3.786 3.173 5.167 1.533 1.381 3.431 2.292 5.468 2.623 2.035.331 4.123.07 6.015-.755 1.891-.824 3.504-2.176 4.648-3.893" stroke="#3a49da" stroke-linecap="round" stroke-linejoin="round" stroke-width="2"/><path d="m24.256 51.122c1.994 1.992 4.698 3.111 7.517 3.111 2.818 0 5.522-1.119 7.516-3.111.79-.79 1.417-1.726 1.846-2.758.427-1.033.647-2.138.647-3.255 0-1.116-.22-2.223-.647-3.255-.429-1.031-1.056-1.969-1.846-2.758-.632-.633-1.381-1.135-2.206-1.476-.826-.343-1.711-.52-2.604-.52-.894 0-1.779.177-2.604.52-.826.341-1.577.843-2.208 1.476-1.019 1.021-1.591 2.406-1.591 3.849 0 1.444.572 2.829 1.591 3.851" stroke="#3a49da" stroke-linecap="round" stroke-linejoin="round" stroke-width="2"/><path d="m40.837 49.207c1.227 2.55 3.11 4.728 5.454 6.31 2.346 1.584 5.07 2.514 7.894 2.698 2.824.182 5.646-.389 8.175-1.656 2.53-1.267 4.678-3.184 6.223-5.555" stroke="#3a49da" stroke-linecap="round" stroke-linejoin="round" stroke-width="2"/><path d="m68.799 51.011c1.091 1.882 2.675 3.431 4.581 4.479 1.907 1.048 4.065 1.554 6.238 1.465 2.174-.088 4.283-.77 6.098-1.969 1.815-1.2 3.267-2.872 4.2-4.838" stroke="#3a49da" stroke-linecap="round" stroke-linejoin="round" stroke-width="2"/><path d="m70.708 53.416c2.255 2.25 5.311 3.513 8.497 3.513 3.185 0 6.241-1.263 8.496-3.513.9-.891 1.616-1.951 2.106-3.118.49-1.169.744-2.421.75-3.688.005-1.266-.241-2.521-.721-3.693-.482-1.171-1.189-2.237-2.082-3.136-.715-.715-1.566-1.283-2.5-1.67-.934-.389-1.937-.588-2.948-.588-1.012 0-2.014.199-2.949.588-.935.387-1.785.955-2.499 1.67-1.155 1.157-1.803 2.724-1.803 4.357 0 1.635.648 3.201 1.803 4.356.926.923 2.18 1.441 3.487 1.441s2.562-.518 3.487-1.441c.368-.364.662-.799.861-1.277.2-.479.301-.992.301-1.51 0-.519-.101-1.032-.301-1.511-.199-.478-.493-.912-.861-1.277" stroke="#3a49da" stroke-linecap="round" stroke-linejoin="round" stroke-width="2"/><path d="m72.779 27.782v-.281c0-3.677-1.459-7.203-4.06-9.802-2.6-2.6-6.126-4.061-9.803-4.061-3.676 0-7.202 1.461-9.802 4.061-2.6 2.599-4.061 6.125-4.061 9.802-.008 1.855.352 3.693 1.062 5.407.712 1.714 1.757 3.268 3.076 4.574 2.098 2.095 4.943 3.273 7.908 3.273 2.967 0 5.811-1.178 7.909-3.273 1.676-1.678 2.617-3.954 2.617-6.324 0-2.372-.941-4.646-2.617-6.324-1.346-1.335-3.166-2.084-5.063-2.084-1.895 0-3.714.749-5.061 2.084-.532.531-.954 1.162-1.242 1.857-.287.694-.436 1.437-.436 2.188 0 .753.149 1.496.436 2.191.288.694.71 1.325 1.242 1.856" stroke="#3a49da" stroke-linecap="round" stroke-linejoin="round" stroke-width="2"/><path d="m72.779 27.782c1.499-.406 3.071-.46 4.595-.161 1.524.3 2.958.948 4.19 1.891 1.234.945 2.234 2.159 2.921 3.551.688 1.392 1.046 2.924 1.046 4.477v.653" stroke="#3a49da" stroke-linecap="round" stroke-linejoin="round" stroke-width="2"/></g></svg>