<svg viewBox="15.723 11.986 111.667 47.874" xmlns="http://www.w3.org/2000/svg"><path d="M 40.801 49.473 C 39.658 51.193 38.044 52.547 36.152 53.373 C 34.258 54.199 32.169 54.462 30.13 54.132 C 28.092 53.801 26.193 52.89 24.658 51.508 C 23.125 50.125 22.022 48.329 21.481 46.337 C 20.941 44.344 20.986 42.238 21.612 40.269 C 22.238 38.302 23.418 36.556 25.009 35.241 C 26.601 33.926 28.54 33.098 30.589 32.854 C 32.639 32.612 34.717 32.966 36.572 33.872 L 36.487 33.807 C 36.492 32.77 36.737 31.748 37.205 30.822 C 37.674 29.897 38.352 29.095 39.185 28.477 C 40.018 27.86 40.984 27.445 42.006 27.266 C 43.027 27.088 44.076 27.15 45.07 27.447 L 45.226 27.605 C 45.226 23.928 46.687 20.401 49.287 17.802 C 51.886 15.202 55.413 13.742 59.089 13.742 C 62.766 13.742 66.291 15.202 68.891 17.802 C 71.491 20.401 72.952 23.928 72.952 27.605 L 72.952 27.885 C 75.312 27.244 77.825 27.481 80.023 28.551 C 82.221 29.623 83.957 31.455 84.906 33.709 C 85.921 33.297 87.007 33.087 88.102 33.088 C 89.668 33.084 91.202 33.519 92.533 34.343 L 92.618 34.343 C 92.586 33.179 92.788 32.021 93.212 30.936 C 93.635 29.852 94.271 28.863 95.084 28.028 C 95.895 27.194 96.866 26.53 97.939 26.078 C 99.011 25.625 100.164 25.392 101.328 25.392 C 102.491 25.392 103.644 25.625 104.717 26.078 C 105.79 26.53 106.76 27.194 107.572 28.028 C 108.385 28.863 109.021 29.852 109.444 30.936 C 109.867 32.021 110.069 33.179 110.037 34.343 L 110.121 34.264 C 110.515 34.149 110.922 34.089 111.332 34.089 C 112.44 34.09 113.503 34.531 114.287 35.314 C 115.071 36.1 115.512 37.161 115.514 38.271 L 115.462 38.31 C 116.627 37.741 117.933 37.52 119.222 37.673 C 120.51 37.825 121.727 38.347 122.726 39.173 C 123.726 39.999 124.468 41.096 124.86 42.333 C 125.252 43.57 125.281 44.893 124.94 46.145 C 124.602 47.397 123.909 48.525 122.945 49.393 C 121.98 50.262 120.787 50.833 119.506 51.042 C 118.225 51.25 116.912 51.084 115.723 50.564 C 114.535 50.045 113.519 49.194 112.802 48.115 L 112.743 47.977 L 112.691 47.977 C 111.92 49.58 110.737 50.949 109.262 51.944 C 107.788 52.939 106.075 53.523 104.301 53.637 C 102.525 53.751 100.752 53.391 99.161 52.594 C 97.571 51.797 96.223 50.592 95.252 49.101 L 95.089 49.101 C 94.431 50.24 93.485 51.185 92.346 51.843 C 91.206 52.5 89.913 52.846 88.599 52.846 L 88.501 52.768 C 88.304 53.004 88.095 53.238 87.848 53.468 C 85.591 55.717 82.536 56.98 79.351 56.98 C 76.165 56.98 73.109 55.717 70.854 53.468 L 70.814 53.468 C 70.093 52.759 69.465 51.962 68.946 51.094 L 68.729 51.094 C 67.185 53.466 65.037 55.382 62.507 56.649 C 59.977 57.917 57.155 58.488 54.331 58.305 C 51.508 58.122 48.783 57.192 46.437 55.608 C 44.092 54.026 42.21 51.848 40.984 49.297 L 40.899 49.251" fill="#fff" style=""/><path d="M 40.809 49.414 C 39.665 51.134 38.05 52.488 36.159 53.313 C 34.266 54.139 32.175 54.403 30.137 54.072 C 28.099 53.741 26.2 52.83 24.666 51.448 C 23.132 50.065 22.03 48.27 21.489 46.277 C 20.948 44.284 20.994 42.177 21.62 40.209 C 22.245 38.242 23.425 36.497 25.017 35.181 C 26.609 33.866 28.546 33.037 30.597 32.795 C 32.647 32.552 34.724 32.905 36.579 33.812 L 36.495 33.747 C 36.499 32.71 36.745 31.688 37.213 30.763 C 37.681 29.837 38.359 29.035 39.193 28.417 C 40.026 27.8 40.991 27.386 42.012 27.207 C 43.034 27.027 44.084 27.09 45.077 27.388 L 45.234 27.545 C 45.234 23.868 46.694 20.342 49.294 17.743 C 51.893 15.142 55.42 13.682 59.097 13.682 C 62.774 13.682 66.299 15.142 68.899 17.743 C 71.499 20.342 72.959 23.868 72.959 27.545 L 72.959 27.825 C 75.319 27.184 77.831 27.421 80.03 28.492 C 82.229 29.564 83.964 31.396 84.914 33.649 C 85.929 33.238 87.014 33.028 88.109 33.029 C 89.676 33.025 91.21 33.459 92.541 34.283 L 92.626 34.283 C 92.594 33.12 92.795 31.961 93.219 30.877 C 93.642 29.792 94.279 28.803 95.091 27.969 C 95.903 27.135 96.874 26.471 97.946 26.018 C 99.019 25.566 100.171 25.333 101.335 25.333 C 102.499 25.333 103.652 25.566 104.725 26.018 C 105.797 26.471 106.768 27.135 107.58 27.969 C 108.392 28.803 109.028 29.792 109.452 30.877 C 109.875 31.961 110.076 33.12 110.045 34.283 L 110.129 34.205 C 110.522 34.089 110.93 34.029 111.338 34.028 C 112.448 34.03 113.511 34.471 114.295 35.255 C 115.079 36.039 115.52 37.102 115.522 38.212 L 115.469 38.25 C 116.635 37.681 117.939 37.46 119.228 37.613 C 120.516 37.766 121.734 38.286 122.734 39.113 C 123.734 39.94 124.475 41.037 124.868 42.274 C 125.26 43.51 125.289 44.834 124.948 46.085 C 124.609 47.338 123.915 48.466 122.952 49.333 C 121.988 50.201 120.794 50.774 119.513 50.982 C 118.233 51.19 116.919 51.024 115.73 50.504 C 114.542 49.986 113.527 49.135 112.81 48.054 L 112.751 47.918 L 112.698 47.918 C 111.927 49.52 110.744 50.889 109.27 51.884 C 107.796 52.878 106.083 53.463 104.308 53.577 C 102.532 53.691 100.759 53.332 99.169 52.535 C 97.579 51.738 96.231 50.531 95.259 49.042 L 95.096 49.042 C 94.438 50.18 93.493 51.125 92.353 51.784 C 91.214 52.441 89.921 52.787 88.606 52.787 L 88.508 52.708 C 88.312 52.943 88.103 53.178 87.855 53.407 C 85.599 55.657 82.544 56.92 79.358 56.92 C 76.172 56.92 73.117 55.657 70.862 53.407 L 70.822 53.407 C 70.101 52.7 69.472 51.903 68.953 51.035 L 68.737 51.035 C 67.193 53.406 65.045 55.323 62.514 56.59 C 59.985 57.857 57.162 58.428 54.339 58.246 C 51.515 58.062 48.791 57.132 46.445 55.548 C 44.1 53.966 42.217 51.788 40.991 49.238 L 40.906 49.192" style="fill: none;"/><path d="M 40.655 49.39 C 39.511 51.11 37.897 52.464 36.005 53.29 C 34.113 54.115 32.022 54.379 29.984 54.048 C 27.946 53.717 26.046 52.806 24.513 51.423 C 22.978 50.04 21.875 48.246 21.335 46.253 C 20.794 44.259 20.84 42.153 21.467 40.185 C 22.092 38.217 23.272 36.472 24.864 35.157 C 26.456 33.842 28.393 33.013 30.443 32.77 C 32.494 32.528 34.571 32.881 36.426 33.788 L 36.34 33.723 C 36.345 32.686 36.592 31.664 37.059 30.739 C 37.527 29.813 38.206 29.01 39.038 28.393 C 39.872 27.776 40.837 27.361 41.859 27.183 C 42.88 27.003 43.929 27.066 44.923 27.363 L 45.08 27.52 C 45.08 23.844 46.54 20.318 49.14 17.718 C 51.74 15.118 55.266 13.657 58.943 13.657 C 62.619 13.657 66.145 15.118 68.745 17.718 C 71.345 20.318 72.806 23.844 72.806 27.52 L 72.806 27.801 C 75.165 27.159 77.678 27.396 79.876 28.468 C 82.075 29.539 83.81 31.372 84.76 33.625 C 85.775 33.214 86.861 33.003 87.956 33.004 C 89.521 33 91.057 33.434 92.387 34.258 L 92.472 34.258 C 92.44 33.096 92.642 31.937 93.066 30.853 C 93.489 29.767 94.126 28.778 94.937 27.945 C 95.749 27.111 96.72 26.447 97.793 25.994 C 98.864 25.541 100.017 25.308 101.181 25.308 C 102.345 25.308 103.498 25.541 104.57 25.994 C 105.644 26.447 106.614 27.111 107.426 27.945 C 108.238 28.778 108.875 29.767 109.298 30.853 C 109.72 31.937 109.922 33.096 109.89 34.258 L 109.976 34.181 C 110.369 34.065 110.775 34.005 111.185 34.004 C 112.294 34.006 113.356 34.447 114.142 35.231 C 114.925 36.015 115.365 37.078 115.367 38.187 L 115.315 38.226 C 116.482 37.656 117.786 37.436 119.075 37.589 C 120.363 37.742 121.58 38.262 122.58 39.089 C 123.581 39.916 124.321 41.013 124.713 42.249 C 125.105 43.486 125.135 44.81 124.795 46.061 C 124.455 47.314 123.762 48.442 122.798 49.309 C 121.834 50.177 120.641 50.75 119.359 50.958 C 118.078 51.165 116.766 50.999 115.576 50.48 C 114.388 49.962 113.373 49.11 112.656 48.03 L 112.597 47.893 L 112.545 47.893 C 111.773 49.497 110.59 50.864 109.116 51.86 C 107.641 52.854 105.928 53.438 104.154 53.553 C 102.379 53.666 100.606 53.307 99.016 52.51 C 97.426 51.714 96.077 50.507 95.106 49.017 L 94.943 49.017 C 94.285 50.156 93.339 51.101 92.199 51.759 C 91.06 52.416 89.768 52.763 88.453 52.763 L 88.355 52.683 C 88.158 52.919 87.949 53.154 87.701 53.384 C 85.445 55.633 82.39 56.896 79.205 56.896 C 76.018 56.896 72.963 55.633 70.708 53.384 L 70.667 53.384 C 69.946 52.675 69.318 51.879 68.799 51.011 L 68.583 51.011 C 67.038 53.382 64.89 55.299 62.36 56.566 C 59.831 57.832 57.009 58.404 54.185 58.221 C 51.361 58.038 48.637 57.107 46.291 55.524 C 43.947 53.942 42.064 51.764 40.837 49.213 L 40.753 49.168" style="fill: none;"/><path d="M 92.453 34.278 C 92.453 32.764 92.848 31.276 93.599 29.961 C 94.349 28.644 95.43 27.548 96.734 26.778 C 98.038 26.007 99.52 25.591 101.035 25.568 C 102.55 25.544 104.043 25.918 105.37 26.648 C 106.697 27.38 107.809 28.444 108.599 29.735 C 109.389 31.028 109.828 32.505 109.874 34.019 C 109.919 35.533 109.569 37.032 108.858 38.37 C 108.147 39.707 107.099 40.835 105.819 41.645" stroke="#3a49da" stroke-linecap="round" stroke-linejoin="round" stroke-width="2" style="fill: none;"/><path d="M 107.283 28.128 C 108.928 29.775 109.853 32.009 109.853 34.338 C 109.853 36.666 108.928 38.9 107.283 40.547 C 105.964 41.863 104.178 42.601 102.316 42.601 C 100.453 42.601 98.667 41.863 97.348 40.547 C 96.294 39.492 95.702 38.061 95.702 36.57 C 95.702 35.078 96.294 33.647 97.348 32.592 C 98.193 31.75 99.336 31.279 100.528 31.279 C 101.72 31.279 102.863 31.75 103.708 32.592 C 104.382 33.268 104.762 34.184 104.762 35.139 C 104.762 36.093 104.382 37.009 103.708 37.684" stroke="#3a49da" stroke-linecap="round" stroke-linejoin="round" stroke-width="2" style="fill: none;"/><path d="M 115.296 38.226 C 116.462 37.656 117.767 37.436 119.056 37.589 C 120.344 37.742 121.561 38.262 122.56 39.089 C 123.56 39.916 124.302 41.013 124.694 42.249 C 125.086 43.486 125.115 44.81 124.774 46.061 C 124.436 47.314 123.743 48.442 122.779 49.309 C 121.814 50.177 120.621 50.75 119.34 50.958 C 118.059 51.165 116.746 50.999 115.557 50.48 C 114.369 49.962 113.353 49.11 112.636 48.03" stroke="#3a49da" stroke-linecap="round" stroke-linejoin="round" stroke-width="2" style="fill: none;"/><path d="M 109.976 34.181 C 110.369 34.065 110.775 34.005 111.185 34.004 C 112.294 34.006 113.356 34.447 114.142 35.231 C 114.925 36.015 115.365 37.078 115.367 38.187" stroke="#3a49da" stroke-linecap="round" stroke-linejoin="round" stroke-width="2" style="fill: none;"/><path d="M 122.944 49.122 C 121.689 50.374 119.99 51.078 118.218 51.078 C 116.446 51.078 114.746 50.374 113.492 49.122 C 112.491 48.12 111.929 46.761 111.929 45.345 C 111.929 43.927 112.491 42.569 113.492 41.566 C 113.888 41.168 114.36 40.854 114.878 40.637 C 115.397 40.422 115.954 40.311 116.515 40.311 C 117.077 40.311 117.634 40.422 118.151 40.637 C 118.67 40.854 119.141 41.168 119.538 41.566 C 119.857 41.883 120.11 42.261 120.282 42.675 C 120.454 43.09 120.543 43.535 120.543 43.985 C 120.543 44.434 120.454 44.88 120.282 45.294 C 120.11 45.709 119.857 46.086 119.538 46.403" stroke="#3a49da" stroke-linecap="round" stroke-linejoin="round" stroke-width="2" style="fill: none;"/><path d="M 112.525 47.92 C 111.754 49.522 110.571 50.891 109.096 51.885 C 107.621 52.88 105.909 53.465 104.135 53.579 C 102.359 53.693 100.586 53.334 98.995 52.537 C 97.405 51.74 96.057 50.533 95.086 49.044" stroke="#3a49da" stroke-linecap="round" stroke-linejoin="round" stroke-width="2" style="fill: none;"/><path d="M 94.943 49.05 C 94.285 50.189 93.339 51.135 92.199 51.791 C 91.06 52.448 89.769 52.796 88.453 52.796" stroke="#3a49da" stroke-linecap="round" stroke-linejoin="round" stroke-width="2" style="fill: none;"/><path d="M 93.753 50.56 C 92.35 51.967 90.447 52.764 88.459 52.775" stroke="#3a49da" stroke-linecap="round" stroke-linejoin="round" stroke-width="2" style="fill: none;"/><path d="M 84.74 33.625 C 85.755 33.214 86.841 33.003 87.936 33.004 C 89.502 33 91.036 33.434 92.368 34.258" stroke="#3a49da" stroke-linecap="round" stroke-linejoin="round" stroke-width="2" style="fill: none;"/><path d="M 44.923 27.363 C 43.927 27.065 42.876 27.003 41.854 27.183 C 40.831 27.363 39.864 27.779 39.031 28.399 C 38.197 29.018 37.52 29.825 37.053 30.752 C 36.586 31.679 36.341 32.704 36.34 33.742" stroke="#3a49da" stroke-linecap="round" stroke-linejoin="round" stroke-width="2" style="fill: none;"/><path d="M 36.426 33.788 C 34.572 32.883 32.497 32.532 30.448 32.775 C 28.4 33.019 26.464 33.848 24.875 35.162 C 23.284 36.476 22.105 38.22 21.481 40.187 C 20.857 42.152 20.812 44.257 21.351 46.248 C 21.891 48.239 22.993 50.034 24.524 51.415 C 26.057 52.796 27.955 53.707 29.992 54.038 C 32.027 54.369 34.115 54.108 36.007 53.283 C 37.898 52.459 39.511 51.107 40.655 49.39" stroke="#3a49da" stroke-linecap="round" stroke-linejoin="round" stroke-width="2" style="fill: none;"/><path d="M 24.256 51.122 C 26.25 53.114 28.954 54.233 31.773 54.233 C 34.591 54.233 37.295 53.114 39.289 51.122 C 40.079 50.332 40.706 49.396 41.135 48.364 C 41.562 47.331 41.782 46.226 41.782 45.109 C 41.782 43.993 41.562 42.886 41.135 41.854 C 40.706 40.823 40.079 39.885 39.289 39.096 C 38.657 38.463 37.908 37.961 37.083 37.62 C 36.257 37.277 35.372 37.1 34.479 37.1 C 33.585 37.1 32.7 37.277 31.875 37.62 C 31.049 37.961 30.298 38.463 29.667 39.096 C 28.648 40.117 28.076 41.502 28.076 42.945 C 28.076 44.389 28.648 45.774 29.667 46.796" stroke="#3a49da" stroke-linecap="round" stroke-linejoin="round" stroke-width="2" style="fill: none;"/><path d="M 40.837 49.207 C 42.064 51.757 43.947 53.935 46.291 55.517 C 48.637 57.101 51.361 58.031 54.185 58.215 C 57.009 58.397 59.831 57.826 62.36 56.559 C 64.89 55.292 67.038 53.375 68.583 51.004" stroke="#3a49da" stroke-linecap="round" stroke-linejoin="round" stroke-width="2" style="fill: none;"/><path d="M 68.799 51.011 C 69.89 52.893 71.474 54.442 73.38 55.49 C 75.287 56.538 77.445 57.044 79.618 56.955 C 81.792 56.867 83.901 56.185 85.716 54.986 C 87.531 53.786 88.983 52.114 89.916 50.148" stroke="#3a49da" stroke-linecap="round" stroke-linejoin="round" stroke-width="2" style="fill: none;"/><path d="M 70.708 53.416 C 72.963 55.666 76.019 56.929 79.205 56.929 C 82.39 56.929 85.446 55.666 87.701 53.416 C 88.601 52.525 89.317 51.465 89.807 50.298 C 90.297 49.129 90.551 47.877 90.557 46.61 C 90.562 45.344 90.316 44.089 89.836 42.917 C 89.354 41.746 88.647 40.68 87.754 39.781 C 87.039 39.066 86.188 38.498 85.254 38.111 C 84.32 37.722 83.317 37.523 82.306 37.523 C 81.294 37.523 80.292 37.722 79.357 38.111 C 78.422 38.498 77.572 39.066 76.858 39.781 C 75.703 40.938 75.055 42.505 75.055 44.138 C 75.055 45.773 75.703 47.339 76.858 48.494 C 77.784 49.417 79.038 49.935 80.345 49.935 C 81.652 49.935 82.907 49.417 83.832 48.494 C 84.2 48.13 84.494 47.695 84.693 47.217 C 84.893 46.738 84.994 46.225 84.994 45.707 C 84.994 45.188 84.893 44.675 84.693 44.196 C 84.494 43.718 84.2 43.284 83.832 42.919" stroke="#3a49da" stroke-linecap="round" stroke-linejoin="round" stroke-width="2" style="fill: none;"/><path d="M 72.779 27.782 L 72.779 27.501 C 72.779 23.824 71.32 20.298 68.719 17.699 C 66.119 15.099 62.593 13.638 58.916 13.638 C 55.24 13.638 51.714 15.099 49.114 17.699 C 46.514 20.298 45.053 23.824 45.053 27.501 C 45.045 29.356 45.405 31.194 46.115 32.908 C 46.827 34.622 47.872 36.176 49.191 37.482 C 51.289 39.577 54.134 40.755 57.099 40.755 C 60.066 40.755 62.91 39.577 65.008 37.482 C 66.684 35.804 67.625 33.528 67.625 31.158 C 67.625 28.786 66.684 26.512 65.008 24.834 C 63.662 23.499 61.842 22.75 59.945 22.75 C 58.05 22.75 56.231 23.499 54.884 24.834 C 54.352 25.365 53.93 25.996 53.642 26.691 C 53.355 27.385 53.206 28.128 53.206 28.879 C 53.206 29.632 53.355 30.375 53.642 31.07 C 53.93 31.764 54.352 32.395 54.884 32.926" stroke="#3a49da" stroke-linecap="round" stroke-linejoin="round" stroke-width="2" style="fill: none;"/><path d="M 72.779 27.782 C 74.278 27.376 75.85 27.322 77.374 27.621 C 78.898 27.921 80.332 28.569 81.564 29.512 C 82.798 30.457 83.798 31.671 84.485 33.063 C 85.173 34.455 85.531 35.987 85.531 37.54 L 85.531 38.193" stroke="#3a49da" stroke-linecap="round" stroke-linejoin="round" stroke-width="2" style="fill: none;"/></svg>