<?xml version="1.0" encoding="utf-8"?>
<svg viewBox="0 0 576 410" width="576px" height="410px" fill="none" xmlns="http://www.w3.org/2000/svg">
  <g style="visibility: hidden;" transform="matrix(1, 0, 0, 1, 3.782595, -8.153921)">
    <title>background</title>
    <path d="M 89.608 285.057 C 85.395 268.689 83.154 251.529 83.154 233.846 C 83.154 120.713 174.867 29 288 29 C 401.133 29 492.846 120.713 492.846 233.846 C 492.846 251.529 490.605 268.689 486.393 285.057" stroke="#3a49da" stroke-width="2" style="fill: rgb(255, 255, 255);"/>
    <path d="M 99.24 285.057 C 94.822 268.735 92.465 251.566 92.465 233.846 C 92.465 125.855 180.009 38.311 288 38.311 C 395.991 38.311 483.535 125.855 483.535 233.846 C 483.535 251.566 481.178 268.735 476.76 285.057" stroke="#e0e5f8" stroke-width="2" style="fill: rgb(255, 255, 255);"/>
    <path d="M 108.907 285.057 C 104.263 268.787 101.777 251.607 101.777 233.846 C 101.777 130.997 185.152 47.622 288 47.622 C 390.849 47.622 474.224 130.997 474.224 233.846 C 474.224 251.607 471.738 268.787 467.094 285.057" stroke="#e0e5f8" stroke-width="2" style="fill: rgb(255, 255, 255);"/>
    <path d="M 118.613 285.057 C 113.719 268.846 111.088 251.653 111.088 233.846 C 111.088 136.14 190.294 56.934 288 56.934 C 385.706 56.934 464.913 136.14 464.913 233.846 C 464.913 251.653 462.282 268.846 457.387 285.057" stroke="#e0e5f8" stroke-width="2" style="fill: rgb(255, 255, 255);"/>
    <path d="M 128.367 285.057 C 123.192 268.915 120.398 251.707 120.398 233.846 C 120.398 141.282 195.436 66.245 288 66.245 C 380.563 66.245 455.601 141.282 455.601 233.846 C 455.601 251.707 452.807 268.915 447.633 285.057" stroke="#e0e5f8" stroke-width="2" style="fill: rgb(255, 255, 255);"/>
    <path d="M 70.157 285.833 L 508.171 285.833 C 509.992 285.833 511.468 287.31 511.468 289.131 C 511.468 290.952 509.992 292.429 508.171 292.429 L 423.446 292.429 C 421.108 292.429 419.214 294.324 419.214 296.661 C 419.214 298.999 421.108 300.893 423.446 300.893 L 487.872 300.893 C 490.843 300.893 493.251 303.302 493.251 306.272 C 493.251 309.243 490.843 311.651 487.872 311.651 L 405.113 311.651 C 402.142 311.651 399.734 314.059 399.734 317.029 C 399.734 320 402.142 322.408 405.113 322.408 L 448.721 322.408 C 452.12 322.408 454.876 325.163 454.876 328.562 C 454.876 331.962 452.12 334.717 448.721 334.717 L 368.448 334.717 C 365.015 334.717 362.232 337.5 362.232 340.933 C 362.232 344.366 365.015 347.15 368.448 347.15 L 374.621 347.15 C 378.483 347.15 381.613 350.28 381.613 354.142 C 381.613 358.003 378.483 361.134 374.621 361.134 L 329.264 361.134 C 326.492 361.134 324.244 363.381 324.244 366.154 C 324.244 368.926 326.492 371.174 329.264 371.174 L 337.026 371.174 C 339.6 371.174 341.687 373.261 341.687 375.835 C 341.687 378.41 339.6 380.497 337.026 380.497 L 219.724 380.497 C 217.149 380.497 215.062 378.41 215.062 375.835 C 215.062 373.261 217.149 371.174 219.724 371.174 L 245.021 371.174 C 246.902 371.174 248.427 369.649 248.427 367.768 C 248.427 365.886 246.902 364.361 245.021 364.361 L 182.59 364.361 C 180.114 364.361 178.107 362.354 178.107 359.879 C 178.107 357.403 180.114 355.397 182.59 355.397 L 191.427 355.397 C 193.705 355.397 195.551 353.551 195.551 351.273 C 195.551 348.996 193.705 347.15 191.427 347.15 L 147.621 347.15 C 143.264 347.15 139.732 343.618 139.732 339.261 C 139.732 334.904 143.264 331.372 147.621 331.372 L 191.069 331.372 C 193.544 331.372 195.551 329.366 195.551 326.89 C 195.551 324.415 193.544 322.408 191.069 322.408 L 108.945 322.408 C 105.182 322.408 102.132 319.358 102.132 315.595 C 102.132 311.832 105.182 308.782 108.945 308.782 L 151.327 308.782 C 154.557 308.782 157.175 306.163 157.175 302.933 C 157.175 299.703 154.557 297.084 151.327 297.084 L 70.157 297.084 C 67.05 297.084 64.532 294.566 64.532 291.459 C 64.532 288.352 67.05 285.833 70.157 285.833 Z" fill="#eaf5ff" style=""/>
    <path d="M 63.756 285.057 L 512.244 285.057" stroke="#3a49da" stroke-width="2" style=""/>
  </g>
  <g transform="matrix(1, 0, 0, 1, 1.240453, 7.853468)" style="visibility: hidden;">
    <title>arm</title>
    <path d="M 342.539 187.922 L 342.539 159.264 L 386.608 174.33 L 387.197 174.532 L 387.638 174.091 L 421.962 139.768 L 439.779 152.24 C 439.51 152.56 439.168 152.967 438.757 153.451 C 437.652 154.757 436.059 156.628 434.107 158.886 C 430.201 163.402 424.863 169.464 419.126 175.65 C 413.387 181.838 407.262 188.139 401.782 193.139 C 399.041 195.639 396.474 197.802 394.207 199.46 C 391.921 201.132 390.009 202.237 388.57 202.692 C 385.649 203.614 381.323 203.238 376.311 202.015 C 371.346 200.804 365.883 198.808 360.79 196.674 C 355.702 194.542 351.008 192.282 347.585 190.555 C 345.874 189.691 344.481 188.962 343.518 188.448 C 343.113 188.233 342.784 188.055 342.539 187.922 Z" fill="#fff" stroke="#3a49da" stroke-width="2" style=""/>
    <path d="M 399.347 162.133 L 363.654 197.826" stroke-width="2"/>
  </g>
  <g transform="matrix(1, 0, 0, 1, 26.898607, 18.116619)" style="">
    <title>search</title>
    <rect height="45.332" rx="7" stroke="#3a49da" stroke-width="2" width="463.559" x="52.548" y="96.394" style="fill: rgb(255, 255, 255);"/>
    <rect height="29.037" rx="14.519" stroke="#e0e5f8" stroke-width="2" width="258.713" x="163.506" y="104.153" style="fill: rgb(255, 255, 255);"/>
    <circle cx="177.094" cy="117.74" r="6.78" stroke="#3a49da" stroke-width="3.2" style="fill: rgb(255, 255, 255);"/>
    <path d="M 181.75 122.396 L 187.336 127.983" stroke="#3a49da" stroke-width="3.2" style="fill: rgb(255, 255, 255);"/>
    <path clip-rule="evenodd" d="M 75.976 110.82 C 76.913 109.87 78.18 109.255 79.613 109.255 C 81.486 109.255 83.139 110.317 84.021 111.882 C 84.792 111.546 85.619 111.323 86.501 111.323 C 89.917 111.323 92.672 114.117 92.672 117.582 C 92.672 121.047 89.917 123.841 86.501 123.841 C 86.06 123.841 85.674 123.785 85.288 123.729 C 84.517 125.126 83.029 126.076 81.321 126.076 C 80.605 126.076 79.943 125.909 79.337 125.629 C 78.566 127.473 76.747 128.759 74.598 128.759 C 72.394 128.759 70.466 127.362 69.749 125.35 C 69.419 125.406 69.088 125.461 68.757 125.461 C 66.112 125.461 63.963 123.282 63.963 120.6 C 63.963 118.811 64.9 117.246 66.333 116.408 C 66.057 115.738 65.892 114.955 65.892 114.173 C 65.892 111.099 68.372 108.584 71.457 108.584 C 73.386 108.64 74.984 109.479 75.976 110.82" fill-rule="evenodd" style="fill: rgb(255, 255, 255);"/>
    <path d="M 75.976 110.82 C 76.913 109.87 78.18 109.255 79.613 109.255 C 81.486 109.255 83.139 110.317 84.021 111.882 C 84.792 111.546 85.619 111.323 86.501 111.323 C 89.917 111.323 92.672 114.117 92.672 117.582 C 92.672 121.047 89.917 123.841 86.501 123.841 C 86.06 123.841 85.674 123.785 85.288 123.729 C 84.517 125.126 83.029 126.076 81.321 126.076 C 80.605 126.076 79.943 125.909 79.337 125.629 C 78.566 127.473 76.747 128.759 74.598 128.759 C 72.394 128.759 70.466 127.362 69.749 125.35 C 69.419 125.406 69.088 125.461 68.757 125.461 C 66.112 125.461 63.963 123.282 63.963 120.6 C 63.963 118.811 64.9 117.246 66.333 116.408 C 66.057 115.738 65.892 114.955 65.892 114.173 C 65.892 111.099 68.372 108.584 71.457 108.584 C 73.386 108.64 74.984 109.479 75.976 110.82" stroke="#3a49da" stroke-width="2" style="fill: rgb(255, 255, 255);"/>
    <path d="M 484.518 110.136 L 504.692 110.136 L 504.692 111.688 L 484.518 111.688 L 484.518 110.136 Z" fill="#3a49da"/>
    <path d="M 484.518 117.896 L 504.692 117.896 L 504.692 119.448 L 484.518 119.448 L 484.518 117.896 Z" fill="#3a49da"/>
    <path d="M 484.518 125.655 L 504.692 125.655 L 504.692 127.207 L 484.518 127.207 L 484.518 125.655 Z" fill="#3a49da"/>
  </g>
  <g stroke="#3a49da" transform="matrix(1, 0, 0, 1, 1.240453, 7.853468)" style="visibility: hidden;">
    <title>bear</title>
    <path d="m284.509 150.494-65.11 130.219c-.555 1.111-.844 2.336-.844 3.578v65.332c0 5.982 6.324 9.848 11.648 7.12l30.944-15.856c2.671-1.368 4.352-4.118 4.352-7.119v-26.536l48.107-10.087 8.411-8.237c18.728-18.342 29.505-43.305 30.011-69.514l1.151-59.589 19.786-15.579s11.251-8.923 11.251-10.475-12.803-16.683-12.803-16.683v-5.774c0-2.902-1.572-5.576-4.107-6.989l-17.806-9.9201c-3.108-1.7315-6.985-1.2027-9.516 1.2977z" stroke-width="2" fill="#fff"/>
    <path d="m296.924 138.467 25.675 26.001c2.84 2.875 7.379 3.181 10.579.713l7.974-6.152" stroke-width="2" style="fill: rgb(255, 255, 255);"/>
    <path d="m327.961 167.504-10.475 60.195" stroke-width="2"/>
    <path d="m291.104 143.899 35.305 34.529" stroke-width="2"/>
    <path d="m332.059 88.1419 7.428 7.6723-11.481 11.1158-7.428-7.6718c-3.07-3.1704-2.988-8.2289.182-11.2986s8.229-2.9881 11.299.1823z" stroke-width="2" fill="#fff"/>
    <path d="m329.517 90.4404 7.51 7.7569-6.559 6.3517-7.511-7.7571c-1.754-1.8114-1.707-4.7017.104-6.4557 1.812-1.7539 4.702-1.7073 6.456.1042z" stroke-width="2" fill="#fff"/>
    <path d="m270.154 179.979 75.653 75.654" stroke-width="2"/>
    <path d="m229.484 206.578-.21.072-.16.153-26.443 25.31-18.038-18.398c.229-.246.515-.552.854-.915.967-1.032 2.361-2.515 4.072-4.32 3.422-3.61 8.109-8.503 13.171-13.638 5.063-5.135 10.495-10.507 15.409-15.076 4.93-4.585 9.285-8.311 12.209-10.197 2.916-1.882 7.829-4.106 13.628-6.397 5.779-2.282 12.368-4.604 18.591-6.686 6.222-2.082 12.069-3.922 16.362-5.242 2.146-.66 3.903-1.19 5.123-1.554.61-.183 1.086-.324 1.409-.419.044-.013.086-.025.124-.037 6.112 3.034 10.886 9.701 11.752 17.041.87 7.369-2.193 15.504-12.082 21.326z" stroke-width="2" fill="#fff"/>
    <rect height="17.528" rx="3" stroke-width="2" transform="matrix(.73148581 .68185666 -.68185666 .73148581 190.666591 -77.93487)" width="6.09966" x="194.286" y="203.119" fill="#fff"/>
    <rect height="17.528" rx="3" stroke-width="2" transform="matrix(.73148581 .68185666 -.68185666 .73148581 195.1311 -80.065907)" width="6.09966" x="199.224" y="207.722" fill="#fff"/>
    <rect height="17.528" rx="3" stroke-width="2" transform="matrix(.73148581 .68185666 -.68185666 .73148581 199.594659 -82.196531)" width="6.09966" x="204.161" y="212.324" fill="#fff"/>
    <rect height="17.528" rx="3" stroke-width="2" transform="matrix(.73148581 .68185666 -.68185666 .73148581 204.058218 -84.327155)" width="6.09966" x="209.098" y="216.926" fill="#fff"/>
    <path d="m281.017 266.108c5.82-17.846 16.683-30.261 36.469-39.573" stroke-width="2" style="fill: rgb(255, 255, 255);"/>
    <path d="m286.836 148.166-57.419 58.971" stroke-width="2"/>
    <path d="m334.168 304.904-33.365 13.191 24.311 57.204c1.255 2.953 4.154 4.871 7.363 4.871h33.892z" stroke-width="2" fill="#fff"/>
    <path d="m202.82 352.46h11.467c15.397 0 27.941 12.217 28.468 27.486h-35.211c-3.866 0-7-3.134-7-7v-18.209c0-1.258 1.019-2.277 2.276-2.277z" stroke-width="2" fill="#fff"/>
    <path d="m203.658 339.482 14.672-8.465v42.256c0 3.866-3.134 7-7 7h-4.174c-3.866 0-7-3.134-7-7v-27.728c0-2.501 1.335-4.813 3.502-6.063z" stroke-width="2" fill="#fff"/>
    <path d="m225.391 279.462h55.612c5.005 0 8.393 5.099 6.453 9.713l-19.121 45.491c-1.457 3.467-5.394 5.163-8.915 3.84l-36.491-13.71c-2.73-1.026-4.538-3.636-4.538-6.553v-31.781c0-3.866 3.134-7 7-7z" stroke-width="2" fill="#fff"/>
    <path d="m220.872 278.065 29.763-59.526 80.674 82.41c2.718 2.777 2.654 7.236-.142 9.934l-21.281 20.534c-2.25 2.171-5.668 2.587-8.373 1.018l-77.893-45.185c-3.198-1.855-4.402-5.878-2.748-9.185z" stroke-width="2" fill="#fff"/>
    <path d="m374.664 379.946h-41.227c-3.621 0-6.889-2.17-8.294-5.508l-9.254-21.978h30.307c15.397 0 27.941 12.217 28.468 27.486z" stroke-width="2" fill="#fff"/>
    <path d="m338.048 313.767-27.546 27.546" stroke-width="2"/>
    <path d="m218.555 330.062 36.468 13.578" stroke-width="2"/>
    <path d="M 377.62 124.828 L 376.572 133.562 C 376.499 134.171 376.709 134.78 377.143 135.214 L 379.56 137.63" stroke="#3a49da" stroke-linecap="round" stroke-width="2"/>
    <path d="m338.047 314.931 28.321 65.178" stroke-linecap="round" stroke-width="2"/>
    <path d="M 366.757 122.112 C 368.309 106.205 353.179 95.342 343.091 103.102 C 333.004 110.861 332.228 130.259 351.627 137.242" stroke="#3a49da" stroke-width="2" style="fill: rgb(255, 255, 255);"/>
    <circle cx="357.446" cy="117.517" r="3.268" stroke-width="2" style="fill: rgb(255, 255, 255);"/>
    <path d="M 371.801 117.129 L 340.764 148.106 L 340.764 159.417 L 353.955 159.417" stroke-width="2" style="fill: rgb(255, 255, 255);"/>
    <path d="M 349.299 139.57 L 356.67 156.641" stroke-linecap="round" stroke-width="2"/>
  </g>
  <g transform="matrix(1, 0, 0, 1, -397.497406, -189.478058)" style="visibility: hidden;">
    <title>cloud</title>
    <path d="M 434.853 248.862 C 433.626 250.707 431.894 252.16 429.863 253.046 C 427.833 253.932 425.59 254.215 423.403 253.86 C 421.216 253.505 419.178 252.527 417.532 251.044 C 415.886 249.56 414.703 247.634 414.123 245.496 C 413.543 243.357 413.592 241.097 414.263 238.985 C 414.935 236.874 416.2 235.001 417.909 233.59 C 419.617 232.179 421.696 231.29 423.896 231.029 C 426.096 230.769 428.325 231.148 430.315 232.121 L 430.224 232.051 C 430.229 230.939 430.492 229.842 430.995 228.849 C 431.497 227.856 432.224 226.995 433.118 226.332 C 434.012 225.67 435.049 225.225 436.145 225.033 C 437.241 224.841 438.367 224.908 439.432 225.227 L 439.601 225.396 C 439.601 221.451 441.168 217.667 443.958 214.878 C 446.747 212.088 450.531 210.521 454.476 210.521 C 458.421 210.521 462.204 212.088 464.994 214.878 C 467.783 217.667 469.351 221.451 469.351 225.396 L 469.351 225.697 C 471.883 225.009 474.579 225.263 476.938 226.412 C 479.297 227.562 481.159 229.528 482.178 231.946 C 483.267 231.505 484.432 231.279 485.607 231.28 C 487.287 231.276 488.934 231.742 490.362 232.626 L 490.453 232.626 C 490.419 231.378 490.635 230.135 491.09 228.971 C 491.544 227.807 492.227 226.746 493.098 225.851 C 493.969 224.956 495.011 224.244 496.162 223.758 C 497.312 223.272 498.549 223.022 499.798 223.022 C 501.047 223.022 502.284 223.272 503.435 223.758 C 504.586 224.244 505.627 224.956 506.499 225.851 C 507.37 226.746 508.053 227.807 508.507 228.971 C 508.961 230.135 509.177 231.378 509.143 232.626 L 509.234 232.542 C 509.656 232.418 510.093 232.354 510.532 232.353 C 511.722 232.355 512.862 232.828 513.704 233.669 C 514.545 234.511 515.018 235.651 515.02 236.841 L 514.964 236.883 C 516.215 236.272 517.615 236.035 518.998 236.199 C 520.38 236.363 521.686 236.922 522.759 237.809 C 523.832 238.696 524.627 239.873 525.048 241.2 C 525.469 242.527 525.5 243.947 525.135 245.29 C 524.771 246.634 524.027 247.844 522.993 248.775 C 521.958 249.707 520.678 250.321 519.303 250.544 C 517.929 250.767 516.52 250.589 515.244 250.032 C 513.969 249.475 512.88 248.562 512.11 247.403 L 512.047 247.256 L 511.991 247.256 C 511.163 248.976 509.894 250.444 508.312 251.512 C 506.73 252.579 504.892 253.206 502.988 253.329 C 501.083 253.451 499.18 253.065 497.474 252.21 C 495.768 251.355 494.321 250.061 493.279 248.462 L 493.104 248.462 C 492.398 249.684 491.383 250.698 490.16 251.404 C 488.938 252.109 487.551 252.481 486.14 252.481 L 486.035 252.396 C 485.824 252.649 485.6 252.901 485.334 253.147 C 482.913 255.561 479.635 256.916 476.216 256.916 C 472.798 256.916 469.52 255.561 467.099 253.147 L 467.057 253.147 C 466.283 252.387 465.609 251.532 465.052 250.601 L 464.82 250.601 C 463.162 253.145 460.858 255.202 458.143 256.561 C 455.428 257.921 452.401 258.534 449.371 258.338 C 446.341 258.141 443.418 257.143 440.901 255.444 C 438.385 253.746 436.365 251.409 435.049 248.672 L 434.958 248.623" style="fill: rgb(255, 255, 255);"/>
    <path d="M 490.432 232.647 C 490.432 231.022 490.856 229.425 491.662 228.014 C 492.467 226.602 493.627 225.425 495.026 224.599 C 496.426 223.772 498.016 223.325 499.641 223.3 C 501.266 223.276 502.869 223.676 504.293 224.46 C 505.716 225.245 506.91 226.387 507.758 227.773 C 508.605 229.16 509.076 230.744 509.125 232.368 C 509.174 233.993 508.798 235.602 508.035 237.037 C 507.272 238.472 506.148 239.683 504.774 240.551" stroke="#3a49da" stroke-linecap="round" stroke-linejoin="round" stroke-width="2" style="fill: rgb(255, 255, 255);"/>
    <path d="M 506.345 226.048 C 508.111 227.815 509.103 230.212 509.103 232.711 C 509.103 235.209 508.111 237.606 506.345 239.373 C 504.93 240.785 503.013 241.577 501.015 241.577 C 499.016 241.577 497.099 240.785 495.685 239.373 C 494.554 238.241 493.918 236.706 493.918 235.106 C 493.918 233.505 494.554 231.97 495.685 230.838 C 496.59 229.935 497.817 229.428 499.096 229.428 C 500.376 229.428 501.603 229.935 502.508 230.838 C 503.233 231.563 503.639 232.545 503.639 233.57 C 503.639 234.594 503.233 235.577 502.508 236.301" stroke="#3a49da" stroke-linecap="round" stroke-linejoin="round" stroke-width="2" style="fill: rgb(255, 255, 255);"/>
    <path d="M 514.943 236.883 C 516.194 236.272 517.594 236.035 518.976 236.199 C 520.359 236.363 521.664 236.922 522.737 237.809 C 523.81 238.696 524.605 239.873 525.027 241.2 C 525.448 242.527 525.478 243.947 525.114 245.29 C 524.749 246.634 524.005 247.844 522.971 248.775 C 521.937 249.707 520.656 250.321 519.282 250.544 C 517.908 250.767 516.499 250.589 515.223 250.032 C 513.947 249.475 512.859 248.562 512.088 247.403" stroke="#3a49da" stroke-linecap="round" stroke-linejoin="round" stroke-width="2" style="fill: rgb(255, 255, 255);"/>
    <path d="M 509.234 232.542 C 509.655 232.418 510.092 232.354 510.531 232.353 C 511.721 232.355 512.862 232.828 513.703 233.669 C 514.545 234.511 515.018 235.651 515.02 236.841" stroke="#3a49da" stroke-linecap="round" stroke-linejoin="round" stroke-width="2" style="fill: rgb(255, 255, 255);"/>
    <path d="M 523.148 248.574 C 521.803 249.918 519.979 250.673 518.077 250.673 C 516.176 250.673 514.352 249.918 513.007 248.574 C 511.933 247.499 511.329 246.041 511.329 244.521 C 511.329 243.001 511.933 241.543 513.007 240.467 C 513.432 240.04 513.938 239.702 514.494 239.47 C 515.051 239.239 515.648 239.12 516.25 239.12 C 516.853 239.12 517.45 239.239 518.006 239.47 C 518.563 239.702 519.068 240.04 519.494 240.467 C 519.836 240.807 520.107 241.212 520.292 241.657 C 520.477 242.102 520.572 242.58 520.572 243.062 C 520.572 243.544 520.477 244.022 520.292 244.467 C 520.107 244.912 519.836 245.317 519.494 245.657" stroke="#3a49da" stroke-linecap="round" stroke-linejoin="round" stroke-width="2" style="fill: rgb(255, 255, 255);"/>
    <path d="M 511.969 247.284 C 511.142 249.004 509.872 250.472 508.29 251.54 C 506.708 252.607 504.871 253.234 502.966 253.357 C 501.062 253.479 499.159 253.093 497.453 252.238 C 495.747 251.383 494.299 250.089 493.258 248.49" stroke="#3a49da" stroke-linecap="round" stroke-linejoin="round" stroke-width="2" style="fill: rgb(255, 255, 255);"/>
    <path d="M 493.104 248.497 C 492.398 249.719 491.382 250.734 490.16 251.439 C 488.938 252.144 487.551 252.516 486.14 252.516" stroke="#3a49da" stroke-linecap="round" stroke-linejoin="round" stroke-width="2" style="fill: rgb(255, 255, 255);"/>
    <path d="M 491.827 250.117 C 490.321 251.627 488.28 252.482 486.147 252.495" stroke="#3a49da" stroke-linecap="round" stroke-linejoin="round" stroke-width="2" style="fill: rgb(255, 255, 255);"/>
    <path d="M 482.157 231.946 C 483.246 231.505 484.411 231.279 485.586 231.28 C 487.266 231.276 488.913 231.742 490.341 232.626" stroke="#3a49da" stroke-linecap="round" stroke-linejoin="round" stroke-width="2" style="fill: rgb(255, 255, 255);"/>
    <path d="M 439.432 225.227 C 438.364 224.907 437.237 224.841 436.139 225.034 C 435.041 225.227 434.004 225.673 433.11 226.338 C 432.215 227.003 431.488 227.868 430.987 228.863 C 430.486 229.859 430.225 230.958 430.224 232.072" stroke="#3a49da" stroke-linecap="round" stroke-linejoin="round" stroke-width="2" style="fill: rgb(255, 255, 255);"/>
    <path d="M 430.315 232.121 C 428.326 231.15 426.099 230.773 423.901 231.034 C 421.703 231.296 419.627 232.185 417.92 233.595 C 416.214 235.005 414.95 236.877 414.28 238.987 C 413.609 241.096 413.561 243.354 414.14 245.491 C 414.719 247.627 415.901 249.552 417.545 251.034 C 419.189 252.516 421.226 253.494 423.41 253.849 C 425.595 254.205 427.836 253.924 429.865 253.039 C 431.895 252.155 433.626 250.704 434.853 248.862" stroke="#3a49da" stroke-linecap="round" stroke-linejoin="round" stroke-width="2" style="fill: rgb(255, 255, 255);"/>
    <path d="M 417.257 250.72 C 419.396 252.858 422.297 254.059 425.322 254.059 C 428.347 254.059 431.248 252.858 433.387 250.72 C 434.235 249.873 434.908 248.868 435.367 247.761 C 435.826 246.653 436.063 245.467 436.063 244.268 C 436.063 243.07 435.826 241.883 435.367 240.776 C 434.908 239.669 434.235 238.663 433.387 237.816 C 432.71 237.137 431.905 236.599 431.019 236.232 C 430.134 235.865 429.184 235.675 428.225 235.675 C 427.267 235.675 426.317 235.865 425.431 236.232 C 424.546 236.599 423.741 237.137 423.064 237.816 C 421.97 238.912 421.356 240.398 421.356 241.947 C 421.356 243.496 421.97 244.981 423.064 246.078" stroke="#3a49da" stroke-linecap="round" stroke-linejoin="round" stroke-width="2" style="fill: rgb(255, 255, 255);"/>
    <path d="M 435.049 248.665 C 436.364 251.402 438.384 253.739 440.901 255.437 C 443.418 257.136 446.341 258.134 449.371 258.331 C 452.4 258.527 455.428 257.914 458.143 256.554 C 460.858 255.195 463.162 253.138 464.82 250.594" stroke="#3a49da" stroke-linecap="round" stroke-linejoin="round" stroke-width="2" style="fill: rgb(255, 255, 255);"/>
    <path d="M 465.051 250.601 C 466.221 252.621 467.921 254.283 469.967 255.407 C 472.013 256.531 474.327 257.075 476.66 256.979 C 478.993 256.884 481.255 256.153 483.202 254.866 C 485.15 253.579 486.708 251.784 487.71 249.675" stroke="#3a49da" stroke-linecap="round" stroke-linejoin="round" stroke-width="2" style="fill: rgb(255, 255, 255);"/>
    <path d="M 467.099 253.182 C 469.519 255.596 472.798 256.951 476.216 256.951 C 479.634 256.951 482.913 255.596 485.333 253.182 C 486.299 252.226 487.067 251.089 487.592 249.836 C 488.118 248.582 488.392 247.238 488.397 245.879 C 488.402 244.52 488.139 243.173 487.623 241.916 C 487.107 240.659 486.348 239.516 485.389 238.552 C 484.622 237.784 483.71 237.175 482.707 236.759 C 481.704 236.343 480.629 236.129 479.544 236.129 C 478.458 236.129 477.383 236.343 476.38 236.759 C 475.377 237.175 474.465 237.784 473.698 238.552 C 472.459 239.793 471.763 241.474 471.763 243.227 C 471.763 244.98 472.459 246.661 473.698 247.901 C 474.692 248.891 476.037 249.446 477.44 249.446 C 478.842 249.446 480.187 248.891 481.181 247.901 C 481.577 247.51 481.89 247.044 482.105 246.53 C 482.319 246.017 482.429 245.466 482.429 244.91 C 482.429 244.354 482.319 243.803 482.105 243.289 C 481.89 242.776 481.577 242.31 481.181 241.919" stroke="#3a49da" stroke-linecap="round" stroke-linejoin="round" stroke-width="2" style="fill: rgb(255, 255, 255);"/>
    <path d="M 469.322 225.676 L 469.322 225.375 C 469.322 221.43 467.754 217.646 464.965 214.857 C 462.175 212.067 458.392 210.5 454.447 210.5 C 450.502 210.5 446.718 212.067 443.929 214.857 C 441.139 217.646 439.572 221.43 439.572 225.375 C 439.562 227.365 439.949 229.338 440.711 231.177 C 441.474 233.016 442.595 234.684 444.011 236.084 C 446.262 238.333 449.315 239.596 452.497 239.596 C 455.679 239.596 458.732 238.333 460.983 236.084 C 462.781 234.284 463.791 231.843 463.791 229.299 C 463.791 226.754 462.781 224.314 460.983 222.513 C 459.538 221.081 457.586 220.277 455.551 220.277 C 453.517 220.277 451.564 221.081 450.12 222.513 C 449.549 223.083 449.097 223.76 448.788 224.505 C 448.479 225.25 448.32 226.048 448.32 226.854 C 448.32 227.661 448.479 228.459 448.788 229.204 C 449.097 229.949 449.549 230.626 450.12 231.196" stroke="#3a49da" stroke-linecap="round" stroke-linejoin="round" stroke-width="2" style="fill: rgb(255, 255, 255);"/>
    <path d="M 469.323 225.676 C 470.931 225.241 472.618 225.182 474.253 225.504 C 475.887 225.826 477.426 226.521 478.749 227.533 C 480.072 228.546 481.145 229.849 481.883 231.343 C 482.621 232.837 483.005 234.481 483.005 236.147 L 483.005 236.848" stroke="#3a49da" stroke-linecap="round" stroke-linejoin="round" stroke-width="2" style="fill: rgb(255, 255, 255);"/>
  </g>
</svg>