<svg fill="none" height="410" viewBox="0 0 576 410" width="576" xmlns="http://www.w3.org/2000/svg"><path d="m89.6078 285.057c-4.2128-16.368-6.4535-33.528-6.4535-51.211 0-113.133 91.7127-204.846 204.8457-204.846s204.846 91.713 204.846 204.846c0 17.683-2.241 34.843-6.453 51.211" stroke="#3a49da" stroke-width="2"/><path d="m99.2401 285.057c-4.4177-16.322-6.7748-33.491-6.7748-51.211 0-107.991 87.5437-195.5348 195.5347-195.5348s195.535 87.5438 195.535 195.5348c0 17.72-2.357 34.889-6.775 51.211" stroke="#e0e5f8" stroke-width="2"/><path d="m108.907 285.057c-4.644-16.27-7.13-33.45-7.13-51.211 0-102.849 83.375-186.2237 186.223-186.2237 102.849 0 186.224 83.3747 186.224 186.2237 0 17.761-2.486 34.941-7.13 51.211" stroke="#e0e5f8" stroke-width="2"/><path d="m118.613 285.057c-4.894-16.211-7.525-33.404-7.525-51.211 0-97.706 79.206-176.9125 176.912-176.9125s176.913 79.2065 176.913 176.9125c0 17.807-2.631 35-7.526 51.211" stroke="#e0e5f8" stroke-width="2"/><path d="m128.367 285.057c-5.175-16.142-7.969-33.35-7.969-51.211 0-92.564 75.038-167.6012 167.602-167.6012 92.563 0 167.601 75.0372 167.601 167.6012 0 17.861-2.794 35.069-7.968 51.211" stroke="#e0e5f8" stroke-width="2"/><path d="m70.1572 285.833h438.0138c1.821 0 3.297 1.477 3.297 3.298s-1.476 3.298-3.297 3.298h-84.725c-2.338 0-4.232 1.895-4.232 4.232 0 2.338 1.894 4.232 4.232 4.232h64.426c2.971 0 5.379 2.409 5.379 5.379 0 2.971-2.408 5.379-5.379 5.379h-82.759c-2.971 0-5.379 2.408-5.379 5.378 0 2.971 2.408 5.379 5.379 5.379h43.608c3.399 0 6.155 2.755 6.155 6.154 0 3.4-2.756 6.155-6.155 6.155h-80.273c-3.433 0-6.216 2.783-6.216 6.216s2.783 6.217 6.216 6.217h6.173c3.862 0 6.992 3.13 6.992 6.992 0 3.861-3.13 6.992-6.992 6.992h-45.357c-2.772 0-5.02 2.247-5.02 5.02 0 2.772 2.248 5.02 5.02 5.02h7.762c2.574 0 4.661 2.087 4.661 4.661 0 2.575-2.087 4.662-4.661 4.662h-117.302c-2.575 0-4.662-2.087-4.662-4.662 0-2.574 2.087-4.661 4.662-4.661h25.297c1.881 0 3.406-1.525 3.406-3.406 0-1.882-1.525-3.407-3.406-3.407h-62.431c-2.476 0-4.483-2.007-4.483-4.482 0-2.476 2.007-4.482 4.483-4.482h8.837c2.278 0 4.124-1.846 4.124-4.124 0-2.277-1.846-4.123-4.124-4.123h-43.806c-4.357 0-7.889-3.532-7.889-7.889s3.532-7.889 7.889-7.889h43.448c2.475 0 4.482-2.006 4.482-4.482 0-2.475-2.007-4.482-4.482-4.482h-82.124c-3.763 0-6.813-3.05-6.813-6.813s3.05-6.813 6.813-6.813h42.382c3.23 0 5.848-2.619 5.848-5.849s-2.618-5.849-5.848-5.849h-81.1698c-3.1068 0-5.6255-2.518-5.6255-5.625s2.5186-5.626 5.6255-5.626z" fill="#eaf5ff"/><path d="m63.7559 285.057h448.4881" stroke="#3a49da" stroke-width="2"/><path d="m338.047 314.931 28.321 65.178" stroke="#3a49da" stroke-linecap="round" stroke-width="2"/><path d="m63.7559 285.057h448.4881" stroke="#3a49da" stroke-width="2"/><path d="m342.539 187.922v-28.658l44.069 15.066.589.202.441-.441 34.324-34.323 17.817 12.472c-.269.32-.611.727-1.022 1.211-1.105 1.306-2.698 3.177-4.65 5.435-3.906 4.516-9.244 10.578-14.981 16.764-5.739 6.188-11.864 12.489-17.344 17.489-2.741 2.5-5.308 4.663-7.575 6.321-2.286 1.672-4.198 2.777-5.637 3.232-2.921.922-7.247.546-12.259-.677-4.965-1.211-10.428-3.207-15.521-5.341-5.088-2.132-9.782-4.392-13.205-6.119-1.711-.864-3.104-1.593-4.067-2.107-.405-.215-.734-.393-.979-.526z" fill="#fff" stroke="#3a49da" stroke-width="2"/><rect fill="#fff" height="45.3318" rx="7" stroke="#3a49da" stroke-width="2" width="463.559" x="70.9629" y="114.577"/><rect fill="#fff" height="29.0373" rx="14.5186" stroke="#e0e5f8" stroke-width="2" width="258.713" x="181.921" y="122.336"/><circle cx="195.509" cy="135.923" r="6.78006" stroke="#3a49da" stroke-width="3.2"/><path d="m200.165 140.579 5.586 5.587" stroke="#3a49da" stroke-width="3.2"/><path clip-rule="evenodd" d="m94.3907 129.003c.9368-.95 2.2042-1.565 3.6369-1.565 1.8736 0 3.5264 1.062 4.4084 2.627.771-.336 1.598-.559 2.48-.559 3.416 0 6.171 2.794 6.171 6.259s-2.755 6.259-6.171 6.259c-.441 0-.827-.056-1.213-.112-.771 1.397-2.259 2.347-3.9671 2.347-.7164 0-1.3777-.167-1.9838-.447-.7715 1.844-2.5899 3.13-4.739 3.13-2.2042 0-4.1328-1.397-4.8492-3.409-.3306.056-.6612.111-.9919.111-2.645 0-4.7941-2.179-4.7941-4.861 0-1.789.9368-3.354 2.3695-4.192-.2755-.67-.4408-1.453-.4408-2.235 0-3.074 2.4797-5.589 5.5655-5.589 1.9287.056 3.5267.895 4.5186 2.236" fill="#fff" fill-rule="evenodd"/><path d="m94.3907 129.003c.9368-.95 2.2042-1.565 3.6369-1.565 1.8736 0 3.5264 1.062 4.4084 2.627.771-.336 1.598-.559 2.48-.559 3.416 0 6.171 2.794 6.171 6.259s-2.755 6.259-6.171 6.259c-.441 0-.827-.056-1.213-.112-.771 1.397-2.259 2.347-3.9671 2.347-.7164 0-1.3777-.167-1.9838-.447-.7715 1.844-2.5899 3.13-4.739 3.13-2.2042 0-4.1328-1.397-4.8492-3.409-.3306.056-.6612.111-.9919.111-2.645 0-4.7941-2.179-4.7941-4.861 0-1.789.9368-3.354 2.3695-4.192-.2755-.67-.4408-1.453-.4408-2.235 0-3.074 2.4797-5.589 5.5655-5.589 1.9287.056 3.5267.895 4.5186 2.236" stroke="#3a49da" stroke-width="2"/><path d="m502.933 128.319h20.1742v1.55186h-20.1742z" fill="#3a49da"/><path d="m502.933 136.079h20.1742v1.55186h-20.1742z" fill="#3a49da"/><path d="m502.933 143.838h20.1742v1.55186h-20.1742z" fill="#3a49da"/><g stroke="#3a49da" stroke-width="2"><path d="m284.509 150.494-65.11 130.219c-.555 1.111-.844 2.336-.844 3.578v65.332c0 5.982 6.324 9.848 11.648 7.12l30.944-15.856c2.671-1.368 4.352-4.118 4.352-7.119v-26.536l48.107-10.087 8.411-8.237c18.728-18.342 29.505-43.305 30.011-69.514l1.151-59.589 19.786-15.579s11.251-8.923 11.251-10.475-12.803-16.683-12.803-16.683v-5.774c0-2.902-1.572-5.576-4.107-6.989l-17.806-9.9201c-3.108-1.7315-6.985-1.2027-9.516 1.2977z" fill="#fff"/><path d="m371.801 117.129-31.037 30.977v11.311h13.191"/><path d="m349.299 139.57 7.371 17.071" stroke-linecap="round"/><path d="m296.924 138.467 25.675 26.001c2.84 2.875 7.379 3.181 10.579.713l7.974-6.152"/><path d="m327.961 167.504-10.475 60.195"/><path d="m291.104 143.899 35.305 34.529"/><path d="m332.059 88.1419 7.428 7.6723-11.481 11.1158-7.428-7.6718c-3.07-3.1704-2.988-8.2289.182-11.2986s8.229-2.9881 11.299.1823z" fill="#fff"/><path d="m329.517 90.4404 7.51 7.7569-6.559 6.3517-7.511-7.7571c-1.754-1.8114-1.707-4.7017.104-6.4557 1.812-1.7539 4.702-1.7073 6.456.1042z" fill="#fff"/><path d="m270.154 179.979 75.653 75.654"/><path d="m229.484 206.578-.21.072-.16.153-26.443 25.31-18.038-18.398c.229-.246.515-.552.854-.915.967-1.032 2.361-2.515 4.072-4.32 3.422-3.61 8.109-8.503 13.171-13.638 5.063-5.135 10.495-10.507 15.409-15.076 4.93-4.585 9.285-8.311 12.209-10.197 2.916-1.882 7.829-4.106 13.628-6.397 5.779-2.282 12.368-4.604 18.591-6.686 6.222-2.082 12.069-3.922 16.362-5.242 2.146-.66 3.903-1.19 5.123-1.554.61-.183 1.086-.324 1.409-.419.044-.013.086-.025.124-.037 6.112 3.034 10.886 9.701 11.752 17.041.87 7.369-2.193 15.504-12.082 21.326z" fill="#fff"/><rect fill="#fff" height="17.528" rx="3" transform="matrix(.73148581 .68185666 -.68185666 .73148581 190.666591 -77.93487)" width="6.09966" x="194.286" y="203.119"/><rect fill="#fff" height="17.528" rx="3" transform="matrix(.73148581 .68185666 -.68185666 .73148581 195.1311 -80.065907)" width="6.09966" x="199.224" y="207.722"/><rect fill="#fff" height="17.528" rx="3" transform="matrix(.73148581 .68185666 -.68185666 .73148581 199.594659 -82.196531)" width="6.09966" x="204.161" y="212.324"/><rect fill="#fff" height="17.528" rx="3" transform="matrix(.73148581 .68185666 -.68185666 .73148581 204.058218 -84.327155)" width="6.09966" x="209.098" y="216.926"/><circle cx="357.446" cy="117.517" r="3.26762"/><path d="m399.347 162.133-35.693 35.693"/><path d="m281.017 266.108c5.82-17.846 16.683-30.261 36.469-39.573"/><path d="m286.836 148.166-57.419 58.971"/><g fill="#fff"><path d="m334.168 304.904-33.365 13.191 24.311 57.204c1.255 2.953 4.154 4.871 7.363 4.871h33.892z"/><path d="m202.82 352.46h11.467c15.397 0 27.941 12.217 28.468 27.486h-35.211c-3.866 0-7-3.134-7-7v-18.209c0-1.258 1.019-2.277 2.276-2.277z"/><path d="m203.658 339.482 14.672-8.465v42.256c0 3.866-3.134 7-7 7h-4.174c-3.866 0-7-3.134-7-7v-27.728c0-2.501 1.335-4.813 3.502-6.063z"/><path d="m225.391 279.462h55.612c5.005 0 8.393 5.099 6.453 9.713l-19.121 45.491c-1.457 3.467-5.394 5.163-8.915 3.84l-36.491-13.71c-2.73-1.026-4.538-3.636-4.538-6.553v-31.781c0-3.866 3.134-7 7-7z"/><path d="m220.872 278.065 29.763-59.526 80.674 82.41c2.718 2.777 2.654 7.236-.142 9.934l-21.281 20.534c-2.25 2.171-5.668 2.587-8.373 1.018l-77.893-45.185c-3.198-1.855-4.402-5.878-2.748-9.185z"/><path d="m374.664 379.946h-41.227c-3.621 0-6.889-2.17-8.294-5.508l-9.254-21.978h30.307c15.397 0 27.941 12.217 28.468 27.486z"/></g><path d="m338.048 313.767-27.546 27.546"/><path d="m218.555 330.062 36.468 13.578"/><path d="m338.047 314.931 28.321 65.178" stroke-linecap="round"/></g><path d="m52.2978 255.189c-1.2265 1.845-2.9587 3.298-4.9893 4.184s-4.2736 1.169-6.4606.814-4.2253-1.333-5.8711-2.816c-1.6458-1.484-2.8293-3.41-3.4089-5.548-.5796-2.139-.5309-4.399.1405-6.511.6714-2.111 1.937-3.984 3.6453-5.395s3.7869-2.3 5.9872-2.561c2.2003-.26 4.429.119 6.4194 1.092l-.0912-.07c.0044-1.112.2683-2.209.7708-3.202.5024-.993 1.2295-1.854 2.1235-2.517.8941-.662 1.9303-1.107 3.0264-1.299s2.2218-.125 3.2876.194l.1683.169c0-3.945 1.5672-7.729 4.3568-10.518 2.7896-2.79 6.5731-4.357 10.5182-4.357 3.945 0 7.7285 1.567 10.5181 4.357 2.7896 2.789 4.3568 6.573 4.3568 10.518v.301c2.5322-.688 5.2282-.434 7.5872.715 2.3591 1.15 4.2209 3.116 5.2398 5.534 1.0894-.441 2.2544-.667 3.4294-.666 1.68-.004 3.327.462 4.755 1.346h.091c-.034-1.248.182-2.491.637-3.655.454-1.164 1.137-2.225 2.008-3.12s1.913-1.607 3.064-2.093c1.15-.486 2.387-.736 3.636-.736s2.486.25 3.637.736 2.192 1.198 3.064 2.093c.871.895 1.554 1.956 2.008 3.12s.67 2.407.636 3.655l.091-.084c.422-.124.859-.188 1.298-.189 1.19.002 2.33.475 3.172 1.316.841.842 1.314 1.982 1.316 3.172l-.056.042c1.251-.611 2.651-.848 4.034-.684 1.382.164 2.688.723 3.761 1.61s1.868 2.064 2.289 3.391.452 2.747.087 4.09c-.364 1.344-1.108 2.554-2.142 3.485-1.035.932-2.315 1.546-3.69 1.769-1.374.223-2.783.045-4.059-.512-1.275-.557-2.364-1.47-3.134-2.629l-.063-.147h-.056c-.828 1.72-2.097 3.188-3.679 4.256-1.582 1.067-3.42 1.694-5.324 1.817-1.905.122-3.808-.264-5.514-1.119s-3.153-2.149-4.195-3.748h-.175c-.706 1.222-1.721 2.236-2.944 2.942-1.222.705-2.609 1.077-4.02 1.077l-.105-.085c-.211.253-.435.505-.701.751-2.421 2.414-5.6994 3.769-9.1175 3.769-3.4182 0-6.6968-1.355-9.1171-3.769h-.0421c-.7744-.76-1.4484-1.615-2.0058-2.546h-.2314c-1.6577 2.544-3.9621 4.601-6.6769 5.96-2.7148 1.36-5.7424 1.973-8.7722 1.777-3.0299-.197-5.953-1.195-8.4697-2.894-2.5167-1.698-4.5365-4.035-5.8521-6.772l-.0912-.049" fill="#fff"/><path d="m107.877 238.974c0-1.625.424-3.222 1.23-4.633.805-1.412 1.965-2.589 3.364-3.415 1.4-.827 2.99-1.274 4.615-1.299 1.625-.024 3.228.376 4.652 1.16 1.423.785 2.617 1.927 3.465 3.313.847 1.387 1.318 2.971 1.367 4.595.049 1.625-.327 3.234-1.09 4.669s-1.887 2.646-3.261 3.514" stroke="#3a49da" stroke-linecap="round" stroke-linejoin="round" stroke-width="2"/><path d="m123.79 232.375c1.766 1.767 2.758 4.164 2.758 6.663 0 2.498-.992 4.895-2.758 6.662-1.415 1.412-3.331 2.204-5.33 2.204-1.998 0-3.915-.792-5.33-2.204-1.131-1.132-1.766-2.667-1.766-4.267 0-1.601.635-3.136 1.766-4.268.906-.903 2.133-1.41 3.412-1.41s2.506.507 3.412 1.41c.724.725 1.131 1.707 1.131 2.732 0 1.024-.407 2.007-1.131 2.731" stroke="#3a49da" stroke-linecap="round" stroke-linejoin="round" stroke-width="2"/><path d="m132.388 243.21c1.251-.611 2.651-.848 4.034-.684 1.382.164 2.688.723 3.761 1.61s1.868 2.064 2.289 3.391.452 2.747.087 4.09c-.364 1.344-1.108 2.554-2.142 3.485-1.035.932-2.315 1.546-3.69 1.769-1.374.223-2.783.045-4.059-.512-1.275-.557-2.364-1.47-3.134-2.629" stroke="#3a49da" stroke-linecap="round" stroke-linejoin="round" stroke-width="2"/><path d="m126.679 238.869c.422-.124.859-.188 1.298-.189 1.19.002 2.33.475 3.172 1.316.841.842 1.314 1.982 1.316 3.172" stroke="#3a49da" stroke-linecap="round" stroke-linejoin="round" stroke-width="2"/><path d="m140.594 254.901c-1.346 1.344-3.169 2.099-5.071 2.099-1.901 0-3.725-.755-5.07-2.099-1.074-1.075-1.678-2.533-1.678-4.053s.604-2.978 1.678-4.054c.425-.427.931-.765 1.487-.997.557-.231 1.154-.35 1.756-.35.603 0 1.2.119 1.756.35.557.232 1.062.57 1.488.997.342.34.613.745.798 1.19s.28.923.28 1.405-.095.96-.28 1.405-.456.85-.798 1.19" stroke="#3a49da" stroke-linecap="round" stroke-linejoin="round" stroke-width="2"/><path d="m129.415 253.611c-.828 1.72-2.097 3.188-3.679 4.256-1.583 1.067-3.42 1.694-5.324 1.817-1.905.122-3.808-.264-5.514-1.119s-3.153-2.149-4.195-3.748" stroke="#3a49da" stroke-linecap="round" stroke-linejoin="round" stroke-width="2"/><path d="m110.549 254.824c-.706 1.222-1.721 2.237-2.944 2.942-1.222.705-2.608 1.077-4.02 1.077" stroke="#3a49da" stroke-linecap="round" stroke-linejoin="round" stroke-width="2"/><path d="m109.273 256.444c-1.506 1.51-3.548 2.365-5.681 2.378" stroke="#3a49da" stroke-linecap="round" stroke-linejoin="round" stroke-width="2"/><path d="m99.6018 238.273c1.0892-.441 2.2542-.667 3.4292-.666 1.68-.004 3.327.462 4.755 1.346" stroke="#3a49da" stroke-linecap="round" stroke-linejoin="round" stroke-width="2"/><path d="m56.8774 231.554c-1.0675-.32-2.1951-.386-3.2928-.193s-2.1351.639-3.0295 1.304c-.8945.665-1.6212 1.53-2.1223 2.525-.501.996-.7625 2.095-.7636 3.209" stroke="#3a49da" stroke-linecap="round" stroke-linejoin="round" stroke-width="2"/><path d="m47.7603 238.448c-1.9893-.971-4.2161-1.348-6.4143-1.087-2.1981.262-4.2744 1.151-5.9806 2.561-1.7063 1.41-2.9702 3.282-3.6406 5.392-.6704 2.109-.7189 4.367-.1398 6.504.5791 2.136 1.7613 4.061 3.4053 5.543s3.6802 2.46 5.8651 2.815c2.1848.356 4.4259.075 6.4551-.81 2.0292-.884 3.7607-2.335 4.9874-4.177" stroke="#3a49da" stroke-linecap="round" stroke-linejoin="round" stroke-width="2"/><path d="m34.7019 257.047c2.1396 2.138 5.0405 3.339 8.0651 3.339s5.9255-1.201 8.0651-3.339c.8482-.847 1.5211-1.852 1.9803-2.959.4591-1.108.6954-2.294.6954-3.493 0-1.198-.2363-2.385-.6954-3.492-.4592-1.107-1.1321-2.113-1.9803-2.96-.6774-.679-1.482-1.217-2.3677-1.584s-1.8351-.557-2.794-.557c-.9588 0-1.9082.19-2.7939.557s-1.6903.905-2.3677 1.584c-1.0938 1.096-1.7081 2.582-1.7081 4.131s.6143 3.034 1.7081 4.131" stroke="#3a49da" stroke-linecap="round" stroke-linejoin="round" stroke-width="2"/><path d="m52.4943 254.992c1.3156 2.737 3.3353 5.074 5.852 6.772 2.5167 1.699 5.4399 2.697 8.4697 2.894 3.0299.196 6.0574-.417 8.7722-1.777 2.7148-1.359 5.0192-3.416 6.6769-5.96" stroke="#3a49da" stroke-linecap="round" stroke-linejoin="round" stroke-width="2"/><path d="m82.4967 256.928c1.1705 2.02 2.8705 3.682 4.9165 4.806s4.3603 1.668 6.6928 1.572c2.3325-.095 4.5947-.826 6.542-2.113 1.948-1.287 3.506-3.082 4.508-5.191" stroke="#3a49da" stroke-linecap="round" stroke-linejoin="round" stroke-width="2"/><path d="m84.5446 259.509c2.4203 2.414 5.699 3.769 9.1171 3.769 3.4182 0 6.6973-1.355 9.1173-3.769.966-.956 1.734-2.093 2.259-3.346.526-1.254.799-2.598.805-3.957.005-1.359-.258-2.706-.774-3.963s-1.275-2.4-2.234-3.364c-.767-.768-1.679-1.377-2.682-1.793-1.0026-.416-2.0777-.63-3.1635-.63s-2.161.214-3.164.63-1.9142 1.025-2.6815 1.793c-1.2389 1.241-1.9349 2.922-1.9349 4.675s.696 3.434 1.9349 4.674c.9937.99 2.3391 1.545 3.7415 1.545 1.4025 0 2.7479-.555 3.7416-1.545.3954-.391.7094-.857.9236-1.371.2143-.513.3246-1.064.3246-1.62s-.1103-1.107-.3246-1.621c-.2142-.513-.5282-.979-.9236-1.37" stroke="#3a49da" stroke-linecap="round" stroke-linejoin="round" stroke-width="2"/><path d="m86.7676 232.003v-.301c0-3.945-1.5672-7.729-4.3568-10.518-2.7896-2.79-6.5731-4.357-10.5181-4.357-3.9451 0-7.7286 1.567-10.5182 4.357-2.7896 2.789-4.3568 6.573-4.3568 10.518-.0102 1.99.3773 3.963 1.1396 5.802s1.8842 3.507 3.2998 4.907c2.2513 2.249 5.3035 3.512 8.4859 3.512s6.2346-1.263 8.4859-3.512c1.7983-1.8 2.8084-4.241 2.8084-6.785 0-2.545-1.0101-4.985-2.8084-6.786-1.4448-1.432-3.397-2.236-5.4317-2.236-2.0346 0-3.9868.804-5.4317 2.236-.5704.57-1.0229 1.247-1.3316 1.992-.3088.745-.4677 1.543-.4677 2.349 0 .807.1589 1.605.4677 2.35.3087.745.7612 1.422 1.3316 1.992" stroke="#3a49da" stroke-linecap="round" stroke-linejoin="round" stroke-width="2"/><path d="m86.7675 232.003c1.6084-.435 3.2954-.494 4.9301-.172 1.6348.322 3.1734 1.017 4.4966 2.029 1.3232 1.013 2.3954 2.316 3.1335 3.81.7383 1.494 1.1223 3.138 1.1223 4.804v.701" stroke="#3a49da" stroke-linecap="round" stroke-linejoin="round" stroke-width="2"/><path d="m420.798 255.189c-1.227 1.845-2.959 3.298-4.99 4.184-2.03.886-4.273 1.169-6.46.814s-4.225-1.333-5.871-2.816c-1.646-1.484-2.829-3.41-3.409-5.548-.58-2.139-.531-4.399.14-6.511.672-2.111 1.937-3.984 3.646-5.395 1.708-1.411 3.787-2.3 5.987-2.561 2.2-.26 4.429.119 6.419 1.092l-.091-.07c.005-1.112.268-2.209.771-3.202.502-.993 1.229-1.854 2.123-2.517.894-.662 1.931-1.107 3.027-1.299s2.222-.125 3.287.194l.169.169c0-3.945 1.567-7.729 4.357-10.518 2.789-2.79 6.573-4.357 10.518-4.357s7.728 1.567 10.518 4.357c2.789 2.789 4.357 6.573 4.357 10.518v.301c2.532-.688 5.228-.434 7.587.715 2.359 1.15 4.221 3.116 5.24 5.534 1.089-.441 2.254-.667 3.429-.666 1.68-.004 3.327.462 4.755 1.346h.091c-.034-1.248.182-2.491.637-3.655.454-1.164 1.137-2.225 2.008-3.12s1.913-1.607 3.064-2.093c1.15-.486 2.387-.736 3.636-.736s2.486.25 3.637.736 2.192 1.198 3.064 2.093c.871.895 1.554 1.956 2.008 3.12s.67 2.407.636 3.655l.091-.084c.422-.124.859-.188 1.298-.189 1.19.002 2.33.475 3.172 1.316.841.842 1.314 1.982 1.316 3.172l-.056.042c1.251-.611 2.651-.848 4.034-.684 1.382.164 2.688.723 3.761 1.61s1.868 2.064 2.289 3.391.452 2.747.087 4.09c-.364 1.344-1.108 2.554-2.142 3.485-1.035.932-2.315 1.546-3.69 1.769-1.374.223-2.783.045-4.059-.512-1.275-.557-2.364-1.47-3.134-2.629l-.063-.147h-.056c-.828 1.72-2.097 3.188-3.679 4.256-1.582 1.067-3.42 1.694-5.324 1.817-1.905.122-3.808-.264-5.514-1.119s-3.153-2.149-4.195-3.748h-.175c-.706 1.222-1.721 2.236-2.944 2.942-1.222.705-2.609 1.077-4.02 1.077l-.105-.085c-.211.253-.435.505-.701.751-2.421 2.414-5.699 3.769-9.118 3.769-3.418 0-6.696-1.355-9.117-3.769h-.042c-.774-.76-1.448-1.615-2.005-2.546h-.232c-1.658 2.544-3.962 4.601-6.677 5.96-2.715 1.36-5.742 1.973-8.772 1.777-3.03-.197-5.953-1.195-8.47-2.894-2.516-1.698-4.536-4.035-5.852-6.772l-.091-.049" fill="#fff"/><path d="m476.377 238.974c0-1.625.424-3.222 1.23-4.633.805-1.412 1.965-2.589 3.364-3.415 1.4-.827 2.99-1.274 4.615-1.299 1.625-.024 3.228.376 4.652 1.16 1.423.785 2.617 1.927 3.465 3.313.847 1.387 1.318 2.971 1.367 4.595.049 1.625-.327 3.234-1.09 4.669s-1.887 2.646-3.261 3.514" stroke="#3a49da" stroke-linecap="round" stroke-linejoin="round" stroke-width="2"/><path d="m492.29 232.375c1.766 1.767 2.758 4.164 2.758 6.663 0 2.498-.992 4.895-2.758 6.662-1.415 1.412-3.332 2.204-5.33 2.204-1.999 0-3.916-.792-5.33-2.204-1.131-1.132-1.767-2.667-1.767-4.267 0-1.601.636-3.136 1.767-4.268.905-.903 2.132-1.41 3.411-1.41 1.28 0 2.507.507 3.412 1.41.725.725 1.131 1.707 1.131 2.732 0 1.024-.406 2.007-1.131 2.731" stroke="#3a49da" stroke-linecap="round" stroke-linejoin="round" stroke-width="2"/><path d="m500.888 243.21c1.251-.611 2.651-.848 4.033-.684 1.383.164 2.688.723 3.761 1.61s1.868 2.064 2.29 3.391c.421 1.327.451 2.747.087 4.09-.365 1.344-1.109 2.554-2.143 3.485-1.034.932-2.315 1.546-3.689 1.769s-2.783.045-4.059-.512-2.364-1.47-3.135-2.629" stroke="#3a49da" stroke-linecap="round" stroke-linejoin="round" stroke-width="2"/><path d="m495.179 238.869c.421-.124.858-.188 1.297-.189 1.19.002 2.331.475 3.172 1.316.842.842 1.315 1.982 1.317 3.172" stroke="#3a49da" stroke-linecap="round" stroke-linejoin="round" stroke-width="2"/><path d="m509.093 254.901c-1.345 1.344-3.169 2.099-5.071 2.099-1.901 0-3.725-.755-5.07-2.099-1.074-1.075-1.678-2.533-1.678-4.053s.604-2.978 1.678-4.054c.425-.427.931-.765 1.487-.997.557-.231 1.154-.35 1.756-.35.603 0 1.2.119 1.756.35.557.232 1.062.57 1.488.997.342.34.613.745.798 1.19s.28.923.28 1.405-.095.96-.28 1.405-.456.85-.798 1.19" stroke="#3a49da" stroke-linecap="round" stroke-linejoin="round" stroke-width="2"/><path d="m497.914 253.611c-.827 1.72-2.097 3.188-3.679 4.256-1.582 1.067-3.419 1.694-5.324 1.817-1.904.122-3.807-.264-5.513-1.119s-3.154-2.149-4.195-3.748" stroke="#3a49da" stroke-linecap="round" stroke-linejoin="round" stroke-width="2"/><path d="m479.049 254.824c-.706 1.222-1.722 2.237-2.944 2.942s-2.609 1.077-4.02 1.077" stroke="#3a49da" stroke-linecap="round" stroke-linejoin="round" stroke-width="2"/><path d="m477.772 256.444c-1.506 1.51-3.547 2.365-5.68 2.378" stroke="#3a49da" stroke-linecap="round" stroke-linejoin="round" stroke-width="2"/><path d="m468.102 238.273c1.089-.441 2.254-.667 3.429-.666 1.68-.004 3.327.462 4.755 1.346" stroke="#3a49da" stroke-linecap="round" stroke-linejoin="round" stroke-width="2"/><path d="m425.377 231.554c-1.068-.32-2.195-.386-3.293-.193s-2.135.639-3.029 1.304c-.895.665-1.622 1.53-2.123 2.525-.501.996-.762 2.095-.763 3.209" stroke="#3a49da" stroke-linecap="round" stroke-linejoin="round" stroke-width="2"/><path d="m416.26 238.448c-1.989-.971-4.216-1.348-6.414-1.087-2.198.262-4.274 1.151-5.981 2.561-1.706 1.41-2.97 3.282-3.64 5.392-.671 2.109-.719 4.367-.14 6.504.579 2.136 1.761 4.061 3.405 5.543s3.681 2.46 5.865 2.815c2.185.356 4.426.075 6.455-.81 2.03-.884 3.761-2.335 4.988-4.177" stroke="#3a49da" stroke-linecap="round" stroke-linejoin="round" stroke-width="2"/><path d="m403.202 257.047c2.139 2.138 5.04 3.339 8.065 3.339s5.926-1.201 8.065-3.339c.848-.847 1.521-1.852 1.98-2.959.459-1.108.696-2.294.696-3.493 0-1.198-.237-2.385-.696-3.492s-1.132-2.113-1.98-2.96c-.677-.679-1.482-1.217-2.368-1.584-.885-.367-1.835-.557-2.794-.557-.958 0-1.908.19-2.794.557-.885.367-1.69.905-2.367 1.584-1.094 1.096-1.708 2.582-1.708 4.131s.614 3.034 1.708 4.131" stroke="#3a49da" stroke-linecap="round" stroke-linejoin="round" stroke-width="2"/><path d="m420.994 254.992c1.315 2.737 3.335 5.074 5.852 6.772 2.517 1.699 5.44 2.697 8.47 2.894 3.029.196 6.057-.417 8.772-1.777 2.715-1.359 5.019-3.416 6.677-5.96" stroke="#3a49da" stroke-linecap="round" stroke-linejoin="round" stroke-width="2"/><path d="m450.996 256.928c1.17 2.02 2.87 3.682 4.916 4.806s4.36 1.668 6.693 1.572c2.333-.095 4.595-.826 6.542-2.113 1.948-1.287 3.506-3.082 4.508-5.191" stroke="#3a49da" stroke-linecap="round" stroke-linejoin="round" stroke-width="2"/><path d="m453.044 259.509c2.42 2.414 5.699 3.769 9.117 3.769s6.697-1.355 9.117-3.769c.966-.956 1.734-2.093 2.259-3.346.526-1.254.8-2.598.805-3.957s-.258-2.706-.774-3.963-1.275-2.4-2.234-3.364c-.767-.768-1.679-1.377-2.682-1.793s-2.078-.63-3.163-.63c-1.086 0-2.161.214-3.164.63s-1.915 1.025-2.682 1.793c-1.239 1.241-1.935 2.922-1.935 4.675s.696 3.434 1.935 4.674c.994.99 2.339 1.545 3.742 1.545 1.402 0 2.747-.555 3.741-1.545.396-.391.709-.857.924-1.371.214-.513.324-1.064.324-1.62s-.11-1.107-.324-1.621c-.215-.513-.528-.979-.924-1.37" stroke="#3a49da" stroke-linecap="round" stroke-linejoin="round" stroke-width="2"/><path d="m455.267 232.003v-.301c0-3.945-1.568-7.729-4.357-10.518-2.79-2.79-6.573-4.357-10.518-4.357s-7.729 1.567-10.518 4.357c-2.79 2.789-4.357 6.573-4.357 10.518-.01 1.99.377 3.963 1.139 5.802.763 1.839 1.884 3.507 3.3 4.907 2.251 2.249 5.304 3.512 8.486 3.512s6.235-1.263 8.486-3.512c1.798-1.8 2.808-4.241 2.808-6.785 0-2.545-1.01-4.985-2.808-6.786-1.445-1.432-3.397-2.236-5.432-2.236-2.034 0-3.987.804-5.431 2.236-.571.57-1.023 1.247-1.332 1.992s-.468 1.543-.468 2.349c0 .807.159 1.605.468 2.35s.761 1.422 1.332 1.992" stroke="#3a49da" stroke-linecap="round" stroke-linejoin="round" stroke-width="2"/><path d="m455.268 232.003c1.608-.435 3.295-.494 4.93-.172 1.634.322 3.173 1.017 4.496 2.029 1.323 1.013 2.396 2.316 3.134 3.81s1.122 3.138 1.122 4.804v.701" stroke="#3a49da" stroke-linecap="round" stroke-linejoin="round" stroke-width="2"/><path d="m115.841 85.1585c-.978 1.4705-2.358 2.6282-3.977 3.3346-1.618.7064-3.405.9316-5.148.6486-1.743-.2831-3.368-1.0623-4.679-2.2445-1.312-1.1821-2.2551-2.7172-2.717-4.4214-.462-1.7043-.4231-3.5055.112-5.1882s1.544-3.1756 2.905-4.3001c1.361-1.1244 3.018-1.8328 4.772-2.0403 1.753-.2076 3.529.0945 5.115.8701l-.072-.0559c.003-.8868.214-1.7605.614-2.5517.4-.7913.98-1.4782 1.692-2.0062.713-.528 1.539-.8824 2.412-1.0353.874-.1528 1.771-.0997 2.62.155l.134.1342c0-3.144 1.249-6.1593 3.473-8.3824 2.223-2.2232 5.238-3.4721 8.382-3.4721s6.159 1.2489 8.382 3.4721c2.223 2.2231 3.472 5.2384 3.472 8.3824v.2403c2.018-.5485 4.167-.346 6.047.5698 1.88.9159 3.364 2.4829 4.176 4.4101.868-.3515 1.796-.5318 2.733-.531 1.339-.0033 2.651.3685 3.789 1.0731h.073c-.027-.9951.145-1.9857.507-2.9131s.906-1.7729 1.601-2.4864c.694-.7135 1.524-1.2807 2.441-1.668.918-.3873 1.903-.5868 2.899-.5868.995 0 1.981.1995 2.898.5868s1.747.9545 2.441 1.668c.695.7135 1.239 1.559 1.601 2.4864s.534 1.918.507 2.9131l.073-.067c.335-.0994.684-.1502 1.034-.1509.948.0014 1.857.3788 2.527 1.0493.671.6705 1.048 1.5795 1.05 2.5277l-.045.0335c.997-.4868 2.113-.6762 3.215-.5453 1.101.1308 2.142.5763 2.997 1.2831s1.488 1.6449 1.824 2.7023c.336 1.0573.36 2.189.07 3.2597-.291 1.0707-.884 2.035-1.708 2.7776s-1.845 1.2319-2.94 1.4096c-1.095.1776-2.218.036-3.235-.408-1.016-.4439-1.884-1.1714-2.498-2.0953l-.05-.1174h-.045c-.659 1.3706-1.671 2.5411-2.932 3.3916s-2.725 1.3503-4.243 1.4481c-1.517.0979-3.034-.2098-4.393-.8913-1.36-.6816-2.514-1.7125-3.344-2.9871h-.139c-.563.9738-1.372 1.7823-2.346 2.3445-.975.5621-2.08.8581-3.204.8581l-.084-.0671c-.168.2012-.347.4024-.559.5981-1.929 1.9235-4.542 3.0037-7.266 3.0037s-5.337-1.0802-7.266-3.0037h-.033c-.617-.6054-1.154-1.2873-1.599-2.0289h-.184c-1.321 2.0272-3.158 3.6666-5.321 4.7501-2.164 1.0835-4.577 1.572-6.991 1.4156-2.415-.1564-4.744-.9522-6.75-2.3058-2.006-1.3535-3.615-3.2162-4.664-5.3969l-.073-.0391" fill="#fff"/><g stroke="#3a49da"><path d="m160.134 72.2366c0-1.2952.338-2.568.98-3.6929.642-1.1248 1.566-2.0628 2.681-2.7215 1.116-.6587 2.383-1.0153 3.678-1.0346s2.573.2993 3.707.9244c1.135.6251 2.086 1.5352 2.762 2.6404.675 1.1052 1.051 2.3673 1.089 3.6619.039 1.2946-.26 2.577-.868 3.7205-.609 1.1436-1.504 2.1089-2.599 2.8007" stroke-linecap="round" stroke-linejoin="round" stroke-width="2"/><path d="m172.816 66.9772c1.408 1.4086 2.198 3.3184 2.198 5.3097 0 1.9912-.79 3.901-2.198 5.3096-1.127 1.1249-2.655 1.7567-4.248 1.7567-1.592 0-3.12-.6318-4.247-1.7567-.902-.9023-1.408-2.1256-1.408-3.401s.506-2.4986 1.408-3.4009c.721-.7198 1.699-1.124 2.719-1.124 1.019 0 1.997.4042 2.719 1.124.577.5774.901 1.3605.901 2.1769 0 .8165-.324 1.5995-.901 2.177" stroke-linecap="round" stroke-linejoin="round" stroke-width="2"/><path d="m179.668 75.6123c.997-.4868 2.113-.6761 3.215-.5453s2.142.5763 2.997 1.2831 1.489 1.645 1.825 2.7023.36 2.1891.069 3.2597c-.29 1.0707-.883 2.035-1.707 2.7776-.825.7426-1.845 1.232-2.94 1.4096-1.096.1776-2.219.036-3.235-.4079-1.017-.444-1.884-1.1714-2.498-2.0954" stroke-linecap="round" stroke-linejoin="round" stroke-width="2"/><path d="m175.118 72.1527c.336-.0993.684-.1501 1.034-.1509.949.0015 1.858.3788 2.528 1.0494.671.6705 1.048 1.5794 1.049 2.5277" stroke-linecap="round" stroke-linejoin="round" stroke-width="2"/><path d="m186.207 84.9295c-1.072 1.071-2.525 1.6726-4.041 1.6726-1.515 0-2.969-.6016-4.041-1.6726-.856-.8572-1.337-2.0191-1.337-3.2305 0-1.2115.481-2.3733 1.337-3.2305.339-.3402.742-.6101 1.186-.7943.443-.1842.919-.279 1.399-.279s.956.0948 1.4.279c.443.1842.846.4541 1.185.7943.273.271.489.5933.636.9482.148.3549.224.7354.224 1.1197s-.076.7649-.224 1.1198c-.147.3548-.363.6771-.636.9482" stroke-linecap="round" stroke-linejoin="round" stroke-width="2"/><path d="m177.298 83.901c-.659 1.3706-1.671 2.5411-2.932 3.3916-1.26.8505-2.725 1.3503-4.243 1.4481-1.517.0978-3.034-.2098-4.393-.8913-1.36-.6816-2.514-1.7125-3.343-2.9871" stroke-linecap="round" stroke-linejoin="round" stroke-width="2"/><path d="m162.264 84.868c-.563.9737-1.372 1.7823-2.346 2.3444-.975.5621-2.08.8581-3.204.8581" stroke-linecap="round" stroke-linejoin="round" stroke-width="2"/><path d="m161.247 86.159c-1.201 1.2035-2.828 1.8844-4.528 1.8947" stroke-linecap="round" stroke-linejoin="round" stroke-width="2"/><path d="m153.539 71.6776c.868-.3515 1.796-.5318 2.733-.5309 1.339-.0033 2.651.3684 3.79 1.0731" stroke-linecap="round" stroke-linejoin="round" stroke-width="2"/><path d="m119.49 66.3233c-.851-.2552-1.749-.308-2.624-.1543s-1.702.5097-2.414 1.0396c-.713.5299-1.292 1.219-1.692 2.0124-.399.7933-.607 1.669-.608 2.5572" stroke-linecap="round" stroke-linejoin="round" stroke-width="2"/><path d="m112.225 71.8173c-1.586-.7737-3.36-1.0745-5.112-.8662-1.752.2082-3.407.9167-4.766 2.0406-1.36 1.1238-2.3675 2.6156-2.9017 4.2969-.5343 1.6813-.573 3.4808-.1115 5.1835s1.4032 3.2364 2.7142 4.4177c1.31 1.1813 2.933 1.9602 4.674 2.2436s3.527.0592 5.144-.6457 2.997-1.8607 3.975-3.3292" stroke-linecap="round" stroke-linejoin="round" stroke-width="2"/><path d="m101.817 86.6397c1.706 1.7037 4.017 2.6608 6.428 2.6608 2.41 0 4.722-.9571 6.427-2.6608.676-.6749 1.213-1.4764 1.578-2.3587.366-.8823.555-1.8281.555-2.7833s-.189-1.901-.555-2.7833c-.365-.8823-.902-1.6838-1.578-2.3587-.54-.5408-1.181-.9698-1.887-1.2625-.705-.2927-1.462-.4434-2.226-.4434s-1.521.1507-2.227.4434-1.347.7217-1.887 1.2625c-.872.8738-1.361 2.0577-1.361 3.292s.489 2.4181 1.361 3.292" stroke-linecap="round" stroke-linejoin="round" stroke-width="2"/><path d="m115.997 85.0021c1.048 2.1807 2.658 4.0433 4.664 5.3969 2.005 1.3536 4.335 2.1493 6.75 2.3058 2.414.1564 4.827-.3322 6.991-1.4157 2.163-1.0834 4-2.7228 5.321-4.75" stroke-linecap="round" stroke-linejoin="round" stroke-width="2"/><path d="m139.907 86.5447c.933 1.6097 2.288 2.934 3.919 3.8298 1.63.8959 3.474 1.3292 5.333 1.2533 1.859-.076 3.662-.6583 5.214-1.6842 1.552-1.0258 2.794-2.4562 3.593-4.1367" stroke-linecap="round" stroke-linejoin="round" stroke-width="2"/><path d="m141.539 88.6014c1.929 1.9236 4.542 3.0038 7.266 3.0038s5.337-1.0802 7.266-3.0038c.77-.7618 1.382-1.668 1.801-2.6668.419-.9987.636-2.0703.641-3.1533.004-1.0831-.206-2.1563-.617-3.1582s-1.016-1.9128-1.78-2.6805c-.612-.6123-1.338-1.098-2.137-1.4294-.8-.3314-1.657-.502-2.522-.502s-1.722.1706-2.521.502c-.8.3314-1.526.8171-2.137 1.4294-.988.9882-1.542 2.3281-1.542 3.7251s.554 2.7369 1.542 3.7251c.792.7888 1.864 1.2316 2.981 1.2316 1.118 0 2.19-.4428 2.982-1.2316.315-.3118.566-.6831.736-1.0922.171-.4092.259-.8482.259-1.2915 0-.4434-.088-.8824-.259-1.2915-.17-.4092-.421-.7804-.736-1.0923" stroke-linecap="round" stroke-linejoin="round" stroke-width="2"/><path d="m143.311 66.6809v-.2403c0-3.144-1.249-6.1592-3.472-8.3824-2.223-2.2231-5.238-3.4721-8.382-3.4721s-6.16 1.249-8.383 3.4721c-2.223 2.2232-3.472 5.2384-3.472 8.3824-.008 1.5865.301 3.1586.908 4.6241.608 1.4656 1.502 2.7951 2.63 3.9105 1.794 1.7925 4.227 2.7994 6.763 2.7994s4.968-1.0069 6.763-2.7994c1.433-1.4347 2.238-3.3796 2.238-5.4075 0-2.0278-.805-3.9728-2.238-5.4074-1.152-1.1417-2.708-1.7823-4.329-1.7823-1.622 0-3.177.6406-4.329 1.7823-.455.4541-.815.9935-1.061 1.5871s-.373 1.2299-.373 1.8725.127 1.2789.373 1.8725c.246.5937.606 1.133 1.061 1.5872" stroke-linecap="round" stroke-linejoin="round" stroke-width="2"/><path d="m143.311 66.6809c1.282-.3467 2.626-.3936 3.929-.137s2.529.8099 3.584 1.6168c1.054.807 1.909 1.846 2.497 3.0365s.894 2.5004.894 3.8283v.5589" stroke-linecap="round" stroke-linejoin="round" stroke-width="2"/><path d="m377.62 124.828-1.048 8.734c-.073.609.137 1.218.571 1.652l2.417 2.416" stroke-linecap="round" stroke-width="2"/><path d="m366.757 122.112c1.552-15.907-13.578-26.7698-23.666-19.01-10.087 7.759-10.863 27.157 8.536 34.14" stroke-width="2"/></g></svg>