<svg fill="none" height="410" viewBox="0 0 576 410" width="576" xmlns="http://www.w3.org/2000/svg"><path d="m89.6078 285.057c-4.2128-16.368-6.4535-33.528-6.4535-51.211 0-113.133 91.7127-204.846 204.8457-204.846s204.846 91.713 204.846 204.846c0 17.683-2.241 34.843-6.453 51.211" stroke="#3a49da" stroke-width="2"/><path d="m99.2401 285.057c-4.4177-16.322-6.7748-33.491-6.7748-51.211 0-107.991 87.5437-195.5348 195.5347-195.5348s195.535 87.5438 195.535 195.5348c0 17.72-2.357 34.889-6.775 51.211" stroke="#e0e5f8" stroke-width="2"/><path d="m108.907 285.057c-4.644-16.27-7.13-33.45-7.13-51.211 0-102.849 83.375-186.2237 186.223-186.2237 102.849 0 186.224 83.3747 186.224 186.2237 0 17.761-2.486 34.941-7.13 51.211" stroke="#e0e5f8" stroke-width="2"/><path d="m118.613 285.057c-4.894-16.211-7.525-33.404-7.525-51.211 0-97.706 79.206-176.9125 176.912-176.9125s176.913 79.2065 176.913 176.9125c0 17.807-2.631 35-7.526 51.211" stroke="#e0e5f8" stroke-width="2"/><path d="m128.367 285.057c-5.175-16.142-7.969-33.35-7.969-51.211 0-92.564 75.038-167.6012 167.602-167.6012 92.563 0 167.601 75.0372 167.601 167.6012 0 17.861-2.794 35.069-7.968 51.211" stroke="#e0e5f8" stroke-width="2"/><path d="m70.1572 285.833h438.0138c1.821 0 3.297 1.477 3.297 3.298s-1.476 3.298-3.297 3.298h-84.725c-2.338 0-4.232 1.895-4.232 4.232 0 2.338 1.894 4.232 4.232 4.232h64.426c2.971 0 5.379 2.409 5.379 5.379 0 2.971-2.408 5.379-5.379 5.379h-82.759c-2.971 0-5.379 2.408-5.379 5.378 0 2.971 2.408 5.379 5.379 5.379h43.608c3.399 0 6.155 2.755 6.155 6.154 0 3.4-2.756 6.155-6.155 6.155h-80.273c-3.433 0-6.216 2.783-6.216 6.216s2.783 6.217 6.216 6.217h6.173c3.862 0 6.992 3.13 6.992 6.992 0 3.861-3.13 6.992-6.992 6.992h-45.357c-2.772 0-5.02 2.247-5.02 5.02 0 2.772 2.248 5.02 5.02 5.02h7.762c2.574 0 4.661 2.087 4.661 4.661 0 2.575-2.087 4.662-4.661 4.662h-117.302c-2.575 0-4.662-2.087-4.662-4.662 0-2.574 2.087-4.661 4.662-4.661h25.297c1.881 0 3.406-1.525 3.406-3.406 0-1.882-1.525-3.407-3.406-3.407h-62.431c-2.476 0-4.483-2.007-4.483-4.482 0-2.476 2.007-4.482 4.483-4.482h8.837c2.278 0 4.124-1.846 4.124-4.124 0-2.277-1.846-4.123-4.124-4.123h-43.806c-4.357 0-7.889-3.532-7.889-7.889s3.532-7.889 7.889-7.889h43.448c2.475 0 4.482-2.006 4.482-4.482 0-2.475-2.007-4.482-4.482-4.482h-82.124c-3.763 0-6.813-3.05-6.813-6.813s3.05-6.813 6.813-6.813h42.382c3.23 0 5.848-2.619 5.848-5.849s-2.618-5.849-5.848-5.849h-81.1698c-3.1068 0-5.6255-2.518-5.6255-5.625s2.5186-5.626 5.6255-5.626z" fill="#eaf5ff"/><g stroke-width="2"><path d="m63.7559 285.057h448.4881" stroke="#3a49da"/><path d="m338.047 314.931 28.321 65.178" stroke="#3a49da" stroke-linecap="round"/><path d="m63.7559 285.057h448.4881" stroke="#3a49da"/><path d="m342.539 187.922v-28.658l44.069 15.066.589.202.441-.441 34.324-34.323 17.817 12.472c-.269.32-.611.727-1.022 1.211-1.105 1.306-2.698 3.177-4.65 5.435-3.906 4.516-9.244 10.578-14.981 16.764-5.739 6.188-11.864 12.489-17.344 17.489-2.741 2.5-5.308 4.663-7.575 6.321-2.286 1.672-4.198 2.777-5.637 3.232-2.921.922-7.247.546-12.259-.677-4.965-1.211-10.428-3.207-15.521-5.341-5.088-2.132-9.782-4.392-13.205-6.119-1.711-.864-3.104-1.593-4.067-2.107-.405-.215-.734-.393-.979-.526z" fill="#fff" stroke="#3a49da"/><rect fill="#fff" height="45.3318" rx="7" stroke="#3a49da" width="463.559" x="70.9629" y="114.577"/><rect fill="#fff" height="29.0373" rx="14.5186" stroke="#e0e5f8" width="258.713" x="181.921" y="122.336"/></g><circle cx="195.509" cy="135.923" r="6.78006" stroke="#3a49da" stroke-width="3.2"/><path d="m200.165 140.579 5.586 5.587" stroke="#3a49da" stroke-width="3.2"/><path clip-rule="evenodd" d="m94.3907 129.003c.9368-.95 2.2042-1.565 3.6369-1.565 1.8736 0 3.5264 1.062 4.4084 2.627.771-.336 1.598-.559 2.48-.559 3.416 0 6.171 2.794 6.171 6.259s-2.755 6.259-6.171 6.259c-.441 0-.827-.056-1.213-.112-.771 1.397-2.259 2.347-3.9671 2.347-.7164 0-1.3777-.167-1.9838-.447-.7715 1.844-2.5899 3.13-4.739 3.13-2.2042 0-4.1328-1.397-4.8492-3.409-.3306.056-.6612.111-.9919.111-2.645 0-4.7941-2.179-4.7941-4.861 0-1.789.9368-3.354 2.3695-4.192-.2755-.67-.4408-1.453-.4408-2.235 0-3.074 2.4797-5.589 5.5655-5.589 1.9287.056 3.5267.895 4.5186 2.236" fill="#fff" fill-rule="evenodd"/><path d="m94.3907 129.003c.9368-.95 2.2042-1.565 3.6369-1.565 1.8736 0 3.5264 1.062 4.4084 2.627.771-.336 1.598-.559 2.48-.559 3.416 0 6.171 2.794 6.171 6.259s-2.755 6.259-6.171 6.259c-.441 0-.827-.056-1.213-.112-.771 1.397-2.259 2.347-3.9671 2.347-.7164 0-1.3777-.167-1.9838-.447-.7715 1.844-2.5899 3.13-4.739 3.13-2.2042 0-4.1328-1.397-4.8492-3.409-.3306.056-.6612.111-.9919.111-2.645 0-4.7941-2.179-4.7941-4.861 0-1.789.9368-3.354 2.3695-4.192-.2755-.67-.4408-1.453-.4408-2.235 0-3.074 2.4797-5.589 5.5655-5.589 1.9287.056 3.5267.895 4.5186 2.236" stroke="#3a49da" stroke-width="2"/><path d="m502.933 128.319h20.1742v1.55186h-20.1742z" fill="#3a49da"/><path d="m502.933 136.079h20.1742v1.55186h-20.1742z" fill="#3a49da"/><path d="m502.933 143.838h20.1742v1.55186h-20.1742z" fill="#3a49da"/><g stroke="#3a49da" stroke-width="2"><path d="m284.509 150.494-65.11 130.219c-.555 1.111-.844 2.336-.844 3.578v65.332c0 5.982 6.324 9.848 11.648 7.12l30.944-15.856c2.671-1.368 4.352-4.118 4.352-7.119v-26.536l48.107-10.087 8.411-8.237c18.728-18.342 29.505-43.305 30.011-69.514l1.151-59.589 19.786-15.579s11.251-8.923 11.251-10.475-12.803-16.683-12.803-16.683v-5.774c0-2.902-1.572-5.576-4.107-6.989l-17.806-9.9201c-3.108-1.7315-6.985-1.2027-9.516 1.2977z" fill="#fff"/><path d="m371.801 117.129-31.037 30.977v11.311h13.191"/><path d="m349.299 139.57 7.371 17.071" stroke-linecap="round"/><path d="m296.924 138.467 25.675 26.001c2.84 2.875 7.379 3.181 10.579.713l7.974-6.152"/><path d="m327.961 167.504-10.475 60.195"/><path d="m291.104 143.899 35.305 34.529"/><path d="m332.059 88.1419 7.428 7.6723-11.481 11.1158-7.428-7.6718c-3.07-3.1704-2.988-8.2289.182-11.2986s8.229-2.9881 11.299.1823z" fill="#fff"/><path d="m329.517 90.4404 7.51 7.7569-6.559 6.3517-7.511-7.7571c-1.754-1.8114-1.707-4.7017.104-6.4557 1.812-1.7539 4.702-1.7073 6.456.1042z" fill="#fff"/><path d="m270.154 179.979 75.653 75.654"/><path d="m229.484 206.578-.21.072-.16.153-26.443 25.31-18.038-18.398c.229-.246.515-.552.854-.915.967-1.032 2.361-2.515 4.072-4.32 3.422-3.61 8.109-8.503 13.171-13.638 5.063-5.135 10.495-10.507 15.409-15.076 4.93-4.585 9.285-8.311 12.209-10.197 2.916-1.882 7.829-4.106 13.628-6.397 5.779-2.282 12.368-4.604 18.591-6.686 6.222-2.082 12.069-3.922 16.362-5.242 2.146-.66 3.903-1.19 5.123-1.554.61-.183 1.086-.324 1.409-.419.044-.013.086-.025.124-.037 6.112 3.034 10.886 9.701 11.752 17.041.87 7.369-2.193 15.504-12.082 21.326z" fill="#fff"/><rect fill="#fff" height="17.528" rx="3" transform="matrix(.73148581 .68185666 -.68185666 .73148581 190.666591 -77.93487)" width="6.09966" x="194.286" y="203.119"/><rect fill="#fff" height="17.528" rx="3" transform="matrix(.73148581 .68185666 -.68185666 .73148581 195.1311 -80.065907)" width="6.09966" x="199.224" y="207.722"/><rect fill="#fff" height="17.528" rx="3" transform="matrix(.73148581 .68185666 -.68185666 .73148581 199.594659 -82.196531)" width="6.09966" x="204.161" y="212.324"/><rect fill="#fff" height="17.528" rx="3" transform="matrix(.73148581 .68185666 -.68185666 .73148581 204.058218 -84.327155)" width="6.09966" x="209.098" y="216.926"/><circle cx="357.446" cy="117.517" r="3.26762"/><path d="m399.347 162.133-35.693 35.693"/><path d="m281.017 266.108c5.82-17.846 16.683-30.261 36.469-39.573"/><path d="m286.836 148.166-57.419 58.971"/><g fill="#fff"><path d="m334.168 304.904-33.365 13.191 24.311 57.204c1.255 2.953 4.154 4.871 7.363 4.871h33.892z"/><path d="m202.82 352.46h11.467c15.397 0 27.941 12.217 28.468 27.486h-35.211c-3.866 0-7-3.134-7-7v-18.209c0-1.258 1.019-2.277 2.276-2.277z"/><path d="m203.658 339.482 14.672-8.465v42.256c0 3.866-3.134 7-7 7h-4.174c-3.866 0-7-3.134-7-7v-27.728c0-2.501 1.335-4.813 3.502-6.063z"/><path d="m225.391 279.462h55.612c5.005 0 8.393 5.099 6.453 9.713l-19.121 45.491c-1.457 3.467-5.394 5.163-8.915 3.84l-36.491-13.71c-2.73-1.026-4.538-3.636-4.538-6.553v-31.781c0-3.866 3.134-7 7-7z"/><path d="m220.872 278.065 29.763-59.526 80.674 82.41c2.718 2.777 2.654 7.236-.142 9.934l-21.281 20.534c-2.25 2.171-5.668 2.587-8.373 1.018l-77.893-45.185c-3.198-1.855-4.402-5.878-2.748-9.185z"/><path d="m374.664 379.946h-41.227c-3.621 0-6.889-2.17-8.294-5.508l-9.254-21.978h30.307c15.397 0 27.941 12.217 28.468 27.486z"/></g><path d="m338.048 313.767-27.546 27.546"/><path d="m218.555 330.062 36.468 13.578"/><path d="m338.047 314.931 28.321 65.178" stroke-linecap="round"/></g><path d="m377.62 124.828-1.048 8.734c-.073.609.137 1.218.571 1.652l2.417 2.416" stroke="#3a49da" stroke-linecap="round" stroke-width="2"/><path d="m366.757 122.112c1.552-15.907-13.578-26.7698-23.666-19.01-10.087 7.759-10.863 27.157 8.536 34.14" stroke="#3a49da" stroke-width="2"/></svg>