<svg fill="none" height="28" viewBox="0 0 28 28" width="28" xmlns="http://www.w3.org/2000/svg"><rect fill="#fff" height="23.3333" rx="11.6667" width="23.3333" x="2" y="2"/><path clip-rule="evenodd" d="m19.2832 10.5542h-2.275c-.7583 0-1.3708-.61253-1.3708-1.3417v-2.275c.0292-.23333-.175-.4375-.4375-.4375h-3.6167c-.7583 0-1.3708.6125-1.3708 1.34167v8.57503c0 .7583.6125 1.3416 1.3708 1.3416h6.7959c.7583 0 1.3708-.6125 1.3708-1.3416v-5.3959c0-.2625-.2042-.4666-.4667-.4666zm-10.41237 5.8916v-7.2333c-.75833 0-1.37083.6125-1.37083 1.3417v8.575c0 .7583.6125 1.3708 1.37083 1.3708h6.79587c.7583 0 1.3708-.6125 1.3708-1.3417h-5.4542c-1.4875 0-2.71247 0-2.71247-2.7125zm8.69177-9.8583 2.1 2.07083c.0583.0875.0875.14584.0875.23334 0 .175-.1458.32083-.3208.32083h-1.4875c-.4959 0-.9042-.40833-.9042-.90417v-1.4875c0-.175.1458-.32083.3208-.32083.0875 0 .1459.02917.2042.0875z" fill="#211989" fill-rule="evenodd"/></svg>