<svg fill="none" height="28" viewBox="0 0 28 28" width="28" xmlns="http://www.w3.org/2000/svg"><path d="m25.3333 13.9627c0 5.2832-3.3397 9.7637-7.9716 11.3487-.5921.1168-.8022-.2554-.8022-.5753 0-.3922.0143-1.6823.0143-3.2815 0-1.1159-.3732-1.8459-.7921-2.2152 2.5991-.2961 5.3268-1.3074 5.3268-5.9027 0-1.3058-.4515-2.3736-1.1992-3.2098.1199-.30268.5204-1.51877-.1161-3.16576 0 0-.9777-.32164-3.2051 1.22618-.9319-.26523-1.93-.39797-2.9207-.40249-.9922.00452-1.9902.13726-2.9208.40249-2.22867-1.54782-3.20823-1.22618-3.20823-1.22618-.63472 1.64699-.23434 2.86308-.11439 3.16576-.74626.8362-1.20082 1.904-1.20082 3.2098 0 4.5839 2.72351 5.6101 5.31414 5.912-.3333.2991-.6347.8261-.7407 1.5992-.6648.3061-2.3546.8341-3.39534-.994 0 0-.61621-1.148-1.787-1.2327 0 0-1.13939-.0151-.08014.7272 0 0 .76484.3678 1.29534 1.7497 0 0 .68477 2.3264 3.93004 1.6035.0056.9982.0157 1.7505.0157 2.0345 0 .317-.2129.6863-.79621.5766-4.63642-1.5821-7.97899-6.0655-7.97899-11.35 0-6.60717 5.22395-11.9627 11.666-11.9627 6.4433 0 11.6673 5.35553 11.6673 11.9627z" fill="#fff"/></svg>