<svg fill="none" height="28" viewBox="0 0 28 28" width="28" xmlns="http://www.w3.org/2000/svg"><path clip-rule="evenodd" d="m26.3507 18.3494h1.5921l-.7348-2.5106.7348-2.5106h-2.6943c-.4899-1.4696-1.1634-2.9392-2.1432-4.4088-.9185-1.34714-2.0207-2.63305-3.4291-3.85772-1.4083-1.16344-3.1229-2.20441-5.1436-3.00045l-.1224-.06123-.1225.06123s-.796.1837-1.8983.73481c-.8572.42863-1.8982 1.04097-3.0004 1.89824-1.65331 1.2859-3.42908 3.12291-4.77622 5.75592-.42863.8573-.85727 1.837-1.16344 2.878h-2.44934l.7348 2.5106-.7348 2.5106h1.46961c-.06124.796-.12247 1.592-.12247 2.3881 0 .4286 0 .9185.06123 1.4084v.2449l.1837.1225s1.28591.7348 3.36785 1.4083c2.14318.7348 5.08238 1.4084 8.63398 1.4084 2.8167 0 5.9396-.4286 9.2462-1.7145.7961-.3062 1.6533-.6736 2.4494-1.1022l.1837-.1225h.0612v-1.6533c0-.6124-.0612-1.4084-.1837-2.3881zm-24.18697-.8575.48987-1.6533-.48987-1.6533h24.61587l-.4898 1.6533.4898 1.6533zm4.40769-4.163 1.77577-3.0004.06124-.0613 1.53084-2.51054 2.57183 3.24534 1.5308-1.5308 1.6533 1.9595 2.5106-3.67404 4.1027 5.57224zm-1.5914-1.6537c.30617-.6736.67357-1.3472 1.04098-1.95949.06123-.12247.12246-.1837.1837-.30617.06123-.06123.12246-.1837.1837-.24493 3.18414-4.89869 7.8379-6.30707 7.8991-6.30707l.1225-.06123.1225.06123c3.3066 1.34714 5.6335 3.36785 7.2868 5.6335.5511.67357.9797 1.40837 1.4083 2.14316.4899.8573.8573 1.7758 1.1635 2.6331h-.9798c-1.3471-3.55159-3.9801-7.40931-9.0013-9.55248-1.041.30616-6.61323 2.44934-9.12381 9.55248h-.97974c.18371-.4899.42864-1.041.67357-1.5921zm20.69668 9.9801v.245l-.2449.1224c-3.8578 1.8983-7.5318 2.5719-10.8384 2.5719-6.00088 0-10.47094-2.1432-11.1445-2.5106-.12247-.0613-.18371-.1225-.24494-.1225h-.06123v-.2449c0-1.1635 0-2.2044.12246-3.2454h.91851c-.12247.796-.1837 1.7758-.12247 2.878.85727.4286 4.04142 1.837 8.32777 2.2044.9797-.5511 1.6533-1.6533.0612-3.0005h-.1224l-.0613-.0612-.0612-.0612-.0612-.0613v-.0612l-.0613-.0612v-.0613l-.0612-.0612v-.1225c-.2449-.4898 0-.9797 1.4696-1.1022.4286-.0612 1.8982.0613 1.3471-.4898h.7348c.4287.4898.4287 1.1022-1.7757 1.3471-.3062 0-.4287.1837-.3674.3062h.0612c2.2656.5511 2.8167 2.2044 2.633 3.3678 2.6331-.1837 5.5111-.8573 8.389-2.2656 0-.4899 0-1.5309-.1837-2.9392h.9186c0 .2449.0612.4898.0612.7348.4286 1.6533.3674 2.633.3674 2.6942z" fill="#fff" fill-rule="evenodd"/></svg>