<svg fill="none" height="34" viewBox="0 0 48 34" width="48" xmlns="http://www.w3.org/2000/svg"><path d="m19.9691 3.6516c1.5524-1.60529 3.7045-2.61081 6.086-2.61081 3.1753 0 5.9273 1.76406 7.4091 4.39251 1.2877-.5645 2.699-.88203 4.1808-.88203 5.7155 0 10.355 4.67475 10.355 10.44323 0 5.7685-4.6395 10.4432-10.355 10.4432-.7056 0-1.376-.0706-2.0463-.2117-1.2878 2.3109-3.7751 3.8809-6.5976 3.8809-1.1819 0-2.3109-.2822-3.3164-.7585-1.3231 3.0871-4.3749 5.2569-7.9383 5.2569-3.7221 0-6.8798-2.3462-8.09701-5.645-.52922.1059-1.07607.1764-1.64057.1764-4.42778 0-8.00882-3.6339-8.00882-8.097 0-2.9989 1.60529-5.6097 4.00441-7.021-.49394-1.129-.75855-2.3814-.75855-3.70448 0-5.15105 4.18082-9.31422 9.33184-9.31422 2.9989 0 5.6803 1.42889 7.3914 3.6516z" fill="#0d9dda"/><g fill="#fff"><path d="m6.93254 17.4289c-.03528.0705.01764.0882.01764.1058.0882.0706.17641.1059.28225.1588.49394.2646.95259.3352 1.42889.3352.98787 0 1.60528-.5292 1.60528-1.3584v-.0176c0-.7762-.68797-1.0584-1.34067-1.2701l-.08821-.0353c-.49393-.1588-.91731-.2999-.91731-.6174v-.0177c0-.2822.24697-.4763.63506-.4763.42338 0 .93495.1412 1.25248.3176 0 0 .0882.0529.12349-.0353.01764-.0529.17636-.4939.19406-.5469.0176-.0529-.0177-.0882-.0529-.1058-.37049-.2293-.88207-.3705-1.41128-.3705h-.10585c-.89967 0-1.53473.5469-1.53473 1.3231v.0176c0 .8291.68798 1.0937 1.34069 1.2701l.10584.0353c.4763.1412.88203.2646.88203.5998v.0176c0 .2999-.26461.5293-.68798.5293-.15877 0-.68799 0-1.27013-.3705-.07056-.0353-.10584-.0706-.15876-.1058-.03528-.0177-.10585-.053-.12349.0529z"/><path d="m21.3627 17.4289c-.0353.0705.0177.0882.0177.1058.0882.0706.1764.1059.2822.1588.4939.2646.9526.3352 1.4289.3352.9879 0 1.6053-.5292 1.6053-1.3584v-.0176c0-.7762-.688-1.0584-1.3407-1.2701l-.0882-.0353c-.4939-.1588-.9173-.2999-.9173-.6174v-.0177c0-.2822.247-.4763.635-.4763.4234 0 .935.1412 1.2525.3176 0 0 .0882.0529.1235-.0353.0177-.0529.1764-.4939.1941-.5469.0176-.0529-.0177-.0882-.053-.1058-.3704-.2293-.882-.3705-1.4112-.3705h-.1059c-.8996 0-1.5347.5469-1.5347 1.3231v.0176c0 .8291.688 1.0937 1.3407 1.2701l.1058.0353c.4763.1412.8821.2646.8821.5998v.0176c0 .2999-.2646.5293-.688.5293-.1588 0-.688 0-1.2701-.3705-.0706-.0353-.1059-.0706-.1588-.1058-.0176-.0177-.1058-.0353-.1235.0529z"/><path d="m32.0177 14.8887c-.0882-.2646-.2117-.5116-.3704-.7057-.1765-.194-.3881-.3704-.6351-.4762-.247-.1235-.5469-.1765-.882-.1765-.3352 0-.6351.053-.8821.1765-.2469.1234-.4586.2822-.635.4762-.1588.1941-.2999.4411-.3705.7057-.0882.2646-.1235.5645-.1235.882s.0353.6174.1235.882.2117.5116.3705.7057c.1764.194.3881.3704.635.4762.247.1059.5469.1765.8821.1765.3351 0 .635-.053.882-.1765.247-.1058.4586-.2822.6351-.4762.1587-.1941.2998-.4411.3704-.7057.0882-.2646.1235-.5645.1235-.882s-.0353-.6174-.1235-.882zm-.8115.882c0 .4763-.0882.8468-.2646 1.1114s-.441.388-.7938.388c-.3704 0-.6174-.1234-.7938-.388s-.2646-.6351-.2646-1.1114.0882-.8467.2646-1.1114c.1764-.2646.4234-.388.7938-.388.3705 0 .6351.1234.7938.388.1764.2647.2646.6351.2646 1.1114z"/><g clip-rule="evenodd" fill-rule="evenodd"><path d="m38.7741 17.1466c-.0353-.0882-.1059-.0529-.1059-.0529-.1235.0529-.247.0882-.3881.1059-.1411.0176-.2822.0352-.4586.0352-.4058 0-.7057-.1234-.935-.3528-.2293-.2293-.3528-.6174-.3528-1.129 0-.4586.1058-.8114.3175-1.076.1941-.2646.5116-.4058.9173-.4058.3352 0 .5998.0353.8644.1235 0 0 .0706.0353.0882-.0529.0706-.1941.1235-.3352.1941-.5645.0176-.0706-.0353-.0882-.0529-.0882-.1059-.0353-.3529-.1059-.5469-.1411-.1764-.0353-.3881-.0353-.6174-.0353-.3528 0-.6527.0529-.9173.1764s-.494.2822-.6704.4763c-.1764.194-.3175.441-.4057.7056s-.1411.5645-.1411.882c0 .688.1764 1.2349.5468 1.6406.3705.4057.9173.6174 1.623.6174.4233 0 .8467-.0882 1.1642-.2117 0 0 .053-.0352.0353-.1058z"/><path d="m42.9722 14.7299c-.0706-.2646-.247-.5292-.3528-.6527-.1765-.1941-.3529-.3352-.5293-.4058-.2293-.1058-.4939-.1587-.7938-.1587-.3528 0-.6703.0529-.9173.1764-.2646.1235-.4763.2822-.6351.4939-.1764.2117-.2999.441-.3704.7233-.0882.2822-.1235.5645-.1235.882s.0353.6174.1235.882c.0882.2647.2117.5116.4057.7057.1764.194.4234.3528.7056.4586.2823.1059.6175.1588 1.0055.1588.8115 0 1.2349-.1764 1.3937-.2823.0352-.0176.0529-.0529.0176-.1411l-.1764-.5116c-.0353-.0705-.1058-.0529-.1058-.0529-.1941.0706-.4763.2117-1.1467.2117-.4234 0-.7585-.1235-.9526-.3352-.2117-.2117-.2999-.5115-.3175-.9173h2.7872s.0706 0 .0882-.0705c-.0176 0 .0706-.5293-.1058-1.1643zm-2.7696.5821c.0353-.2646.1058-.4763.2293-.6527.1764-.2646.4234-.4057.7938-.4057.3705 0 .5998.1411.7762.4057.1235.1764.1588.4057.1764.6527z"/><path d="m20.6924 14.7299c-.0706-.2646-.247-.5292-.3528-.6527-.1764-.1941-.3528-.3352-.5293-.4058-.2293-.1058-.4939-.1587-.7938-.1587-.3528 0-.6703.0529-.9173.1764-.2646.1235-.4763.2822-.635.4939-.1765.2117-.2999.441-.3705.7233-.0882.2822-.1235.5645-.1235.882s.0353.6174.1235.882c.0882.2647.2117.5116.4057.7057.1764.194.4234.3528.7057.4586.2822.1059.6174.1588 1.0055.1588.8114 0 1.2348-.1764 1.3936-.2823.0353-.0176.0529-.0529.0176-.1411l-.1764-.5116c-.0353-.0705-.1058-.0529-.1058-.0529-.1941.0706-.4763.2117-1.1467.2117-.4233 0-.7585-.1235-.9526-.3352-.2116-.2117-.2998-.5115-.3175-.9173h2.7872s.0706 0 .0882-.0705c-.0176 0 .0706-.5293-.1058-1.1643zm-2.7696.5821c.0353-.2646.1059-.4763.2293-.6527.1764-.2646.4234-.4057.7939-.4057.3704 0 .5997.1411.7761.4057.1059.1764.1588.4057.1765.6527z"/></g><path d="m13.0187 15.1709c-.1058 0-.2646-.0177-.441-.0177-.2469 0-.4763.0353-.688.0883-.2116.0529-.4057.1411-.5821.2646-.1764.1234-.2999.2822-.4057.4586-.1059.1764-.1412.4058-.1412.6351 0 .2469.0353.4586.1235.635s.2117.3176.3705.4411c.1587.1058.3528.194.5645.2469s.4586.0706.7409.0706c.2822 0 .5645-.0177.8467-.0706.2646-.0529.5998-.1058.7057-.1411.0882-.0176.194-.0529.194-.0529.0706-.0177.0706-.0882.0706-.0882v-2.5403c0-.5645-.1412-.9702-.4411-1.2348-.2998-.247-.7232-.3881-1.2701-.3881-.2117 0-.5468.0353-.7409.0706 0 0-.5998.1234-.8644.3175 0 0-.0529.0353-.0176.1058l.194.5293c.0177.0705.0882.0529.0882.0529s.0177 0 .053-.0177c.5292-.2822 1.2172-.2822 1.2172-.2822.2999 0 .5292.0529.6879.1764.1588.1235.2294.2999.2294.6703v.1235c-.2823-.0176-.494-.0529-.494-.0529zm-1.1113 1.9581c-.1059-.0882-.1235-.1058-.1588-.1588-.0529-.0882-.0882-.2117-.0882-.3704 0-.247.0882-.4234.247-.5469 0 0 .2469-.2117.8114-.194.4058 0 .7586.0705.7586.0705v1.2702s-.3528.0705-.7586.1058c-.5645.0176-.8114-.1764-.8114-.1764z"/><path clip-rule="evenodd" d="m35.4574 13.742c.0176-.0705-.0177-.0882-.0353-.1058-.0529-.0177-.2823-.0706-.4587-.0706-.3528-.0176-.5468.0353-.7232.1235-.1764.0706-.3705.2117-.4763.3528v-.3352c0-.0529-.0353-.0882-.0882-.0882h-.7057c-.0529 0-.0882.0353-.0882.0882v4.1456c0 .0529.0353.0882.0882.0882h.7233c.0529 0 .0882-.0353.0882-.0882v-2.0816c0-.2823.0353-.5645.0882-.7233.0529-.1764.1411-.3175.247-.4057.1058-.1059.2117-.1764.3351-.2117.1235-.0353.2647-.0529.3705-.0529.1411 0 .2999.0353.2999.0353.0529 0 .0882-.0353.1058-.0706.0706-.1411.2117-.5292.2294-.5998z" fill-rule="evenodd"/><path clip-rule="evenodd" d="m28.5953 11.8192c-.0882-.0353-.1764-.0529-.2823-.0705-.1058-.0177-.2293-.0353-.3704-.0353-.5116 0-.8997.1411-1.182.4234-.2822.2822-.4586.7056-.5645 1.2701l-.0352.194h-.6351s-.0706 0-.0882.0882l-.1058.5822c0 .0529.0176.0882.0882.0882h.6174l-.6174 3.4752c-.053.2822-.1059.5115-.1588.6879s-.1235.2999-.1941.3881c-.0705.0882-.1411.1588-.2469.1941-.0882.0353-.2117.0529-.3352.0529-.0706 0-.1588-.0176-.2293-.0176-.0706-.0177-.1059-.0353-.1588-.053 0 0-.0705-.0352-.1058.053-.0177.0529-.1941.5115-.2117.5645-.0177.0529 0 .1058.0353.1058.0882.0353.1411.0529.2469.0706.1588.0352.2823.0352.4058.0352.2646 0 .4939-.0352.6879-.1058.1941-.0706.3705-.194.5116-.3528.1588-.1764.2646-.3705.3528-.6174.0882-.247.1764-.5645.247-.935l.6351-3.5457h.9173s.0705 0 .0882-.0882l.1058-.5822c0-.0529-.0176-.0882-.0882-.0882h-.882c0-.0176.0529-.3351.1411-.635.0353-.1235.1235-.2294.1941-.2999.0705-.0706.1411-.1235.2293-.1412.0882-.0352.194-.0352.2999-.0352.0882 0 .1587.0176.2293.0176.0882.0176.1235.0353.1411.0353.0882.0353.1059 0 .1235-.0353l.2117-.5821c.0529-.0706 0-.0882-.0176-.1059z" fill-rule="evenodd"/><path clip-rule="evenodd" d="m16.1585 17.8346c0 .0529-.0353.0882-.0882.0882h-.7409c-.0529 0-.0882-.0353-.0882-.0882v-5.9272c0-.0529.0353-.0882.0882-.0882h.7409c.0529 0 .0882.0353.0882.0882z" fill-rule="evenodd"/></g></svg>