<?xml version="1.0" encoding="utf-8"?><svg xmlns="http://www.w3.org/2000/svg" xmlns:xlink="http://www.w3.org/1999/xlink"><symbol viewBox="0 0 16 16" id="pw-alert" xmlns="http://www.w3.org/2000/svg"><path d="M7.044 15.537c.27.271.585.402.952.402.375 0 .685-.135.942-.402a1.31 1.31 0 00.393-.942h-2.68c0 .366.131.68.393.942zm8.869-2.173a10.963 10.963 0 01-1.414-2.95c-.319-1.038-.602-2.54-.856-4.505-.147-1.143-.616-2.108-1.135-2.732a4.946 4.946 0 00-.89-.838 5.464 5.464 0 00-1.833-.899A1.74 1.74 0 009.148.42 1.788 1.788 0 007.996.01c-.428 0-.812.14-1.144.41-.332.27-.541.611-.628 1.021a5.474 5.474 0 00-1.842.9 4.967 4.967 0 00-.89.837c-.516.62-.979 1.589-1.126 2.732-.254 1.964-.546 3.464-.865 4.504a11.102 11.102 0 01-1.405 2.95.435.435 0 00-.035.498.464.464 0 00.428.254h15.03a.466.466 0 00.481-.49.453.453 0 00-.087-.261zm-14.551-.218c.523-.9.92-1.887 1.196-2.942.275-1.057.525-2.454.768-4.172.21-1.494.89-2.433 1.737-2.994a4.85 4.85 0 011.72-.742.465.465 0 00.357-.463v-.017c0-.464.393-.838.856-.838.48 0 .855.375.855.838v.017c0 .218.155.409.375.463.601.147 1.124.335 1.711.742.295.204.556.43.777.69.45.526.828 1.335.96 2.304.235 1.72.49 3.107.768 4.163.28 1.056.681 2.043 1.205 2.95H1.362z" fill="currentColor" fill-rule="evenodd"/></symbol><symbol viewBox="0 0 100 60" id="pw-amex-hint" xmlns="http://www.w3.org/2000/svg"><g fill="none" fill-rule="evenodd"><rect fill="#EEE" width="100" height="60" rx="4"/><path fill="#000" d="M72.398 25.37l1.748-.485h.873v6.018h-1.262v-4.659l-1.068.291zm17.864 3.204v-1.845l-1.553 1.845h1.553zm.194-3.689h1.165v3.689h.777v1.067h-.777v1.262h-1.456V29.64h-2.913l-.194-.97 3.398-3.786zm-5.63 1.165H82.3v-1.165h4.175v.97l-1.554 1.457c1.1.194 1.65.744 1.65 1.65a1.846 1.846 0 01-.582 1.456 2.33 2.33 0 01-1.553.582 3.012 3.012 0 01-2.33-.97l.874-.874c.364.426.895.673 1.456.68l.582-.195a.776.776 0 00-.097-1.165l-.873-.194h-.583l-.194-.873 1.553-1.359zm-5.826 0l-.583.194-.582.582-.97-.776a3.5 3.5 0 01.97-.97 2.527 2.527 0 011.262-.292c.56-.04 1.116.134 1.553.486.386.344.6.842.583 1.358 0 .42-.136.83-.388 1.165a6.42 6.42 0 01-1.262 1.262l-.971.776h2.621V31H76.67v-1.068l2.039-1.65.776-.776c.14-.198.21-.438.195-.68a.776.776 0 00-.195-.582L79 26.05z"/><path d="M18.417 8.774l-.582-1.36-.583 1.36h1.165zm1.748 1.844h-.97l-.39-.97h-1.844l-.388.97h-1.068l1.942-4.368h.873l1.845 4.368zm5.049 0h-.971V7.9l-1.165 1.747-1.262-1.844v2.815h-.971v-4.27h.97l1.263 1.843 1.165-1.844h.97zm4.271 0h-3.203v-4.27h3.203v.873h-2.33v.873h2.04v.874h-2.04v.873h2.33zm3.593-2.815a.582.582 0 00-.195-.485l-.582-.194h-.97v1.261h.97l.485-.194a.582.582 0 00.292-.388zm1.068 2.815h-1.068l-.874-1.36h-.777v1.36h-.97v-4.27h1.941a1.75 1.75 0 011.165.387c.28.283.421.673.388 1.068a1.261 1.261 0 01-.873 1.359l1.068 1.456zm.776 0h.971v-4.27h-.97zm9.224-1.844l-.583-1.36-.582 1.36h1.165zm1.747 1.844h-.97l-.389-.97h-1.942l-.388.97h-.971l1.845-4.368h.873l1.942 4.368zm-5.048-.68l-.777.583-.97.194a2.138 2.138 0 01-1.554-.68 2.137 2.137 0 01-.583-1.553 2.135 2.135 0 01.68-1.65 2.136 2.136 0 011.65-.582l.971.194.68.485-.583.68a1.647 1.647 0 00-1.068-.485 1.164 1.164 0 00-.874.388 1.362 1.362 0 00-.388.97 1.36 1.36 0 00.388.97c.223.25.541.391.874.39h.486l.582-.39.486.486zm9.611.68h-.873L47.543 7.9v2.718h-.97v-4.27h.874l2.038 2.62v-2.62h1.068zm6.117 0h-3.301v-4.27h3.204v.873h-2.233v.873h2.039v.874h-2.04v.873h2.33zm4.757 0h-1.165l-.97-1.456-.972 1.456h-1.068l1.457-2.136-1.36-2.135h1.068l.874 1.359.874-1.359h1.068L59.68 8.482zm7.476-2.815a.582.582 0 00-.194-.485l-.583-.194h-.97v1.261h.97l.486-.194a.582.582 0 00.29-.388zm1.068 2.815h-1.068l-.874-1.36h-.777v1.36h-.97v-4.27h1.941a1.75 1.75 0 011.165.387c.28.283.422.673.389 1.068a1.261 1.261 0 01-.874 1.359l1.068 1.456zM64.534 7.9a.582.582 0 00-.194-.485l-.583-.194h-.68v1.358h.777l.583-.194a.582.582 0 00.097-.485zm.97 0c.009.41-.17.804-.485 1.068a1.94 1.94 0 01-1.262.388h-.68v1.262h-.97v-4.27h1.747a1.75 1.75 0 011.165.387c.315.264.494.657.486 1.068V7.9zm8.545 2.718h-3.301v-4.27h3.203v.873h-2.233v.873h2.04v.874h-2.04v.873h2.33zm7.961-1.262c.03.367-.113.727-.389.97a1.75 1.75 0 01-1.165.389 2.72 2.72 0 01-1.844-.68l.582-.68a2.03 2.03 0 001.262.486h.486a.29.29 0 00.194-.291.387.387 0 00-.194-.291l-.68-.291-.582-.194-.389-.195L79 8.191a1.343 1.343 0 01-.097-.485 1.164 1.164 0 01.388-.97c.3-.252.678-.39 1.068-.389a2.52 2.52 0 011.554.582l-.486.68a2.134 2.134 0 00-1.165-.388h-.388a.291.291 0 00-.097.29c.014.123.086.23.194.292l.777.291 1.068.485c.198.21.302.49.29.777h-.096zm-3.98 0c.03.367-.113.727-.39.97a1.75 1.75 0 01-1.164.389 2.72 2.72 0 01-1.845-.68l.583-.68c.353.302.798.473 1.262.486h.485a.29.29 0 00.194-.291.387.387 0 00-.194-.291l-.68-.291-.582-.194-.388-.195-.292-.388a1.343 1.343 0 01-.097-.485 1.164 1.164 0 01.389-.97 1.65 1.65 0 011.068-.389 2.52 2.52 0 011.553.582l-.485.68a2.134 2.134 0 00-1.165-.388h-.389a.291.291 0 00-.097.29c.015.123.087.23.194.292l.777.291 1.068.485c.198.21.303.49.291.777h-.097z" fill="#757575"/><path fill="#1E88E5" d="M31.524 49.441H65.99v-33H31.524z"/><path d="M7.544 16.441h8.543a2.621 2.621 0 012.622 2.62v4.465a2.621 2.621 0 01-2.622 2.621H7.544a2.621 2.621 0 01-2.622-2.62v-4.465a2.621 2.621 0 012.622-2.62" fill="#BDBDBD"/><path d="M70.942 32.941h23.592V22.265H70.942V32.94zm-2.04 1.941h27.574V20.324H68.903v14.558z" fill="#FF5252"/></g></symbol><symbol viewBox="0 0 16 16" id="pw-caret-down" xmlns="http://www.w3.org/2000/svg"><path d="M0 4h16l-8 8z" fill="currentColor" fill-rule="evenodd"/></symbol><symbol viewBox="0 0 16 16" id="pw-caret-left" xmlns="http://www.w3.org/2000/svg"><path d="M12 0v16L4 8z" fill="currentColor" fill-rule="evenodd"/></symbol><symbol viewBox="0 0 16 16" id="pw-caret-right" xmlns="http://www.w3.org/2000/svg"><path d="M4 16V0l8 8z" fill="currentColor" fill-rule="evenodd"/></symbol><symbol viewBox="0 0 16 16" id="pw-caret-up" xmlns="http://www.w3.org/2000/svg"><path d="M16 12H0l8-8z" fill="currentColor" fill-rule="evenodd"/></symbol><symbol viewBox="0 0 16 16" id="pw-cart" xmlns="http://www.w3.org/2000/svg"><g fill="currentColor" fill-rule="evenodd"><path d="M13.697 15.94H2.243A.242.242 0 012 15.684L2.546 4.23A.242.242 0 012.788 4h10.364c.13 0 .236.101.242.23l.546 11.455a.242.242 0 01-.243.254zm-11.2-.485h10.946l-.523-10.97h-9.9l-.522 10.97z"/><path d="M10.484 5.515a.243.243 0 01-.243-.242v-2.41A2.381 2.381 0 007.863.485a2.381 2.381 0 00-2.378 2.378v2.41a.243.243 0 01-.485 0v-2.41A2.866 2.866 0 017.863 0a2.866 2.866 0 012.863 2.863v2.41a.242.242 0 01-.242.242z"/></g></symbol><symbol viewBox="0 0 16 16" id="pw-cart-full" xmlns="http://www.w3.org/2000/svg"><g fill="currentColor" fill-rule="evenodd"><path d="M13.697 15.94H2.243A.242.242 0 012 15.684L2.546 4.23A.242.242 0 012.788 4h10.364c.13 0 .236.101.242.23l.546 11.455a.242.242 0 01-.243.254z"/><path d="M10.484 5.515a.243.243 0 01-.243-.242v-2.41A2.381 2.381 0 007.863.485a2.381 2.381 0 00-2.378 2.378v2.41a.243.243 0 01-.485 0v-2.41A2.866 2.866 0 017.863 0a2.866 2.866 0 012.863 2.863v2.41a.242.242 0 01-.242.242z"/></g></symbol><symbol viewBox="0 0 16 16" id="pw-cart-v2" xmlns="http://www.w3.org/2000/svg"><path d="M4.667 14.333c0 .926.74 1.667 1.666 1.667A1.66 1.66 0 008 14.333a1.66 1.66 0 00-1.667-1.666 1.66 1.66 0 00-1.666 1.666zm5.333 0c0 .926.74 1.667 1.667 1.667a1.66 1.66 0 001.666-1.667 1.66 1.66 0 00-1.666-1.666A1.66 1.66 0 0010 14.333zm5.981-10.926a.259.259 0 00-.055-.277.354.354 0 00-.26-.13H4.316L3.759.76A1.012 1.012 0 002.778 0H1C.444 0 0 .444 0 1s.444 1 1 1h1l2.037 8.24c.093.445.5.76.963.76h7.981a.99.99 0 00.963-.76l2.037-6.833z" fill="currentColor" fill-rule="evenodd"/></symbol><symbol viewBox="0 0 16 16" id="pw-caution" xmlns="http://www.w3.org/2000/svg"><path d="M8 1l8 14H0L8 1zm.76 10H7.24L7 5h2l-.24 6zM7 13c0-.292.095-.532.286-.719A.978.978 0 018 12a.967.967 0 011 1 .964.964 0 01-.286.719A.978.978 0 018 14a.978.978 0 01-.714-.281A.964.964 0 017 13z" fill="currentColor" fill-rule="evenodd"/></symbol><symbol viewBox="0 0 100 60" id="pw-cc-american-express" xmlns="http://www.w3.org/2000/svg"><g fill="none" fill-rule="evenodd"><rect fill="#FFF" width="100" height="60" rx="4"/><path d="M91.289 35.063h-4.24c-.423 0-.704.016-.941.174-.246.156-.34.388-.34.694 0 .364.207.611.509.718.245.085.509.11.896.11l1.26.033c1.273.03 2.122.248 2.64.776.094.073.151.156.216.239v-2.744zm0 6.357c-.565.819-1.666 1.234-3.157 1.234H83.64v-2.068h4.474c.444 0 .754-.058.941-.239a.844.844 0 00.275-.629c0-.28-.113-.504-.284-.637-.169-.148-.414-.214-.82-.214-2.184-.074-4.909.066-4.909-2.985 0-1.399.897-2.871 3.338-2.871h4.634v-1.919h-4.306c-1.299 0-2.243.309-2.91.788v-.788h-6.369c-1.018 0-2.213.25-2.779.788v-.788H63.554v.788c-.905-.647-2.432-.788-3.137-.788h-7.5v.788c-.716-.687-2.309-.788-3.28-.788h-8.394l-1.92 2.06-1.8-2.06h-12.54v13.456h12.304l1.98-2.092 1.864 2.092 7.584.006V41.39h.746c1.006.016 2.193-.025 3.24-.473v3.631h6.255V41.04h.302c.385 0 .423.016.423.397v3.11h19.003c1.207 0 2.468-.306 3.166-.861v.861h6.028c1.254 0 2.479-.174 3.41-.62V41.42zm-9.28-3.852c.454.464.696 1.05.696 2.043 0 2.074-1.308 3.043-3.654 3.043h-4.53v-2.068h4.512c.441 0 .754-.058.95-.239a.851.851 0 00.275-.629.824.824 0 00-.284-.637c-.178-.148-.423-.214-.828-.214-2.176-.074-4.9.066-4.9-2.985 0-1.399.887-2.871 3.326-2.871h4.663v2.052h-4.267c-.423 0-.698.016-.932.175-.255.156-.35.387-.35.693a.74.74 0 00.51.719c.245.084.509.109.905.109l1.252.033c1.263.03 2.13.247 2.657.776zm-20.99-.596c-.311.183-.696.199-1.149.199h-2.826v-2.166h2.865c.414 0 .828.009 1.11.174.301.157.482.455.482.868 0 .412-.18.745-.482.925zm1.405 1.2c.518.19.94.53 1.14.81.328.47.375.91.385 1.76v1.912h-2.336v-1.207c0-.58.057-1.439-.376-1.887-.34-.346-.858-.428-1.706-.428h-2.486v3.522h-2.338V33.01h5.37c1.179 0 2.036.051 2.8.455.734.44 1.196 1.041 1.196 2.141 0 1.54-1.037 2.325-1.65 2.565zm2.938-5.161h7.764v1.994H67.68v1.753h5.314v1.968H67.68v1.918l5.447.009v2h-7.764v-9.642zm-15.694 4.45H46.66v-2.456h3.034c.84 0 1.422.34 1.422 1.183 0 .834-.556 1.273-1.45 1.273zm-5.324 4.316l-3.571-3.928 3.571-3.803v7.73zm-9.223-1.133h-5.72v-1.918h5.108v-1.968h-5.107v-1.753h5.832l2.544 2.81-2.657 2.83zm18.494-4.456c0 2.678-2.018 3.231-4.051 3.231h-2.903v3.235H42.14l-2.864-3.192-2.977 3.192h-9.215V33.01h9.357l2.862 3.16 2.958-3.16h7.434c1.846 0 3.92.506 3.92 3.177zm-37.629-14.29l-1.592-3.843-1.583 3.843h3.175zm35.075-1.53c-.32.192-.697.198-1.15.198h-2.826v-2.141h2.864c.405 0 .828.018 1.103.174.302.14.489.44.489.852 0 .422-.178.76-.48.917zm20.16 1.53l-1.61-3.843-1.6 3.843h3.21zm-37.58 4.16h-2.384l-.009-7.55-3.373 7.55h-2.042l-3.382-7.557v7.557h-4.732l-.893-2.15h-4.844l-.903 2.15H8.553l4.165-9.64h3.457l3.956 9.127v-9.128h3.797l3.044 6.54 2.797-6.54h3.873v9.641zm9.506 0h-7.771v-9.64h7.77v2.007h-5.444v1.738h5.314v1.976h-5.314v1.925h5.445v1.994zm10.956-7.044c0 1.537-1.035 2.331-1.639 2.57.51.191.944.53 1.15.811.33.48.386.908.386 1.77v1.893h-2.346l-.01-1.216c0-.58.057-1.414-.366-1.878-.34-.339-.858-.412-1.696-.412h-2.497v3.506h-2.326v-9.64h5.35c1.19 0 2.065.03 2.817.461.736.43 1.177 1.06 1.177 2.135zm3.723 7.044h-2.374v-9.64h2.374v9.64zm27.537 0h-3.297l-4.409-7.236v7.236h-4.738l-.905-2.15h-4.832l-.878 2.15h-2.722c-1.131 0-2.563-.248-3.374-1.066-.817-.819-1.242-1.928-1.242-3.68 0-1.43.254-2.738 1.254-3.77.752-.77 1.93-1.125 3.532-1.125h2.252v2.066H63.8c-.85 0-1.329.125-1.79.571-.397.406-.67 1.174-.67 2.184 0 1.033.208 1.778.64 2.264.359.382 1.01.497 1.622.497h1.045l3.278-7.581h3.486l3.938 9.118v-9.118h3.542l4.09 6.714v-6.714h2.382v9.64zM8.526 27.952H12.5l.896-2.142h2.007l.894 2.142h7.82v-1.637l.698 1.644h4.06l.698-1.669v1.662h19.435l-.01-3.515h.377c.263.009.34.033.34.463v3.052h10.052v-.819c.81.43 2.071.819 3.73.819h4.23l.905-2.142h2.006l.885 2.142h8.15v-2.034l1.233 2.034h6.53V14.506h-6.462v1.588l-.905-1.588h-6.632v1.588l-.83-1.588h-8.958c-1.5 0-2.818.207-3.882.785v-.785h-6.182v.785c-.677-.596-1.6-.785-2.627-.785H28.375l-1.515 3.473-1.557-3.473H18.19v1.588l-.781-1.588h-6.066l-2.818 6.393v7.053z" fill="#0072CE"/></g></symbol><symbol viewBox="0 0 100 60" id="pw-cc-china-unionpay" xmlns="http://www.w3.org/2000/svg"><g fill="none" fill-rule="evenodd"><rect fill="#FFF" width="100" height="60" rx="4"/><path d="M80.612 8.11l-16.716-.004h-.005c-.012 0-.025.003-.038.003-2.296.07-5.156 1.927-5.677 4.217l-7.905 35.26c-.521 2.311.896 4.191 3.176 4.226h17.56c2.246-.112 4.427-1.947 4.94-4.21l7.905-35.262c.53-2.334-.922-4.23-3.24-4.23" fill="#01798A"/><path d="M50.27 47.586l7.906-35.26c.52-2.29 3.38-4.147 5.677-4.217l-6.646-.005-11.975-.002c-2.303.047-5.2 1.917-5.72 4.224l-7.908 35.26c-.523 2.311.896 4.191 3.174 4.226h18.669c-2.28-.035-3.697-1.915-3.176-4.226" fill="#024381"/><path d="M31.604 47.586l7.907-35.26c.521-2.307 3.418-4.177 5.721-4.224l-15.34-.004c-2.316 0-5.285 1.891-5.814 4.228l-7.908 35.26a4.45 4.45 0 00-.09.633v.654c.154 1.684 1.43 2.911 3.265 2.94h15.433c-2.278-.036-3.697-1.916-3.174-4.227" fill="#DD0228"/><path d="M45.556 33.795h.29c.267 0 .446-.09.53-.269l.755-1.138h2.02l-.421.749h2.422l-.307 1.147h-2.883c-.332.503-.74.74-1.232.712h-1.5l.326-1.2zm-.332 1.644h5.307l-.339 1.246h-2.134l-.325 1.202h2.076l-.338 1.246h-2.077l-.482 1.777c-.12.297.037.43.469.4h1.692l-.314 1.158h-3.25c-.615 0-.826-.355-.633-1.067l.617-2.268h-1.328l.337-1.246h1.328l.325-1.202h-1.268l.337-1.246zm8.47-3.06l-.084.73s1.002-.758 1.91-.758h3.36l-1.285 4.689c-.106.535-.563.802-1.37.802h-3.808l-.892 3.292c-.051.176.022.267.214.267h.749l-.275 1.022h-1.905c-.731 0-1.035-.222-.915-.667l2.52-9.376h1.781zm2.845 1.326H53.54l-.358 1.265s.5-.364 1.334-.377c.832-.013 1.782 0 1.782 0l.241-.888zm-1.086 2.934c.221.03.345-.058.36-.266l.184-.667h-3.003l-.252.933h2.71zm-2.026 1.515h1.731l-.032.755h.46c.234 0 .35-.075.35-.223l.135-.489h1.44l-.193.712c-.162.594-.593.904-1.293.934h-.922l-.005 1.291c-.017.207.169.312.55.312h.867l-.28 1.022h-2.078c-.583.028-.868-.252-.862-.846l.132-3.468zm-20.976-12.02c-.235 1.16-.779 2.05-1.623 2.683-.837.621-1.916.933-3.237.933-1.243 0-2.154-.318-2.736-.957-.403-.454-.604-1.03-.604-1.728 0-.288.034-.598.102-.931l1.408-6.842h2.126l-1.389 6.764c-.042.187-.06.362-.057.519-.002.346.083.63.256.852.252.329.66.492 1.23.492.653 0 1.192-.16 1.61-.486.419-.323.692-.78.815-1.377l1.393-6.764h2.115l-1.409 6.842m8.928-2.692h1.665l-1.305 6.106h-1.661l1.3-6.106m.525-2.224h1.68l-.314 1.482h-1.68l.314-1.482m2.614 7.865c-.435-.42-.655-.985-.657-1.704a4.585 4.585 0 01.089-.86c.197-.992.617-1.78 1.265-2.36.647-.583 1.427-.876 2.34-.876.749 0 1.342.21 1.776.633.435.423.652.996.652 1.723a4.542 4.542 0 01-.095.88c-.193.977-.612 1.755-1.26 2.326-.648.574-1.426.86-2.333.86-.751 0-1.342-.206-1.777-.622m3.173-1.209c.294-.32.504-.807.632-1.454a3.008 3.008 0 00.062-.6c0-.377-.095-.67-.286-.876-.19-.209-.46-.312-.81-.312-.46 0-.836.163-1.13.49-.297.328-.507.822-.64 1.48a7.893 7.893 0 00-.047.302c-.01.101-.013.196-.011.282 0 .374.095.663.286.867.19.204.458.305.812.305.463 0 .839-.161 1.132-.484m13.094 5.973l.402-1.424h2.03l-.088.522s1.037-.522 1.784-.522h2.51l-.4 1.424h-.394l-1.893 6.717h.394l-.375 1.334h-.395l-.164.579h-1.966l.164-.58h-3.878l.378-1.333h.389l1.895-6.717h-.393zm2.19 0l-.517 1.818s.884-.342 1.646-.439c.168-.635.388-1.38.388-1.38h-1.517zm-.756 2.67L61.7 38.42s.98-.486 1.652-.527c.194-.736.388-1.377.388-1.377h-1.522zm.38 4.047l.389-1.381h-1.515l-.391 1.38h1.517zm4.91-8.23h1.907l.081.71c-.012.18.094.267.32.267h.338l-.342 1.203H68.41c-.536.028-.811-.179-.837-.624l-.066-1.556zm-.56 2.58h6.18l-.362 1.291h-1.968l-.337 1.2h1.966l-.365 1.29h-2.19l-.495.755h1.072l.247 1.512c.03.15.162.224.388.224h.333l-.35 1.245H69.89c-.61.03-.926-.176-.952-.621l-.284-1.382-.975 1.47c-.23.415-.585.609-1.063.579h-1.8l.35-1.246h.562c.23 0 .423-.104.596-.312l1.526-2.225h-1.97l.365-1.289h2.134l.34-1.2h-2.137l.365-1.291zM34.41 23.44h1.5l-.171.882.215-.252c.487-.524 1.078-.785 1.776-.785.632 0 1.088.185 1.374.557.281.373.358.887.225 1.547l-.827 4.161h-1.543l.747-3.771c.077-.39.055-.68-.063-.867-.118-.188-.342-.28-.665-.28-.397 0-.731.125-1.003.372-.274.25-.454.596-.542 1.037l-.689 3.51h-1.546l1.211-6.111m17.219 0h1.502l-.17.882.213-.252c.487-.524 1.08-.785 1.776-.785.632 0 1.088.185 1.372.557.28.373.361.887.224 1.547l-.824 4.161h-1.545l.747-3.771c.077-.39.056-.68-.062-.867-.121-.188-.341-.28-.663-.28-.397 0-.73.125-1.006.372-.273.25-.454.596-.54 1.037l-.691 3.51h-1.544l1.21-6.111m7.428-3.787h4.363c.839 0 1.487.192 1.933.568.444.381.667.928.667 1.64v.021c0 .136-.01.289-.022.454a6.79 6.79 0 01-.085.502c-.192.942-.639 1.7-1.328 2.274-.692.572-1.51.86-2.454.86h-2.34l-.723 3.578H57.04l2.015-9.897m1.09 4.598h1.941c.506 0 .907-.118 1.2-.353.29-.236.482-.598.589-1.088.016-.09.027-.172.04-.248.007-.07.015-.142.015-.21 0-.351-.124-.605-.371-.764-.248-.162-.636-.24-1.174-.24h-1.648l-.591 2.903m14.938 6.481c-.64 1.372-1.25 2.172-1.61 2.545-.358.368-1.068 1.224-2.78 1.16l.147-1.048c1.44-.448 2.22-2.464 2.664-3.357l-.53-6.575 1.114-.015h.935l.1 4.125 1.753-4.125h1.773l-3.566 7.29m-4.96-6.792l-.705.488c-.736-.581-1.408-.94-2.706-.334-1.767.826-3.244 7.162 1.622 5.075l.278.332 1.914.05 1.257-5.758-1.66.146m-1.089 3.148c-.307.914-.994 1.519-1.532 1.347-.538-.168-.73-1.05-.418-1.967.307-.916.998-1.519 1.532-1.347.538.168.732 1.05.418 1.967" fill="#FFF"/></g></symbol><symbol viewBox="0 0 100 60" id="pw-cc-dankort" xmlns="http://www.w3.org/2000/svg"><g fill="none" fill-rule="evenodd"><rect fill="#FFF" width="100" height="60" rx="4"/><path d="M73.323 12.04c2.684.236 5.804-.512 8.013.905 2.212 1.26 3.751 3.583 3.633 6.259l-15.91.04c-.266.107-.434.51-.75.747-2.21 2.717-4.42 5.472-6.71 8.109.275-2.913.403-5.915.798-8.828l-13.155-.03a255.303 255.303 0 01-.395 7.677c-.592-2.835-2.922-5.944-5.882-6.77-1.382-.434-2.684-.749-4.145-.827l-22.74.079c0 .04-.08.04-.08 0-.039-2.52 1.185-4.803 3.396-6.18.947-.551 1.973-1.055 3.119-1.134l50.808-.047zm-4.935 26.965c.256.865.997.669 1.698.669H84.93c.119 2.755-1.58 5.51-4.186 6.613-.986.433-2.091.63-3.237.63h-24.91l-30.162.079c-2.487-.198-4.974-2.086-5.922-4.449A7.944 7.944 0 0116 39.792l22.266-.118c3.356-.394 6.593-1.85 8.567-4.96.71-1.142 1.263-2.323 1.737-3.543-.237 2.834-.356 5.747-.671 8.62 4.223-.04 13.067 0 13.067 0 .078-3.542.276-7.243.513-10.746l6.909 9.96zM36.727 28.848c.04.945-.593 1.693-1.303 2.283-1.816 1.378-4.48.72-6.83.827l.434-5.354c2.36.178 6.9-.806 7.699 2.244zm48.242 10.51c0 .04-.04.04 0 .079-3.197-3.464-6.08-7.282-8.883-11.022l.04-.158c2.882-2.991 5.566-6.1 8.764-8.778l.079.04v19.84z" fill="#CC2229"/></g></symbol><symbol viewBox="0 0 100 60" id="pw-cc-diners-club" xmlns="http://www.w3.org/2000/svg"><path fill="#fff" d="M96 0H4C1.8 0 0 1.8 0 4v52c0 2.2 1.8 4 4 4h92c2.2 0 4-1.8 4-4V4c0-2.2-1.8-4-4-4z"/><path fill="#1a1918" d="M19.3 35c0-1.2-.6-1.1-1.2-1.1v-.3H22c3.5 0 5.4 2.3 5.4 4.7 0 1.3-.8 4.7-5.5 4.7h-3.7v-.3c.8-.1 1.2-.1 1.2-1V35h-.1zm1.3 6.3c0 1 .7 1.2 1.4 1.2 2.9 0 3.9-2.2 3.9-4.2 0-2.5-1.6-4.3-4.2-4.3-.6 0-.8 0-1 .1v7.2h-.1zm7.2 1.2h.2c.4 0 .6 0 .6-.4v-3.6c0-.6-.2-.7-.7-.9v-.2c.6-.2 1.4-.4 1.4-.5.1-.1.2-.1.2-.1.1 0 .1.1.1.2v5.2c0 .4.3.4.7.4h.2v.3h-2.9v-.4h.2zm1.4-7.8c-.3 0-.7-.3-.7-.7 0-.3.3-.6.7-.6.3 0 .7.3.7.6 0 .4-.3.7-.7.7zm2.7 3.8c0-.5-.1-.6-.8-.9v-.3c.6-.2 1.1-.4 1.8-.6 0 0 .1 0 .1.1v.9c.8-.5 1.4-1 2.3-1 1.1 0 1.5.8 1.5 1.9v3.5c0 .4.3.4.7.4h.2v.3h-2.9v-.3h.2c.4 0 .6 0 .6-.4v-3.5c0-.8-.5-1.1-1.2-1.1-.4 0-1.1.3-1.6.6v4c0 .4.3.4.7.4h.2v.3h-2.8v-.3h.2c.4 0 .6 0 .6-.4v-3.6m7.1.7v.8c.1 1.3.9 2.3 2 2.3.7 0 1.3-.4 1.8-.9l.2.2c-.6.8-1.4 1.5-2.5 1.5-2.1 0-2.6-2.1-2.6-2.9 0-2.6 1.8-3.4 2.7-3.4 1.1 0 2.3.7 2.3 2.1v.2l-.1.1h-3.8zm2.4-.4c.3 0 .4-.2.4-.3 0-.7-.4-1.2-1.2-1.2-.8 0-1.4.6-1.5 1.6h2.3v-.1zm1.8 3.7h.4c.4 0 .6 0 .6-.4v-3.8c0-.4-.5-.5-.7-.6v-.2c1-.4 1.5-.8 1.6-.8.1 0 .1 0 .1.2v1.2c.3-.5.9-1.4 1.7-1.4.3 0 .8.2.8.7 0 .4-.3.7-.6.7-.4 0-.4-.3-.9-.3-.2 0-1 .3-1 1.1v3.2c0 .4.3.4.6.4h.8v.3h-3.5v-.3m5.3-1.5c.2.9.7 1.6 1.7 1.6.8 0 1.1-.5 1.1-1 0-1.6-2.9-1.1-2.9-3.2 0-.8.6-1.7 2.1-1.7.4 0 1 .1 1.5.4l.1 1.4h-.3c-.1-.8-.6-1.3-1.5-1.3-.5 0-1 .3-1 .9 0 1.6 3.1 1.1 3.1 3.2 0 .9-.7 1.8-2.3 1.8-.5 0-1.2-.2-1.6-.5l-.1-1.5.1-.1m16-5.1h-.3c-.3-1.6-1.4-2.2-2.9-2.2s-3.8 1-3.8 4.3c0 2.7 1.9 4.7 4 4.7 1.3 0 2.4-.9 2.7-2.3l.3.1-.3 2c-.6.3-2.1.7-3 .7-3.1 0-5.1-2-5.1-5 0-2.8 2.5-4.7 5.1-4.7 1.1 0 2.1.3 3.2.7l.1 1.7m.4 6.6h.3c.4 0 .6 0 .6-.4v-7.5c0-.9-.2-.9-.7-1v-.2c.5-.2 1.1-.4 1.4-.6.1-.1.3-.1.3-.1.1 0 .1.1.1.2v9.3c0 .4.3.4.7.4h.2v.3h-2.9v-.4m8.7-.4c0 .2.1.3.4.3h.5v.3c-.6.1-1.7.3-1.9.4h-.1V42c-.8.7-1.4 1.1-2.4 1.1-.7 0-1.5-.5-1.5-1.6v-3.4c0-.3-.1-.7-.8-.8V37c.5 0 1.6-.1 1.7-.1.1 0 .1.1.1.4v3.5c0 .4 0 1.6 1.2 1.6.5 0 1.1-.3 1.6-.8V38c0-.3-.6-.4-1.1-.5v-.2c1.2-.1 2-.2 2.1-.2.1 0 .1.1.1.2v4.8m2.7-4.4c.5-.5 1.3-1 2-1 1.6 0 2.5 1.4 2.5 2.8 0 1.8-1.3 3.5-3.2 3.5-1 0-1.5-.3-1.9-.5l-.4.3-.3-.1c.1-.8.2-1.6.2-2.4v-5.8c0-.9-.2-.9-.7-1v-.2c.5-.2 1.1-.4 1.4-.6.1-.1.3-.1.3-.1.1 0 .1.1.1.2v4.9zm0 3.7c0 .5.5 1.4 1.4 1.4 1.4 0 2-1.4 2-2.6 0-1.4-1.1-2.7-2.1-2.7-.5 0-.9.3-1.3.6v3.3zm-56.8 4.4H18v.3h.1c.3 0 .5 0 .5.4v3.8c0 .4-.2.4-.5.4H18v.3h2.3v-.3h-.1c-.3 0-.5 0-.5-.4v-3.8c0-.4.2-.4.5-.4h.1v-.3h-1.2zm6.4 0h-1v.3h.2c.2 0 .6.1.6.7v2.7L22 45.8h-1.5v.3h.1c.3 0 .6.2.6.6v3.1c0 .6-.1.9-.6.9h-.1v.3h1.9v-.3h-.2c-.5 0-.6-.2-.7-.8V47l3.7 4.1h.3V47c0-.9.3-.9.6-.9h.1v-.3h-.7zm6-.3c0 .2-.2.2-.4.2h-3.8c-.2 0-.3 0-.4-.2h-.2v.6c0 .2-.1.4-.1.6h.3c.1-.5.1-.6.6-.6h1.2V50c0 .6-.2.6-.6.6h-.2v.3h2.4v-.3h-.2c-.3 0-.6 0-.6-.6v-3.9h1.2c.5 0 .5.4.5.7l.3-.1v-.6c0-.2.1-.4.1-.6h-.1zm4.4 4.2c-.2.8-.6.9-1.5.9-.5 0-.9 0-.9-.4v-1.7h.8c.5 0 .5.2.5.7l.3-.1v-1.7h-.3c0 .4-.1.6-.5.6h-.8v-1.8h1c.8 0 .8.4.9.8l.3-.1v-1.1H32v.3c.3 0 .5 0 .5.4v3.8c0 .4-.2.4-.5.4h-.1v.3h3.9c.1-.4.2-.8.2-1.2l-.1-.1zm4.8.5l-1.2-1.8c.6-.2 1-.6 1-1.3 0-1.1-.8-1.3-1.8-1.3h-2.3v.3h.2c.2 0 .5 0 .5.5v3.7c0 .2-.2.4-.5.4h-.2v.3h2.4v-.3h-.2c-.3 0-.6 0-.6-.6v-1.5h.4l1.5 2.4h1.4v-.3c-.2-.1-.4-.2-.6-.5zm-1.2-3.1c0 .8-.4 1.1-1.1 1.1H38v-2.1h.4c.7 0 1 .4 1.1 1zm8-1.3h-1.9v.3h.2c.2 0 .6.1.6.7v2.7l-3.2-3.6h-1.5v.3h.1c.3 0 .6.2.6.6v3.1c0 .6-.1.9-.6.9h-.1v.3h1.9v-.3h-.2c-.6 0-.6-.2-.7-.8v-2.9l3.7 4.1h.3V47c0-.9.3-.9.6-.9h.1v-.3zm4.6 4.6c-.1-.2-.2-.5-.3-.7l-1.3-3.8c0-.1 0-.1-.1-.2h-.2c-.1.1-.4.2-.7.3-.1.3-.2.7-.3.9L48 50.3c-.1.3-.3.5-.6.5h-.1v.3H49v-.3h-.1c-.2 0-.5 0-.5-.2 0-.1.1-.3.2-.6l.2-.7h1.6l.3.8c.1.2.1.4.1.5 0 .1-.3.2-.4.2h-.1v.3h2.1v-.3h-.1c0-.1-.1-.2-.2-.4zm-1.7-1.7h-1.3l.6-2 .7 2zm6.5-3.2c0 .2-.2.2-.4.2h-3.8c-.2 0-.3 0-.4-.2h-.2v.6c0 .2-.1.4-.1.6h.3c.1-.5.1-.6.6-.6h1.2V50c0 .6-.2.6-.6.6h-.2v.3h2.4v-.3h-.2c-.3 0-.6 0-.6-.6v-3.9h1.2c.5 0 .5.4.5.7l.3-.1v-.6c0-.2 0-.4.1-.6h-.1zm1.5.3h-1.1v.3h.1c.3 0 .5 0 .5.4v3.8c0 .4-.2.4-.5.4h-.1v.3h2.3v-.3h-.1c-.3 0-.5 0-.5-.4v-3.8c0-.4.2-.4.5-.4h.1v-.3h-1.2zm4.1-.1c-1.5 0-2.7 1.2-2.7 2.7 0 1.6 1.2 2.6 2.8 2.7 1.6 0 2.8-1.1 2.8-2.8-.1-1.7-1.4-2.6-2.9-2.6zm1.7 2.7c0 1.1-.2 2.3-1.6 2.3-1.2 0-1.8-1.2-1.8-2.5 0-1 .4-2.1 1.6-2.1 1.3 0 1.8 1.2 1.8 2.3zm7.2-2.6h-1.9v.3h.2c.2 0 .6.1.6.7v2.7L67 45.8h-1.5v.3h.1c.3 0 .6.2.6.6v3.1c0 .6-.1.9-.6.9h-.1v.3h1.9v-.3h-.2c-.5 0-.6-.2-.7-.8V47l3.7 4.1h.3V47c0-.9.3-.9.6-.9h.1v-.3zm4.5 4.6c-.1-.2-.2-.5-.3-.7l-1.3-3.8c0-.1 0-.1-.1-.2H74c-.1.1-.4.2-.7.3-.1.3-.2.7-.3.9l-1 3.3c-.1.3-.3.5-.6.5h-.1v.3H73v-.3h-.1c-.2 0-.5 0-.5-.2 0-.1.1-.3.2-.6l.2-.7h1.6l.3.8c.1.2.1.4.1.5 0 .1-.3.2-.4.2h-.1v.3h2.1v-.3h-.1c-.2 0-.3-.1-.4-.3zm-1.7-1.7h-1.3l.6-2 .7 2zm6.3 1c0 .2-.1.4-.2.5-.1.2-.4.3-.7.4h-1c-.2 0-.4-.1-.4-.4v-3.8c0-.4.2-.4.5-.4h.3v-.3h-2.3v.3h.1c.3 0 .5 0 .5.4v3.8c0 .4-.3.5-.5.5h-.1v.3h3.8l.3-1.2-.3-.1zm.2-4.1c-.4 0-.8.3-.8.8 0 .4.3.8.8.8.4 0 .8-.3.8-.8s-.4-.8-.8-.8zm0 1.4c-.3 0-.6-.3-.6-.6s.3-.6.6-.6.6.3.6.6-.3.6-.6.6z"/><path fill="#1a1918" d="M80.9 46.6l-.1-.2c.1 0 .2-.1.2-.2s-.1-.2-.3-.2h-.4c.1 0 .1 0 .1.1v.6c0 .1 0 .1-.1.1h.4c-.1 0-.1 0-.1-.1v-.3h.1c.1.2.2.4.3.4h.1l-.2-.2zm-.2-.2l-.1-.4h.1c.1 0 .2 0 .2.2-.1.1-.1.2-.2.2z"/><path fill="#fff" d="M35.1 20c0-6.8 5.5-12.4 12.4-12.4 6.8 0 12.4 5.5 12.4 12.4s-5.5 12.4-12.4 12.4S35.1 26.9 35.1 20"/><path fill="#0069aa" d="M54.9 19.8c0-3.2-2-5.9-4.8-6.9v13.9c2.8-1.1 4.8-3.8 4.8-7zm-10.1 6.9V12.9C42 14 40 16.7 40 19.8c.1 3.2 2.1 5.8 4.8 6.9zm2.7-18.6c-6.5 0-11.7 5.3-11.7 11.7 0 6.5 5.2 11.7 11.7 11.7 6.5 0 11.7-5.2 11.7-11.7 0-6.5-5.2-11.7-11.7-11.7zm0 24.5c-7.1 0-12.9-5.7-12.9-12.7C34.5 12.3 40.4 7 47.5 7h3.3c7 0 13.4 5.3 13.4 12.9 0 7-6.4 12.7-13.4 12.7h-3.3z"/></symbol><symbol viewBox="0 0 100 60" id="pw-cc-discover" xmlns="http://www.w3.org/2000/svg"><defs><rect id="aoa" width="100" height="60" rx="4"/><path d="M24.115 60H96c2.21 0 4-1.787 4-3.995V33.698S73.2 51.868 24.115 60z" id="aob"/></defs><g fill="none" fill-rule="evenodd"><use fill="#FFF" xlink:href="#aoa"/><use fill="#E7772F" xlink:href="#aob"/><path d="M18.289 29.822c-.751.642-1.707.923-3.235.923h-.634v-7.66h.634c1.528 0 2.447.261 3.235.935.812.697 1.3 1.77 1.3 2.882 0 1.116-.488 2.229-1.3 2.92zm-2.762-8.7h-3.47v11.586h3.45c1.834 0 3.16-.418 4.32-1.34 1.38-1.093 2.198-2.742 2.198-4.45 0-3.42-2.67-5.796-6.498-5.796zm7.587 0h2.353v11.586h-2.353zm8.13 4.441c-1.42-.499-1.835-.83-1.835-1.457 0-.728.742-1.28 1.762-1.28.707 0 1.29.271 1.91.933l1.228-1.542a5.41 5.41 0 00-3.553-1.287c-2.143 0-3.776 1.426-3.776 3.312 0 1.601.759 2.414 2.974 3.185.927.308 1.397.519 1.635.661.472.292.707.71.707 1.194 0 .943-.78 1.635-1.835 1.635-1.123 0-2.031-.538-2.575-1.548l-1.522 1.41c1.088 1.526 2.392 2.208 4.19 2.208 2.45 0 4.177-1.57 4.177-3.806 0-1.843-.8-2.679-3.487-3.618m4.229 1.355c0 3.407 2.795 6.047 6.392 6.047 1.015 0 1.884-.192 2.955-.675v-2.663c-.946.91-1.777 1.27-2.851 1.27-2.377 0-4.061-1.647-4.061-3.995 0-2.22 1.738-3.977 3.957-3.977 1.12 0 1.976.38 2.955 1.303v-2.66c-1.034-.5-1.883-.707-2.906-.707-3.577 0-6.44 2.691-6.44 6.057M63.949 28.9l-3.229-7.778h-2.574L63.278 33h1.266l5.232-11.878h-2.554L63.95 28.9m6.897 3.808h6.696v-1.963H73.21v-3.128h4.168v-1.962H73.21v-2.57h4.333v-1.963h-6.696v11.586m11.307-6.258h-.685v-3.504h.724c1.475 0 2.265.592 2.265 1.72 0 1.16-.79 1.784-2.304 1.784zm4.735-1.91c0-2.169-1.555-3.418-4.28-3.418h-3.507v11.586h2.367V28.05h.307l3.262 4.658h2.904l-3.809-4.883c1.78-.348 2.756-1.512 2.756-3.284z" fill="#1A1918"/><path d="M58.479 26.945c0 3.335-2.824 6.039-6.311 6.039s-6.311-2.704-6.311-6.039c0-3.336 2.824-6.04 6.31-6.04 3.488 0 6.312 2.704 6.312 6.04" fill="#E7772F"/></g></symbol><symbol viewBox="0 0 100 60" id="pw-cc-interpayment" xmlns="http://www.w3.org/2000/svg"><g fill="none" fill-rule="evenodd"><rect fill="#FFF" width="100" height="60" rx="4"/><path fill="#007695" d="M15.267 16L13 34.163h3.4l2.08-16.758zm7.02 18.162l.845-6.878c.317-2.543 1.33-3.743 2.155-3.743.595 0 .88.457.922 1.1a6.82 6.82 0 01-.06 1.398l-1.003 8.123h3.401l.986-7.97c.112-.905.18-1.724.131-2.484-.106-1.64-.915-2.958-2.813-2.958-1.434 0-2.65.7-3.51 1.972h-.054l.036-1.75h-2.92c-.11 1.25-.216 2.74-.414 4.299l-1.103 8.891h3.401zm10.592-15.528l-.295 2.338h-1.56l-.288 2.436h1.535l-.756 6.014c-.095.7-.138 1.413-.098 2.029.115 1.753 1.187 2.882 3.225 2.882.651 0 1.438-.018 2.02-.212l.24-2.567c-.328.053-.665.048-.92.054-.628 0-1.052-.307-1.106-1.107a7.697 7.697 0 01.048-1.163l.74-5.93h2.515l.295-2.436h-2.495l.43-3.437-3.53 1.1zm12.326 6.044c0 1.357-1.537 2.034-3.466 1.963.37-1.85 1.325-3.162 2.446-3.162.681 0 1.02.44 1.02 1.172v.027zm1.295 6.313c-.846.397-1.667.678-2.836.678-.957 0-1.598-.399-1.935-.965-.3-.458-.34-1.138-.325-1.515 3.91.114 6.913-1.224 6.913-4.809-.02-1.862-1.182-3.63-3.689-3.63-4.37 0-6.616 4.736-6.616 8.585 0 2.86 1.326 4.998 4.712 4.998 1.544 0 2.77-.24 4.003-.76L46.5 30.99zm5.485 3.171l.727-5.993c.272-2.255 1.514-3.986 3.055-3.986.178 0 .436.02.552.041l.426-3.413a2.347 2.347 0 00-.558-.061c-1.164 0-2.321.792-3.168 2.468h-.096a43.03 43.03 0 00.052-2.246H50.06c-.092 1.225-.186 2.79-.376 4.334l-1.102 8.856h3.403z"/><path d="M72.395 30.895c-.32 2.472-1.146 3.95-2.07 3.95-.859 0-1.113-.833-1.177-1.998-.114-1.978.844-6.283 3.078-6.283.198 0 .455.028.724.089l-.555 4.242zm3.011 6.538c-.104-1.456-.033-4.006.179-5.55l.979-7.31c-.862-.306-2.223-.552-3.565-.552-5.715 0-7.416 5.596-7.152 9.63.154 2.351 1.255 4.004 3.211 4.004 1.082 0 2.338-.678 3.28-2.471h.093c.008.809.008 1.532.028 2.249h2.947zm1.949-13.213l2.295 12.404a.996.996 0 01-.046.58c-.276.741-.56 1.17-1.16 1.906-.445.546-1.27 1.14-2.49 1.792l3.533 1.61c1.823-1.844 3.152-4.198 4.497-7.99l3.652-10.302h-3.434l-1.635 6.07c-.363 1.41-.573 2.292-.776 3.343h-.054c-.053-.96-.15-1.87-.264-3.124l-.56-6.29h-3.558zm-19.028 5.768c.207-1.686 1.077-3.076 1.985-3.076.915 0 1.1.924 1.159 1.824.133 2.028-.637 6.376-2.687 6.376-.426 0-.732-.144-1.033-.342l.576-4.782zm.525-5.784c1.017-.232 1.752-.19 2.871-.207 2.35-.034 3.057 2.115 3.192 4.192.288 4.415-1.802 9.466-5.697 9.466-.635 0-1.316-.117-1.708-.335h-.073l-.851 8.644-3.503-1.597 1.92-14.289c.302-2.242 1.514-3.987 3.055-3.987.178 0 .436.02.554.041l.24-1.928z" fill="#221F20"/></g></symbol><symbol viewBox="0 0 100 60" id="pw-cc-jcb" xmlns="http://www.w3.org/2000/svg"><path fill="#fff" d="M4 0h92c2.2 0 4 1.8 4 4v52c0 2.2-1.8 4-4 4H4c-2.2 0-4-1.8-4-4V4c0-2.2 1.8-4 4-4z"/><path fill="#54b230" d="M63.2 34.3v-3.5c1.3 0 2.6-.1 3.9 0 1 .1 1.8.7 1.8 1.8s-.8 1.7-1.8 1.8c-1.3 0-2.6-.1-3.9-.1zm0-5.5v-3.2c1.2 0 2.4-.1 3.6 0 .9.1 1.6.7 1.6 1.6 0 .9-.7 1.5-1.6 1.6-1.2.1-2.4 0-3.6 0zM59.9 50V36.4h10.6c1.4-.1 3-.6 3.7-2 1.2-2.6-1.3-4.4-3.5-4.5v-.1c1.1-.2 2.2-.7 2.7-1.7 1-1.8-.1-3.6-1.9-4.2-.8-.3-1.6-.3-2.5-.3h-9.1l-.1-6c0-1.3.2-2.6.7-3.7.9-1.9 2.7-3.4 4.8-3.8 1.4-.3 2.8-.1 4.2-.1h6.9v31.2c0 1 .1 2-.1 3-.3 2.7-2.4 5-5.1 5.6-1.4.3-2.9.2-4.3.2h-7z"/><path fill="#006cb9" d="M39.5 10v31.3c0 1 .1 2.1-.1 3.1-.4 2.6-2.4 4.8-5 5.4-.7.2-2.2.2-2.2.2H23V35.9c3.5.9 7.8 1.4 11.3.3.9-.3 1.7-.7 2.3-1.3 1.6-1.4 1.4-3.6 1.4-5.5v-5.8h-5.8s.1 5.9.1 7.1c0 1.6-.5 3.1-2.1 3.7-1.6.6-3.5.1-5.1-.4-.5-.2-1-.3-1.4-.5l-.8-.4v-16c0-3 1.5-5.7 4.4-6.8.8-.3 1.7-.4 2.5-.4h7.5c.8.1 1.5.1 2.2.1z"/><path fill="#e10238" d="M41.6 25.3l-.1.1v-7.1c0-2.2.2-4.4 1.7-6.1 1.5-1.7 3.5-2.2 5.7-2.2h9v33c0 2.9-1.7 5.6-4.5 6.6-1 .3-2 .4-3.1.4h-8.9V34.5c1.4 1.2 3.3 1.8 5.2 2 2.3.3 4.6.2 6.9-.2.6-.1 1.3-.2 1.9-.4.7.1.6.1.6-.5v-2.2c-2.4 1.2-5.4 2.1-8 1.1-3.4-1.3-3.8-6.6-.6-8.3 1.6-.8 3.6-.7 5.3-.3 1.2.3 2.3.7 3.3 1.2v-2.7s-1.5-.4-2-.5c-1.1-.2-2.2-.3-3.4-.4-2.2-.1-4.4 0-6.5.7-.9.2-1.8.7-2.5 1.3z"/></symbol><symbol viewBox="0 0 100 60" id="pw-cc-maestro" xmlns="http://www.w3.org/2000/svg"><g fill="none" fill-rule="evenodd"><rect fill="#FFF" width="100" height="60" rx="4"/><path d="M63.715 50.033c-11.01 0-19.938-8.96-19.938-20.016C43.777 18.96 52.704 10 63.715 10c11.014 0 19.94 8.961 19.94 20.017 0 11.055-8.926 20.016-19.94 20.016z" fill="#C00"/><path d="M48.313 42.728a19.871 19.871 0 01-1.519-2.12h7.067c.424-.68.807-1.387 1.149-2.12h-9.364a19.911 19.911 0 01-.844-2.119h11.05a20.044 20.044 0 001.026-6.352 20.19 20.19 0 00-.448-4.239H44.226c.154-.722.349-1.429.578-2.12h11.047a20.171 20.171 0 00-.843-2.118h-9.36a20.11 20.11 0 011.149-2.12h7.062a20.29 20.29 0 00-1.519-2.118h-4.025a20.165 20.165 0 012.013-2.119A19.824 19.824 0 0036.94 10C25.927 10 17 18.961 17 30.017c0 11.055 8.927 20.016 19.94 20.016 5.152 0 9.85-1.962 13.388-5.182a20.1 20.1 0 002.014-2.123h-4.029" fill="#06C"/><path d="M50.044 35.426a9.655 9.655 0 01-2.548.335c-2.779-.002-4.226-1.273-4.226-3.703 0-2.839 1.842-4.927 4.344-4.927 2.046 0 3.351 1.17 3.351 3.005 0 .609-.088 1.202-.304 2.04h-4.943c-.175 1.187.688 1.708 2.157 1.708.88 0 1.676-.159 2.558-.515l-.39 2.057zm-1.33-4.924c0-.18.276-1.453-1.155-1.48-.79 0-1.356.526-1.585 1.48h2.74zm3.004-.557c0 1.049.588 1.773 1.925 2.313 1.022.42 1.183.542 1.183.917 0 .52-.451.759-1.454.753a8.253 8.253 0 01-2.251-.323l-.36 1.913c.722.167 1.733.223 2.628.243 2.67 0 3.902-.877 3.902-2.773 0-1.14-.514-1.81-1.782-2.31-1.06-.425-1.184-.517-1.184-.902 0-.451.42-.68 1.239-.68.496 0 1.175.046 1.82.124l.361-1.923a19.538 19.538 0 00-2.23-.165c-2.827 0-3.806 1.278-3.797 2.813m-9.803 5.679h-2.073l.05-.871c-.633.687-1.475 1.008-2.618 1.008-1.352 0-2.279-.929-2.279-2.264 0-2.03 1.61-3.2 4.38-3.2.285 0 .647.021 1.019.063.077-.271.097-.388.097-.536 0-.555-.435-.76-1.6-.76a9.538 9.538 0 00-2.645.37l.355-1.862c1.244-.318 2.058-.441 2.98-.441 2.144 0 3.277.845 3.277 2.43.018.424-.129 1.274-.203 1.646-.083.54-.678 3.677-.74 4.417zm-1.82-3.702a4.909 4.909 0 00-.557-.034c-1.414 0-2.13.422-2.13 1.256 0 .524.35.852.895.852 1.016 0 1.75-.853 1.792-2.074zm21.564 3.571c-.68.187-1.21.268-1.784.268-1.27 0-1.963-.651-1.963-1.812-.04-.318.27-1.791.34-2.201.07-.412 1.17-6.411 1.17-6.411h2.468l-.373 1.985h1.266l-.344 2.025h-1.271s-.698 3.517-.698 3.786c0 .426.257.611.848.611.283 0 .501-.026.67-.077l-.33 1.826m11.026-8.362c-1.808 0-3.221.748-4.042 1.996l.712-1.851c-1.312-.484-2.159.206-2.924 1.188 0 0-.128.163-.256.312V27.32h-2.317c-.314 2.567-.869 5.171-1.302 7.745l-.105.56h2.492c.237-1.306.43-2.366.624-3.211.53-2.319 1.42-3.028 2.759-2.714-.31.666-.478 1.438-.478 2.292 0 2.073 1.12 3.768 3.904 3.768 2.81 0 4.844-1.506 4.844-4.94 0-2.073-1.356-3.69-3.91-3.69zm-.725 6.616c-.88.013-1.414-.728-1.414-1.838 0-1.314.779-2.8 2.03-2.8 1.01 0 1.356.804 1.356 1.66 0 1.87-.764 2.978-1.972 2.978zm-38.125 1.878h-2.482l1.475-7.802-3.397 7.802h-2.262l-.414-7.756-1.48 7.756h-2.251l1.917-10.148h3.88l.322 5.657 2.458-5.657h4.19l-1.956 10.148" fill="#006"/><path d="M50.666 34.8a9.636 9.636 0 01-2.546.336c-2.78-.002-4.227-1.273-4.227-3.703 0-2.839 1.842-4.927 4.343-4.927 2.047 0 3.353 1.17 3.353 3.005 0 .608-.089 1.2-.305 2.04h-4.942c-.176 1.186.686 1.708 2.156 1.708.88 0 1.676-.16 2.558-.516l-.39 2.058zm-1.329-4.923c0-.18.275-1.453-1.154-1.481-.79 0-1.357.527-1.586 1.48h2.74zm3.004-.557c0 1.048.588 1.772 1.925 2.312 1.022.42 1.183.542 1.183.917 0 .521-.452.76-1.454.754a8.26 8.26 0 01-2.25-.324l-.36 1.913c.72.168 1.732.223 2.627.244 2.669 0 3.902-.877 3.902-2.774 0-1.14-.514-1.81-1.782-2.31-1.06-.424-1.184-.517-1.184-.9 0-.452.42-.682 1.239-.682.496 0 1.175.047 1.82.125l.361-1.923a19.257 19.257 0 00-2.229-.165c-2.828 0-3.806 1.277-3.798 2.812M42.538 35h-2.073l.05-.873c-.633.687-1.475 1.007-2.618 1.007-1.352 0-2.28-.928-2.28-2.263 0-2.029 1.612-3.2 4.381-3.2.285 0 .647.022 1.019.063.077-.271.097-.387.097-.535 0-.557-.435-.76-1.6-.76a9.532 9.532 0 00-2.644.37l.353-1.863c1.245-.317 2.059-.44 2.981-.44 2.145 0 3.277.844 3.277 2.43.019.424-.129 1.272-.202 1.646-.085.54-.679 3.677-.74 4.417zm-1.82-3.704a4.637 4.637 0 00-.557-.034c-1.413 0-2.13.422-2.13 1.256 0 .525.35.853.894.853 1.017 0 1.75-.854 1.793-2.075zm21.564 3.571c-.68.188-1.21.27-1.784.27-1.27 0-1.963-.653-1.963-1.813-.04-.319.27-1.792.34-2.202.07-.411 1.171-6.41 1.171-6.41h2.467l-.373 1.984h1.266l-.344 2.026H61.79s-.698 3.516-.698 3.784c0 .428.257.612.848.612.283 0 .5-.025.67-.077l-.33 1.826m12.274-4.725c0 1.872-.764 2.98-1.972 2.98-.88.012-1.414-.728-1.414-1.838 0-1.315.779-2.8 2.03-2.8 1.01 0 1.356.803 1.356 1.658zm2.664.053c0-2.072-1.356-3.689-3.91-3.689-2.938 0-4.838 1.966-4.838 4.862 0 2.072 1.12 3.768 3.905 3.768 2.809 0 4.843-1.506 4.843-4.941zm-12.738-3.5c-.314 2.568-.869 5.172-1.302 7.745l-.105.56h2.492c.898-4.97 1.2-6.385 3.082-5.887l.905-2.351c-1.313-.484-2.158.207-2.922 1.189.069-.442.198-.869.167-1.256H64.48M34.457 35h-2.482l1.475-7.802L30.053 35h-2.262l-.414-7.756L25.897 35h-2.251l1.917-10.148h3.88l.204 6.282 2.73-6.282h4.036L34.457 35" fill="#FFF"/></g></symbol><symbol viewBox="0 0 100 60" id="pw-cc-mastercard" xmlns="http://www.w3.org/2000/svg"><g fill="none" fill-rule="evenodd"><rect fill="#FFF" width="100" height="60" rx="4"/><path d="M56.129 30.485C56.129 41.264 47.392 50 36.614 50s-19.515-8.736-19.515-19.515c0-10.778 8.737-19.515 19.515-19.515s19.515 8.737 19.515 19.515" fill="#C00"/><path d="M62.814 10.97a19.446 19.446 0 00-13.101 5.051c-.705.64-1.363 1.33-1.97 2.066h3.943a20.024 20.024 0 011.488 2.067h-6.92c-.413.664-.79 1.353-1.124 2.067h9.167c.314.67.59 1.358.827 2.066h-10.82a19.428 19.428 0 00-.567 2.066H55.69a19.658 19.658 0 01-.566 10.332h-10.82c.237.707.513 1.397.826 2.067h9.167a19.55 19.55 0 01-1.125 2.067h-6.917a19.5 19.5 0 001.488 2.064h3.942a19.503 19.503 0 01-1.972 2.067A19.443 19.443 0 0062.814 50c10.778 0 19.515-8.736 19.515-19.515 0-10.777-8.737-19.515-19.515-19.515" fill="#F90"/><path d="M32.057 32.622a3.645 3.645 0 00-.473-.033c-1.201 0-1.808.412-1.808 1.226 0 .5.296.82.759.82.863 0 1.485-.822 1.522-2.013zm1.54 3.587h-1.755l.04-.834c-.535.659-1.25.973-2.22.973-1.148 0-1.935-.896-1.935-2.199 0-1.96 1.369-3.103 3.719-3.103.24 0 .549.022.864.062.065-.266.082-.379.082-.522 0-.533-.369-.733-1.358-.733a7.064 7.064 0 00-2.243.363l.294-1.81c1.055-.311 1.752-.427 2.535-.427 1.82 0 2.784.817 2.782 2.36.003.415-.066.924-.172 1.596-.184 1.165-.578 3.666-.632 4.274zm-6.757 0h-2.12l1.215-7.609-2.71 7.609H21.78l-.178-7.566-1.276 7.566h-1.983L20 26.31h3.046l.184 5.541 1.86-5.54h3.387l-1.638 9.898m38.593-3.587a3.627 3.627 0 00-.472-.033c-1.202 0-1.808.412-1.808 1.226 0 .5.295.82.759.82.862 0 1.485-.822 1.52-2.013zm1.542 3.587h-1.756l.04-.834c-.535.659-1.25.973-2.22.973-1.149 0-1.935-.896-1.935-2.199 0-1.96 1.37-3.103 3.72-3.103.24 0 .547.022.862.062.066-.266.083-.379.083-.522 0-.533-.369-.733-1.359-.733a7.079 7.079 0 00-2.243.363c.023-.134.296-1.81.296-1.81 1.054-.311 1.751-.427 2.534-.427 1.82 0 2.783.817 2.781 2.36.004.415-.064.924-.171 1.596-.183 1.165-.58 3.666-.632 4.274zm-23.961-.122c-.58.182-1.032.261-1.522.261-1.083 0-1.674-.622-1.674-1.769-.015-.355.156-1.291.29-2.145.123-.752.92-5.494.92-5.494h2.105l-.246 1.219h1.272l-.287 1.935h-1.276c-.245 1.53-.594 3.437-.598 3.69 0 .415.222.597.726.597.241 0 .428-.025.571-.076l-.28 1.782m6.456-.066c-.724.222-1.42.33-2.16.327-2.358-.003-3.587-1.234-3.587-3.591 0-2.752 1.563-4.778 3.686-4.778 1.736 0 2.845 1.134 2.845 2.913 0 .59-.076 1.167-.26 1.98H45.8c-.141 1.168.606 1.654 1.832 1.654.752 0 1.433-.155 2.189-.506l-.351 2.001zm-1.184-4.772c.012-.168.223-1.437-.98-1.437-.67 0-1.15.511-1.345 1.437h2.325zm-13.418-.545c0 1.017.494 1.72 1.613 2.247.858.404.992.523.992.889 0 .501-.38.729-1.217.729-.633 0-1.22-.1-1.899-.319l-.29 1.86c.48.104.91.201 2.204.238 2.235 0 3.268-.851 3.268-2.69 0-1.107-.432-1.756-1.493-2.244-.888-.408-.991-.499-.991-.875 0-.435.353-.657 1.037-.657.416 0 .984.044 1.522.12l.302-1.867a14.304 14.304 0 00-1.865-.156c-2.37 0-3.19 1.238-3.183 2.725m24.906-2.512c.588 0 1.138.152 1.893.534l.347-2.148c-.311-.122-1.403-.838-2.329-.838-1.417 0-2.617.704-3.459 1.864-1.23-.407-1.736.416-2.355 1.236l-.55.128a4.16 4.16 0 00.067-.81H51.44c-.265 2.493-.736 5.016-1.104 7.51l-.097.541h2.12c.353-2.299.547-3.77.665-4.767l.798-.442c.12-.445.492-.594 1.24-.576a9.018 9.018 0 00-.15 1.65c0 2.634 1.423 4.274 3.703 4.274.587 0 1.092-.077 1.873-.29l.371-2.255c-.702.345-1.278.507-1.8.507-1.23 0-1.976-.91-1.976-2.412 0-2.18 1.108-3.706 2.69-3.706m17.938-1.882l-.47 2.86c-.58-.762-1.201-1.314-2.023-1.314-1.069 0-2.042.81-2.68 2.004a17.462 17.462 0 01-1.803-.497v.008c.07-.668.1-1.073.093-1.212H68.88c-.264 2.492-.736 5.015-1.104 7.508l-.097.542h2.12c.286-1.858.505-3.402.666-4.625.725-.655 1.088-1.225 1.818-1.188a6.9 6.9 0 00-.513 2.612c0 2.012 1.017 3.34 2.558 3.34.776 0 1.372-.268 1.953-.888l-.1.748h2.005L79.8 26.31h-2.09zm-2.65 8.04c-.72 0-1.086-.535-1.086-1.588 0-1.582.683-2.704 1.644-2.704.728 0 1.122.554 1.122 1.577 0 1.596-.693 2.714-1.68 2.714z" fill="#006"/><path fill="#FFF" d="M27.45 35.621h-2.12l1.215-7.608-2.71 7.608h-1.444l-.178-7.564-1.276 7.564h-1.983l1.656-9.897h3.047l.085 6.127 2.056-6.127h3.29L27.45 35.62m5.217-3.584a3.522 3.522 0 00-.473-.033c-1.201 0-1.809.411-1.809 1.224 0 .5.297.821.76.821.863 0 1.485-.821 1.522-2.012zm1.54 3.585h-1.755l.04-.833c-.535.658-1.25.973-2.22.973-1.148 0-1.935-.897-1.935-2.2 0-1.96 1.369-3.102 3.72-3.102.24 0 .547.022.863.063.065-.267.082-.38.082-.524 0-.532-.368-.73-1.358-.73a7.038 7.038 0 00-2.243.36l.294-1.81c1.055-.31 1.752-.426 2.535-.426 1.82 0 2.783.817 2.782 2.36.003.414-.065.926-.172 1.595-.184 1.165-.579 3.667-.633 4.274zm28.417-9.631l-.347 2.148c-.757-.38-1.305-.534-1.893-.534-1.582 0-2.691 1.529-2.691 3.71 0 1.501.746 2.409 1.977 2.409.522 0 1.098-.161 1.8-.508l-.373 2.256c-.78.212-1.285.29-1.872.29-2.281 0-3.702-1.64-3.702-4.273 0-3.539 1.964-6.012 4.772-6.012.925 0 2.018.392 2.329.514m3.417 6.046a3.496 3.496 0 00-.471-.033c-1.2 0-1.808.411-1.808 1.224 0 .5.296.821.758.821.863 0 1.486-.821 1.521-2.012zm1.542 3.585h-1.755l.04-.833c-.536.658-1.25.973-2.22.973-1.15 0-1.935-.897-1.935-2.2 0-1.96 1.368-3.102 3.719-3.102.24 0 .547.022.862.063.066-.267.083-.38.083-.524 0-.532-.368-.73-1.358-.73a7.042 7.042 0 00-2.242.36l.294-1.81c1.055-.31 1.751-.426 2.535-.426 1.819 0 2.783.817 2.78 2.36.005.414-.064.926-.17 1.595-.184 1.165-.579 3.667-.633 4.274zm-23.96-.121c-.58.182-1.032.261-1.522.261-1.083 0-1.675-.622-1.675-1.768-.014-.357.157-1.291.292-2.146.121-.753.918-5.493.918-5.493h2.106l-.246 1.218h1.08l-.287 1.934h-1.085c-.244 1.532-.593 3.438-.597 3.691 0 .416.222.597.726.597.241 0 .428-.024.571-.077l-.281 1.782m6.457-.063a7.212 7.212 0 01-2.161.325c-2.358-.001-3.586-1.233-3.586-3.59 0-2.753 1.563-4.78 3.684-4.78 1.738 0 2.847 1.135 2.847 2.915 0 .59-.077 1.166-.26 1.98H46.41c-.142 1.167.606 1.654 1.83 1.654.754 0 1.434-.156 2.19-.507l-.35 2.003zm-1.183-4.774c.011-.169.223-1.437-.98-1.437-.67 0-1.151.512-1.346 1.437h2.326zm-13.419-.545c0 1.019.494 1.72 1.614 2.248.857.403.99.523.99.888 0 .502-.378.728-1.217.728a5.97 5.97 0 01-1.898-.316l-.29 1.857c.48.106.91.202 2.203.24 2.236 0 3.269-.852 3.269-2.691 0-1.107-.432-1.756-1.494-2.243-.888-.409-.99-.499-.99-.875 0-.435.352-.66 1.037-.66.415 0 .984.047 1.522.123l.302-1.867a14.422 14.422 0 00-1.865-.157c-2.37 0-3.19 1.237-3.183 2.725m43.319 5.504h-2.004l.099-.749c-.581.621-1.177.89-1.953.89-1.54 0-2.559-1.328-2.559-3.341 0-2.678 1.58-4.935 3.448-4.935.821 0 1.443.336 2.023 1.098l.47-2.86h2.09l-1.614 9.897zm-3.126-1.86c.987 0 1.68-1.117 1.68-2.712 0-1.023-.395-1.579-1.123-1.579-.96 0-1.643 1.122-1.643 2.705 0 1.054.366 1.587 1.086 1.587zm-6.179-6.189c-.265 2.492-.737 5.015-1.105 7.508l-.097.541h2.12c.757-4.922.94-5.883 2.129-5.763.189-1.007.541-1.89.804-2.334-.887-.186-1.383.316-2.032 1.269.051-.412.145-.812.127-1.221h-1.946m-17.44 0c-.266 2.492-.738 5.015-1.106 7.508l-.096.541h2.12c.758-4.922.94-5.883 2.127-5.763.19-1.007.543-1.89.805-2.334-.886-.186-1.383.316-2.031 1.269.051-.412.145-.812.127-1.221h-1.946"/></g></symbol><symbol viewBox="0 0 100 60" id="pw-cc-uatp" xmlns="http://www.w3.org/2000/svg"><path fill="#fff" d="M4 0h92c2.2 0 4 1.8 4 4v52c0 2.2-1.8 4-4 4H4c-2.2 0-4-1.8-4-4V4c0-2.2 1.8-4 4-4z"/><path fill="#fefefe" d="M87.4 21.1v.3h.6V23h.4v-1.6h.5v-.3h-1.5zm3.6 0h-.3c-.2 0-.3 0-.4.3-.1.3-.2.7-.3 1-.1-.5-.2-.9-.4-1.3H89V23h.4v-1.3c.1.3.2.7.3 1 .1.3.2.4.4.3.1-.4.2-.9.4-1.3V23h.5v-1.9z"/><path fill="#052c19" d="M27 20.8h-5.1v16.4c-.7.1-1.4.2-2.1.2h-1.4c-1.6 0-2.7-.9-3.1-2.5-.1-.6-.2-1.3-.2-2V20.7H10V35c.1.3.1.7.2 1 .4 1.9 1.3 3.4 3 4.3 1.5.9 3.1 1.2 4.8 1.3 1.6.1 3.2 0 4.7-.3 1.4-.2 2.7-.5 4.1-.7.2 0 .3-.1.3-.4V20.8zm55.9 7.7c-.1 1.6-1.2 2.4-2.7 2.6-.7.1-1.4 0-2.2 0h-.1v-5.8c.2 0 .4 0 .5-.1.8-.1 1.6-.1 2.3.1 1.6.4 2.3 1.6 2.2 3.2m5-2.1c-.4-2.3-1.6-3.9-3.6-4.9-1.4-.7-3-.9-4.5-1-1.7 0-3.4.1-5.1.3-.6.1-1.2.2-1.7.2v20.5h5.1v-6h2.2c1.2 0 2.4-.2 3.5-.7 1.8-.7 3.2-1.9 3.9-3.8.4-1.5.4-3.1.2-4.6m-20.3-5.6H51.3v4.6h6v16.1h5.1V25.4h6v-4.6h-.8M46 29l.2-.2-3-7.8-.3-.2h-5.6l-.3.2-7.8 20.4h5.2l.2-.2L40.1 26l1.8 5.3L46 29m-2.8 5.8l1.2 3.3 1.2 3.3H51c-1.1-2.9-2.2-5.8-3.3-8.6-1.5.7-3 1.4-4.5 2M91 21.1V23h-.4v-1.3c-.1.4-.2.9-.4 1.3-.3.1-.4 0-.4-.3-.1-.3-.2-.7-.3-1V23h-.4v-1.9h.6c.1.4.2.8.4 1.3.1-.4.2-.7.3-1 0-.2.2-.3.4-.3h.2"/><path fill="#4db848" d="M82.5 19.3c-3.5-1-7.1-1.3-10.8-1.3-1.8 0-3.7.3-5.5.6-1.3.2-2.5.5-3.7.9-.3.1-3.1 1-3.4 1.3h9.4s.1-.1.4-.1c.5-.1 1-.3 1.5-.4 4.1-1 8.3-1.3 12.4-.6 0-.3 0-.3-.3-.4m-31.2 6.1c-.1.1-.2.1-.3.2-2.4 1.6-4.7 3.2-7.2 4.6-1 .6-2.1 1.2-3.1 1.8-.9.4-1.7.9-2.6 1.2-.2.1-.7.3-.7.3s-.1.3-.2.7c-.2.5-.3 1-.5 1.5 1.6-.4 3.1-.8 4.7-1.3 3.4-1.1 9-3.8 11.3-5.2 1.1-.7 2.3-1.3 3.4-2 .3-.2 1.3-.8 1.3-.8v-.9c-2-.1-4.1-.1-6.1-.1M27.6 36.9h.3c1-.1 2.1-.2 3.1-.3.1-.3.3-.7.4-1-1.3.3-2.5.6-3.8.9v.4z"/><path fill="#052c19" d="M87.4 21.1h1.5v.3h-.6V23H88v-1.5h-.6z"/><path fill="#fdfdfd" d="M77.9 25.2c.2 0 .4 0 .5-.1.8-.1 1.6-.1 2.3.1 1.6.4 2.3 1.6 2.1 3.2-.1 1.6-1.2 2.4-2.7 2.6-.7.1-1.4 0-2.2 0h-.1v-5.8z"/></symbol><symbol viewBox="0 0 100 60" id="pw-cc-visa" xmlns="http://www.w3.org/2000/svg"><g fill="none" fill-rule="evenodd"><rect fill="#FFF" width="100" height="60" rx="4"/><path fill="#26337A" d="M37.718 41.456l3.68-22.889h5.88L43.6 41.457h-5.882m27.216-22.328c-1.163-.46-2.992-.96-5.27-.96-5.815 0-9.909 3.106-9.943 7.554-.037 3.29 2.921 5.124 5.152 6.218 2.291 1.12 3.061 1.838 3.052 2.84-.015 1.533-1.829 2.236-3.52 2.236-2.355 0-3.606-.346-5.54-1.2l-.757-.365-.822 5.124c1.371.637 3.914 1.19 6.552 1.22 6.18 0 10.196-3.07 10.243-7.819.021-2.609-1.546-4.586-4.94-6.219-2.056-1.061-3.317-1.764-3.303-2.839.002-.95 1.066-1.97 3.37-1.97 1.924-.03 3.316.415 4.402.88l.528.262.796-4.962m7.832 14.212c.488-1.316 2.343-6.398 2.343-6.398-.034.06.485-1.326.782-2.183l.397 1.974s1.129 5.463 1.361 6.607h-4.883zm7.257-14.75h-4.546c-1.41 0-2.465.404-3.083 1.897L63.66 41.464h6.178s1.008-2.822 1.237-3.44c.674 0 6.676.01 7.533.01.177.8.716 3.43.716 3.43h5.46l-4.76-22.873zm-47.24-.005l-5.757 15.605-.616-3.172c-1.073-3.655-4.413-7.616-8.148-9.6l5.267 20.017 6.224-.004 9.263-22.846h-6.233"/><path d="M21.682 18.57h-9.485l-.078.475c7.38 1.896 12.264 6.473 14.29 11.974l-2.06-10.517c-.356-1.45-1.39-1.88-2.667-1.931" fill="#ED982D"/></g></symbol><symbol viewBox="0 0 100 60" id="pw-cc-visa-electron" xmlns="http://www.w3.org/2000/svg"><g fill="none" fill-rule="evenodd"><rect fill="#FFF" width="100" height="60" rx="4"/><path d="M54.268 41.348c.842 0 1.573.348 2.108.929l-.596 1.032a2.057 2.057 0 00-1.65-.82c-1.402 0-2.7 1.335-2.9 2.981-.198 1.647.779 2.982 2.182 2.982.695 0 1.364-.328 1.887-.859v1.312c-.608.435-1.306.688-2.025.688-1.94 0-3.29-1.846-3.015-4.123.274-2.276 2.07-4.122 4.009-4.122zm23.67 8.07l1.111-.024h.082l.853-6.017 2.92 6.017h.927l1.082-7.76h-1.05l-.883 5.6-2.705-5.6h-1.08l-1.256 7.783zm-4.064-7.14c1.35 0 2.29 1.546 2.098 3.192-.19 1.647-1.457 3.194-2.806 3.194-1.35 0-2.272-1.547-2.08-3.194.19-1.646 1.439-3.193 2.788-3.193zm.133-.93c1.865 0 3.164 1.846 2.9 4.122-.264 2.277-1.991 4.123-3.856 4.123-1.865 0-3.165-1.846-2.9-4.123.263-2.276 1.99-4.122 3.856-4.122zm-8.819 3.795h1.278c1.023 0 1.649-2.548.418-2.564l-1.366-.017-.33 2.58zm-1.755 4.274l1.112-.023h.08l.409-3.293h.598l1.793 3.293h1.2l-1.757-3.292c2.207-.543 2.846-4.518.09-4.491l-2.365.022-1.16 7.784zm-4.738 0h1.11l.001-.006.08-.017.85-6.664 2.433-.018.147-1.101-5.736.022-.148 1.097h2.188l-.925 6.687zm-19.401 0h1.111v-.006l2.932-.017.147-1.101-2.928.017 1.028-6.7-1.227.023-1.063 7.784zm5.298 0h1.11l.002-.006 2.93-.017.148-1.101-2.928.017.322-2.359 2.23-.018.147-1.1-2.227.017.29-2.12 2.836-.018.147-1.101-3.945.022-1.062 7.784zm-10.712 0h1.11l.002-.006 2.932-.017.147-1.101-2.929.017.322-2.359 2.23-.018.148-1.1-2.228.017.29-2.12 2.836-.018.147-1.101-3.944.022-1.063 7.784zm3.838-13.961l3.68-22.889h5.88L43.6 35.457h-5.882m27.216-22.328c-1.163-.46-2.992-.96-5.27-.96-5.815 0-9.909 3.106-9.943 7.554-.037 3.29 2.921 5.124 5.152 6.218 2.291 1.12 3.061 1.838 3.052 2.84-.015 1.533-1.829 2.236-3.52 2.236-2.355 0-3.606-.346-5.54-1.2l-.757-.365-.822 5.124c1.371.637 3.914 1.19 6.552 1.22 6.18 0 10.196-3.07 10.243-7.819.021-2.609-1.546-4.586-4.94-6.219-2.056-1.061-3.317-1.764-3.303-2.839.002-.95 1.066-1.97 3.37-1.97 1.924-.03 3.316.415 4.402.88l.528.262.796-4.962m7.832 14.212c.488-1.316 2.343-6.398 2.343-6.398-.034.06.485-1.326.782-2.183l.397 1.974s1.129 5.463 1.361 6.607h-4.883zm7.257-14.75h-4.546c-1.41 0-2.465.404-3.083 1.897L63.66 35.464h6.178s1.008-2.822 1.237-3.44c.674 0 6.676.01 7.533.01.177.8.716 3.43.716 3.43h5.46l-4.76-22.873zm-47.24-.005l-5.757 15.605-.616-3.172c-1.073-3.655-4.413-7.616-8.148-9.6l5.267 20.017 6.224-.004 9.263-22.846h-6.233" fill="#00579F"/><path d="M21.682 12.57h-9.485l-.078.475c7.38 1.896 12.264 6.473 14.29 11.974l-2.06-10.517c-.356-1.45-1.39-1.88-2.667-1.931" fill="#ED982D"/></g></symbol><symbol viewBox="0 0 16 16" id="pw-check" xmlns="http://www.w3.org/2000/svg"><path d="M15.16 2.02l-9.412 9.41L.834 6.517 0 7.35l5.748 5.748L15.993 2.854z" fill="currentColor" fill-rule="evenodd"/></symbol><symbol viewBox="0 0 16 16" id="pw-chevron" xmlns="http://www.w3.org/2000/svg"><path d="M10 .929l.884.884L4.697 8l6.187 6.187-.884.884L2.929 8z" fill="currentColor" fill-rule="evenodd"/></symbol><symbol viewBox="0 0 16 16" id="pw-chevron-down" xmlns="http://www.w3.org/2000/svg"><path d="M1 5.071l.884-.884 6.187 6.187 6.187-6.187.884.884-7.07 7.071z" fill="currentColor" fill-rule="evenodd"/></symbol><symbol viewBox="0 0 16 16" id="pw-chevron-left" xmlns="http://www.w3.org/2000/svg"><path d="M10.071 1l.884.884L4.768 8.07l6.187 6.187-.884.884L3 8.072z" fill="currentColor" fill-rule="evenodd"/></symbol><symbol viewBox="0 0 16 16" id="pw-chevron-right" xmlns="http://www.w3.org/2000/svg"><path d="M5.071 15.142l-.884-.884 6.187-6.187-6.187-6.187L5.071 1l7.071 7.071z" fill="currentColor" fill-rule="evenodd"/></symbol><symbol viewBox="0 0 16 16" id="pw-chevron-up" xmlns="http://www.w3.org/2000/svg"><path d="M15.142 10.071l-.884.884-6.187-6.187-6.187 6.187L1 10.071 8.071 3z" fill="currentColor" fill-rule="evenodd"/></symbol><symbol viewBox="0 0 16 16" id="pw-close" xmlns="http://www.w3.org/2000/svg"><path d="M6.513 7.947l-4.94 4.94L2.987 14.3l4.94-4.94 5.013 5.013 1.414-1.414L9.34 7.947l4.96-4.96-1.414-1.414-4.96 4.96L3.04 1.646 1.626 3.06l4.887 4.887z" fill="currentColor" fill-rule="evenodd"/></symbol><symbol viewBox="0 0 24 24" id="pw-copy" xmlns="http://www.w3.org/2000/svg"><path d="M0 0h24v24H0z" fill="none"/><path fill="currentColor" d="M16 1H4c-1.1 0-2 .9-2 2v14h2V3h12V1zm3 4H8c-1.1 0-2 .9-2 2v14c0 1.1.9 2 2 2h11c1.1 0 2-.9 2-2V7c0-1.1-.9-2-2-2zm0 16H8V7h11v14z"/></symbol><symbol viewBox="0 0 100 60" id="pw-default-hint" xmlns="http://www.w3.org/2000/svg"><g fill="none" fill-rule="evenodd"><rect fill="#EEE" width="100" height="60" rx="4"/><path fill="#616161" d="M0 19h100V7H0z"/><path fill="#78909C" d="M7.2 41h52.1V31H7.2z"/><path fill="#000" d="M66.8 32.6l1.9-.5h.9v6.2h-1.4v-4.8l-1.2.3zm13.1.7h-2.4v-1.2h4.3v1l-1.6 1.5c1.133.2 1.7.767 1.7 1.7a1.902 1.902 0 01-.6 1.5 2.398 2.398 0 01-1.6.6 3.099 3.099 0 01-2.5-1.1l.9-.9c.383.429.925.682 1.5.7l.6-.2a.8.8 0 00-.1-1.2l-.9-.2h-.5l-.2-.9 1.4-1.3zm-6.2 0l-.6.2-.6.6-1-.8a3.502 3.502 0 011-1c.4-.211.848-.315 1.3-.3a2.298 2.298 0 011.6.5c.397.355.617.868.6 1.4 0 .433-.14.854-.4 1.2a6.61 6.61 0 01-1.3 1.2l-1 .8H76v1.2h-4.6v-1.1l2.1-1.7.8-.8a1.1 1.1 0 00.2-.7.8.8 0 00-.2-.6l-.6-.1z"/><path d="M63.4 41h22.4V30H63.4v11zm-2.1 2h26.6V28H61.3v15z" fill="#FF5252"/></g></symbol><symbol viewBox="0 0 16 16" id="pw-done" xmlns="http://www.w3.org/2000/svg"><path d="M14.69 4.53l-1.36-1.288L6 10.207l-.689-.657-2.643-2.519-1.357 1.287L6 12.756l8.69-8.226zm1.213.228L6.339 13.81s-.169.19-.338.19-.335-.189-.335-.189L.097 8.546a.316.316 0 010-.456L2.43 5.88a.36.36 0 01.481 0l3.091 2.946 7.089-6.734a.36.36 0 01.48 0l2.333 2.21c.13.123.13.333 0 .456z" fill="currentColor" fill-rule="evenodd"/></symbol><symbol viewBox="0 0 16 16" id="pw-download" xmlns="http://www.w3.org/2000/svg"><path d="M7.125 0h1.75v10.649l4.891-4.883L15 7l-7 7-7-7 1.234-1.242 4.891 4.89V0zM0 14h16v2H0v-2z"/></symbol><symbol viewBox="0 0 16 16" id="pw-edit" xmlns="http://www.w3.org/2000/svg"><path d="M13 5.995l-8.241 8.241a.377.377 0 01-.111.074L.462 15.977c-.055.018-.092.018-.13.018a.39.39 0 01-.24-.092c-.093-.093-.111-.24-.074-.37l1.667-4.186a.387.387 0 01.074-.11l8.24-8.242 3 3zm2.703-4.13a1.017 1.017 0 010 1.427L14 4.995l-3-3L12.703.292a1.017 1.017 0 011.426 0l1.574 1.574z" fill="currentColor" fill-rule="evenodd"/></symbol><symbol viewBox="0 0 24 24" id="pw-email" xmlns="http://www.w3.org/2000/svg"><path fill="currentColor" d="M20 4H4c-1.1 0-1.99.9-1.99 2L2 18c0 1.1.9 2 2 2h16c1.1 0 2-.9 2-2V6c0-1.1-.9-2-2-2zm0 4l-8 5-8-5V6l8 5 8-5v2z"/><path d="M0 0h24v24H0z" fill="none"/></symbol><symbol viewBox="0 0 1000 500" id="pw-flag-ca" xmlns="http://www.w3.org/2000/svg"><path fill="red" d="M0 0h1000v500H0z"/><path fill="#fff" d="M250 0h500v500H250z"/><path fill="red" d="M499.992 46.875L465.88 110.5c-3.87 6.915-10.806 6.274-17.742 2.412l-24.697-12.789 18.408 97.727c3.87 17.854-8.55 17.854-14.678 10.135l-43.101-48.251-6.998 24.503c-.806 3.217-4.354 6.597-9.677 5.792l-54.502-11.459 14.315 52.045c3.065 11.58 5.455 16.375-3.093 19.43l-19.426 9.13 93.82 76.208c3.714 2.882 5.59 8.067 4.268 12.762l-8.21 26.947c32.303-3.724 61.248-9.326 93.568-12.776 2.854-.305 7.63 4.404 7.61 7.71l-4.28 98.724h15.707l-2.472-98.512c-.02-3.306 4.313-8.227 7.166-7.922 32.32 3.45 61.266 9.052 93.57 12.776l-8.211-26.947c-1.322-4.695.554-9.88 4.267-12.762l93.822-76.208-19.427-9.13c-8.548-3.055-6.158-7.85-3.093-19.43l14.315-52.045-54.502 11.46c-5.323.804-8.87-2.576-9.677-5.793l-6.998-24.503-43.1 48.25c-6.13 7.72-18.55 7.72-14.679-10.134l18.407-97.727-24.696 12.789c-6.936 3.862-13.871 4.503-17.742-2.412"/></symbol><symbol viewBox="0 0 16 16" id="pw-help" xmlns="http://www.w3.org/2000/svg"><path d="M0 8c0 4.426 3.574 8 8 8 4.407 0 8-3.574 8-8 0-4.407-3.593-8-8-8-4.426 0-8 3.593-8 8zm8 6c-.74 0-1.333-.593-1.333-1.333 0-.741.592-1.334 1.333-1.334.74 0 1.333.593 1.333 1.334C9.333 13.407 8.741 14 8 14zm1-4.667v.334H7V9c0-2 2.667-2 2.667-3.333C9.667 5 9 4.333 8 4.333s-2 1-2 1L4.667 4S6 2.333 8 2.333c2.019 0 3.667 1.334 3.667 3.334C11.667 8.333 9 8.333 9 9.333z" fill="currentColor" fill-rule="evenodd"/></symbol><symbol viewBox="0 0 16 16" id="pw-info" xmlns="http://www.w3.org/2000/svg"><path d="M8 0a7.99 7.99 0 00-8 8c0 4.426 3.574 8 8 8s8-3.574 8-8-3.574-8-8-8zm1 13H7V7.333h2V13zM8 5.667c-.74 0-1.333-.593-1.333-1.334C6.667 3.593 7.259 3 8 3c.74 0 1.333.593 1.333 1.333 0 .741-.592 1.334-1.333 1.334z" fill="currentColor" fill-rule="evenodd"/></symbol><symbol viewBox="0 0 16 16" id="pw-like" xmlns="http://www.w3.org/2000/svg"><path d="M2.667 15.667V6.333A.332.332 0 002.333 6h-2A.332.332 0 000 6.333v9.334c0 .185.148.333.333.333h2a.332.332 0 00.334-.333zm12.518-6.834A1.5 1.5 0 0014.5 6H11a.327.327 0 01-.278-.148.373.373 0 01-.037-.315c.019 0 .648-1.611.648-2.87 0-.723-.203-1.408-.574-1.926C10.444.278 10.037 0 9.667 0c-.556 0-1 .444-1 1C8.667 3 8 4.333 4 7v7l3.426 1.593c.5.222 1.352.407 1.907.407h3.5c.834 0 1.5-.667 1.5-1.5 0-.204-.037-.407-.13-.593a1.658 1.658 0 00.927-2.37 1.5 1.5 0 00.87-1.37c0-.574-.333-1.074-.815-1.334z" fill="currentColor" fill-rule="evenodd"/></symbol><symbol viewBox="0 0 16 16" id="pw-lock" xmlns="http://www.w3.org/2000/svg"><path d="M13 7h-1V4c0-2.204-1.796-4-4-4-2.204 0-4 1.796-4 4v3H3c-.556 0-1 .444-1 1v7c0 .556.444 1 1 1h10c.556 0 1-.444 1-1V8c0-.556-.444-1-1-1zM3 8h10v7H3V8zm3-4c0-1.111.889-2 2-2s2 .889 2 2v3H6V4z" fill="currentColor" fill-rule="evenodd"/></symbol><symbol viewBox="0 0 16 16" id="pw-map" xmlns="http://www.w3.org/2000/svg"><g fill="currentColor" fill-rule="evenodd"><path d="M7.984 6.86c.996 0 1.806-.81 1.806-1.806s-.81-1.807-1.806-1.807-1.806.811-1.806 1.807c0 .996.81 1.806 1.806 1.806zm0-3.096a1.291 1.291 0 010 2.58 1.291 1.291 0 010-2.58z"/><path d="M12.959 9.7h-1.848l.786-1.136c1.485-1.98 1.27-5.234-.46-6.963A4.916 4.916 0 007.939.15 4.917 4.917 0 004.44 1.6c-1.73 1.73-1.945 4.983-.466 6.955l.792 1.143h-1.94L0 15.635h15.785L12.96 9.699zM4.392 8.253c-1.341-1.79-1.15-4.728.412-6.289A4.404 4.404 0 017.94.667c1.184 0 2.297.461 3.134 1.298 1.561 1.561 1.754 4.5.406 6.297l-3.54 5.113-2.546-3.676-1-1.445zm-1.24 1.961h1.97l2.816 4.067 2.816-4.067h1.879l2.335 4.903H.818l2.335-4.903z"/></g></symbol><symbol viewBox="0 0 16 16" id="pw-menu" xmlns="http://www.w3.org/2000/svg"><path d="M0 2h16l-1 2H0V2zm0 5h16l-1 2H0V7zm0 5h12l-1 2H0v-2z" fill="currentColor" fill-rule="evenodd"/></symbol><symbol viewBox="0 0 16 16" id="pw-minus" xmlns="http://www.w3.org/2000/svg"><path d="M0 7h16v2H0z" fill="currentColor" fill-rule="evenodd"/></symbol><symbol viewBox="0 0 16 16" id="pw-more" xmlns="http://www.w3.org/2000/svg"><path d="M8 12c.527 0 .993.201 1.396.604.403.403.604.869.604 1.396 0 .527-.201.993-.604 1.396C8.993 15.799 8.527 16 8 16c-.527 0-.993-.201-1.396-.604C6.201 14.993 6 14.527 6 14c0-.527.201-.993.604-1.396C7.007 12.201 7.473 12 8 12zm0-6c.527 0 .993.201 1.396.604.403.403.604.869.604 1.396 0 .527-.201.993-.604 1.396C8.993 9.799 8.527 10 8 10c-.527 0-.993-.201-1.396-.604C6.201 8.993 6 8.527 6 8c0-.527.201-.993.604-1.396C7.007 6.201 7.473 6 8 6zm0-2c-.527 0-.993-.201-1.396-.604C6.201 2.993 6 2.527 6 2c0-.527.201-.993.604-1.396C7.007.201 7.473 0 8 0c.527 0 .993.201 1.396.604.403.403.604.869.604 1.396 0 .527-.201.993-.604 1.396C8.993 3.799 8.527 4 8 4z" fill="currentColor" fill-rule="evenodd"/></symbol><symbol viewBox="0 0 16 16" id="pw-payment" xmlns="http://www.w3.org/2000/svg"><path d="M0 4.009C0 2.899.895 2 1.994 2h12.012C15.107 2 16 2.902 16 4.009v7.982c0 1.11-.895 2.009-1.994 2.009H1.994A2.003 2.003 0 010 11.991V4.01zM0 5h16v3H0V5z" fill="currentColor" fill-rule="evenodd"/></symbol><symbol viewBox="0 0 16 16" id="pw-payment-full" xmlns="http://www.w3.org/2000/svg"><g fill="currentColor" fill-rule="evenodd"><path d="M1 4.009v7.982C1 12.55 1.448 13 1.994 13h12.012c.546 0 .994-.45.994-1.009V4.01c0-.56-.448-1.01-.994-1.01H1.994C1.448 3 1 3.45 1 4.009zm-1 0C0 2.899.895 2 1.994 2h12.012C15.107 2 16 2.902 16 4.009v7.982c0 1.11-.895 2.009-1.994 2.009H1.994A2.003 2.003 0 010 11.991V4.01z"/><path d="M0 5h16v3H0z"/></g></symbol><symbol viewBox="0 0 16 16" id="pw-plus" xmlns="http://www.w3.org/2000/svg"><path d="M7 7H0v2h7v7h2V9h7V7H9V0H7v7z" fill="currentColor" fill-rule="evenodd"/></symbol><symbol viewBox="0 0 24 24" id="pw-print" xmlns="http://www.w3.org/2000/svg"><path fill="currentColor" d="M19 8H5c-1.66 0-3 1.34-3 3v6h4v4h12v-4h4v-6c0-1.66-1.34-3-3-3zm-3 11H8v-5h8v5zm3-7c-.55 0-1-.45-1-1s.45-1 1-1 1 .45 1 1-.45 1-1 1zm-1-9H6v4h12V3z"/><path d="M0 0h24v24H0z" fill="none"/></symbol><symbol viewBox="0 0 16 16" id="pw-review" xmlns="http://www.w3.org/2000/svg"><path d="M15.944 8.148l-.037-.055S12.5 3 8 3 .056 8.148.056 8.148a.336.336 0 000 .37S3.5 13.668 8 13.668s7.944-5.148 7.944-5.148a.336.336 0 000-.37zM8 11.333c-1.667 0-3-1.333-3-3a3 3 0 013-3c1.648 0 3 1.352 3 3a3 3 0 01-3 3z" fill="currentColor" fill-rule="evenodd"/></symbol><symbol viewBox="0 0 16 16" id="pw-search" xmlns="http://www.w3.org/2000/svg"><path d="M11.276 10.01a6.224 6.224 0 001.255-3.744A6.272 6.272 0 006.266 0 6.272 6.272 0 000 6.266a6.272 6.272 0 006.266 6.265c1.404 0 2.698-.47 3.745-1.255L14.734 16 16 14.734l-4.724-4.723zM6.266.598a5.675 5.675 0 015.668 5.669 5.675 5.675 0 01-5.668 5.668 5.675 5.675 0 01-5.67-5.668 5.675 5.675 0 015.67-5.67zm4.502 10.015c.044-.045.091-.087.133-.133l4.255 4.255-.422.423L10.48 10.9c.046-.042.088-.09.133-.132a7.69 7.69 0 00.156-.157z" fill="currentColor" fill-rule="evenodd"/></symbol><symbol viewBox="0 0 20 20" id="pw-settings" xmlns="http://www.w3.org/2000/svg"><path fill="none" d="M0 0h20v20H0V0z"/><path d="M15.95 10.78c.03-.25.05-.51.05-.78s-.02-.53-.06-.78l1.69-1.32c.15-.12.19-.34.1-.51l-1.6-2.77c-.1-.18-.31-.24-.49-.18l-1.99.8c-.42-.32-.86-.58-1.35-.78L12 2.34a.4.4 0 00-.4-.34H8.4c-.2 0-.36.14-.39.34l-.3 2.12c-.49.2-.94.47-1.35.78l-1.99-.8c-.18-.07-.39 0-.49.18l-1.6 2.77c-.1.18-.06.39.1.51l1.69 1.32c-.04.25-.07.52-.07.78s.02.53.06.78L2.37 12.1c-.15.12-.19.34-.1.51l1.6 2.77c.1.18.31.24.49.18l1.99-.8c.42.32.86.58 1.35.78l.3 2.12c.04.2.2.34.4.34h3.2c.2 0 .37-.14.39-.34l.3-2.12c.49-.2.94-.47 1.35-.78l1.99.8c.18.07.39 0 .49-.18l1.6-2.77c.1-.18.06-.39-.1-.51l-1.67-1.32zM10 13c-1.65 0-3-1.35-3-3s1.35-3 3-3 3 1.35 3 3-1.35 3-3 3z"/></symbol><symbol viewBox="0 0 16 16" id="pw-share" xmlns="http://www.w3.org/2000/svg"><path d="M16 6.367L9.847 1v2.567C7.697 3.787.047 5.252 0 15c0 0 1.855-6.14 9.847-6.366v3.101L16 6.367z" fill-rule="evenodd" fill="currentColor"/></symbol><symbol viewBox="0 0 16 16" id="pw-shipping" xmlns="http://www.w3.org/2000/svg"><g fill="currentColor" fill-rule="evenodd"><path d="M12.615 1.373C12.503 1.198 12.142 1 11.93 1H4.278c-.215 0-.609.21-.73.388L1 5.132v9.251c0 .043.027.075.055.08a45.132 45.132 0 0013.886 0c.032-.005.059-.037.059-.08V5.118l-2.385-3.745zM15.983 4.8c0 .05.017.117.017.167v9.416c0 .534-.383.984-.9 1.067a46.147 46.147 0 01-14.2 0 1.076 1.076 0 01-.9-1.067V4.967c0-.05 0-.117.017-.167L2.72.825C3.026.377 3.728 0 4.278 0h7.652c.556 0 1.234.374 1.528.836L15.983 4.8z"/><path d="M7.171 0L6 5.392V9.65h4V5.38L8.91 0z"/><path d="M0 5h16v1H0z"/></g></symbol><symbol viewBox="0 0 16 16" id="pw-shipping-full" xmlns="http://www.w3.org/2000/svg"><path d="M6.085 5H0v1h6v3.649h4V6h6V5H9.923L8.91 0H7.171L6.085 5zm9.898-.2L13.458.836C13.164.374 12.486 0 11.93 0H4.278c-.55 0-1.252.377-1.557.825L.017 4.8C0 4.85 0 4.917 0 4.967v9.416c0 .534.383.984.9 1.067a46.147 46.147 0 0014.2 0c.517-.083.9-.533.9-1.067V4.967c0-.05-.017-.117-.017-.167z" fill="currentColor" fill-rule="evenodd"/></symbol><symbol viewBox="0 0 24 24" id="pw-sms" xmlns="http://www.w3.org/2000/svg"><path d="M20 2H4c-1.1 0-1.99.9-1.99 2L2 22l4-4h14c1.1 0 2-.9 2-2V4c0-1.1-.9-2-2-2zM9 11H7V9h2v2zm4 0h-2V9h2v2zm4 0h-2V9h2v2z"/><path d="M0 0h24v24H0z" fill="none"/></symbol><symbol viewBox="0 0 16 16" id="pw-social-facebook" xmlns="http://www.w3.org/2000/svg"><path d="M7 14.555v-6.22H5V6.032h2V4.04C7 2.22 8.11 1 10.305 1c.968 0 1.64.11 1.64.11v2.077h-1.5c-.664 0-1 .376-1 1.032V6.03h2.336l-.336 2.305h-2v6.219H7z" fill="currentColor" fill-rule="evenodd"/></symbol><symbol viewBox="0 0 16 16" id="pw-social-twitter" xmlns="http://www.w3.org/2000/svg"><path d="M14.11 4.055a3.254 3.254 0 001.445-1.82 6.59 6.59 0 01-2.07.796A3.396 3.396 0 0011.07 2a3.268 3.268 0 00-3.273 3.273c0 .258.016.524.07.758-2.719-.148-5.125-1.383-6.758-3.367-.273.484-.445.984-.445 1.594 0 1.125.578 2.125 1.469 2.719A3.29 3.29 0 01.648 6.57v.04a3.28 3.28 0 002.633 3.218 3.282 3.282 0 01-.875.117c-.203 0-.406-.023-.61-.062.407 1.297 1.634 2.265 3.056 2.281-1.11.89-2.54 1.555-4.07 1.555-.266 0-.524-.016-.782-.055C1.445 14.594 3.188 15 5.04 15c6.03 0 9.327-5 9.327-9.336v-.43A6.648 6.648 0 0016 3.531a6.402 6.402 0 01-1.89.524z" fill="currentColor" fill-rule="evenodd"/></symbol><symbol viewBox="0 0 16 16" id="pw-star" xmlns="http://www.w3.org/2000/svg"><path d="M16 6.116l-5.753-.519L8 .017l-2.247 5.58L0 6.116l4.364 3.966-1.308 5.9L8 12.855l4.944 3.129-1.308-5.9z" fill="currentColor" fill-rule="evenodd"/></symbol><symbol viewBox="0 0 16 16" id="pw-store" xmlns="http://www.w3.org/2000/svg"><g fill="currentColor" fill-rule="evenodd"><path d="M11.353 8.962H9.182c-.594 0-1.078.506-1.078 1.129v1.744c0 .623.484 1.13 1.078 1.13h2.171c.595 0 1.078-.507 1.078-1.13v-1.744c0-.623-.483-1.13-1.078-1.13zm.294 2.873a.302.302 0 01-.294.308H9.182a.302.302 0 01-.294-.308v-1.744c0-.171.134-.308.294-.308h2.171c.164 0 .294.14.294.308v1.744z"/><path d="M15.98 5.79a.395.395 0 00-.052-.201L13.551 1.21a.391.391 0 00-.34-.208H2.766a.385.385 0 00-.34.208L.052 5.59A.43.43 0 000 5.791c0 .982.565 1.823 1.371 2.196v7.221c0 .226.177.41.392.41h12.451a.403.403 0 00.392-.41v-7.17c0-.017 0-.03-.004-.044.81-.373 1.378-1.218 1.378-2.203zM2.994 1.827h9.989L14.84 5.25H1.14l1.854-3.424zm8.38 4.242c-.125.739-.742 1.3-1.483 1.3-.742 0-1.359-.561-1.483-1.3h2.965zm-3.798 0c-.125.739-.742 1.3-1.483 1.3-.741 0-1.358-.561-1.486-1.3h2.969zm-6.766 0h2.968c-.124.739-.745 1.3-1.486 1.3-.741.003-1.358-.561-1.482-1.3zm5.773 8.73H4.33v-4.43c0-.322.248-.585.558-.585h1.14c.307 0 .558.26.558.585v4.43h-.003zm7.239 0H7.367v-4.43c0-.773-.601-1.406-1.343-1.406h-1.14c-.737 0-1.341.63-1.341 1.406V14.8H2.155V8.19a2.264 2.264 0 002.038-1.057c.411.64 1.11 1.06 1.9 1.06.79 0 1.486-.42 1.9-1.06.412.64 1.11 1.06 1.898 1.06.79 0 1.485-.42 1.897-1.06.411.64 1.11 1.06 1.9 1.06.046 0 .088-.003.134-.003v6.609zm-.134-7.427c-.741 0-1.358-.56-1.482-1.3h2.968c-.127.736-.745 1.3-1.486 1.3z"/></g></symbol><symbol viewBox="0 0 16 16" id="pw-trash" xmlns="http://www.w3.org/2000/svg"><path d="M4.265 2L4.983.296A.34.34 0 015.317 0h5.333a.34.34 0 01.333.296L11.703 2h3.28c.186 0 .334.148.334.333v1.334a.332.332 0 01-.334.333h-14a.332.332 0 01-.333-.333V2.333C.65 2.148.798 2 .983 2h3.282zM1.983 5.333l1 10.37a.34.34 0 00.334.297h9.333a.34.34 0 00.333-.296l1-10.37h-12z" fill="currentColor" fill-rule="evenodd"/></symbol><symbol viewBox="0 0 16 16" id="pw-user" xmlns="http://www.w3.org/2000/svg"><path d="M14.27 13.799c-.396-.253-1.155-.599-2.268-1.024a13.446 13.446 0 01-1.273-.572c-1.1-.577-1.727-1.449-1.727-2.544v-.435l.319-.297c.117-.11.303-.356.54-.74.432-.682.754-1.485.962-2.411.127-.58.191-1.172.191-1.776 0-.837-.288-1.523-.897-2.122C9.524 1.285 8.833 1 7.99 1c-.828 0-1.51.284-2.106.878-.595.595-.878 1.26-.878 2.043 0 .944.116 1.782.34 2.5.387 1.18.85 2.03 1.365 2.556l.287.291v.41c0 1.1-.632 1.97-1.733 2.528-.398.206-1.013.468-1.824.78-.76.306-1.348.585-1.724.808-.502.327-.715.698-.717 1.206h14c-.002-.516-.214-.88-.73-1.201zm1.73 1.87c0 .091-.027.17-.078.234a.319.319 0 01-.234.097H.333a.32.32 0 01-.235-.097A.32.32 0 010 15.67v-.663c0-.86.392-1.542 1.172-2.05.457-.273 1.088-.573 1.895-.897.809-.312 1.387-.56 1.739-.741.795-.403 1.192-.951 1.192-1.64-.639-.65-1.172-1.632-1.602-2.946-.26-.833-.39-1.77-.39-2.81 0-1.053.39-1.97 1.172-2.751C5.96.39 6.896 0 7.99 0c1.107 0 2.052.39 2.834 1.17.793.782 1.19 1.724 1.19 2.83 0 .676-.072 1.34-.215 1.991-.233 1.04-.598 1.95-1.093 2.73-.274.444-.507.755-.704.938 0 .69.399 1.242 1.192 1.659.352.181.742.358 1.172.526 1.16.443 1.974.812 2.442 1.112.795.495 1.192 1.177 1.192 2.05v.663z" fill="currentColor" fill-rule="evenodd"/></symbol><symbol viewBox="0 0 16 16" id="pw-wishlist" xmlns="http://www.w3.org/2000/svg"><path d="M8 15.68l-1.16-1.056C2.72 10.888 0 8.424 0 5.4 0 2.936 1.936 1 4.4 1A4.79 4.79 0 018 2.672 4.79 4.79 0 0111.6 1C14.064 1 16 2.936 16 5.4c0 3.024-2.72 5.488-6.84 9.232L8 15.68z" fill="currentColor"/></symbol><symbol viewBox="0 0 16 16" id="pw-wishlist-add" xmlns="http://www.w3.org/2000/svg"><g fill="currentColor" fill-rule="evenodd"><path d="M11.6 1A4.79 4.79 0 008 2.672 4.79 4.79 0 004.4 1 4.357 4.357 0 000 5.4c0 3.024 2.72 5.488 6.84 9.232L8 15.68l1.16-1.056C13.28 10.888 16 8.424 16 5.4 16 2.936 14.064 1 11.6 1zM8.08 13.44l-.08.08-.08-.08C4.112 9.992 1.6 7.712 1.6 5.4c0-1.6 1.2-2.8 2.8-2.8 1.232 0 2.432.792 2.856 1.888h1.496C9.168 3.392 10.368 2.6 11.6 2.6c1.6 0 2.8 1.2 2.8 2.8 0 2.312-2.512 4.592-6.32 8.04z" fill-rule="nonzero"/><path d="M8.75 7.75V6h-1.5v1.75H5.5v1.5h1.75V11h1.5V9.25h1.75v-1.5H8.75z"/></g></symbol><symbol viewBox="0 0 16 16" id="pw-zoom" xmlns="http://www.w3.org/2000/svg"><g fill="currentColor" fill-rule="evenodd"><path d="M13.167 7.333h-2.334v2.334h-2V7.333H6.5v-2h2.333V3h2v2.333h2.334z"/><path d="M4.724 10.01a6.224 6.224 0 01-1.255-3.744A6.272 6.272 0 019.734 0 6.272 6.272 0 0116 6.266a6.272 6.272 0 01-6.266 6.265 6.224 6.224 0 01-3.745-1.255L1.266 16 0 14.734l4.724-4.723zM9.734.598a5.675 5.675 0 00-5.668 5.669 5.675 5.675 0 005.668 5.668 5.675 5.675 0 005.67-5.668 5.675 5.675 0 00-5.67-5.67zM5.232 10.612c-.044-.045-.091-.087-.133-.133L.844 14.734l.422.423L5.52 10.9c-.046-.042-.088-.09-.133-.132a6.462 6.462 0 01-.156-.157z"/></g></symbol></svg>