<?xml version="1.0" encoding="utf-8"?><svg xmlns="http://www.w3.org/2000/svg" xmlns:xlink="http://www.w3.org/1999/xlink"><symbol viewBox="0 0 30 30" id="pw-add-to-homescreen-ios" xmlns="http://www.w3.org/2000/svg"><g fill="none" fill-rule="evenodd"><path d="M10.21 0h9.58c3.45 0 4.42 0 5.91.5a6.38 6.38 0 013.8 3.8c.5 1.49.5 2.46.5 5.91v9.58c0 3.45 0 4.42-.5 5.91a6.38 6.38 0 01-3.8 3.8c-1.49.5-2.46.5-5.91.5H10.2c-3.45 0-4.42 0-5.91-.5a6.38 6.38 0 01-3.8-3.8C0 24.21 0 23.24 0 19.8v-9.6c0-3.44 0-4.4.5-5.9A6.38 6.38 0 014.3.5C5.79 0 6.76 0 10.2 0" fill="#9A9A9A" style="mix-blend-mode:darken"/><path fill="#FFF" d="M16.16 16.16V23h-2.32v-6.84H7v-2.32h6.84V7h2.32v6.84H23v2.32z"/></g></symbol><symbol viewBox="0 0 16 16" id="pw-alert" xmlns="http://www.w3.org/2000/svg"><path d="M7.044 15.537c.27.271.585.402.952.402.375 0 .685-.135.942-.402a1.31 1.31 0 00.393-.942h-2.68c0 .366.131.68.393.942zm8.869-2.173a10.963 10.963 0 01-1.414-2.95c-.319-1.038-.602-2.54-.856-4.505-.147-1.143-.616-2.108-1.135-2.732a4.946 4.946 0 00-.89-.838 5.464 5.464 0 00-1.833-.899A1.74 1.74 0 009.148.42 1.788 1.788 0 007.996.01c-.428 0-.812.14-1.144.41-.332.27-.541.611-.628 1.021a5.474 5.474 0 00-1.842.9 4.967 4.967 0 00-.89.837c-.516.62-.979 1.589-1.126 2.732-.254 1.964-.546 3.464-.865 4.504a11.102 11.102 0 01-1.405 2.95.435.435 0 00-.035.498.464.464 0 00.428.254h15.03a.466.466 0 00.481-.49.453.453 0 00-.087-.261zm-14.551-.218c.523-.9.92-1.887 1.196-2.942.275-1.057.525-2.454.768-4.172.21-1.494.89-2.433 1.737-2.994a4.85 4.85 0 011.72-.742.465.465 0 00.357-.463v-.017c0-.464.393-.838.856-.838.48 0 .855.375.855.838v.017c0 .218.155.409.375.463.601.147 1.124.335 1.711.742.295.204.556.43.777.69.45.526.828 1.335.96 2.304.235 1.72.49 3.107.768 4.163.28 1.056.681 2.043 1.205 2.95H1.362z" fill="currentColor" fill-rule="evenodd"/></symbol><symbol viewBox="0 0 16 16" id="pw-caret-down" xmlns="http://www.w3.org/2000/svg"><path d="M0 4h16l-8 8z" fill="currentColor" fill-rule="evenodd"/></symbol><symbol viewBox="0 0 16 16" id="pw-caret-left" xmlns="http://www.w3.org/2000/svg"><path d="M12 0v16L4 8z" fill="currentColor" fill-rule="evenodd"/></symbol><symbol viewBox="0 0 16 16" id="pw-caret-right" xmlns="http://www.w3.org/2000/svg"><path d="M4 16V0l8 8z" fill="currentColor" fill-rule="evenodd"/></symbol><symbol viewBox="0 0 16 16" id="pw-caret-up" xmlns="http://www.w3.org/2000/svg"><path d="M16 12H0l8-8z" fill="currentColor" fill-rule="evenodd"/></symbol><symbol viewBox="0 0 16 16" id="pw-cart" xmlns="http://www.w3.org/2000/svg"><g fill="currentColor" fill-rule="evenodd"><path d="M13.697 15.94H2.243A.242.242 0 012 15.684L2.546 4.23A.242.242 0 012.788 4h10.364c.13 0 .236.101.242.23l.546 11.455a.242.242 0 01-.243.254zm-11.2-.485h10.946l-.523-10.97h-9.9l-.522 10.97z"/><path d="M10.484 5.515a.243.243 0 01-.243-.242v-2.41A2.381 2.381 0 007.863.485a2.381 2.381 0 00-2.378 2.378v2.41a.243.243 0 01-.485 0v-2.41A2.866 2.866 0 017.863 0a2.866 2.866 0 012.863 2.863v2.41a.242.242 0 01-.242.242z"/></g></symbol><symbol viewBox="0 0 16 16" id="pw-cart-full" xmlns="http://www.w3.org/2000/svg"><g fill="currentColor" fill-rule="evenodd"><path d="M13.697 15.94H2.243A.242.242 0 012 15.684L2.546 4.23A.242.242 0 012.788 4h10.364c.13 0 .236.101.242.23l.546 11.455a.242.242 0 01-.243.254z"/><path d="M10.484 5.515a.243.243 0 01-.243-.242v-2.41A2.381 2.381 0 007.863.485a2.381 2.381 0 00-2.378 2.378v2.41a.243.243 0 01-.485 0v-2.41A2.866 2.866 0 017.863 0a2.866 2.866 0 012.863 2.863v2.41a.242.242 0 01-.242.242z"/></g></symbol><symbol viewBox="0 0 16 16" id="pw-cart-v2" xmlns="http://www.w3.org/2000/svg"><path d="M4.667 14.333c0 .926.74 1.667 1.666 1.667A1.66 1.66 0 008 14.333a1.66 1.66 0 00-1.667-1.666 1.66 1.66 0 00-1.666 1.666zm5.333 0c0 .926.74 1.667 1.667 1.667a1.66 1.66 0 001.666-1.667 1.66 1.66 0 00-1.666-1.666A1.66 1.66 0 0010 14.333zm5.981-10.926a.259.259 0 00-.055-.277.354.354 0 00-.26-.13H4.316L3.759.76A1.012 1.012 0 002.778 0H1C.444 0 0 .444 0 1s.444 1 1 1h1l2.037 8.24c.093.445.5.76.963.76h7.981a.99.99 0 00.963-.76l2.037-6.833z" fill="currentColor" fill-rule="evenodd"/></symbol><symbol viewBox="0 0 16 16" id="pw-caution" xmlns="http://www.w3.org/2000/svg"><path d="M8 1l8 14H0L8 1zm.76 10H7.24L7 5h2l-.24 6zM7 13c0-.292.095-.532.286-.719A.978.978 0 018 12a.967.967 0 011 1 .964.964 0 01-.286.719A.978.978 0 018 14a.978.978 0 01-.714-.281A.964.964 0 017 13z" fill="currentColor" fill-rule="evenodd"/></symbol><symbol viewBox="0 0 16 16" id="pw-check" xmlns="http://www.w3.org/2000/svg"><path d="M15.16 2.02l-9.412 9.41L.834 6.517 0 7.35l5.748 5.748L15.993 2.854z" fill="currentColor" fill-rule="evenodd"/></symbol><symbol viewBox="0 0 16 16" id="pw-chevron" xmlns="http://www.w3.org/2000/svg"><path d="M10 .929l.884.884L4.697 8l6.187 6.187-.884.884L2.929 8z" fill="currentColor" fill-rule="evenodd"/></symbol><symbol viewBox="0 0 16 16" id="pw-chevron-down" xmlns="http://www.w3.org/2000/svg"><path d="M1 5.071l.884-.884 6.187 6.187 6.187-6.187.884.884-7.07 7.071z" fill="currentColor" fill-rule="evenodd"/></symbol><symbol viewBox="0 0 16 16" id="pw-chevron-left" xmlns="http://www.w3.org/2000/svg"><path d="M10.071 1l.884.884L4.768 8.07l6.187 6.187-.884.884L3 8.072z" fill="currentColor" fill-rule="evenodd"/></symbol><symbol viewBox="0 0 16 16" id="pw-chevron-right" xmlns="http://www.w3.org/2000/svg"><path d="M5.071 15.142l-.884-.884 6.187-6.187-6.187-6.187L5.071 1l7.071 7.071z" fill="currentColor" fill-rule="evenodd"/></symbol><symbol viewBox="0 0 16 16" id="pw-chevron-up" xmlns="http://www.w3.org/2000/svg"><path d="M15.142 10.071l-.884.884-6.187-6.187-6.187 6.187L1 10.071 8.071 3z" fill="currentColor" fill-rule="evenodd"/></symbol><symbol viewBox="0 0 16 16" id="pw-close" xmlns="http://www.w3.org/2000/svg"><path d="M6.513 7.947l-4.94 4.94L2.987 14.3l4.94-4.94 5.013 5.013 1.414-1.414L9.34 7.947l4.96-4.96-1.414-1.414-4.96 4.96L3.04 1.646 1.626 3.06l4.887 4.887z" fill="currentColor" fill-rule="evenodd"/></symbol><symbol viewBox="0 0 24 24" id="pw-copy" xmlns="http://www.w3.org/2000/svg"><path d="M0 0h24v24H0z" fill="none"/><path fill="currentColor" d="M16 1H4c-1.1 0-2 .9-2 2v14h2V3h12V1zm3 4H8c-1.1 0-2 .9-2 2v14c0 1.1.9 2 2 2h11c1.1 0 2-.9 2-2V7c0-1.1-.9-2-2-2zm0 16H8V7h11v14z"/></symbol><symbol viewBox="0 0 16 16" id="pw-done" xmlns="http://www.w3.org/2000/svg"><path d="M14.69 4.53l-1.36-1.288L6 10.207l-.689-.657-2.643-2.519-1.357 1.287L6 12.756l8.69-8.226zm1.213.228L6.339 13.81s-.169.19-.338.19-.335-.189-.335-.189L.097 8.546a.316.316 0 010-.456L2.43 5.88a.36.36 0 01.481 0l3.091 2.946 7.089-6.734a.36.36 0 01.48 0l2.333 2.21c.13.123.13.333 0 .456z" fill="currentColor" fill-rule="evenodd"/></symbol><symbol viewBox="0 0 16 16" id="pw-download" xmlns="http://www.w3.org/2000/svg"><path d="M7.125 0h1.75v10.649l4.891-4.883L15 7l-7 7-7-7 1.234-1.242 4.891 4.89V0zM0 14h16v2H0v-2z"/></symbol><symbol viewBox="0 0 16 16" id="pw-edit" xmlns="http://www.w3.org/2000/svg"><path d="M13 5.995l-8.241 8.241a.377.377 0 01-.111.074L.462 15.977c-.055.018-.092.018-.13.018a.39.39 0 01-.24-.092c-.093-.093-.111-.24-.074-.37l1.667-4.186a.387.387 0 01.074-.11l8.24-8.242 3 3zm2.703-4.13a1.017 1.017 0 010 1.427L14 4.995l-3-3L12.703.292a1.017 1.017 0 011.426 0l1.574 1.574z" fill="currentColor" fill-rule="evenodd"/></symbol><symbol viewBox="0 0 24 24" id="pw-email" xmlns="http://www.w3.org/2000/svg"><path fill="currentColor" d="M20 4H4c-1.1 0-1.99.9-1.99 2L2 18c0 1.1.9 2 2 2h16c1.1 0 2-.9 2-2V6c0-1.1-.9-2-2-2zm0 4l-8 5-8-5V6l8 5 8-5v2z"/><path d="M0 0h24v24H0z" fill="none"/></symbol><symbol viewBox="0 0 168 99" id="pw-error-cloud" xmlns="http://www.w3.org/2000/svg"><defs><path d="M61.464 88.732l4 6.928a2 2 0 11-3.464 2l-4-6.928a2 2 0 013.464-2zm9.464 0l4 6.928a2 2 0 11-3.464 2l-4-6.928a2 2 0 013.464-2zm9.464 0l4 6.928a2 2 0 11-3.464 2l-4-6.928a2 2 0 013.464-2zm9.34 0l4 6.928a2 2 0 11-3.464 2l-4-6.928a2 2 0 113.464-2zm9 0l4 6.928a2 2 0 01-3.464 2l-4-6.928a2 2 0 113.464-2zM80 0c18.807 0 34.462 13.436 37.975 31.332C131.408 32.267 142 43.367 142 57.063c0 14.175-11.343 25.705-25.406 25.935l-.427.003H49c-17.102 0-31-13.954-31-31.125 0-16.03 12.09-29.258 27.642-30.918C52.1 8.508 65.068 0 80 0zm0 10.375c-12.88 0-23.687 8.58-27.22 20.365l-.112.385H49c-11.418 0-20.667 9.286-20.667 20.75 0 11.347 9.06 20.56 20.318 20.747l.349.003h67.167c8.576 0 15.5-6.951 15.5-15.563 0-8.504-6.754-15.39-15.183-15.559l-.317-.003h-7.75v-2.594c0-15.77-12.71-28.531-28.417-28.531zM9.5 63a4.5 4.5 0 110 9 4.5 4.5 0 010-9zm143.273.409l1.818 1.818-2.272 2.273 2.272 2.273-1.818 1.818-2.273-2.272-2.273 2.272-1.818-1.818 2.272-2.273-2.272-2.273 1.818-1.818 2.273 2.272 2.273-2.272zM9.5 65a2.5 2.5 0 100 5 2.5 2.5 0 000-5zM78 49c7.628 0 13.83 6.1 13.997 13.687L92 63h-6a8 8 0 10-16 0h-6c0-7.732 6.268-14 14-14zm11-16a5 5 0 110 10 5 5 0 010-10zm-23 0a5 5 0 110 10 5 5 0 010-10zm99.773 1.409l1.818 1.818-2.272 2.273 2.272 2.273-1.818 1.818-2.273-2.272-2.273 2.272-1.818-1.818 2.272-2.273-2.272-2.273 1.818-1.818 2.273 2.272 2.273-2.272zM4.5 25a4.5 4.5 0 110 9 4.5 4.5 0 010-9zm0 2a2.5 2.5 0 100 5 2.5 2.5 0 000-5zm131-11a4.5 4.5 0 110 9 4.5 4.5 0 010-9zm0 2a2.5 2.5 0 100 5 2.5 2.5 0 000-5zM32.773.409l1.818 1.818L32.32 4.5l2.272 2.273-1.818 1.818L30.5 6.32l-2.273 2.272-1.818-1.818L28.68 4.5l-2.272-2.273L28.227.41 30.5 2.68 32.773.409z" id="awa"/></defs><use fill="currentColor" xlink:href="#awa" fill-rule="evenodd"/></symbol><symbol viewBox="0 0 16 16" id="pw-help" xmlns="http://www.w3.org/2000/svg"><path d="M0 8c0 4.426 3.574 8 8 8 4.407 0 8-3.574 8-8 0-4.407-3.593-8-8-8-4.426 0-8 3.593-8 8zm8 6c-.74 0-1.333-.593-1.333-1.333 0-.741.592-1.334 1.333-1.334.74 0 1.333.593 1.333 1.334C9.333 13.407 8.741 14 8 14zm1-4.667v.334H7V9c0-2 2.667-2 2.667-3.333C9.667 5 9 4.333 8 4.333s-2 1-2 1L4.667 4S6 2.333 8 2.333c2.019 0 3.667 1.334 3.667 3.334C11.667 8.333 9 8.333 9 9.333z" fill="currentColor" fill-rule="evenodd"/></symbol><symbol viewBox="0 0 16 16" id="pw-info" xmlns="http://www.w3.org/2000/svg"><path d="M8 0a7.99 7.99 0 00-8 8c0 4.426 3.574 8 8 8s8-3.574 8-8-3.574-8-8-8zm1 13H7V7.333h2V13zM8 5.667c-.74 0-1.333-.593-1.333-1.334C6.667 3.593 7.259 3 8 3c.74 0 1.333.593 1.333 1.333 0 .741-.592 1.334-1.333 1.334z" fill="currentColor" fill-rule="evenodd"/></symbol><symbol viewBox="0 0 16 16" id="pw-like" xmlns="http://www.w3.org/2000/svg"><path d="M2.667 15.667V6.333A.332.332 0 002.333 6h-2A.332.332 0 000 6.333v9.334c0 .185.148.333.333.333h2a.332.332 0 00.334-.333zm12.518-6.834A1.5 1.5 0 0014.5 6H11a.327.327 0 01-.278-.148.373.373 0 01-.037-.315c.019 0 .648-1.611.648-2.87 0-.723-.203-1.408-.574-1.926C10.444.278 10.037 0 9.667 0c-.556 0-1 .444-1 1C8.667 3 8 4.333 4 7v7l3.426 1.593c.5.222 1.352.407 1.907.407h3.5c.834 0 1.5-.667 1.5-1.5 0-.204-.037-.407-.13-.593a1.658 1.658 0 00.927-2.37 1.5 1.5 0 00.87-1.37c0-.574-.333-1.074-.815-1.334z" fill="currentColor" fill-rule="evenodd"/></symbol><symbol viewBox="0 0 16 16" id="pw-lock" xmlns="http://www.w3.org/2000/svg"><path d="M13 7h-1V4c0-2.204-1.796-4-4-4-2.204 0-4 1.796-4 4v3H3c-.556 0-1 .444-1 1v7c0 .556.444 1 1 1h10c.556 0 1-.444 1-1V8c0-.556-.444-1-1-1zM3 8h10v7H3V8zm3-4c0-1.111.889-2 2-2s2 .889 2 2v3H6V4z" fill="currentColor" fill-rule="evenodd"/></symbol><symbol viewBox="0 0 16 16" id="pw-map" xmlns="http://www.w3.org/2000/svg"><g fill="currentColor" fill-rule="evenodd"><path d="M7.984 6.86c.996 0 1.806-.81 1.806-1.806s-.81-1.807-1.806-1.807-1.806.811-1.806 1.807c0 .996.81 1.806 1.806 1.806zm0-3.096a1.291 1.291 0 010 2.58 1.291 1.291 0 010-2.58z"/><path d="M12.959 9.7h-1.848l.786-1.136c1.485-1.98 1.27-5.234-.46-6.963A4.916 4.916 0 007.939.15 4.917 4.917 0 004.44 1.6c-1.73 1.73-1.945 4.983-.466 6.955l.792 1.143h-1.94L0 15.635h15.785L12.96 9.699zM4.392 8.253c-1.341-1.79-1.15-4.728.412-6.289A4.404 4.404 0 017.94.667c1.184 0 2.297.461 3.134 1.298 1.561 1.561 1.754 4.5.406 6.297l-3.54 5.113-2.546-3.676-1-1.445zm-1.24 1.961h1.97l2.816 4.067 2.816-4.067h1.879l2.335 4.903H.818l2.335-4.903z"/></g></symbol><symbol viewBox="0 0 16 16" id="pw-menu" xmlns="http://www.w3.org/2000/svg"><path d="M0 2h16l-1 2H0V2zm0 5h16l-1 2H0V7zm0 5h12l-1 2H0v-2z" fill="currentColor" fill-rule="evenodd"/></symbol><symbol viewBox="0 0 16 16" id="pw-minus" xmlns="http://www.w3.org/2000/svg"><path d="M0 7h16v2H0z" fill="currentColor" fill-rule="evenodd"/></symbol><symbol viewBox="0 0 16 16" id="pw-more" xmlns="http://www.w3.org/2000/svg"><path d="M8 12c.527 0 .993.201 1.396.604.403.403.604.869.604 1.396 0 .527-.201.993-.604 1.396C8.993 15.799 8.527 16 8 16c-.527 0-.993-.201-1.396-.604C6.201 14.993 6 14.527 6 14c0-.527.201-.993.604-1.396C7.007 12.201 7.473 12 8 12zm0-6c.527 0 .993.201 1.396.604.403.403.604.869.604 1.396 0 .527-.201.993-.604 1.396C8.993 9.799 8.527 10 8 10c-.527 0-.993-.201-1.396-.604C6.201 8.993 6 8.527 6 8c0-.527.201-.993.604-1.396C7.007 6.201 7.473 6 8 6zm0-2c-.527 0-.993-.201-1.396-.604C6.201 2.993 6 2.527 6 2c0-.527.201-.993.604-1.396C7.007.201 7.473 0 8 0c.527 0 .993.201 1.396.604.403.403.604.869.604 1.396 0 .527-.201.993-.604 1.396C8.993 3.799 8.527 4 8 4z" fill="currentColor" fill-rule="evenodd"/></symbol><symbol viewBox="0 4 24 18" id="pw-offline-cloud" xmlns="http://www.w3.org/2000/svg"><path d="M19.35 10.04A7.49 7.49 0 0012 4c-1.48 0-2.85.43-4.01 1.17l1.46 1.46a5.497 5.497 0 018.05 4.87v.5H19c1.66 0 3 1.34 3 3 0 1.13-.64 2.11-1.56 2.62l1.45 1.45C23.16 18.16 24 16.68 24 15c0-2.64-2.05-4.78-4.65-4.96zM3 5.27l2.75 2.74C2.56 8.15 0 10.77 0 14c0 3.31 2.69 6 6 6h11.73l2 2L21 20.73 4.27 4 3 5.27zM7.73 10l8 8H6c-2.21 0-4-1.79-4-4s1.79-4 4-4h1.73z"/></symbol><symbol viewBox="0 0 16 16" id="pw-payment" xmlns="http://www.w3.org/2000/svg"><path d="M0 4.009C0 2.899.895 2 1.994 2h12.012C15.107 2 16 2.902 16 4.009v7.982c0 1.11-.895 2.009-1.994 2.009H1.994A2.003 2.003 0 010 11.991V4.01zM0 5h16v3H0V5z" fill="currentColor" fill-rule="evenodd"/></symbol><symbol viewBox="0 0 16 16" id="pw-payment-full" xmlns="http://www.w3.org/2000/svg"><g fill="currentColor" fill-rule="evenodd"><path d="M1 4.009v7.982C1 12.55 1.448 13 1.994 13h12.012c.546 0 .994-.45.994-1.009V4.01c0-.56-.448-1.01-.994-1.01H1.994C1.448 3 1 3.45 1 4.009zm-1 0C0 2.899.895 2 1.994 2h12.012C15.107 2 16 2.902 16 4.009v7.982c0 1.11-.895 2.009-1.994 2.009H1.994A2.003 2.003 0 010 11.991V4.01z"/><path d="M0 5h16v3H0z"/></g></symbol><symbol viewBox="0 0 16 16" id="pw-plus" xmlns="http://www.w3.org/2000/svg"><path d="M7 7H0v2h7v7h2V9h7V7H9V0H7v7z" fill="currentColor" fill-rule="evenodd"/></symbol><symbol viewBox="0 0 24 24" id="pw-print" xmlns="http://www.w3.org/2000/svg"><path fill="currentColor" d="M19 8H5c-1.66 0-3 1.34-3 3v6h4v4h12v-4h4v-6c0-1.66-1.34-3-3-3zm-3 11H8v-5h8v5zm3-7c-.55 0-1-.45-1-1s.45-1 1-1 1 .45 1 1-.45 1-1 1zm-1-9H6v4h12V3z"/><path d="M0 0h24v24H0z" fill="none"/></symbol><symbol viewBox="0 0 16 16" id="pw-review" xmlns="http://www.w3.org/2000/svg"><path d="M15.944 8.148l-.037-.055S12.5 3 8 3 .056 8.148.056 8.148a.336.336 0 000 .37S3.5 13.668 8 13.668s7.944-5.148 7.944-5.148a.336.336 0 000-.37zM8 11.333c-1.667 0-3-1.333-3-3a3 3 0 013-3c1.648 0 3 1.352 3 3a3 3 0 01-3 3z" fill="currentColor" fill-rule="evenodd"/></symbol><symbol viewBox="0 0 30 30" id="pw-safari-share" xmlns="http://www.w3.org/2000/svg"><path d="M12.65 9.5v.9H7v16.1h16V10.4h-5.65v-.9H24v18H6v-18h6.65zm2.8 9h-.94V4.18l-2.9 3-.61-.6 3.99-4.08L19 6.57l-.61.6-2.93-2.99V18.5z" fill="#007AFF"/></symbol><symbol viewBox="0 0 16 16" id="pw-search" xmlns="http://www.w3.org/2000/svg"><path d="M11.276 10.01a6.224 6.224 0 001.255-3.744A6.272 6.272 0 006.266 0 6.272 6.272 0 000 6.266a6.272 6.272 0 006.266 6.265c1.404 0 2.698-.47 3.745-1.255L14.734 16 16 14.734l-4.724-4.723zM6.266.598a5.675 5.675 0 015.668 5.669 5.675 5.675 0 01-5.668 5.668 5.675 5.675 0 01-5.67-5.668 5.675 5.675 0 015.67-5.67zm4.502 10.015c.044-.045.091-.087.133-.133l4.255 4.255-.422.423L10.48 10.9c.046-.042.088-.09.133-.132a7.69 7.69 0 00.156-.157z" fill="currentColor" fill-rule="evenodd"/></symbol><symbol viewBox="0 0 20 20" id="pw-settings" xmlns="http://www.w3.org/2000/svg"><path fill="none" d="M0 0h20v20H0V0z"/><path d="M15.95 10.78c.03-.25.05-.51.05-.78s-.02-.53-.06-.78l1.69-1.32c.15-.12.19-.34.1-.51l-1.6-2.77c-.1-.18-.31-.24-.49-.18l-1.99.8c-.42-.32-.86-.58-1.35-.78L12 2.34a.4.4 0 00-.4-.34H8.4c-.2 0-.36.14-.39.34l-.3 2.12c-.49.2-.94.47-1.35.78l-1.99-.8c-.18-.07-.39 0-.49.18l-1.6 2.77c-.1.18-.06.39.1.51l1.69 1.32c-.04.25-.07.52-.07.78s.02.53.06.78L2.37 12.1c-.15.12-.19.34-.1.51l1.6 2.77c.1.18.31.24.49.18l1.99-.8c.42.32.86.58 1.35.78l.3 2.12c.04.2.2.34.4.34h3.2c.2 0 .37-.14.39-.34l.3-2.12c.49-.2.94-.47 1.35-.78l1.99.8c.18.07.39 0 .49-.18l1.6-2.77c.1-.18.06-.39-.1-.51l-1.67-1.32zM10 13c-1.65 0-3-1.35-3-3s1.35-3 3-3 3 1.35 3 3-1.35 3-3 3z"/></symbol><symbol viewBox="0 0 16 16" id="pw-share" xmlns="http://www.w3.org/2000/svg"><path d="M16 6.367L9.847 1v2.567C7.697 3.787.047 5.252 0 15c0 0 1.855-6.14 9.847-6.366v3.101L16 6.367z" fill-rule="evenodd" fill="currentColor"/></symbol><symbol viewBox="0 0 16 16" id="pw-shipping" xmlns="http://www.w3.org/2000/svg"><g fill="currentColor" fill-rule="evenodd"><path d="M12.615 1.373C12.503 1.198 12.142 1 11.93 1H4.278c-.215 0-.609.21-.73.388L1 5.132v9.251c0 .043.027.075.055.08a45.132 45.132 0 0013.886 0c.032-.005.059-.037.059-.08V5.118l-2.385-3.745zM15.983 4.8c0 .05.017.117.017.167v9.416c0 .534-.383.984-.9 1.067a46.147 46.147 0 01-14.2 0 1.076 1.076 0 01-.9-1.067V4.967c0-.05 0-.117.017-.167L2.72.825C3.026.377 3.728 0 4.278 0h7.652c.556 0 1.234.374 1.528.836L15.983 4.8z"/><path d="M7.171 0L6 5.392V9.65h4V5.38L8.91 0z"/><path d="M0 5h16v1H0z"/></g></symbol><symbol viewBox="0 0 16 16" id="pw-shipping-full" xmlns="http://www.w3.org/2000/svg"><path d="M6.085 5H0v1h6v3.649h4V6h6V5H9.923L8.91 0H7.171L6.085 5zm9.898-.2L13.458.836C13.164.374 12.486 0 11.93 0H4.278c-.55 0-1.252.377-1.557.825L.017 4.8C0 4.85 0 4.917 0 4.967v9.416c0 .534.383.984.9 1.067a46.147 46.147 0 0014.2 0c.517-.083.9-.533.9-1.067V4.967c0-.05-.017-.117-.017-.167z" fill="currentColor" fill-rule="evenodd"/></symbol><symbol viewBox="0 0 24 24" id="pw-sms" xmlns="http://www.w3.org/2000/svg"><path d="M20 2H4c-1.1 0-1.99.9-1.99 2L2 22l4-4h14c1.1 0 2-.9 2-2V4c0-1.1-.9-2-2-2zM9 11H7V9h2v2zm4 0h-2V9h2v2zm4 0h-2V9h2v2z"/><path d="M0 0h24v24H0z" fill="none"/></symbol><symbol viewBox="0 0 16 16" id="pw-social-facebook" xmlns="http://www.w3.org/2000/svg"><path d="M7 14.555v-6.22H5V6.032h2V4.04C7 2.22 8.11 1 10.305 1c.968 0 1.64.11 1.64.11v2.077h-1.5c-.664 0-1 .376-1 1.032V6.03h2.336l-.336 2.305h-2v6.219H7z" fill="currentColor" fill-rule="evenodd"/></symbol><symbol viewBox="0 0 16 16" id="pw-social-twitter" xmlns="http://www.w3.org/2000/svg"><path d="M14.11 4.055a3.254 3.254 0 001.445-1.82 6.59 6.59 0 01-2.07.796A3.396 3.396 0 0011.07 2a3.268 3.268 0 00-3.273 3.273c0 .258.016.524.07.758-2.719-.148-5.125-1.383-6.758-3.367-.273.484-.445.984-.445 1.594 0 1.125.578 2.125 1.469 2.719A3.29 3.29 0 01.648 6.57v.04a3.28 3.28 0 002.633 3.218 3.282 3.282 0 01-.875.117c-.203 0-.406-.023-.61-.062.407 1.297 1.634 2.265 3.056 2.281-1.11.89-2.54 1.555-4.07 1.555-.266 0-.524-.016-.782-.055C1.445 14.594 3.188 15 5.04 15c6.03 0 9.327-5 9.327-9.336v-.43A6.648 6.648 0 0016 3.531a6.402 6.402 0 01-1.89.524z" fill="currentColor" fill-rule="evenodd"/></symbol><symbol viewBox="0 0 16 16" id="pw-star" xmlns="http://www.w3.org/2000/svg"><path d="M16 6.116l-5.753-.519L8 .017l-2.247 5.58L0 6.116l4.364 3.966-1.308 5.9L8 12.855l4.944 3.129-1.308-5.9z" fill="currentColor" fill-rule="evenodd"/></symbol><symbol viewBox="0 0 16 16" id="pw-store" xmlns="http://www.w3.org/2000/svg"><g fill="currentColor" fill-rule="evenodd"><path d="M11.353 8.962H9.182c-.594 0-1.078.506-1.078 1.129v1.744c0 .623.484 1.13 1.078 1.13h2.171c.595 0 1.078-.507 1.078-1.13v-1.744c0-.623-.483-1.13-1.078-1.13zm.294 2.873a.302.302 0 01-.294.308H9.182a.302.302 0 01-.294-.308v-1.744c0-.171.134-.308.294-.308h2.171c.164 0 .294.14.294.308v1.744z"/><path d="M15.98 5.79a.395.395 0 00-.052-.201L13.551 1.21a.391.391 0 00-.34-.208H2.766a.385.385 0 00-.34.208L.052 5.59A.43.43 0 000 5.791c0 .982.565 1.823 1.371 2.196v7.221c0 .226.177.41.392.41h12.451a.403.403 0 00.392-.41v-7.17c0-.017 0-.03-.004-.044.81-.373 1.378-1.218 1.378-2.203zM2.994 1.827h9.989L14.84 5.25H1.14l1.854-3.424zm8.38 4.242c-.125.739-.742 1.3-1.483 1.3-.742 0-1.359-.561-1.483-1.3h2.965zm-3.798 0c-.125.739-.742 1.3-1.483 1.3-.741 0-1.358-.561-1.486-1.3h2.969zm-6.766 0h2.968c-.124.739-.745 1.3-1.486 1.3-.741.003-1.358-.561-1.482-1.3zm5.773 8.73H4.33v-4.43c0-.322.248-.585.558-.585h1.14c.307 0 .558.26.558.585v4.43h-.003zm7.239 0H7.367v-4.43c0-.773-.601-1.406-1.343-1.406h-1.14c-.737 0-1.341.63-1.341 1.406V14.8H2.155V8.19a2.264 2.264 0 002.038-1.057c.411.64 1.11 1.06 1.9 1.06.79 0 1.486-.42 1.9-1.06.412.64 1.11 1.06 1.898 1.06.79 0 1.485-.42 1.897-1.06.411.64 1.11 1.06 1.9 1.06.046 0 .088-.003.134-.003v6.609zm-.134-7.427c-.741 0-1.358-.56-1.482-1.3h2.968c-.127.736-.745 1.3-1.486 1.3z"/></g></symbol><symbol viewBox="0 0 16 16" id="pw-trash" xmlns="http://www.w3.org/2000/svg"><path d="M4.265 2L4.983.296A.34.34 0 015.317 0h5.333a.34.34 0 01.333.296L11.703 2h3.28c.186 0 .334.148.334.333v1.334a.332.332 0 01-.334.333h-14a.332.332 0 01-.333-.333V2.333C.65 2.148.798 2 .983 2h3.282zM1.983 5.333l1 10.37a.34.34 0 00.334.297h9.333a.34.34 0 00.333-.296l1-10.37h-12z" fill="currentColor" fill-rule="evenodd"/></symbol><symbol viewBox="0 0 16 16" id="pw-user" xmlns="http://www.w3.org/2000/svg"><path d="M14.27 13.799c-.396-.253-1.155-.599-2.268-1.024a13.446 13.446 0 01-1.273-.572c-1.1-.577-1.727-1.449-1.727-2.544v-.435l.319-.297c.117-.11.303-.356.54-.74.432-.682.754-1.485.962-2.411.127-.58.191-1.172.191-1.776 0-.837-.288-1.523-.897-2.122C9.524 1.285 8.833 1 7.99 1c-.828 0-1.51.284-2.106.878-.595.595-.878 1.26-.878 2.043 0 .944.116 1.782.34 2.5.387 1.18.85 2.03 1.365 2.556l.287.291v.41c0 1.1-.632 1.97-1.733 2.528-.398.206-1.013.468-1.824.78-.76.306-1.348.585-1.724.808-.502.327-.715.698-.717 1.206h14c-.002-.516-.214-.88-.73-1.201zm1.73 1.87c0 .091-.027.17-.078.234a.319.319 0 01-.234.097H.333a.32.32 0 01-.235-.097A.32.32 0 010 15.67v-.663c0-.86.392-1.542 1.172-2.05.457-.273 1.088-.573 1.895-.897.809-.312 1.387-.56 1.739-.741.795-.403 1.192-.951 1.192-1.64-.639-.65-1.172-1.632-1.602-2.946-.26-.833-.39-1.77-.39-2.81 0-1.053.39-1.97 1.172-2.751C5.96.39 6.896 0 7.99 0c1.107 0 2.052.39 2.834 1.17.793.782 1.19 1.724 1.19 2.83 0 .676-.072 1.34-.215 1.991-.233 1.04-.598 1.95-1.093 2.73-.274.444-.507.755-.704.938 0 .69.399 1.242 1.192 1.659.352.181.742.358 1.172.526 1.16.443 1.974.812 2.442 1.112.795.495 1.192 1.177 1.192 2.05v.663z" fill="currentColor" fill-rule="evenodd"/></symbol><symbol viewBox="0 0 16 16" id="pw-wishlist" xmlns="http://www.w3.org/2000/svg"><path d="M8 15.68l-1.16-1.056C2.72 10.888 0 8.424 0 5.4 0 2.936 1.936 1 4.4 1A4.79 4.79 0 018 2.672 4.79 4.79 0 0111.6 1C14.064 1 16 2.936 16 5.4c0 3.024-2.72 5.488-6.84 9.232L8 15.68z" fill="currentColor"/></symbol><symbol viewBox="0 0 16 16" id="pw-wishlist-add" xmlns="http://www.w3.org/2000/svg"><g fill="currentColor" fill-rule="evenodd"><path d="M11.6 1A4.79 4.79 0 008 2.672 4.79 4.79 0 004.4 1 4.357 4.357 0 000 5.4c0 3.024 2.72 5.488 6.84 9.232L8 15.68l1.16-1.056C13.28 10.888 16 8.424 16 5.4 16 2.936 14.064 1 11.6 1zM8.08 13.44l-.08.08-.08-.08C4.112 9.992 1.6 7.712 1.6 5.4c0-1.6 1.2-2.8 2.8-2.8 1.232 0 2.432.792 2.856 1.888h1.496C9.168 3.392 10.368 2.6 11.6 2.6c1.6 0 2.8 1.2 2.8 2.8 0 2.312-2.512 4.592-6.32 8.04z" fill-rule="nonzero"/><path d="M8.75 7.75V6h-1.5v1.75H5.5v1.5h1.75V11h1.5V9.25h1.75v-1.5H8.75z"/></g></symbol><symbol viewBox="0 0 16 16" id="pw-zoom" xmlns="http://www.w3.org/2000/svg"><g fill="currentColor" fill-rule="evenodd"><path d="M13.167 7.333h-2.334v2.334h-2V7.333H6.5v-2h2.333V3h2v2.333h2.334z"/><path d="M4.724 10.01a6.224 6.224 0 01-1.255-3.744A6.272 6.272 0 019.734 0 6.272 6.272 0 0116 6.266a6.272 6.272 0 01-6.266 6.265 6.224 6.224 0 01-3.745-1.255L1.266 16 0 14.734l4.724-4.723zM9.734.598a5.675 5.675 0 00-5.668 5.669 5.675 5.675 0 005.668 5.668 5.675 5.675 0 005.67-5.668 5.675 5.675 0 00-5.67-5.67zM5.232 10.612c-.044-.045-.091-.087-.133-.133L.844 14.734l.422.423L5.52 10.9c-.046-.042-.088-.09-.133-.132a6.462 6.462 0 01-.156-.157z"/></g></symbol></svg>