<svg width="20" height="20" xmlns="http://www.w3.org/2000/svg" xmlns:xlink="http://www.w3.org/1999/xlink"><defs><path d="M10 0c5.523 0 10 4.477 10 10s-4.477 10-10 10S0 15.523 0 10 4.477 0 10 0zM6.764 6.763a1.111 1.111 0 00-.004 1.572l1.675 1.681-1.638 1.65a1.111 1.111 0 001.576 1.566l1.63-1.641 1.6 1.607a1.111 1.111 0 101.574-1.568l-1.608-1.615 1.648-1.656a1.111 1.111 0 10-1.576-1.567L10 8.44 8.335 6.767a1.111 1.111 0 00-1.571-.004z" id="a"/></defs><use fill="#ABB1BB" xlink:href="#a" fill-rule="evenodd"/></svg>