<svg width="48" height="48" xmlns="http://www.w3.org/2000/svg" xmlns:xlink="http://www.w3.org/1999/xlink"><defs><linearGradient x1="0%" y1="0%" x2="100%" y2="100%" id="a"><stop stop-color="#09F" offset="0%"/><stop stop-color="#4E439B" offset="100%"/></linearGradient><linearGradient x1="50%" y1="0%" x2="50%" y2="100%" id="c"><stop stop-color="#FFF" offset="0%"/><stop stop-color="#FFF" stop-opacity=".84" offset="100%"/></linearGradient><path d="M7.07.667c.434 0 .853.152 1.186.43l4.699 3.922c.21.175.332.436.332.71v.483l.01.94v8.33a1.852 1.852 0 01-1.853 1.851H2.185a1.852 1.852 0 01-1.852-1.852V2.52c0-1.024.829-1.852 1.852-1.852zm-.238 1.851l-.017 2.956a.917.917 0 00.92.917h3.704L6.832 2.518z" id="b"/></defs><g fill="none" fill-rule="evenodd"><rect width="48" height="48" rx="24" fill="url(#a)"/><use fill="url(#c)" xlink:href="#b" transform="translate(17 15)"/></g></svg>