<svg viewBox="0 0 170 20" xmlns="http://www.w3.org/2000/svg"><g fill="#fff" fill-rule="nonzero"><path d="M11.298 13.239s-2.78-2.927-4.478-3.395c-1.698-.498-5.59.556-5.59.556l.527 2.81h4.097l3.542 2.195 1.902-2.166zM12.088 7.18l.146-4.156-2.868-.556s-1.141 3.864-.702 5.59c.41 1.698 3.278 4.566 3.278 4.566l2.253-1.843-2.107-3.6zM5.795 1.21l-2.078 3.6-3.63 1.96.937 2.752s3.922-.937 5.18-2.195c1.289-1.2 2.342-5.122 2.342-5.122l-2.75-.995z"/><path d="M5.854 13.21h5.473s-2.78-2.927-4.478-3.395c-1.698-.498-5.59.556-5.59.556l4.595 2.839zM12.088 7.18L9.366 2.469s-1.141 3.864-.702 5.59c.41 1.698 3.278 4.566 3.278 4.566l.146-5.443zM3.717 4.81L1.024 9.522s3.922-.937 5.18-2.195c1.289-1.2 2.342-5.122 2.342-5.122L3.717 4.81zM19.522 1.502h2.4l3.776 6.469 3.717-6.469h2.4l.468 13.669h-2.517l-.264-9.454-3.278 5.561h-1.2l-3.307-5.444-.205 9.307h-2.429zM33.483 10.341c0-.673.117-1.346.38-1.99a4.916 4.916 0 012.693-2.722 5.459 5.459 0 014.186 0c.614.263 1.17.644 1.639 1.112.468.468.82 1.024 1.053 1.639a5.307 5.307 0 01-1.053 5.59 5.243 5.243 0 01-1.64 1.112 5.459 5.459 0 01-4.185 0 5.243 5.243 0 01-1.639-1.112 5.263 5.263 0 01-1.434-3.63zm5.151 3.073c.41 0 .849-.088 1.2-.263.322-.176.615-.44.849-.732.234-.293.38-.615.498-.995.117-.351.175-.702.175-1.054s-.058-.702-.175-1.053-.264-.703-.498-.996a3.404 3.404 0 00-.849-.731 2.728 2.728 0 00-2.43 0 2.52 2.52 0 00-.848.731c-.234.293-.41.615-.497.996-.118.35-.176.702-.176 1.053s.058.732.176 1.054c.117.351.292.673.497.995.234.293.527.556.849.732.41.175.82.263 1.23.263zM45.102 1.502h2.43v4.713c.292-.235.585-.41.936-.556.527-.205 1.112-.322 1.668-.293.644 0 1.288.117 1.844.38.527.264.995.615 1.376 1.054.38.468.702.995.878 1.551.205.615.292 1.259.292 1.903 0 .702-.117 1.375-.38 2.048a4.877 4.877 0 01-2.78 2.78 5.406 5.406 0 01-2.254.41c-.761 0-1.551-.058-2.312-.204-.586-.117-1.142-.234-1.698-.44V1.504zm2.4 11.707c.205.059.38.117.585.147.322.029.644.058.966.058a3.27 3.27 0 001.288-.263c.351-.176.673-.41.937-.673.263-.293.468-.615.585-.995.117-.38.205-.761.205-1.171 0-.351-.03-.732-.146-1.054a3.192 3.192 0 00-.41-.907c-.176-.264-.44-.468-.732-.644-.322-.176-.702-.234-1.054-.234a2.193 2.193 0 00-1.668.556c-.38.41-.585.966-.556 1.551v3.63zM73.463 5.6l-2.43 6.585-2.75-6.585h-4.947V4.195c0-.497.176-.966.498-1.317a1.612 1.612 0 011.17-.468c.322.029.644.117.908.292l.614-2.078a2.155 2.155 0 00-.41-.117 6.813 6.813 0 00-1.55-.175c-3.103 0-3.513 2.517-3.513 3.834V5.6h-1.58v1.815h1.58v7.726h2.283V7.415h3.015l3.483 7.697s-.556 1.493-.79 1.815c-.937 1.17-1.99.556-2.05.497l-.41 1.756c.089.059.206.088.294.117.439.147.907.205 1.375.205a2.634 2.634 0 001.551-.41c.41-.263.761-.643 1.025-1.053.292-.44.527-.907.702-1.405.205-.498.38-.966.586-1.463l3.98-9.571h-2.634z"/><circle cx="56.985" cy="2.702" r="1.493"/><path d="M55.785 5.6h2.43v9.571h-2.43zM85.96 15.18c1.053 0 2.027-.133 2.92-.4s1.66-.677 2.3-1.23 1.14-1.247 1.5-2.08.54-1.81.54-2.93c0-1.16-.18-2.16-.54-3s-.86-1.537-1.5-2.09-1.403-.96-2.29-1.22-1.857-.39-2.91-.39h-4.46v13.34h4.44zm-.04-1.72h-2.48v-9.9h2.42c1.773 0 3.107.43 4 1.29s1.34 2.103 1.34 3.73c0 1.613-.463 2.83-1.39 3.65s-2.223 1.23-3.89 1.23zm13.32 2c.587 0 1.11-.063 1.57-.19s.86-.277 1.2-.45.617-.353.83-.54.373-.34.48-.46l-1.02-1.08c-.227.253-.593.513-1.1.78s-1.153.4-1.94.4c-.4 0-.78-.073-1.14-.22s-.68-.347-.96-.6-.503-.553-.67-.9-.257-.727-.27-1.14h7.34c0-.707-.087-1.387-.26-2.04s-.443-1.233-.81-1.74-.837-.913-1.41-1.22-1.26-.46-2.06-.46a4.53 4.53 0 00-4.3 2.95 5.307 5.307 0 00-.34 1.91c0 .747.117 1.427.35 2.04s.563 1.14.99 1.58.94.78 1.54 1.02 1.26.36 1.98.36zm2.46-5.74h-5.48c.013-.333.087-.657.22-.97s.32-.59.56-.83.53-.433.87-.58.723-.22 1.15-.22c.827 0 1.467.253 1.92.76s.707 1.12.76 1.84zm7.44 5.46l3.98-9.3h-1.94l-2.88 7.26-2.9-7.26h-2.06l4 9.3h1.8zm11.04.32c.693 0 1.327-.093 1.9-.28s1.08-.417 1.52-.69.813-.563 1.12-.87.533-.58.68-.82l-1.34-1.12c-.133.147-.297.33-.49.55s-.44.437-.74.65-.667.397-1.1.55-.95.23-1.55.23c-.707 0-1.347-.133-1.92-.4s-1.06-.633-1.46-1.1-.71-1.017-.93-1.65c-.22-.633-.33-1.31-.33-2.03s.107-1.4.32-2.04.523-1.2.93-1.68.9-.86 1.48-1.14 1.237-.42 1.97-.42c.52 0 .98.067 1.38.2s.753.3 1.06.5.57.423.79.67.41.483.57.71l1.36-1.16c-.187-.28-.43-.573-.73-.88s-.66-.59-1.08-.85-.91-.477-1.47-.65-1.193-.26-1.9-.26c-1 0-1.91.183-2.73.55s-1.523.87-2.11 1.51-1.043 1.387-1.37 2.24-.49 1.767-.49 2.74c0 1 .163 1.923.49 2.77s.783 1.58 1.37 2.2 1.287 1.103 2.1 1.45 1.713.52 2.7.52zm10.86-.04c.587 0 1.11-.063 1.57-.19s.86-.277 1.2-.45.617-.353.83-.54.373-.34.48-.46l-1.02-1.08c-.227.253-.593.513-1.1.78s-1.153.4-1.94.4c-.4 0-.78-.073-1.14-.22s-.68-.347-.96-.6-.503-.553-.67-.9-.257-.727-.27-1.14h7.34c0-.707-.087-1.387-.26-2.04s-.443-1.233-.81-1.74-.837-.913-1.41-1.22-1.26-.46-2.06-.46a4.53 4.53 0 00-4.3 2.95 5.307 5.307 0 00-.34 1.91c0 .747.117 1.427.35 2.04s.563 1.14.99 1.58.94.78 1.54 1.02 1.26.36 1.98.36zm2.46-5.74h-5.48c.013-.333.087-.657.22-.97s.32-.59.56-.83.53-.433.87-.58.723-.22 1.15-.22c.827 0 1.467.253 1.92.76s.707 1.12.76 1.84zm4.96 5.46v-4.32c0-.453.047-.897.14-1.33s.243-.82.45-1.16.483-.617.83-.83.78-.32 1.3-.32c.68 0 1.207.203 1.58.61s.56 1.043.56 1.91v5.44h1.8V9.6c0-1.213-.293-2.173-.88-2.88s-1.487-1.06-2.7-1.06c-.427 0-.81.053-1.15.16s-.637.24-.89.4-.467.337-.64.53-.32.37-.44.53l-.06-1.4h-1.72c.013.333.02.65.02.95v8.35h1.8zm12.04.26c.56 0 1.043-.083 1.45-.25s.803-.437 1.19-.81l-.82-1.1c-.227.213-.453.373-.68.48s-.513.16-.86.16c-.427 0-.757-.14-.99-.42s-.35-.793-.35-1.54V7.38h2.72v-1.5h-2.72V2.84h-1.8v3.04h-1.68v1.5h1.68v4.76c0 1.133.23 1.967.69 2.5s1.183.8 2.17.8zm7.72.02c.587 0 1.11-.063 1.57-.19s.86-.277 1.2-.45.617-.353.83-.54.373-.34.48-.46l-1.02-1.08c-.227.253-.593.513-1.1.78s-1.153.4-1.94.4c-.4 0-.78-.073-1.14-.22s-.68-.347-.96-.6-.503-.553-.67-.9-.257-.727-.27-1.14h7.34c0-.707-.087-1.387-.26-2.04s-.443-1.233-.81-1.74-.837-.913-1.41-1.22-1.26-.46-2.06-.46a4.53 4.53 0 00-4.3 2.95 5.307 5.307 0 00-.34 1.91c0 .747.117 1.427.35 2.04s.563 1.14.99 1.58.94.78 1.54 1.02 1.26.36 1.98.36zm2.46-5.74h-5.48c.013-.333.087-.657.22-.97s.32-.59.56-.83.53-.433.87-.58.723-.22 1.15-.22c.827 0 1.467.253 1.92.76s.707 1.12.76 1.84zm4.96 5.46v-4.9a2.96 2.96 0 01.78-2.01 2.578 2.578 0 011.92-.83c.373 0 .68.047.92.14l.4-1.68c-.147-.053-.303-.093-.47-.12s-.35-.04-.55-.04c-.427 0-.803.057-1.13.17s-.613.25-.86.41-.457.337-.63.53-.313.37-.42.53l-.06-1.5h-1.72c.013.307.02.603.02.89v8.41h1.8z"/></g></svg>