<svg width="140" height="36" xmlns="http://www.w3.org/2000/svg"><g fill-rule="nonzero" fill="none"><path d="M20.757 23.707s-5.109-5.321-8.228-6.173C9.41 16.63 2.26 18.545 2.26 18.545l.967 5.11h7.529l6.506 3.99 3.496-3.938z" fill="#F48332"/><path d="M22.209 12.692l.268-7.557-5.27-1.01s-2.097 7.024-1.29 10.163c.753 3.087 6.023 8.302 6.023 8.302l4.14-3.353-3.871-6.545z" fill="#DB1E3E"/><path d="M10.647 1.836L6.83 8.38.161 11.947l1.721 5.002s7.206-1.703 9.518-3.991c2.366-2.182 4.302-9.313 4.302-9.313l-5.055-1.81z" fill="#0288A7"/><path d="M10.755 23.654H20.81s-5.108-5.321-8.227-6.173c-3.119-.905-10.27 1.011-10.27 1.011l8.442 5.162z" fill="#EF4B34"/><path d="M22.209 12.692l-5.001-8.568s-2.098 7.025-1.291 10.164c.753 3.087 6.023 8.302 6.023 8.302l.269-9.898z" fill="#B41F24"/><path d="M6.83 8.381L1.881 16.95s7.206-1.703 9.518-3.991c2.366-2.182 4.302-9.313 4.302-9.313L6.829 8.381z" fill="#005C82"/><path fill="#000" d="M35.867 2.368h4.41l6.936 11.76 6.83-11.76h4.41l.86 24.852h-4.625l-.484-17.189-6.023 10.11h-2.204L39.9 10.245l-.376 16.922H35.06zM61.517 18.439a9.42 9.42 0 01.7-3.619c.913-2.235 2.688-4.044 4.946-4.949a10.126 10.126 0 017.69 0 9.638 9.638 0 013.011 2.023 8.419 8.419 0 011.936 2.98 9.574 9.574 0 01-1.936 10.164 9.638 9.638 0 01-3.01 2.022 10.126 10.126 0 01-7.69 0 9.638 9.638 0 01-3.012-2.022 9.515 9.515 0 01-2.635-6.599zm9.464 5.588c.753 0 1.56-.16 2.205-.48.592-.319 1.13-.798 1.56-1.33.43-.532.699-1.117.914-1.809a5.97 5.97 0 00.322-1.916 5.97 5.97 0 00-.322-1.916c-.215-.638-.484-1.277-.914-1.809-.43-.532-.968-.958-1.56-1.33a5.059 5.059 0 00-4.463 0c-.592.32-1.13.745-1.56 1.33-.43.532-.752 1.118-.914 1.81a5.97 5.97 0 00-.322 1.915c0 .639.107 1.33.322 1.916.215.639.538 1.224.914 1.81.43.531.968 1.01 1.56 1.33.753.319 1.506.479 2.258.479zM82.865 2.368h4.464v8.568a6.947 6.947 0 011.72-1.011c.968-.373 2.044-.586 3.065-.533 1.183 0 2.367.213 3.388.692A8.12 8.12 0 0198.03 12c.699.851 1.29 1.81 1.613 2.82.376 1.118.538 2.289.538 3.46a9.953 9.953 0 01-.7 3.724 8.77 8.77 0 01-1.99 3.034 8.971 8.971 0 01-3.118 2.022c-1.29.532-2.743.798-4.14.745-1.399 0-2.85-.107-4.249-.373-1.075-.212-2.097-.425-3.119-.798V2.368zm4.41 21.286c.376.107.699.213 1.075.266.592.053 1.183.107 1.775.107.806 0 1.613-.16 2.366-.48a6.688 6.688 0 001.72-1.223c.485-.532.861-1.118 1.076-1.81.215-.691.377-1.383.377-2.128 0-.639-.054-1.33-.27-1.916a5.775 5.775 0 00-.752-1.65c-.323-.479-.807-.851-1.345-1.17-.591-.32-1.29-.426-1.935-.426-1.13-.106-2.205.266-3.065 1.011a3.826 3.826 0 00-1.022 2.82v6.6zM134.972 9.818l-4.463 11.974-5.055-11.974h-9.088V7.264c0-.905.323-1.756.915-2.395.591-.585 1.344-.851 2.15-.851.592.053 1.184.213 1.668.532l1.129-3.778a3.993 3.993 0 00-.753-.213 12.643 12.643 0 00-2.85-.32c-5.7 0-6.453 4.577-6.453 6.972v2.607h-2.904v3.3h2.904v14.048h4.194V13.118h5.54l6.398 13.995s-1.021 2.714-1.452 3.3c-1.72 2.128-3.656 1.01-3.764.904l-.753 3.193c.162.106.377.16.538.213.807.266 1.667.372 2.527.372a4.878 4.878 0 002.85-.745c.753-.479 1.399-1.17 1.883-1.915.537-.799.967-1.65 1.29-2.555.377-.904.7-1.756 1.076-2.66l7.313-17.402h-4.84z"/><ellipse fill="#000" cx="104.698" cy="4.55" rx="2.742" ry="2.714"/><path fill="#000" d="M102.493 9.818h4.463V27.22h-4.463z"/></g></svg>