<svg width="30" height="30" xmlns="http://www.w3.org/2000/svg"><g fill="none" fill-rule="evenodd"><path d="M10.21 0h9.58c3.45 0 4.42 0 5.91.5a6.38 6.38 0 0 1 3.8 3.8c.5 1.49.5 2.46.5 5.91v9.58c0 3.45 0 4.42-.5 5.91a6.38 6.38 0 0 1-3.8 3.8c-1.49.5-2.46.5-5.91.5H10.2c-3.45 0-4.42 0-5.91-.5a6.38 6.38 0 0 1-3.8-3.8C0 24.21 0 23.24 0 19.8v-9.6c0-3.44 0-4.4.5-5.9A6.38 6.38 0 0 1 4.3.5C5.79 0 6.76 0 10.2 0" fill="#9A9A9A" style="mix-blend-mode:darken"/><path fill="#FFF" d="M16.16 16.16V23h-2.32v-6.84H7v-2.32h6.84V7h2.32v6.84H23v2.32z"/></g></svg>