<svg width="16" height="16" viewBox="0 0 16 16" xmlns="http://www.w3.org/2000/svg"><title>[icon]/basket/dark</title><path d="M10.834 5.498L8.697 3.36a.25.25 0 0 1 0-.359l.93-.93a.258.258 0 0 1 .359.001l3.424 3.425h2.226c.202 0 .364.161.364.363v1.455a.362.362 0 0 1-.364.364H.364A.362.362 0 0 1 0 7.316V5.86c0-.202.162-.363.364-.363H2.59l3.424-3.425c.1-.1.264-.095.36 0l.929.93a.25.25 0 0 1 0 .358L5.166 5.498h5.668zm-9.38 3.636l1.091 4.92c.02.097.182.171.364.171h10.182c.182 0 .343-.074.364-.17l1.09-4.92H1.455z" fill="currentColor" fill-rule="evenodd"/></svg>