<svg width="100" height="60" viewBox="0 0 100 60" xmlns="http://www.w3.org/2000/svg"><rect fill="#EEE" width="100" height="60" rx="4"/><path fill="#616161" d="M0 19h100V7H0z"/><path d="M70.651 49v-3.418l6.536-5.346c1.276-1.057 2.157-1.91 2.645-2.556a3.484 3.484 0 0 0 .731-2.147c0-.811-.239-1.438-.717-1.88-.479-.442-1.115-.663-1.908-.663-.729 0-1.387.203-1.975.609-.588.405-1.265 1.077-2.03 2.016l-3.022-2.433c1.03-1.413 2.087-2.443 3.172-3.09 1.085-.647 2.46-.97 4.129-.97 2.078 0 3.723.55 4.935 1.653 1.213 1.103 1.819 2.575 1.819 4.416 0 .812-.098 1.536-.294 2.174-.196.638-.533 1.265-1.012 1.88a12.966 12.966 0 0 1-1.552 1.675 42.102 42.102 0 0 1-2.296 1.887l-3.186 2.474h8.531V49H70.651z"/><path fill="#78909C" opacity=".2" d="M7 37h48.8V27H7z"/></svg>