<svg width="100" height="60" viewBox="0 0 100 60" xmlns="http://www.w3.org/2000/svg"><title>jcb</title><g fill="none" fill-rule="evenodd"><rect fill="#FFF" width="100" height="60" rx="4"/><path d="M63.165 30.82h3.895a2.21 2.21 0 0 1 .194.012 3.278 3.278 0 0 1 .232.032l.025.006a1.578 1.578 0 0 1 .322.11 1.698 1.698 0 0 1 .58.43 1.74 1.74 0 0 1 .43 1.17 1.86 1.86 0 0 1-.109.629 1.732 1.732 0 0 1-.644.826 1.679 1.679 0 0 1-.579.254l-.025.006a.82.82 0 0 1-.104.017 2.732 2.732 0 0 1-.322.026h-3.895V30.82zm5.183-3.982a1.748 1.748 0 0 1-.129 1.116 1.53 1.53 0 0 1-.643.667 1.604 1.604 0 0 1-.515.182l-.016.003a1.067 1.067 0 0 1-.113.014 3.567 3.567 0 0 1-.257.016h-3.51v-3.247h3.537l.037.001a2.749 2.749 0 0 1 .257.02l.05.007.015.003a1.615 1.615 0 0 1 .386.119 1.77 1.77 0 0 1 .257.143 1.56 1.56 0 0 1 .644.956zM76.33 10h.027v33.349a6.746 6.746 0 0 1-.477 2.48 6.555 6.555 0 0 1-.708 1.315 6.873 6.873 0 0 1-.387.505l-.064.075-.064.073a6.764 6.764 0 0 1-.13.14l-.064.066-.064.066-.064.063-.065.062a6.83 6.83 0 0 1-.386.338l-.064.052-.065.05-.064.05c-.021.015-.043.03-.064.047l-.065.047-.064.045-.065.044a.894.894 0 0 1-.064.043l-.064.043-.065.04a6.18 6.18 0 0 1-.128.08l-.065.038-.064.037-.065.036-.064.036-.064.034-.065.034-.064.032-.065.032-.064.03-.064.03-.065.03-.064.028-.064.028-.065.026-.064.026-.065.025-.064.025-.064.023-.065.023-.064.023-.064.02-.065.022-.064.02-.065.019-.064.018-.064.018-.065.017-.064.016-.064.016-.065.015-.064.015-.065.014-.064.012-.064.013-.065.012-.064.01-.064.011-.065.01-.064.009-.065.009-.064.007-.064.008-.065.006-.064.006-.064.006-.065.004-.064.004-.065.004-.064.003-.064.002-.065.002h-.064l-.064.001h-9.796V36.422h10.439l.065-.002c.021 0 .043 0 .064-.002l.064-.002.065-.003.064-.004.065-.005.064-.005.064-.006.065-.006.064-.007.064-.008.065-.008.064-.01.065-.01.064-.01.064-.012.065-.012.064-.014.064-.014.065-.014.064-.016a4.931 4.931 0 0 0 .258-.071l.064-.02a4.127 4.127 0 0 0 .193-.067l.065-.024.064-.025.064-.027a4.096 4.096 0 0 0 1.03-.627 3.286 3.286 0 0 0 .515-.561 2.981 2.981 0 0 0 .451-.976 3.012 3.012 0 0 0 .093-.765 3.026 3.026 0 0 0-.093-.741 2.732 2.732 0 0 0-.58-1.103 3.078 3.078 0 0 0-.579-.529 3.747 3.747 0 0 0-.644-.374 4.143 4.143 0 0 0-.193-.084 4.866 4.866 0 0 0-.129-.05c-.02-.01-.042-.017-.064-.025a5.697 5.697 0 0 0-.257-.084l-.065-.02a4.963 4.963 0 0 0-.386-.095l-.064-.013-.065-.012-.064-.012a4.908 4.908 0 0 0-.064-.01l-.065-.01a5.055 5.055 0 0 0-.064-.01l-.065-.009-.064-.008-.064-.007-.065-.007-.064-.006-.064-.005-.06-.005v-.077l.06-.01.064-.01.064-.011.065-.012.064-.014.064-.014a4.55 4.55 0 0 0 .709-.223 3.703 3.703 0 0 0 .772-.436 3.012 3.012 0 0 0 .901-1.09 2.812 2.812 0 0 0 .258-.932 3.044 3.044 0 0 0 0-.633 2.963 2.963 0 0 0-.129-.617 2.707 2.707 0 0 0-.322-.658 2.64 2.64 0 0 0-.386-.454 2.843 2.843 0 0 0-.386-.312 3.456 3.456 0 0 0-.58-.322 4.407 4.407 0 0 0-.515-.192l-.064-.019a4.742 4.742 0 0 0-.129-.035l-.064-.016a4.728 4.728 0 0 0-.129-.03l-.064-.014-.065-.013-.064-.012-.064-.011-.065-.011-.064-.01-.065-.009-.064-.008-.064-.008-.065-.007-.064-.006-.064-.006-.065-.005-.064-.005-.065-.003-.025-.002-.039-.002-.064-.004-.065-.003-.064-.004-.064-.003-.065-.003-.064-.002-.065-.002-.064-.001-.064-.001h-9.474V16.67a6.699 6.699 0 0 1 .59-2.745 6.615 6.615 0 0 1 .579-1.027l.064-.093a7.042 7.042 0 0 1 .13-.174c.02-.028.042-.056.064-.083a6.011 6.011 0 0 1 .129-.158c.02-.026.042-.051.064-.077l.064-.072.064-.072a7.15 7.15 0 0 1 .258-.266l.064-.063.065-.06.064-.06.064-.056a7.138 7.138 0 0 1 .258-.216l.064-.05.065-.05a6.964 6.964 0 0 1 .128-.095l.065-.046.064-.044.065-.044.064-.042.064-.042.065-.04.064-.04.064-.038.065-.038.064-.036.065-.036.064-.034.064-.034.065-.032.064-.032.064-.031.065-.03.064-.03.065-.028a.729.729 0 0 1 .064-.028c.021-.01.043-.018.064-.027l.065-.026.064-.026.064-.024.065-.024.064-.023.065-.023.064-.02.064-.022.065-.02.064-.02.065-.018.064-.018.064-.017.065-.017.064-.016.064-.015.065-.015.064-.014.065-.013.064-.012.064-.013.065-.01.064-.011.064-.01.065-.01.064-.008.065-.008.064-.007.064-.007.065-.006.064-.006.064-.005.065-.004.064-.004.065-.003.064-.002.064-.002h.065l.064-.002h9.785z" fill="#54B230"/><path d="M23 33.142V16.67a6.698 6.698 0 0 1 .588-2.742 6.891 6.891 0 0 1 .514-.93l.064-.096.065-.093c.02-.03.042-.059.064-.088a6.78 6.78 0 0 1 .064-.086l.064-.084.065-.08a6.406 6.406 0 0 1 .128-.154l.064-.073.065-.072.064-.069a6.4 6.4 0 0 1 .128-.133l.065-.063c.021-.021.042-.043.064-.063l.064-.06.064-.06.065-.057.064-.056.064-.054a6.187 6.187 0 0 1 .322-.253l.064-.047a6.094 6.094 0 0 1 .257-.177l.064-.041.064-.04.065-.04.064-.038.064-.038.064-.036.065-.036.064-.034.064-.034a6.6 6.6 0 0 1 .064-.033l.065-.032.064-.031.064-.03.065-.03c.02-.01.042-.019.064-.028l.064-.028c.021-.01.043-.018.064-.027l.065-.026.064-.026.064-.024.064-.024.065-.023.064-.023.064-.021.064-.021.065-.02.064-.02.064-.019.064-.018.065-.017.064-.017.064-.015.065-.016.064-.015.064-.013.064-.014.065-.012.064-.013.064-.01.064-.011c.022-.004.043-.008.065-.01l.064-.01.064-.009.064-.008.065-.007.064-.008.064-.005.064-.006.065-.005.064-.004.064-.004.064-.003.065-.003.064-.002h.064L29.63 10h9.82v33.349a6.737 6.737 0 0 1-.312 2.02 6.674 6.674 0 0 1-1.35 2.384l-.063.072-.065.07-.064.068a6.794 6.794 0 0 1-.257.254l-.064.06c-.021.02-.043.038-.065.057a.868.868 0 0 1-.064.057c-.02.019-.043.037-.064.055l-.064.054-.065.052-.064.051-.064.05-.064.048-.065.047-.064.047-.064.044-.064.045-.065.042-.064.042-.064.04-.064.04-.065.039-.064.038-.064.036a5.806 5.806 0 0 1-.129.07l-.064.035-.064.033-.065.032-.064.032-.064.03-.064.03-.065.028-.064.028-.064.028-.064.026-.065.026-.064.024-.064.025-.064.023-.065.023-.064.022-.064.02-.064.021-.065.02-.064.019-.064.018-.065.017-.064.018-.064.015-.064.016-.065.015-.064.014-.064.014-.064.012-.065.013-.064.011-.064.01-.064.011-.065.01-.064.009-.064.008-.064.007-.065.008-.064.006-.064.006-.065.005-.064.004-.064.004-.064.004-.065.002-.064.003-.064.001h-.064l-.06.002H23V35.962l.138.036.064.016.065.016.064.015.064.016.064.015.065.014.064.015.064.014.064.014.065.014.064.014.064.013.064.014.065.013.064.013.064.013.065.013.064.012.064.012.064.013.065.012.064.012.064.011.064.012.065.011.064.012.064.01.064.012.065.01.064.011.064.01.064.011.065.01.064.01.064.01.064.01.065.01.064.01.064.009.065.01.064.008.064.01.064.008.065.009.064.009.064.008.064.008.065.008.064.008.064.008.064.008.065.008.064.007.064.007.064.008.065.007.064.007.064.006.065.007.064.006.064.007.064.006.065.006.064.006.064.006.064.006.065.005.064.005.064.006.064.005.065.005.064.005.064.004.064.005.065.004.064.004.064.005.065.004.064.003.064.004.064.004.065.003.064.003.064.003.064.003.065.003.064.003.064.003.064.002.065.002.064.002.064.002.064.002.065.002.064.001.064.002h.064l.065.002h.064l.064.001.065.001h.514l.064-.002.064-.001.064-.001.065-.002.064-.001.064-.002.064-.002.065-.002.064-.002.064-.003.065-.003.064-.003.064-.003.064-.003.065-.004.064-.004.064-.003.064-.005.065-.004.064-.005.064-.004.064-.006.065-.005.064-.006.064-.005.064-.006.065-.007.064-.006.064-.007.065-.007.064-.008.064-.007.064-.008.065-.008.064-.009.064-.008.064-.009.065-.01.064-.01.064-.009.064-.01.065-.011.064-.01.064-.012.064-.012.065-.012.064-.012.064-.012.064-.013.065-.014.064-.013.064-.015.065-.014.064-.015.064-.015.064-.016.065-.016.064-.017.064-.017.064-.017.065-.018.064-.019.064-.019.064-.02.065-.02.064-.02.064-.021.064-.022.065-.022.064-.023.064-.023.065-.024.064-.025.064-.025.064-.027.065-.027c.02-.009.043-.017.064-.027l.064-.028.064-.03.065-.03.064-.03.064-.031.064-.033.065-.033.064-.035a6.082 6.082 0 0 0 .193-.11l.064-.038.064-.04.065-.04.064-.044.064-.043.064-.046.065-.046.064-.049a4.756 4.756 0 0 0 .193-.155l.064-.055.064-.059.064-.059a4.216 4.216 0 0 0 .129-.128l.064-.067.064-.071a4.154 4.154 0 0 0 .579-.839 4.293 4.293 0 0 0 .321-.796 4.939 4.939 0 0 0 .129-.54 6.709 6.709 0 0 0 .096-1.125v-7.738h-5.687l-.049 7.738a4.071 4.071 0 0 1-.08.793 3.444 3.444 0 0 1-.192.617 3.061 3.061 0 0 1-.386.658 2.86 2.86 0 0 1-.578.56 3.095 3.095 0 0 1-.772.413 3.798 3.798 0 0 1-.32.104l-.065.018a3.901 3.901 0 0 1-.386.08l-.064.01a4.78 4.78 0 0 1-.129.017l-.064.007-.064.006-.064.005a4.92 4.92 0 0 1-.129.009l-.064.003c-.021 0-.043 0-.064.002l-.065.001H28.6l-.064-.002-.064-.002-.064-.002-.065-.002-.064-.003-.064-.004-.064-.003-.065-.005-.064-.004-.064-.005-.065-.005-.064-.006-.064-.006-.064-.007-.065-.007-.064-.007-.064-.008-.064-.008-.065-.009-.064-.009-.064-.009-.064-.01-.065-.01-.064-.01-.064-.01-.064-.012-.065-.012-.064-.011-.064-.013-.065-.012-.064-.013-.064-.014-.064-.014-.065-.014-.064-.014-.064-.015-.064-.015-.065-.016-.064-.016-.064-.016-.064-.017-.065-.017-.064-.017-.064-.017-.064-.018-.065-.019-.064-.018-.064-.02-.065-.019-.064-.02-.064-.02-.064-.02-.065-.02-.064-.022-.064-.021-.064-.022-.065-.022-.064-.022-.064-.023-.064-.023-.065-.023-.064-.023-.064-.024-.064-.025-.065-.024-.064-.025-.064-.025-.064-.026-.065-.025-.064-.026-.064-.027-.065-.026-.064-.027-.064-.028-.064-.027-.065-.028-.064-.028-.064-.029-.064-.028-.065-.03-.064-.028-.064-.03-.064-.03-.065-.03-.064-.03a25.057 25.057 0 0 1-.138-.067z" fill="#006CB9"/><path d="M41.59 25.288a6.048 6.048 0 0 0-.138.114V16.67a6.7 6.7 0 0 1 .588-2.741 6.611 6.611 0 0 1 .579-1.027l.064-.092.064-.089.064-.085.065-.084c.02-.027.043-.053.064-.08a6.487 6.487 0 0 1 .129-.154c.02-.025.042-.049.064-.073l.064-.072a6.548 6.548 0 0 1 .129-.136.997.997 0 0 1 .064-.066l.064-.064.064-.063.065-.06c.02-.02.042-.04.064-.059l.064-.057.064-.056.065-.055a7.75 7.75 0 0 1 .321-.253 6.186 6.186 0 0 1 .321-.223l.065-.042.064-.04.064-.04.064-.038.065-.038.064-.036.064-.036.064-.034.065-.034.064-.033.064-.031.065-.032.064-.03.064-.03.064-.028.065-.028.064-.027.064-.026.064-.025.065-.025.064-.024.064-.023.064-.022.065-.022.064-.02a.796.796 0 0 1 .064-.021l.065-.02.064-.019.064-.017.064-.018.065-.017.064-.015.064-.016.064-.014.065-.014.064-.014.064-.012.064-.013.065-.01.064-.011.064-.01.065-.01.064-.009.064-.008.064-.007.065-.007c.02-.003.042-.004.064-.006l.064-.006.064-.005.065-.004.064-.004.064-.003.064-.003.065-.002h.064l.064-.002h9.823v33.35a6.73 6.73 0 0 1-.311 2.02 6.67 6.67 0 0 1-.772 1.623c-.02.033-.042.065-.064.097a6.977 6.977 0 0 1-.321.434l-.064.08-.065.076-.064.074-.064.072-.065.07-.064.068-.064.066a6.645 6.645 0 0 1-.193.188l-.064.06-.064.057-.065.057-.064.055-.064.054-.064.051-.065.052-.064.049-.064.049-.065.047-.064.046-.064.045-.064.044-.065.043-.064.042-.064.04-.064.04-.065.038-.064.038a6.892 6.892 0 0 1-.064.037l-.064.036-.065.035-.064.034-.064.033-.065.032-.064.032-.064.03-.064.03-.065.028-.064.028-.064.028-.064.026-.065.026-.064.024-.064.025-.064.023-.065.022-.064.022c-.021.008-.043.014-.064.021-.022.007-.043.015-.065.021l-.064.02-.064.019-.064.018-.065.017-.064.018-.064.015-.064.016-.065.015-.064.014-.064.014-.064.012-.065.012-.064.012-.064.01-.065.011-.064.01-.064.009-.064.008-.065.007-.064.008-.064.006-.064.006-.065.005-.064.004-.064.005-.064.003-.065.002-.064.003-.064.001h-.064l-.06.002h-9.783v-15.4a6.188 6.188 0 0 0 .267.216l.064.049.064.047a6.596 6.596 0 0 0 .129.091l.064.044a6.4 6.4 0 0 0 .065.043l.064.042.064.041.064.04.065.04.064.037.064.037.064.037.065.036.064.034.064.035.064.033.065.032.064.032.064.031.065.031.064.03.064.03.064.028.065.028.064.027.064.027.064.026.065.026.064.025.064.025.064.024.065.023.064.024.064.022.065.023.064.021.064.022.064.02.065.02.064.02.064.02.064.02.065.018.064.018.064.018.064.018.065.017.064.017.064.016.064.016.065.016.064.015.064.015.065.015.064.014.064.014.064.014.065.013.064.014.064.012.064.013.065.012.064.012.064.011.064.012.065.01.064.011.064.01.065.011.064.01.064.01.064.01.065.008.064.01.064.008.064.008.065.009.064.007.064.008.064.008.065.007.064.007.064.007.065.006.064.007.064.006.064.006.065.005.064.006.064.005.064.005.065.005.064.005.064.004.064.005.065.004.064.004.064.003.064.004.065.003.064.003.064.004.065.002.064.003.064.002.064.003.065.002.064.002.064.001.064.002.065.002h.064l.064.002h.064l.065.002h.128l.065.001h.321l.064-.001.064-.001h.065l.064-.002.064-.001.064-.001.065-.002.064-.001.064-.002.065-.002.064-.002.064-.002.064-.002.065-.003.064-.002.064-.003.064-.003h.032l.033-.002.064-.004.064-.003.064-.004.065-.003.064-.004.064-.005.065-.004.064-.005.064-.005.064-.005.065-.005.064-.005.064-.006.064-.006.065-.006.064-.006.064-.007.064-.006.065-.007.064-.007.064-.007.064-.007.065-.008.064-.007.064-.008.065-.008.064-.008.064-.008.064-.008.065-.009.064-.009.064-.008.064-.01.065-.008.064-.01.064-.009.064-.01.065-.01.064-.009.064-.01.065-.01.064-.01.064-.01.064-.011.065-.01.064-.011.064-.011.064-.011.065-.012.064-.01.064-.012.064-.012.065-.011.064-.012.064-.012.065-.012.064-.012.064-.012.064-.013.065-.012.064-.013.064-.013.064-.013.065-.013.064-.013.064-.013.064-.014.065-.013.064-.014.064-.014.065-.014.064-.014.064-.014.064-.014.065-.015.064-.015.064-.015.064-.015.065-.015.064-.015.064-.016v-2.822l-.064.032-.064.032-.065.031-.064.032-.064.03-.064.031-.065.03-.064.03-.064.03-.064.03-.065.028-.064.029-.064.028-.065.028-.064.028-.064.027-.064.027-.065.027-.064.026-.064.026-.064.026-.065.025-.064.025-.064.024-.064.024-.065.024-.064.024-.064.023-.065.022-.064.023-.064.022-.064.021-.065.022-.064.02-.064.021-.064.02-.065.02-.064.02-.064.019-.064.018-.065.019-.064.017-.064.018-.065.017-.064.017-.064.017-.064.016-.065.015-.064.016-.064.015-.064.015-.065.014-.064.014-.064.014-.064.013-.065.013-.064.012-.064.012-.065.012-.064.012-.064.01-.064.011-.065.01-.064.011-.064.01-.064.009-.065.009-.064.009-.064.008-.064.008-.065.008-.064.007-.064.007-.064.006-.065.007-.064.006-.064.005-.065.006-.039.003-.025.001-.064.005-.064.004-.065.003-.064.004-.064.003-.064.002-.065.002-.064.001-.064.001-.064.001h-.129l-.064-.001-.065-.002-.064-.001-.064-.003-.064-.003-.065-.003-.064-.004-.064-.005-.064-.005-.065-.005-.064-.006-.064-.007-.064-.007-.065-.008-.064-.009-.064-.009-.065-.01-.064-.01-.064-.01-.064-.013-.065-.012-.064-.013-.064-.014-.064-.014-.065-.015-.064-.017-.064-.016-.064-.018a4.73 4.73 0 0 1-.258-.08l-.064-.021-.064-.023-.064-.024-.065-.025-.064-.026-.064-.027-.064-.028-.065-.03a5.481 5.481 0 0 1-.192-.095.803.803 0 0 1-.065-.034l-.064-.036-.064-.037a4.766 4.766 0 0 1-.129-.079l-.064-.041-.064-.044a3.967 3.967 0 0 1-.065-.046c-.021-.015-.043-.03-.064-.047l-.064-.05a4.297 4.297 0 0 1-.064-.05l-.065-.054a3.827 3.827 0 0 1-.192-.177l-.065-.063a3.674 3.674 0 0 1-.321-.376 3.752 3.752 0 0 1-.386-.632 4.201 4.201 0 0 1-.257-.658 4.744 4.744 0 0 1-.128-.54 5.535 5.535 0 0 1-.064-.472 6.256 6.256 0 0 1 .064-1.626 5.077 5.077 0 0 1 .128-.54 4.636 4.636 0 0 1 .257-.659 3.991 3.991 0 0 1 .515-.793 3.57 3.57 0 0 1 .385-.398l.064-.057.065-.053a4.3 4.3 0 0 1 .257-.194l.064-.044.064-.041a3.942 3.942 0 0 1 .129-.08l.064-.036.064-.037.065-.034a4.843 4.843 0 0 1 .128-.064l.064-.03.065-.03c.02-.01.042-.019.064-.028l.064-.028.064-.025.065-.026.064-.023.064-.023.064-.022a5.67 5.67 0 0 1 .193-.06l.065-.02.064-.017.064-.017.064-.016.065-.015.064-.015.064-.013.064-.014.065-.012.064-.012.064-.01.064-.011.065-.01.064-.009.064-.008.065-.008.064-.008.064-.006.064-.007.065-.005.064-.005.064-.004.064-.004.065-.004.064-.002.064-.003.064-.002.065-.001.064-.001h.193l.064.001.064.002.065.002.064.002.064.003.064.003.065.004.064.004.064.004.025.002.04.003.064.005.064.006.064.006.065.006.064.006.064.007.064.007.065.008.064.008.064.008.064.008.065.01.064.008.064.01.064.01.065.01.064.01.064.012.064.011.065.012.064.012.064.012.065.013.064.013.064.014.064.014.065.014.064.014.064.015.064.016.065.015.064.016.064.017.064.017.065.017.064.017.064.018.065.019.064.018.064.02.064.019.065.02.064.02.064.02.064.021.065.021.064.022.064.022.064.022.065.023.064.023.064.024.065.024.064.024.064.025.064.025.065.025.064.026.064.026.064.026.065.027.064.027.064.028.064.028.065.028.064.028.064.03.065.028.064.03.064.03.064.03.065.03.064.031.064.032.064.031.065.032.064.032.064.032v-2.823l-.064-.016-.064-.016-.065-.015-.064-.015-.064-.015-.064-.015-.065-.014-.064-.015-.064-.014-.064-.014-.065-.014-.064-.014-.064-.013-.065-.014-.064-.013-.064-.013-.064-.014-.065-.013-.064-.013-.064-.012-.064-.013-.065-.013-.064-.012-.064-.012-.064-.012-.065-.012-.064-.012-.064-.012-.065-.012-.064-.011-.064-.011-.064-.012-.065-.01-.064-.012-.064-.01-.064-.011-.065-.011-.064-.01-.064-.01-.064-.011-.065-.01-.064-.01-.064-.01-.065-.01-.064-.009-.064-.01-.064-.009-.065-.009-.064-.009-.064-.008-.064-.009-.065-.009-.064-.008-.064-.008-.064-.008-.065-.008-.064-.008-.064-.007-.065-.008-.064-.007-.064-.007-.064-.007L52 23.35l-.064-.006-.064-.006-.064-.007-.065-.006-.064-.005-.064-.006-.064-.005-.065-.006-.064-.005-.064-.005-.064-.004-.065-.005-.064-.004-.064-.004-.065-.004-.064-.003-.064-.004-.064-.003-.033-.001-.032-.001-.064-.003-.064-.003-.064-.002-.065-.003-.064-.002-.064-.002-.064-.002-.065-.002-.064-.002-.064-.001-.065-.002h-.064l-.064-.002-.064-.001-.065-.001h-.064l-.064-.001h-.064l-.065-.001h-.321l-.064.001-.065.001-.064.001-.064.001-.064.001-.065.002-.064.002-.064.001-.064.002-.065.002-.064.003-.064.002-.064.003-.065.002-.064.004-.064.003-.065.003-.064.004-.064.003-.064.004-.065.004-.064.005-.064.004-.064.005-.065.005-.064.005-.064.005-.064.006-.065.005-.064.006-.064.006-.064.007-.065.006-.064.007-.064.007-.065.007-.064.008-.064.008-.064.008-.065.008-.064.008-.064.009-.064.009-.065.009-.064.01-.064.01-.064.009-.065.01-.064.01-.064.012-.065.01-.064.012-.064.012-.064.011-.065.013-.064.012-.064.013-.064.013-.065.013-.064.014-.064.014-.064.014-.065.015-.064.015-.064.016-.065.015-.064.016-.064.017-.064.017-.065.017-.064.017-.064.018-.064.019-.065.018-.064.02-.064.019-.064.02-.065.02-.064.021-.064.021-.064.022-.065.022-.064.023-.064.023-.065.024-.064.024-.064.024-.064.026-.065.025-.064.027-.064.027-.064.027-.065.028-.064.029-.064.029-.064.03-.065.03-.064.032-.064.032-.065.032-.064.033-.064.035-.064.034-.065.036a6.732 6.732 0 0 0-.064.037l-.064.037-.064.038a6.23 6.23 0 0 0-.065.04l-.064.039a7.4 7.4 0 0 0-.064.041l-.064.042-.065.043-.064.044a7.576 7.576 0 0 0-.129.091l-.064.047a6.774 6.774 0 0 0-.193.15z" fill="#E10238"/></g></svg>