<svg width="100" height="60" viewBox="0 0 100 60" xmlns="http://www.w3.org/2000/svg"><title>visa-electron</title><g fill="none" fill-rule="evenodd"><rect fill="#FFF" width="100" height="60" rx="4"/><path d="M54.268 41.348c.842 0 1.573.348 2.108.929l-.596 1.032a2.057 2.057 0 0 0-1.65-.82c-1.402 0-2.7 1.335-2.9 2.981-.198 1.647.779 2.982 2.182 2.982.695 0 1.364-.328 1.887-.859v1.312c-.608.435-1.306.688-2.025.688-1.94 0-3.29-1.846-3.015-4.123.274-2.276 2.07-4.122 4.009-4.122zm23.67 8.07l1.111-.024h.082l.853-6.017 2.92 6.017h.927l1.082-7.76h-1.05l-.883 5.6-2.705-5.6h-1.08l-1.256 7.783zm-4.064-7.14c1.35 0 2.29 1.546 2.098 3.192-.19 1.647-1.457 3.194-2.806 3.194-1.35 0-2.272-1.547-2.08-3.194.19-1.646 1.439-3.193 2.788-3.193zm.133-.93c1.865 0 3.164 1.846 2.9 4.122-.264 2.277-1.991 4.123-3.856 4.123-1.865 0-3.165-1.846-2.9-4.123.263-2.276 1.99-4.122 3.856-4.122zm-8.819 3.795h1.278c1.023 0 1.649-2.548.418-2.564l-1.366-.017-.33 2.58zm-1.755 4.274l1.112-.023h.08l.409-3.293h.598l1.793 3.293h1.2l-1.757-3.292c2.207-.543 2.846-4.518.09-4.491l-2.365.022-1.16 7.784zm-4.738 0h1.11l.001-.006.08-.017.85-6.664 2.433-.018.147-1.101-5.736.022-.148 1.097h2.188l-.925 6.687zm-19.401 0h1.111v-.006l2.932-.017.147-1.101-2.928.017 1.028-6.7-1.227.023-1.063 7.784zm5.298 0h1.11l.002-.006 2.93-.017.148-1.101-2.928.017.322-2.359 2.23-.018.147-1.1-2.227.017.29-2.12 2.836-.018.147-1.101-3.945.022-1.062 7.784zm-10.712 0h1.11l.002-.006 2.932-.017.147-1.101-2.929.017.322-2.359 2.23-.018.148-1.1-2.228.017.29-2.12 2.836-.018.147-1.101-3.944.022-1.063 7.784zm3.838-13.961l3.68-22.889h5.88L43.6 35.457h-5.882m27.216-22.328c-1.163-.46-2.992-.96-5.27-.96-5.815 0-9.909 3.106-9.943 7.554-.037 3.29 2.921 5.124 5.152 6.218 2.291 1.12 3.061 1.838 3.052 2.84-.015 1.533-1.829 2.236-3.52 2.236-2.355 0-3.606-.346-5.54-1.2l-.757-.365-.822 5.124c1.371.637 3.914 1.19 6.552 1.22 6.18 0 10.196-3.07 10.243-7.819.021-2.609-1.546-4.586-4.94-6.219-2.056-1.061-3.317-1.764-3.303-2.839.002-.95 1.066-1.97 3.37-1.97 1.924-.03 3.316.415 4.402.88l.528.262.796-4.962m7.832 14.212c.488-1.316 2.343-6.398 2.343-6.398-.034.06.485-1.326.782-2.183l.397 1.974s1.129 5.463 1.361 6.607h-4.883zm7.257-14.75h-4.546c-1.41 0-2.465.404-3.083 1.897L63.66 35.464h6.178s1.008-2.822 1.237-3.44c.674 0 6.676.01 7.533.01.177.8.716 3.43.716 3.43h5.46l-4.76-22.873zm-47.24-.005l-5.757 15.605-.616-3.172c-1.073-3.655-4.413-7.616-8.148-9.6l5.267 20.017 6.224-.004 9.263-22.846h-6.233" fill="#00579F"/><path d="M21.682 12.57h-9.485l-.078.475c7.38 1.896 12.264 6.473 14.29 11.974l-2.06-10.517c-.356-1.45-1.39-1.88-2.667-1.931" fill="#ED982D"/></g></svg>