<svg width="16" height="16" viewBox="0 0 16 16" xmlns="http://www.w3.org/2000/svg"><title>[icon]/help/dark</title><path d="M0 8c0 4.426 3.574 8 8 8 4.407 0 8-3.574 8-8 0-4.407-3.593-8-8-8-4.426 0-8 3.593-8 8zm8 6c-.74 0-1.333-.593-1.333-1.333 0-.741.592-1.334 1.333-1.334.74 0 1.333.593 1.333 1.334C9.333 13.407 8.741 14 8 14zm1-4.667v.334H7V9c0-2 2.667-2 2.667-3.333C9.667 5 9 4.333 8 4.333s-2 1-2 1L4.667 4S6 2.333 8 2.333c2.019 0 3.667 1.334 3.667 3.334C11.667 8.333 9 8.333 9 9.333z" fill="currentColor" fill-rule="evenodd"/></svg>