<svg width="16" height="16" viewBox="0 0 16 16" xmlns="http://www.w3.org/2000/svg"><title>[icon]/like/dark</title><path d="M2.667 15.667V6.333A.332.332 0 0 0 2.333 6h-2A.332.332 0 0 0 0 6.333v9.334c0 .185.148.333.333.333h2a.332.332 0 0 0 .334-.333zm12.518-6.834A1.5 1.5 0 0 0 14.5 6H11a.327.327 0 0 1-.278-.148.373.373 0 0 1-.037-.315c.019 0 .648-1.611.648-2.87 0-.723-.203-1.408-.574-1.926C10.444.278 10.037 0 9.667 0c-.556 0-1 .444-1 1C8.667 3 8 4.333 4 7v7l3.426 1.593c.5.222 1.352.407 1.907.407h3.5c.834 0 1.5-.667 1.5-1.5 0-.204-.037-.407-.13-.593a1.658 1.658 0 0 0 .927-2.37 1.5 1.5 0 0 0 .87-1.37c0-.574-.333-1.074-.815-1.334z" fill="currentColor" fill-rule="evenodd"/></svg>