<svg width="16" height="16" viewBox="0 0 16 16" xmlns="http://www.w3.org/2000/svg"><title>[icon]/menu/dark</title><path d="M15.333 3H.667a.709.709 0 0 0-.47.165.495.495 0 0 0-.197.391v.888c0 .15.066.28.198.39A.71.71 0 0 0 .667 5h14.666a.713.713 0 0 0 .47-.165.496.496 0 0 0 .197-.391v-.888c0-.15-.066-.28-.198-.39A.709.709 0 0 0 15.333 3zM.667 7a.709.709 0 0 0-.47.165.495.495 0 0 0-.197.39v.889c0 .15.066.281.198.391A.71.71 0 0 0 .667 9h14.666a.71.71 0 0 0 .47-.165.496.496 0 0 0 .197-.391v-.888c0-.15-.066-.28-.198-.391A.708.708 0 0 0 15.333 7H.667zm0 4a.709.709 0 0 0-.47.165.495.495 0 0 0-.197.391v.888c0 .15.066.28.198.391A.71.71 0 0 0 .667 13h14.666a.713.713 0 0 0 .47-.165.495.495 0 0 0 .197-.39v-.889c0-.15-.066-.28-.198-.39a.709.709 0 0 0-.469-.166H.667z" fill="currentColor" fill-rule="evenodd"/></svg>