<svg width="16" height="16" viewBox="0 0 16 16" xmlns="http://www.w3.org/2000/svg"><title>[icon]/shipping/dark</title><path d="M7.083 0A41.443 41.443 0 0 0 3.55.2a1.06 1.06 0 0 0-.767.45c-.866 1.233-1.6 2.267-2.266 3.083h5.5L7.083 0zm8.4 3.733c-.666-.816-1.4-1.85-2.266-3.083A1.06 1.06 0 0 0 12.45.2 41.443 41.443 0 0 0 8.917 0l1.066 3.733h5.5zm.5 1.067h-5.85v3.733H5.867V4.8H.017C0 4.85 0 4.917 0 4.967v9.416c0 .534.383.984.9 1.067a46.147 46.147 0 0 0 14.2 0c.517-.083.9-.533.9-1.067V4.967c0-.05-.017-.117-.017-.167z" fill="currentColor" fill-rule="evenodd"/></svg>