<svg width="16" height="16" viewBox="0 0 16 16" xmlns="http://www.w3.org/2000/svg"><title>[icon]/social/pinterest/dark</title><path d="M2 5.742c0 1.57.594 2.977 1.875 3.516.219.078.406 0 .46-.242.04-.149.15-.555.188-.735.055-.226.032-.297-.132-.5-.368-.445-.61-1-.61-1.82 0-2.313 1.742-4.39 4.54-4.39 2.46 0 3.812 1.5 3.812 3.523 0 2.648-1.164 4.89-2.906 4.89-.97 0-1.688-.796-1.47-1.78.282-1.165.821-2.423.821-3.259 0-.758-.406-1.375-1.242-1.375-.984 0-1.758 1-1.758 2.375 0 .867.274 1.461.274 1.461s-1 4.258-1.165 5c-.351 1.485-.054 3.313-.039 3.5.024.094.149.133.227.04.094-.11 1.258-1.555 1.648-3 .125-.407.649-2.516.649-2.516.328.61 1.258 1.125 2.258 1.125 1.394 0 2.577-.603 3.436-1.62.955-1.132 1.509-2.777 1.509-4.677C14.375 2.539 12.078 0 8.555 0 4.188 0 2 3.133 2 5.742z" fill="currentColor" fill-rule="evenodd"/></svg>