<svg width="16" height="16" viewBox="0 0 16 16" xmlns="http://www.w3.org/2000/svg"><title>[icon]/social/yelp/dark</title><path d="M8.534 6.196l-.03-4.913C8.503.395 8.16 0 7.713 0c-.152 0-.395.084-.6.16l-2.75 1.017c-.417.16-.66.342-.66.592 0 .281.121.486.342.79l3.007 4.1c.28.38.524.54.797.54.448 0 .684-.304.684-1.003zm1.754 2.544c.197 0 .38-.045.562-.098l3.204-.934c.623-.19.889-.403.889-.737 0-.296-.1-.47-.388-.79l-1.442-1.7c-.251-.297-.38-.403-.608-.403-.273 0-.402.197-.547.402L9.9 7.73c-.114.167-.174.289-.174.479 0 .326.205.531.562.531zm-3.554-.038L3.59 7.115c-.334-.167-.516-.235-.76-.235-.38 0-.576.258-.622.752L2.01 10.13c-.038.54.015.828.356.828.251 0 .494-.053.805-.122l3.425-.76c.433-.098.63-.348.63-.705 0-.327-.174-.51-.493-.669zm3.106 1.884a.81.81 0 0 0 .114.395l1.89 3.166c.304.494.479.668.79.668.266 0 .471-.114.66-.387l1.466-2.103c.13-.183.198-.327.198-.547 0-.243-.167-.387-.54-.501L10.85 10.13c-.175-.053-.304-.091-.456-.091a.56.56 0 0 0-.554.547zm-1.876.205c-.22 0-.38.106-.6.341L4.82 13.935c-.167.19-.266.349-.266.592 0 .35.19.531.63.668l2.18.691c.243.076.395.114.562.114.395 0 .547-.197.547-.676l.06-3.949c.008-.31-.197-.584-.569-.584z" fill="currentColor" fill-rule="evenodd"/></svg>