<svg width="16" height="16" viewBox="0 0 16 16" xmlns="http://www.w3.org/2000/svg"><title>[icon]/social/google-plus/dark</title><path d="M16 3.664h-2.664V1h-.672v2.664H10v.672h2.664V7h.672V4.336H16v-.672zM6.945 9.11c-.39-.257-1.11-.906-1.11-1.296 0-.446.126-.665.798-1.204.703-.539 1.18-1.296 1.18-2.18 0-1.062-.461-2.077-1.352-2.413h1.336l.945-.68H4.555c-1.89 0-3.649 1.422-3.649 3.07 0 1.688 1.281 3.04 3.188 3.04.125 0 .258 0 .39-.016a1.625 1.625 0 0 0-.203.789c0 .469.235.836.555 1.148h-.727C1.797 9.367 0 10.852 0 12.391c0 1.515 1.96 2.46 4.281 2.46 2.664 0 4.125-1.5 4.125-3.015 0-1.203-.367-1.93-1.46-2.727zM4.703 7.016c-1.07-.032-2.11-1.204-2.297-2.625-.187-1.407.54-2.5 1.61-2.461 1.093.03 2.117 1.164 2.296 2.586.188 1.414-.53 2.539-1.609 2.5zm-.422 7.171c-1.617 0-2.765-1.023-2.765-2.242 0-1.203 1.43-2.187 3.039-2.187a4.62 4.62 0 0 1 1.039.172c.867.61 1.5.96 1.687 1.64.016.149.032.282.032.43 0 1.219-.774 2.188-3.032 2.188z" fill="currentColor" fill-rule="evenodd"/></svg>