<svg width="16" height="16" viewBox="0 0 16 16" xmlns="http://www.w3.org/2000/svg"><title>[icon]/social/instagram/dark</title><path d="M13.664 0H2.336A2.337 2.337 0 0 0 0 2.336v11.328A2.337 2.337 0 0 0 2.336 16h11.328A2.337 2.337 0 0 0 16 13.664V2.336A2.337 2.337 0 0 0 13.664 0zm.672 4a.333.333 0 0 1-.336.336h-2A.333.333 0 0 1 11.664 4V2c0-.188.149-.336.336-.336h2c.188 0 .336.149.336.336v2zM8 5a3 3 0 1 1-.002 6.002A3 3 0 0 1 8 5zm6.336 9a.333.333 0 0 1-.336.336H2A.333.333 0 0 1 1.664 14V7h1.774a4.67 4.67 0 0 0-.102 1A4.661 4.661 0 0 0 8 12.664 4.661 4.661 0 0 0 12.664 8c0-.344-.031-.68-.101-1h1.773v7z" fill="currentColor" fill-rule="evenodd"/></svg>