<svg viewBox="0 0 38 22" fill="none" xmlns="http://www.w3.org/2000/svg">
<rect x="0.5" y="0.5" width="37" height="21" rx="3.5" fill="white"/>
<path d="M19.4788 9.37725C19.4629 10.6309 20.5961 11.3306 21.4497 11.7465C22.3268 12.1733 22.6214 12.447 22.618 12.8286C22.6113 13.4128 21.9184 13.6705 21.2698 13.6806C20.1383 13.6982 19.4805 13.3751 18.9574 13.1307L18.5499 15.038C19.0746 15.2799 20.0463 15.4908 21.0539 15.5C23.4189 15.5 24.9664 14.3325 24.9747 12.5223C24.9839 10.225 21.797 10.0978 21.8188 9.07095C21.8263 8.75962 22.1234 8.42738 22.7745 8.34285C23.0967 8.30017 23.9864 8.26753 24.9948 8.73201L25.3907 6.88665C24.8484 6.68914 24.1512 6.5 23.2834 6.5C21.0572 6.5 19.4914 7.68337 19.4788 9.37725ZM29.1944 6.65901C28.7625 6.65901 28.3985 6.91092 28.2361 7.29756L24.8576 15.3644H27.221L27.6913 14.0647H30.5794L30.8523 15.3644H32.9353L31.1176 6.65901H29.1944ZM29.525 9.01069L30.207 12.2796H28.3391L29.525 9.01069ZM16.6133 6.65901L14.7504 15.3644H17.0025L18.8646 6.65901H16.6133ZM13.2816 6.65901L10.9375 12.5842L9.98925 7.54612C9.87794 6.98373 9.43857 6.65901 8.95066 6.65901H5.1185L5.06494 6.91175C5.85163 7.08248 6.74543 7.35782 7.28691 7.65241C7.61832 7.83234 7.71289 7.98968 7.82168 8.41733L9.61767 15.3644H11.9978L15.6467 6.65901H13.2816Z" fill="url(#paint0_linear)"/>
<rect x="0.5" y="0.5" width="37" height="21" rx="3.5" stroke="#DDDDDD"/>
<defs>
<linearGradient id="paint0_linear" x1="17.8781" y1="15.6806" x2="18.1386" y2="6.43741" gradientUnits="userSpaceOnUse">
<stop stop-color="#222357"/>
<stop offset="1" stop-color="#254AA5"/>
</linearGradient>
</defs>
</svg>
