<svg viewBox="0 0 21 20" fill="none" xmlns="http://www.w3.org/2000/svg">
<path d="M5.43372 4.1665H15.5542V18.3332H5.43372V4.1665Z" fill="white"/>
<path d="M0.375 4.1665H5.43383V18.3332H0.375V4.1665ZM15.5543 4.1665H20.6131V18.3332H15.5571L15.5543 4.1665ZM6.95064 11.0119L6.55397 11.1447L8.38364 12.7357C8.52331 13.1424 8.33616 13.2614 8.21604 13.4772L10.1993 13.2282L10.1519 15.2065L10.5653 15.1955L10.4731 13.231L12.462 13.4661C12.3391 13.2088 12.2301 13.0732 12.3419 12.6637L14.1688 11.1558L13.8503 11.0396C13.5877 10.8403 13.962 10.0794 14.0179 9.59798C14.0179 9.59798 12.9536 9.96045 12.8838 9.76953L12.61 9.25212L11.6407 10.3091C11.5346 10.334 11.4899 10.2925 11.4648 10.2039L11.9117 7.99593L11.2022 8.3916C11.1435 8.41927 11.0849 8.39714 11.0457 8.32796L10.3614 6.97217L9.65743 8.38053C9.60435 8.43034 9.55128 8.43587 9.50659 8.40267L8.83059 8.02637L9.23842 10.215C9.2049 10.3035 9.12669 10.3257 9.0373 10.2786L8.1071 9.23551C7.98698 9.4292 7.90597 9.74186 7.74396 9.8138C7.58473 9.88021 7.04561 9.68099 6.68526 9.60352C6.80817 10.0435 7.19366 10.7739 6.95064 11.0146V11.0119Z" fill="#FF0000"/>
<path fill-rule="evenodd" clip-rule="evenodd" d="M20.8333 0H0V20H20.8333V0ZM10.4167 17.9167C14.3287 17.9167 17.5 14.7453 17.5 10.8333C17.5 6.92132 14.3287 3.75 10.4167 3.75C6.50465 3.75 3.33333 6.92132 3.33333 10.8333C3.33333 14.7453 6.50465 17.9167 10.4167 17.9167Z" fill="white"/>
</svg>
