<svg width="24" height="24" fill="none" xmlns="http://www.w3.org/2000/svg">
    <g clip-path="url(#clip0)">
        <path d="M29.5 4h-34v17h34V4z" fill="#006"/>
        <path d="M-4.5 4v1.9L25.699 21h3.8v-1.9L-.698 4H-4.5zm34 0v1.9L-.7 21H-4.5v-1.9L25.699 4h3.8z" fill="#fff"/>
        <path d="M9.667 4v17h5.666V4H9.667zM-4.5 9.667v5.666h34V9.667h-34z" fill="#fff"/>
        <path d="M-4.5 10.8v3.4h34v-3.4h-34zM10.8 4v17h3.4V4h-3.4zM-4.5 21l11.333-5.667h2.534L-1.966 21H-4.5zm0-17L6.833 9.667H4.3l-8.799-4.4V4zm20.133 5.667L26.965 4H29.5L18.167 9.667h-2.535zM29.5 21l-11.333-5.667H20.7l8.799 4.4V21z"
              fill="#C00"/>
        <path fill-rule="evenodd" clip-rule="evenodd" d="M24 0H0v24h24V0zM12.5 21a8.5 8.5 0 100-17 8.5 8.5 0 000 17z"
              fill="#fff"/>
    </g>
    <defs>
        <clipPath id="clip0">
            <path fill="#fff" d="M0 0h24v24H0z"/>
        </clipPath>
    </defs>
</svg>