<svg viewBox="0 0 24 24" xmlns="http://www.w3.org/2000/svg">
    <path
        fill-rule="evenodd"
        clip-rule="evenodd"
        d="M20.5 7H3.5C3.22386 7 3 6.77614 3 6.5V5.5C3 5.22386 3.22386 5 3.5 5H20.5C20.7761 5 21 5.22386 21 5.5V6.5C21 6.77614 20.7761 7 20.5 7ZM21 12.5V11.5C21 11.2239 20.7761 11 20.5 11H3.5C3.22386 11 3 11.2239 3 11.5V12.5C3 12.7761 3.22386 13 3.5 13H20.5C20.7761 13 21 12.7761 21 12.5ZM21 17.5V18.5C21 18.7761 20.7761 19 20.5 19H3.5C3.22386 19 3 18.7761 3 18.5V17.5C3 17.2239 3.22386 17 3.5 17H20.5C20.7761 17 21 17.2239 21 17.5Z"
        fill="currentColor"
    />
</svg>