<svg viewBox="0 0 80 20" fill="none" xmlns="http://www.w3.org/2000/svg">
<g clip-path="url(#clip0)">
<path d="M79.0022 6.42684C78.6097 7.14639 78.6587 7.96405 78.5279 8.73265C78.1027 11.3001 77.6939 13.8676 77.3014 16.435C77.2197 17.0074 76.9417 17.22 76.402 17.2036C75.9932 17.1873 75.5843 17.1873 75.1755 17.2036C74.6359 17.22 74.505 16.9747 74.5868 16.4841C74.9793 14.0638 75.3554 11.6272 75.7479 9.20689C75.9278 8.09487 76.124 6.98285 76.2712 5.87083C76.3366 5.4293 76.5328 5.26576 76.958 5.29847C77.6448 5.36388 78.348 5.15129 79.0185 5.44565C79.0022 5.77271 79.0022 6.09978 79.0022 6.42684Z" fill="#029DDF"/>
<path d="M4.33463 17.776C3.15719 17.776 1.99611 17.776 0.818682 17.776C0.0991397 17.776 -0.0807458 17.5634 0.0337268 16.8929C0.687856 12.7228 1.35834 8.55274 2.01247 4.38267C2.19235 3.20523 2.38859 2.04415 2.58483 0.866721C2.6666 0.310711 2.9446 0 3.51696 0C5.9536 0 8.37387 0 10.7942 0.0327065C11.6445 0.0490597 12.4622 0.245298 13.2308 0.605069C14.9315 1.40638 15.6184 2.87817 15.3076 5.00409L15.2749 4.98773C14.4736 4.72608 13.6887 4.46443 12.822 4.46443C11.0067 4.46443 9.20789 4.46443 7.39268 4.46443C6.70584 4.46443 6.39513 4.74244 6.29701 5.42927C6.05172 6.98283 5.77371 8.52003 5.57747 10.0736C5.52841 10.4824 5.2177 10.924 5.54477 11.3655C5.15229 12.0033 5.18499 12.7392 5.05417 13.4424C4.79252 14.8814 4.66169 16.3369 4.33463 17.776Z" fill="#013187"/>
<path d="M4.33366 17.7765C4.66073 16.3374 4.79155 14.882 5.06956 13.4429C5.20038 12.7397 5.15132 12.0038 5.56015 11.3661C5.80545 11.1535 6.09981 11.1044 6.41052 11.1044C7.45713 11.1044 8.50373 11.1371 9.53399 10.9899C11.9706 10.6465 13.7695 9.46909 14.7343 7.13058C15.0123 6.4601 15.1104 5.77326 15.323 5.08643C16.5986 5.75691 16.9911 6.90163 16.9584 8.22624C16.942 8.78225 16.8602 9.33826 16.7294 9.86157C16.0426 12.7234 14.1129 14.2769 11.0712 14.3914C9.48493 14.4568 9.3541 14.1788 9.09245 16.1249C8.96162 17.106 8.78174 18.0709 8.63456 19.0357C8.52009 19.7389 8.29114 19.9515 7.5716 19.9679C6.63947 19.9679 5.72369 19.9679 4.79155 19.9679C4.26825 19.9679 4.0393 19.7716 4.13742 19.2156C4.23554 18.7577 4.26825 18.2671 4.33366 17.7765Z" fill="#029DDF"/>
<path d="M25.1514 17.2032C23.5815 17.1869 23.6469 17.3995 23.9085 15.7478C24.4318 12.5589 24.9224 9.3537 25.4294 6.16482C25.5439 5.41257 25.6583 5.31445 26.4269 5.31445C27.7352 5.31445 29.0598 5.31445 30.3681 5.31445C30.7115 5.31445 31.0713 5.31445 31.4147 5.37987C33.5079 5.72328 34.4073 6.99883 34.0639 9.17381C33.6551 11.7903 32.0688 13.1804 29.4196 13.2458C28.9453 13.2621 28.4711 13.2621 27.9968 13.2458C27.4899 13.2294 27.2446 13.4747 27.1792 13.9653C27.0647 14.7176 26.9339 15.4698 26.8194 16.2057C26.6722 17.1705 26.6232 17.2196 25.6583 17.2196C25.4784 17.2032 25.3149 17.2032 25.1514 17.2032ZM28.5202 10.8582C28.9944 10.8582 29.4686 10.8255 29.9102 10.662C30.6134 10.384 31.0058 9.56629 30.875 8.66686C30.7933 8.06179 30.3681 7.76744 29.5177 7.70202C29.256 7.68567 28.978 7.70202 28.7164 7.68567C28.2912 7.63661 28.1277 7.86556 28.0786 8.24168C27.9805 8.97758 27.8824 9.69712 27.7352 10.4167C27.6698 10.7764 27.7188 10.9073 28.095 10.8745C28.2258 10.8418 28.373 10.8582 28.5202 10.8582Z" fill="#023288"/>
<path d="M59.477 5.29907C60.3764 5.34813 61.4557 5.20095 62.5023 5.44625C64.0395 5.82238 64.8408 6.85263 64.7918 8.42254C64.71 11.4315 62.9275 13.1813 59.9185 13.214C59.5424 13.214 59.1826 13.2467 58.8065 13.214C58.1524 13.1486 57.8744 13.4757 57.7926 14.0808C57.6781 14.9148 57.5146 15.7324 57.4165 16.5664C57.3674 17.0407 57.1385 17.2042 56.6806 17.1879C56.1736 17.1715 55.6503 17.1879 55.1434 17.1879C54.4238 17.1879 54.3421 17.1061 54.4565 16.4029C54.7018 14.7839 54.9635 13.165 55.2251 11.546C55.5031 9.77986 55.7811 8.03006 56.0591 6.26391C56.19 5.38084 56.2881 5.29907 57.2039 5.29907C57.9071 5.29907 58.6103 5.29907 59.477 5.29907ZM59.1499 10.8755C59.4933 10.8428 59.8531 10.8265 60.1802 10.7447C61.1123 10.5648 61.6356 9.77986 61.5538 8.78231C61.4884 8.03006 61.0305 7.703 60.0003 7.65394C59.7877 7.65394 59.5914 7.65394 59.3789 7.63758C58.9864 7.60488 58.7738 7.75206 58.7247 8.17724C58.6593 8.78231 58.5448 9.38738 58.4304 9.99245C58.2995 10.8592 58.2995 10.8592 59.1499 10.8755Z" fill="#029DDF"/>
<path d="M40.7191 10.09C40.7191 9.30502 41.1279 9.2069 41.6839 9.25596C42.1418 9.28867 42.5834 9.27232 43.0412 9.25596C43.4501 9.25596 43.5972 9.43585 43.5482 9.82833C43.1884 12.0687 42.8287 14.3255 42.4689 16.5659C42.4035 16.9747 42.1745 17.1873 41.7657 17.1873C41.3569 17.1873 40.948 17.1709 40.5392 17.1873C39.9995 17.22 39.5089 17.1873 39.6561 16.3533C38.8221 16.991 37.9881 17.3672 37.0233 17.3835C34.881 17.4326 33.491 16.0753 33.4746 13.933C33.4746 10.8913 36.0094 8.6836 39.0184 9.12514C39.6725 9.22326 40.2448 9.48491 40.7191 10.09ZM38.0208 15.2085C39.3291 15.2085 40.343 14.2273 40.3593 12.9518C40.3757 11.9215 39.6888 11.2511 38.5932 11.2674C37.3176 11.2838 36.3037 12.2977 36.2874 13.5896C36.2874 14.5871 36.9251 15.2085 38.0208 15.2085Z" fill="#033389"/>
<path d="M70.3515 16.3205C69.2558 17.2199 68.0948 17.5797 66.7865 17.3344C65.3474 17.0727 64.4153 16.0916 64.2027 14.6525C63.7121 11.3818 66.394 8.68354 69.6647 9.14143C70.3515 9.23955 70.6459 9.38673 71.3654 10.0082C71.3654 9.23955 71.8724 9.2232 72.4284 9.2559C72.7718 9.28861 73.1316 9.2559 73.475 9.2559C74.1945 9.2559 74.2763 9.33767 74.1782 10.0409C73.9165 11.7089 73.6549 13.3606 73.3932 15.0122C73.3114 15.4701 73.246 15.9444 73.1806 16.4186C73.1152 16.9583 72.8535 17.2363 72.2975 17.2036C71.9214 17.1872 71.5616 17.2036 71.1855 17.2036C70.3515 17.2036 70.3352 17.1872 70.3515 16.3205ZM68.6671 15.2085C69.9917 15.2248 70.9893 14.26 71.022 12.9681C71.0383 11.9215 70.3679 11.251 69.2885 11.251C67.9966 11.251 66.9337 12.314 66.95 13.6059C66.95 14.5871 67.6042 15.1921 68.6671 15.2085Z" fill="#029DDF"/>
<path d="M15.3394 5.10165C15.1268 5.77213 15.0123 6.47532 14.7507 7.1458C13.7858 9.48431 11.987 10.6617 9.55034 11.0052C8.50373 11.1523 7.45712 11.1196 6.42687 11.1196C6.09981 11.1196 5.8218 11.1687 5.5765 11.3813C5.24944 10.9397 5.56015 10.4982 5.60921 10.0894C5.80545 8.53583 6.08345 6.99862 6.32875 5.44507C6.44322 4.75823 6.73758 4.48022 7.42442 4.48022C9.23963 4.48022 11.0385 4.48022 12.8537 4.48022C13.7041 4.48022 14.5054 4.75823 15.3067 5.00353C15.3067 5.03623 15.323 5.05259 15.3394 5.05259C15.323 5.05259 15.3394 5.08529 15.3394 5.10165Z" fill="#012169"/>
<path d="M48.7655 13.7037C49.6485 12.4118 50.4826 11.2671 51.2184 10.0733C51.6109 9.43555 52.0852 9.14119 52.8211 9.25567C53.1645 9.30473 53.5242 9.25567 53.8677 9.27202C54.0803 9.27202 54.3256 9.20661 54.4727 9.46826C54.6199 9.72991 54.4237 9.89344 54.2928 10.0733C53.4261 11.3162 52.5594 12.5754 51.6927 13.8182C50.4008 15.6825 49.0762 17.5468 47.8006 19.4437C47.5063 19.8689 47.1956 20.0652 46.6722 20.0161C46.2471 19.9834 45.8055 20.0161 45.3803 19.9997C45.135 19.9997 44.857 20.0815 44.7099 19.8035C44.5463 19.5255 44.7916 19.3456 44.9225 19.1494C45.4621 18.3808 45.9854 17.5958 46.5741 16.8436C46.8194 16.5165 46.8194 16.2549 46.705 15.8951C46.0345 13.9654 45.3803 12.0194 44.7099 10.0733C44.4809 9.40285 44.5627 9.27202 45.2659 9.25567C45.7238 9.25567 46.1653 9.28837 46.6232 9.25567C47.1956 9.20661 47.4899 9.45191 47.6371 9.99156C47.9969 11.1853 48.373 12.3791 48.7655 13.7037Z" fill="#033389"/>
<path d="M15.3089 5.04008C15.2744 5.04008 15.2744 5.02282 15.2744 4.98828L15.3089 5.00555C15.3089 5.02282 15.3089 5.04008 15.3089 5.04008Z" fill="#029DDF"/>
</g>
<defs>
<clipPath id="clip0">
<rect width="79.0025" height="20" fill="white"/>
</clipPath>
</defs>
</svg>
