<svg viewBox="0 0 20 20" fill="none" xmlns="http://www.w3.org/2000/svg">
<path fill-rule="evenodd" clip-rule="evenodd" d="M15.8333 1.66675H4.16667C3.70643 1.66675 3.33333 2.03984 3.33333 2.50008V16.0501C3.3364 16.2707 3.42272 16.4821 3.575 16.6417L5.15 18.2084C5.22523 18.2894 5.33116 18.3348 5.44167 18.3334H5.68333C5.79383 18.3348 5.89977 18.2894 5.975 18.2084L7.5 16.6667C7.57693 16.5882 7.68176 16.5433 7.79167 16.5417C7.90138 16.5442 8.00589 16.589 8.08333 16.6667L9.59166 18.1751C9.6669 18.256 9.77283 18.3014 9.88333 18.3001H10.125C10.2355 18.3014 10.3414 18.256 10.4167 18.1751L11.9333 16.6667C12.0103 16.5882 12.1151 16.5433 12.225 16.5417C12.3289 16.5483 12.4267 16.5928 12.5 16.6667L14.0083 18.1751C14.0836 18.256 14.1895 18.3014 14.3 18.3001H14.5417C14.6522 18.3014 14.7581 18.256 14.8333 18.1751L16.425 16.6667C16.579 16.5115 16.6657 16.302 16.6667 16.0834V2.50008C16.6667 2.03984 16.2936 1.66675 15.8333 1.66675ZM12.9167 8.33341C13.1468 8.33341 13.3333 8.14687 13.3333 7.91675V7.08341C13.3333 6.8533 13.1468 6.66675 12.9167 6.66675H7.08333C6.85321 6.66675 6.66667 6.8533 6.66667 7.08341V7.91675C6.66667 8.14687 6.85321 8.33341 7.08333 8.33341H12.9167ZM10.4167 11.6667C10.6468 11.6667 10.8333 11.4802 10.8333 11.2501V10.4167C10.8333 10.1866 10.6468 10.0001 10.4167 10.0001H7.08333C6.85321 10.0001 6.66667 10.1866 6.66667 10.4167V11.2501C6.66667 11.4802 6.85321 11.6667 7.08333 11.6667H10.4167ZM14.45 16.2668L15 15.7167V3.33341H5V15.7001L5.56667 16.2668L6.59167 15.2417C6.74688 15.0878 6.95638 15.001 7.175 15.0001H8.38333C8.60195 15.001 8.81145 15.0878 8.96667 15.2417L10 16.2751L11.075 15.2417C11.2323 15.0858 11.4452 14.9988 11.6667 15.0001H12.8333C13.0519 15.001 13.2614 15.0878 13.4167 15.2417L13.7 15.5251L13.8333 15.6584L14.45 16.2668Z" fill="currentColor"/>
</svg>
