<svg viewBox="0 0 21 20" fill="none" xmlns="http://www.w3.org/2000/svg">
<path d="M10.9968 0C5.4737 0 0.996826 4.47688 0.996826 10C0.996826 15.5225 5.4737 20 10.9968 20C16.52 20 20.9968 15.5225 20.9968 10C20.9968 4.47688 16.5193 0 10.9968 0Z" fill="currentColor"/>
<path d="M16.0012 7.79124C16.0012 10.7025 14.3824 12.8781 11.9968 12.8781C11.1949 12.8781 10.4418 12.445 10.1837 11.9525C10.1837 11.9525 9.75242 13.6625 9.6618 13.9925C9.34055 15.1587 8.39492 16.3256 8.3218 16.4212C8.27055 16.4875 8.15742 16.4669 8.14555 16.3787C8.12492 16.23 7.8843 14.7587 8.16805 13.5581L9.12242 9.51374C9.12242 9.51374 8.88555 9.03999 8.88555 8.33937C8.88555 7.23937 9.52305 6.41812 10.3168 6.41812C10.9918 6.41812 11.3174 6.92437 11.3174 7.53187C11.3174 8.21062 10.8855 9.22562 10.6624 10.1656C10.4762 10.9531 11.0574 11.5956 11.8337 11.5956C13.2399 11.5956 14.1868 9.78937 14.1868 7.64937C14.1868 6.02312 13.0918 4.80499 11.0987 4.80499C8.84805 4.80499 7.44492 6.48374 7.44492 8.35937C7.44492 9.00624 7.63617 9.46249 7.93492 9.81499C8.0718 9.97749 8.09117 10.0425 8.04117 10.2287C8.00492 10.3656 7.9243 10.6937 7.8893 10.8244C7.83992 11.0125 7.68742 11.0794 7.51805 11.01C6.48117 10.5869 5.99805 9.45062 5.99805 8.17437C5.99805 6.06624 7.77617 3.53812 11.3024 3.53812C14.1368 3.53937 16.0012 5.58937 16.0012 7.79124Z" fill="var(--pinterest-icon-inner)"/>
</svg>
