<svg viewBox="0 0 16 16" fill="none" xmlns="http://www.w3.org/2000/svg">
<path d="M4.44444 0C3.2657 0 2.13524 0.468253 1.30175 1.30175C0.468253 2.13524 0 3.2657 0 4.44444V11.5556C0 12.7343 0.468253 13.8648 1.30175 14.6983C2.13524 15.5317 3.2657 16 4.44444 16H11.5556C12.7343 16 13.8648 15.5317 14.6983 14.6983C15.5317 13.8648 16 12.7343 16 11.5556V4.44444C16 3.2657 15.5317 2.13524 14.6983 1.30175C13.8648 0.468253 12.7343 0 11.5556 0H4.44444ZM13.3333 1.77778C13.8222 1.77778 14.2222 2.17778 14.2222 2.66667C14.2222 3.15556 13.8222 3.55556 13.3333 3.55556C12.8444 3.55556 12.4444 3.15556 12.4444 2.66667C12.4444 2.17778 12.8444 1.77778 13.3333 1.77778ZM8 3.55556C9.17874 3.55556 10.3092 4.02381 11.1427 4.8573C11.9762 5.6908 12.4444 6.82126 12.4444 8C12.4444 9.17874 11.9762 10.3092 11.1427 11.1427C10.3092 11.9762 9.17874 12.4444 8 12.4444C6.82126 12.4444 5.6908 11.9762 4.8573 11.1427C4.02381 10.3092 3.55556 9.17874 3.55556 8C3.55556 6.82126 4.02381 5.6908 4.8573 4.8573C5.6908 4.02381 6.82126 3.55556 8 3.55556ZM8 5.33333C7.64969 5.33345 7.30284 5.40256 6.97924 5.53673C6.65564 5.67089 6.36164 5.86748 6.11401 6.11527C5.86639 6.36306 5.67 6.65719 5.53605 6.98088C5.4021 7.30457 5.33322 7.65147 5.33333 8.00178C5.33345 8.35209 5.40256 8.69894 5.53673 9.02254C5.67089 9.34614 5.86748 9.64014 6.11527 9.88776C6.36306 10.1354 6.65719 10.3318 6.98088 10.4657C7.30457 10.5997 7.65147 10.6686 8.00178 10.6684C8.70926 10.6682 9.38767 10.3869 9.88776 9.88651C10.3879 9.38608 10.6687 8.70748 10.6684 8C10.6682 7.29252 10.3869 6.61411 9.88651 6.11401C9.38608 5.61392 8.70748 5.3331 8 5.33333Z" fill="currentColor"/>
</svg>
