<svg viewBox="0 0 24 24" fill="currentColor" xmlns="http://www.w3.org/2000/svg">
<path fill-rule="evenodd" clip-rule="evenodd" d="M3.06066 3L2 4.06066L5.27758 7.33824C3.88036 8.45795 2.7586 9.93495 2.05997 11.6701C2.02156 11.7759 2.00129 11.8875 2.00001 12.0001C1.99948 12.1063 2.01986 12.2117 2.05997 12.3101C3.68479 16.3692 7.62406 19.0221 11.9939 19.0001C13.4422 19.0084 14.8434 18.723 16.129 18.1897L18.9706 21.0312L20.0312 19.9706L3.06066 3ZM14.5536 16.6143L12.8232 14.8839C12.5598 14.9595 12.2816 15.0001 11.9939 15.0001C10.3381 15.0001 8.99575 13.6569 8.99575 12.0001C8.99575 11.7129 9.03609 11.4351 9.11141 11.1721L6.70955 8.77022C5.60357 9.60334 4.68941 10.7013 4.06875 12.0001C5.5333 15.0499 8.6124 16.9925 11.9939 17.0001C12.8754 16.9981 13.7364 16.8646 14.5536 16.6143Z"/>
<path d="M11.1742 9.11356L14.8792 12.8185C14.9527 12.5583 14.9921 12.2838 14.9921 12.0001C14.9921 10.3432 13.6498 9.00007 11.9939 9.00007C11.7097 9.00007 11.4347 9.03964 11.1742 9.11356Z"/>
<path d="M19.9191 12.0001C19.2975 13.2944 18.3851 14.3894 17.2822 15.2216L18.7171 16.6564C20.1111 15.5374 21.2304 14.0624 21.9279 12.3301C21.9706 12.2255 21.9911 12.1131 21.9878 12.0001C22.0041 11.9007 22.0041 11.7994 21.9878 11.7001C20.3582 7.61653 16.3881 4.95491 11.9939 5.00007C10.5489 4.99171 9.15069 5.27589 7.86748 5.80682L9.44159 7.38093C10.2566 7.13322 11.1151 7.00206 11.9939 7.00206C15.3771 7.00206 18.4596 8.94605 19.9191 12.0001Z"/>
</svg>
