<svg width="100" height="60" viewBox="0 0 100 60" xmlns="http://www.w3.org/2000/svg"><title>dinersclub</title><g fill="none" fill-rule="evenodd"><rect fill="#FFF" width="100" height="60" rx="4"/><path d="M19.28 35.007c0-1.207-.63-1.127-1.233-1.14v-.349c.523.026 1.059.026 1.583.026.564 0 1.328-.026 2.322-.026 3.475 0 5.368 2.32 5.368 4.697 0 1.33-.778 4.67-5.53 4.67-.683 0-1.315-.026-1.945-.026-.604 0-1.195.012-1.798.027v-.35c.804-.08 1.194-.107 1.233-1.02v-6.509zm1.315 6.294c0 1.034.74 1.154 1.397 1.154 2.9 0 3.85-2.187 3.85-4.186 0-2.51-1.61-4.32-4.2-4.32-.55 0-.804.038-1.047.053v7.3zm7.195 1.235h.254c.376 0 .645 0 .645-.443v-3.637c0-.59-.201-.671-.698-.939v-.214c.63-.19 1.382-.443 1.436-.483a.473.473 0 0 1 .242-.068c.065 0 .093.08.093.189v5.152c0 .443.296.443.672.443h.227v.35c-.456 0-.927-.027-1.408-.027-.483 0-.967.012-1.463.027v-.35zm1.436-7.85c-.35 0-.658-.322-.658-.671 0-.336.323-.645.658-.645.348 0 .658.282.658.645a.67.67 0 0 1-.658.67zm2.711 3.851c0-.496-.149-.63-.778-.885v-.255c.576-.188 1.126-.363 1.77-.645.041 0 .08.027.08.134v.872c.766-.549 1.424-1.006 2.324-1.006 1.14 0 1.542.832 1.542 1.879v3.462c0 .443.296.443.671.443h.242v.35c-.47 0-.94-.027-1.422-.027-.484 0-.967.012-1.45.027v-.35h.242c.376 0 .643 0 .643-.443v-3.475c0-.766-.468-1.141-1.234-1.141-.43 0-1.114.348-1.558.645v3.97c0 .444.297.444.673.444h.24v.35c-.469 0-.939-.027-1.423-.027-.482 0-.965.012-1.448.027v-.35h.242c.375 0 .644 0 .644-.443v-3.556m6.871.645c-.027.12-.027.322 0 .778.08 1.275.9 2.321 1.972 2.321.74 0 1.317-.403 1.813-.898l.187.188c-.618.818-1.382 1.516-2.482 1.516-2.134 0-2.563-2.068-2.563-2.926 0-2.63 1.77-3.41 2.709-3.41 1.088 0 2.257.685 2.269 2.108 0 .082 0 .161-.012.242l-.122.08h-3.77zm2.377-.43c.334 0 .374-.175.374-.336 0-.684-.416-1.234-1.168-1.234-.818 0-1.382.603-1.542 1.57h2.336zm1.837 3.784h.363c.374 0 .643 0 .643-.443v-3.77c0-.416-.496-.498-.698-.605v-.2c.98-.417 1.517-.766 1.64-.766.078 0 .118.04.118.175v1.208h.029c.334-.523.899-1.383 1.717-1.383.335 0 .764.228.764.711 0 .362-.253.686-.63.686-.416 0-.416-.324-.887-.324-.227 0-.979.31-.979 1.116v3.152c0 .443.268.443.644.443h.75v.35c-.737-.015-1.299-.027-1.877-.027-.55 0-1.114.012-1.597.027v-.35m5.166-1.516c.175.885.711 1.638 1.693 1.638.79 0 1.085-.484 1.085-.953 0-1.585-2.925-1.074-2.925-3.235 0-.752.605-1.718 2.08-1.718.43 0 1.007.122 1.53.39l.094 1.368h-.309c-.134-.845-.603-1.328-1.463-1.328-.537 0-1.046.308-1.046.885 0 1.572 3.113 1.088 3.113 3.195 0 .885-.71 1.825-2.308 1.825-.537 0-1.168-.188-1.637-.456l-.148-1.544.241-.068m15.97-5.072h-.335c-.255-1.57-1.37-2.2-2.871-2.2-1.545 0-3.786 1.032-3.786 4.253 0 2.712 1.933 4.658 4 4.658 1.327 0 2.43-.913 2.698-2.323l.308.08-.308 1.96c-.564.35-2.08.712-2.968.712-3.139 0-5.125-2.027-5.125-5.046 0-2.752 2.456-4.725 5.087-4.725 1.086 0 2.133.35 3.166.713l.134 1.918m.484 6.589h.254c.377 0 .645 0 .645-.443v-7.474c0-.873-.2-.9-.711-1.047v-.215c.536-.174 1.1-.415 1.383-.578.146-.079.254-.147.293-.147.083 0 .11.081.11.189v9.272c0 .443.295.443.67.443h.227v.35c-.455 0-.924-.027-1.408-.027-.483 0-.965.012-1.463.027v-.35m8.617-.389c0 .242.147.255.374.255.162 0 .362-.013.538-.013v.283c-.577.053-1.678.335-1.933.415l-.067-.04v-1.088c-.805.658-1.423 1.128-2.377 1.128-.724 0-1.475-.47-1.475-1.596v-3.437c0-.35-.054-.685-.804-.75v-.257c.483-.013 1.555-.093 1.73-.093.149 0 .149.093.149.39v3.461c0 .403 0 1.556 1.167 1.556.455 0 1.06-.348 1.623-.817v-3.61c0-.269-.644-.417-1.126-.55v-.241c1.206-.082 1.958-.189 2.093-.189.108 0 .108.093.108.242v4.95m2.67-4.428c.536-.455 1.261-.966 2-.966 1.556 0 2.496 1.357 2.496 2.82 0 1.757-1.29 3.515-3.209 3.515-.992 0-1.516-.323-1.865-.47l-.402.308-.281-.147c.12-.791.188-1.57.188-2.389v-5.77c0-.873-.202-.9-.712-1.047v-.215c.537-.174 1.1-.415 1.382-.578.148-.079.255-.147.296-.147.08 0 .107.081.107.189v4.897zm0 3.65c0 .51.483 1.37 1.382 1.37 1.436 0 2.04-1.41 2.04-2.604 0-1.45-1.1-2.657-2.146-2.657-.499 0-.914.323-1.276.632v3.26zm-57.897 9.321h.102c.263 0 .54-.036.54-.416v-3.826c0-.38-.277-.417-.54-.417h-.102v-.22c.284 0 .723.03 1.081.03.365 0 .803-.03 1.146-.03v.22h-.103c-.261 0-.54.036-.54.417v3.826c0 .38.279.416.54.416h.103v.22c-.35 0-.79-.03-1.153-.03-.359 0-.79.03-1.074.03v-.22" fill="#1A1918"/><path d="M20.26 50.94c-.354 0-.791-.03-1.155-.03-.357 0-.787.03-1.073.03H18v-.283h.134c.265-.006.506-.028.508-.384v-3.826c-.002-.357-.243-.38-.508-.385H18v-.283h.032c.286 0 .724.028 1.081.028.364 0 .8-.028 1.146-.028h.033v.283h-.135c-.265.004-.507.028-.509.385v3.826c.002.356.244.378.51.384h.134v.282h-.033zm-.032-.063v-.156h-.07c-.262 0-.572-.045-.574-.448v-3.826c.002-.404.312-.449.573-.449h.07v-.156c-.336 0-.76.03-1.114.03-.347 0-.766-.027-1.05-.03v.156h.07c.261 0 .572.045.572.45v3.825c0 .403-.31.448-.571.448h-.07v.156c.283-.003.695-.03 1.041-.03.356 0 .778.028 1.123.03zm5.048-1.408l.014-.015v-2.737c0-.6-.417-.687-.635-.687h-.161v-.22c.344 0 .68.03 1.022.03.3 0 .6-.03.898-.03v.22h-.108c-.308 0-.651.058-.651.927v3.323c0 .256.007.511.043.738h-.277l-3.76-4.193v3.01c0 .636.123.854.685.854h.125v.22c-.314 0-.628-.03-.942-.03-.328 0-.664.03-.993.03v-.22h.102c.504 0 .657-.344.657-.926v-3.077a.655.655 0 0 0-.664-.656h-.095v-.22c.277 0 .562.03.839.03.22 0 .431-.03.65-.03l3.25 3.659" fill="#1A1918"/><path d="M25.698 51.048l-.3-.01-3.707-4.13v2.927c.01.635.106.815.656.822h.156v.282h-.032c-.316 0-.63-.029-.942-.029-.327 0-.663.03-.993.03h-.033v-.283h.135c.483-.003.62-.313.626-.894v-3.076a.625.625 0 0 0-.633-.625h-.128v-.283h.033c.279 0 .564.028.838.028.218 0 .43-.028.675-.017l3.21 3.613v-2.686c-.004-.58-.392-.65-.604-.655h-.193v-.283h.032c.345 0 .681.028 1.022.028.297 0 .597-.028.898-.028h.033v.283h-.141c-.302.008-.611.034-.62.895v3.323c0 .255.008.51.043.732l.007.036h-.038zm-.277-.063h.241a4.917 4.917 0 0 1-.038-.705v-3.323c0-.876.367-.959.682-.96h.077v-.155c-.288.003-.576.029-.867.029-.334 0-.66-.026-.99-.029v.156h.129c.224 0 .667.1.667.719l-.01 2.76-.014.014-.025.024-3.248-3.673c-.217 0-.428.029-.65.029-.268 0-.542-.026-.807-.029l-.002.156h.065c.343 0 .695.262.695.69v3.075c0 .584-.162.957-.688.959l-.07-.002v.157c.316-.003.642-.03.96-.03.306 0 .61.027.91.03v-.155h-.091c-.575-.002-.717-.252-.718-.887v-3.091l3.792 4.24zm-.145-1.516l.023-.021-.023.02zm-.017-.015v-.002l-.006-.005.006.007zm2.25-3.278c-.549 0-.57.132-.68.664h-.219c.03-.204.065-.408.088-.62.03-.205.044-.41.044-.62h.175c.059.219.241.21.44.21h3.766c.198 0 .38-.006.395-.226l.175.03c-.029.197-.059.394-.08.592-.014.197-.014.393-.014.59l-.22.082c-.015-.27-.05-.702-.54-.702h-1.198v3.885c0 .563.256.628.606.628h.14v.22c-.285 0-.797-.03-1.19-.03-.44 0-.95.03-1.236.03v-.22h.14c.402 0 .605-.036.605-.613v-3.9H27.51" fill="#1A1918"/><path d="M30.387 50.94c-.288 0-.798-.03-1.19-.03-.439 0-.95.03-1.236.03h-.031v-.283h.17c.403-.01.565-.015.574-.58v-3.87h-1.165v-.064h1.228v3.933c0 .586-.236.645-.636.646h-.108v.154c.288-.002.78-.028 1.204-.028.38 0 .867.026 1.157.028v-.154h-.107c-.353 0-.637-.087-.637-.661v-3.918h1.229c.49.002.555.419.57.69l.158-.058c0-.19 0-.382.014-.574.021-.188.048-.374.075-.561l-.11-.019c-.035.213-.24.224-.423.222h-3.805c-.172 0-.359-.008-.424-.212h-.121a4.362 4.362 0 0 1-.043.592c-.021.2-.055.394-.081.587h.156c.095-.51.158-.674.704-.667v.064c-.541.01-.53.101-.648.64l-.006.026h-.281l.004-.038c.03-.204.067-.409.088-.62a4.19 4.19 0 0 0 .044-.615v-.033h.232l.006.023c.049.184.184.186.37.189h3.805c.203-.003.351-.006.364-.197l.002-.035.033.007.207.033-.005.032c-.03.196-.058.392-.08.588-.014.196-.014.392-.014.59v.022l-.02.008-.26.095-.001-.043c-.02-.274-.048-.672-.51-.672h-1.166v3.854c.008.55.226.59.574.596h.171v.282h-.03m1.538-.25h.103c.262 0 .54-.036.54-.416v-3.826c0-.38-.278-.417-.54-.417h-.103v-.22c.444 0 1.205.03 1.817.03.615 0 1.373-.03 1.87-.03-.013.315-.006.798.015 1.119l-.22.058c-.035-.475-.122-.854-.89-.854h-1.013v1.912h.867c.438 0 .534-.247.577-.642h.219a16.654 16.654 0 0 0 0 1.687l-.22.043c-.042-.437-.064-.722-.569-.722h-.874v1.7c0 .476.421.476.89.476.876 0 1.262-.059 1.482-.89l.203.05c-.095.388-.182.774-.247 1.161-.468 0-1.308-.028-1.964-.028-.658 0-1.527.028-1.943.028v-.22" fill="#1A1918"/><path d="M35.832 50.94c-.468 0-1.308-.031-1.964-.031-.657 0-1.525.03-1.942.03h-.031v-.282h.133c.265-.004.505-.028.508-.384v-3.826c-.003-.357-.243-.38-.508-.385h-.133v-.283h.03c.447 0 1.206.028 1.818.028.614 0 1.372-.028 1.87-.028h.032l-.001.034a11.518 11.518 0 0 0 .014 1.113l.002.026-.025.008-.257.067v-.038c-.044-.474-.108-.818-.86-.826h-.984v1.85h.838c.42-.004.496-.22.546-.613l.001-.03h.281v.034a16.39 16.39 0 0 0 0 1.684v.027l-.026.006-.255.05-.001-.034c-.05-.446-.054-.69-.539-.695h-.845v1.67c.001.443.384.44.86.443.88-.005 1.231-.048 1.451-.867l.008-.03.03.005.235.061-.007.03c-.095.387-.182.773-.248 1.16l-.006.025h-.025zm-.027-.064c.064-.369.147-.738.237-1.105l-.144-.037c-.219.817-.642.89-1.504.885-.46 0-.92 0-.923-.508V48.38h.908c.51-.005.562.302.598.718l.158-.033a15.47 15.47 0 0 1 0-1.63h-.158c-.041.381-.16.647-.605.643h-.9V46.1h1.047c.759-.006.885.387.918.847l.157-.043a12.071 12.071 0 0 1-.014-1.062c-.496.003-1.236.029-1.837.029-.6 0-1.338-.026-1.785-.029v.156h.07c.26 0 .57.045.573.45v3.825c-.002.403-.313.447-.573.449h-.07v.154c.425-.001 1.269-.028 1.91-.028.645 0 1.467.027 1.937.028zm1.262-4.292c0-.532-.293-.554-.52-.554h-.131v-.22c.233 0 .686.03 1.132.03.437 0 .788-.03 1.175-.03.92 0 1.739.249 1.739 1.286 0 .657-.439 1.058-1.015 1.286l1.248 1.868c.205.31.35.396.708.439v.22c-.241 0-.475-.03-.715-.03-.226 0-.461.03-.686.03-.563-.738-1.045-1.526-1.52-2.368h-.48v1.564c0 .562.261.584.596.584h.133v.22c-.418 0-.84-.03-1.257-.03-.35 0-.693.03-1.058.03v-.22h.131c.272 0 .52-.124.52-.394v-3.71zM38 48.278h.357c.731 0 1.125-.277 1.125-1.139 0-.65-.417-1.065-1.067-1.065-.22 0-.313.022-.415.03v2.174z" fill="#1A1918"/><path d="M41.403 50.94c-.245 0-.477-.03-.717-.03-.222 0-.456.03-.71.017-.56-.735-1.04-1.519-1.512-2.353h-.432v1.53c.008.55.229.545.566.553h.164v.282h-.032c-.418 0-.842-.029-1.256-.029-.349 0-.692.03-1.058.03h-.032v-.283h.163c.263-.002.485-.116.486-.362v-3.71c-.005-.519-.259-.516-.486-.523h-.163v-.283h.032c.236 0 .687.028 1.132.028.436 0 .786-.028 1.175-.028.921.002 1.768.255 1.77 1.316 0 .66-.435 1.071-.998 1.3l1.226 1.838c.204.303.331.378.687.424l.026.004v.278h-.03zm-3.402-2.43h.499l.009.016c.475.84.955 1.628 1.493 2.35.222 0 .457-.028.684-.028.233 0 .459.025.685.028v-.16c-.342-.042-.503-.145-.702-.448l-1.271-1.9.036-.015c.572-.226.995-.616.996-1.258 0-1.013-.789-1.248-1.707-1.253-.384 0-.735.03-1.175.03-.429 0-.862-.027-1.101-.03v.156h.1c.227 0 .55.038.55.586v3.711c0 .293-.275.426-.55.427h-.1v.154c.35-.001.684-.028 1.027-.028.408 0 .82.027 1.224.028v-.154h-.1c-.332 0-.63-.042-.63-.618V48.51h.033zm0-.2h-.033v-2.236l.028-.003c.1-.008.199-.028.42-.028.665 0 1.098.432 1.098 1.098-.002.872-.42 1.168-1.156 1.169H38zm.357-.063c.723-.007 1.087-.258 1.094-1.106-.004-.638-.4-1.034-1.036-1.036-.197 0-.29.018-.384.027v2.115h.326zm8.003 1.222l.013-.015v-2.737c0-.6-.415-.687-.634-.687h-.16v-.22c.343 0 .678.03 1.022.03.3 0 .597-.03.899-.03v.22h-.11c-.307 0-.65.058-.65.927v3.323c0 .256.007.511.043.738h-.276l-3.76-4.193v3.01c0 .636.123.854.685.854h.124v.22c-.314 0-.628-.03-.942-.03-.33 0-.665.03-.993.03v-.22h.101c.504 0 .659-.344.659-.926v-3.077a.655.655 0 0 0-.665-.656h-.095v-.22c.276 0 .563.03.84.03.217 0 .43-.03.65-.03l3.25 3.659" fill="#1A1918"/><path d="M46.784 51.048l-.3-.01-3.707-4.13v2.926c.009.637.105.816.656.823h.155v.282h-.032c-.316 0-.63-.03-.942-.03-.326 0-.664.03-.993.03h-.032v-.282h.134c.483-.002.62-.313.625-.896v-3.075a.622.622 0 0 0-.631-.624h-.128v-.283h.032c.28 0 .565.028.84.028.215 0 .427-.028.672-.019l3.21 3.615v-2.686c-.002-.58-.391-.652-.603-.655h-.193v-.283h.032c.345 0 .681.028 1.023.028.297 0 .596-.028.897-.028h.033v.283h-.141c-.302.007-.612.034-.62.895v3.323c0 .255.007.509.045.733l.003.035h-.035zm-.277-.063h.24a4.987 4.987 0 0 1-.039-.705v-3.323c0-.876.37-.957.683-.96h.077v-.155c-.288.003-.576.029-.866.029-.336 0-.661-.026-.991-.029v.156h.129c.225.002.667.1.667.719l-.01 2.76-.014.014-.023.025-3.249-3.674c-.217 0-.429.029-.65.029-.27 0-.543-.026-.808-.029v.156h.064c.343.002.695.26.695.688v3.075c0 .586-.165.96-.689.961h-.07v.155c.315-.003.64-.03.96-.03.307 0 .61.027.912.03v-.155h-.092c-.575 0-.718-.251-.72-.888v-3.09l3.794 4.24zm-.147-1.516l.024-.021-.024.02zm-.017-.015v-.002l-.005-.005.005.007zm2.332.41c-.074.247-.162.44-.162.569 0 .22.308.256.548.256h.081v.22a16.583 16.583 0 0 0-.885-.03c-.263 0-.524.013-.788.03v-.22h.045c.284 0 .526-.168.634-.475l1.168-3.35c.096-.272.227-.637.272-.908.232-.08.525-.225.664-.313.022-.008.036-.015.058-.015.022 0 .036 0 .052.023.021.058.042.123.065.182l1.344 3.82c.088.254.175.524.268.745.09.204.243.29.484.29h.044v.22a20.754 20.754 0 0 0-1.007-.028c-.358 0-.724.012-1.097.028v-.22h.08c.168 0 .454-.028.454-.21 0-.095-.066-.292-.147-.527l-.285-.847h-1.657l-.233.76zm1.066-3.235h-.015l-.679 2.067h1.364l-.67-2.067z" fill="#1A1918"/><path d="M52.565 50.94c-.328-.015-.657-.031-1.005-.031-.358 0-.722.016-1.095.03l-.034.002v-.285h.113c.169 0 .42-.038.42-.179.002-.083-.063-.283-.144-.515l-.278-.827h-1.61l-.228.738c-.073.249-.162.442-.16.56.002.179.274.223.517.223h.112v.285l-.033-.002c-.292-.014-.59-.03-.882-.03-.26 0-.525.016-.786.03l-.034.002v-.285h.075c.272 0 .499-.156.604-.452l1.17-3.352c.094-.27.227-.634.29-.926a3.76 3.76 0 0 0 .663-.313c.02-.007.04-.016.07-.016a.09.09 0 0 1 .08.041l.067.185 1.344 3.819c.086.256.173.525.27.742.084.194.218.271.452.272h.074v.285l-.032-.002zm-2.07-.066c.361-.012.716-.026 1.065-.026.338 0 .657.014.974.026v-.153h-.01c-.251.002-.423-.096-.513-.312-.095-.22-.184-.491-.27-.747l-1.344-3.82c-.022-.058-.043-.123-.062-.175-.007-.007-.006-.007-.012-.007h-.013c-.015 0-.024.004-.043.009-.14.091-.433.235-.65.292-.045.277-.176.642-.271.912l-1.168 3.351c-.111.318-.368.498-.665.497h-.012v.153c.25-.012.503-.026.757-.026.282 0 .57.014.85.026v-.153h-.047c-.239-.003-.571-.029-.58-.288.001-.144.09-.331.162-.578l.031.01-.03-.01.24-.781h1.703l.292.867c.082.235.148.43.148.536-.01.224-.318.24-.483.244h-.049v.153zm-1.493-2.147l.7-2.13h.039v.032l-.008.002.008-.002v-.032h.022l.694 2.13h-1.455zm.088-.064h1.278l-.635-1.956-.643 1.956zm.619-2.025l.017-.005-.017.005zm3.179-.462c-.548 0-.57.132-.68.664h-.22c.03-.204.067-.408.09-.62.028-.205.042-.41.042-.62h.177c.057.219.24.21.437.21h3.769c.196 0 .378-.006.393-.226l.174.03c-.027.197-.056.394-.079.592-.016.197-.016.393-.016.59l-.218.082c-.013-.27-.05-.702-.54-.702H55.02v3.885c0 .563.256.628.606.628h.14v.22c-.286 0-.796-.03-1.192-.03-.437 0-.95.03-1.234.03v-.22h.139c.402 0 .606-.036.606-.613v-3.9h-1.197" fill="#1A1918"/><path d="M55.765 50.94c-.287 0-.799-.03-1.191-.03-.436 0-.948.03-1.234.03h-.032v-.283h.17c.404-.01.565-.015.575-.58v-3.87h-1.165v-.064h1.229v3.933c0 .586-.237.644-.638.645h-.108v.156c.289-.003.78-.03 1.203-.03.382 0 .87.027 1.159.03v-.156h-.108c-.352 0-.636-.085-.637-.66v-3.918h1.23c.49.002.554.419.568.69l.158-.058c0-.19.001-.382.016-.573.02-.188.048-.375.074-.561l-.11-.02c-.034.213-.24.225-.421.222h-3.806c-.173.002-.359-.008-.425-.213h-.12a4.279 4.279 0 0 1-.044.593c-.02.202-.055.395-.083.587h.157c.096-.51.159-.675.706-.667v.064c-.542.01-.53.101-.649.64l-.005.026h-.282l.004-.036c.031-.206.067-.41.088-.621.03-.205.044-.407.044-.616v-.033h.232l.006.023c.05.184.184.186.37.189h3.807c.202-.003.349-.006.362-.197l.001-.035.034.007.207.033-.005.032c-.03.196-.057.392-.08.588-.014.196-.014.392-.014.59v.022l-.022.008-.258.095-.001-.043c-.02-.274-.048-.672-.51-.672h-1.166v3.854c.008.55.226.59.574.596h.17v.282h-.03m1.575-.25h.103c.263 0 .54-.036.54-.416v-3.826c0-.38-.277-.417-.54-.417h-.102v-.22c.285 0 .722.03 1.08.03.365 0 .804-.03 1.148-.03v.22h-.103c-.264 0-.542.036-.542.417v3.826c0 .38.278.416.542.416h.103v.22c-.351 0-.79-.03-1.154-.03-.359 0-.79.03-1.074.03v-.22" fill="#1A1918"/><path d="M59.569 50.94c-.353 0-.79-.031-1.154-.031-.358 0-.79.03-1.074.03h-.032v-.282h.134c.263-.004.506-.028.508-.384v-3.826c-.002-.357-.245-.38-.508-.385h-.134v-.283h.032c.285 0 .724.028 1.08.028.363 0 .801-.028 1.148-.028h.03v.283h-.133c-.267.004-.507.028-.51.385v3.826c.003.356.243.38.51.384h.133v.282h-.03zm-.034-.064v-.155h-.069c-.262 0-.572-.045-.572-.448v-3.826c0-.404.31-.449.572-.45h.07v-.155c-.337.003-.76.029-1.116.029-.346 0-.764-.026-1.048-.029v.156h.071c.26 0 .57.045.572.45v3.825c-.001.403-.313.448-.572.448h-.07v.155c.28-.003.694-.028 1.042-.028.354 0 .776.026 1.12.028zm2.945-5.175c1.557 0 2.798.965 2.798 2.52 0 1.68-1.205 2.797-2.76 2.797-1.549 0-2.731-1.052-2.731-2.622 0-1.518 1.175-2.695 2.693-2.695m.11 4.995c1.418 0 1.665-1.25 1.665-2.314 0-1.067-.576-2.36-1.789-2.36-1.277 0-1.657 1.14-1.657 2.118 0 1.307.599 2.556 1.782 2.556" fill="#1A1918"/><path d="M59.754 48.396c.003-1.536 1.192-2.724 2.726-2.726v.063c-1.501 0-2.662 1.16-2.664 2.663.003 1.552 1.168 2.588 2.702 2.589 1.54 0 2.727-1.101 2.729-2.764-.002-1.536-1.223-2.486-2.767-2.488v-.063c1.568.001 2.826.976 2.829 2.55-.002 1.698-1.221 2.826-2.79 2.828-1.563-.002-2.762-1.065-2.765-2.652m1.023-.256c.002-.983.385-2.15 1.69-2.15 1.24.003 1.817 1.319 1.82 2.392-.003 1.065-.253 2.344-1.696 2.344v-.062c1.388 0 1.63-1.217 1.632-2.282 0-1.058-.57-2.325-1.757-2.327-1.253.001-1.623 1.112-1.626 2.085 0 1.3.594 2.522 1.75 2.524v.062c-1.211 0-1.811-1.272-1.813-2.586m9.421 1.329l.016-.015v-2.737c0-.6-.418-.687-.637-.687h-.159v-.22c.342 0 .679.03 1.021.03.3 0 .6-.03.9-.03v.22h-.11c-.306 0-.651.058-.651.927v3.323c0 .256.008.511.045.738h-.278l-3.761-4.193v3.01c0 .636.124.854.685.854h.126v.22c-.315 0-.628-.03-.942-.03-.33 0-.665.03-.994.03v-.22h.103c.504 0 .657-.344.657-.926v-3.077a.654.654 0 0 0-.665-.656h-.095v-.22c.278 0 .562.03.84.03.219 0 .43-.03.65-.03l3.25 3.659" fill="#1A1918"/><path d="M70.623 51.048l-.302-.01-3.706-4.13v2.927c.009.636.105.814.653.82h.158v.284h-.031c-.316 0-.63-.029-.942-.029-.327 0-.664.03-.995.03h-.03v-.284h.133c.482-.002.62-.312.626-.893v-3.077a.623.623 0 0 0-.633-.624h-.126v-.283h.03c.28 0 .565.028.84.028.218 0 .427-.028.675-.017l3.209 3.613v-2.686c-.003-.58-.392-.65-.605-.655h-.192v-.283h.033c.343 0 .68.028 1.02.028.3 0 .597-.028.9-.028h.031v.283h-.14c-.302.008-.612.035-.618.895v3.323c0 .255.005.51.04.733l.007.035h-.035zm-.278-.063h.24a5.17 5.17 0 0 1-.039-.705v-3.323c0-.878.369-.957.682-.96h.08v-.155c-.29.003-.578.029-.87.029-.332 0-.659-.026-.99-.029v.156h.13c.225.002.666.101.666.719l-.008 2.76-.014.014-.024.025-3.25-3.674c-.215 0-.428.029-.65.029-.268 0-.543-.026-.808-.029v.156h.064c.343.002.696.26.696.688v3.077c0 .584-.163.957-.689.959h-.071v.155c.317-.003.642-.03.963-.03.304 0 .607.027.91.03v-.155h-.095c-.573 0-.716-.251-.716-.887v-3.091l3.793 4.24zm-.147-1.516l.024-.021-.024.02zm-.016-.015v-.002l-.006-.005.006.007zm2.329.41c-.071.247-.16.44-.16.569 0 .22.308.256.548.256h.081v.22a16.58 16.58 0 0 0-.884-.03c-.263 0-.526.013-.787.03v-.22h.041c.286 0 .528-.168.635-.475l1.17-3.35c.095-.272.227-.637.27-.908a3.84 3.84 0 0 0 .666-.313c.02-.008.035-.015.058-.015.02 0 .035 0 .05.023l.066.182 1.343 3.82c.087.254.176.524.271.745.088.204.24.29.481.29h.046v.22c-.33-.016-.659-.028-1.01-.028-.356 0-.722.012-1.095.028v-.22h.08c.168 0 .454-.028.454-.21 0-.095-.065-.292-.147-.527l-.285-.847h-1.657l-.235.76zm1.068-3.235h-.014l-.681 2.067h1.367l-.672-2.067z" fill="#1A1918"/><path d="M76.402 50.94c-.329-.014-.657-.03-1.005-.03-.356 0-.722.016-1.094.03l-.033.001v-.284h.111c.17 0 .422-.04.422-.18.002-.083-.064-.282-.146-.515l-.277-.827h-1.612l-.226.738c-.073.25-.16.442-.159.56 0 .179.274.224.515.224h.112v.284l-.033-.002c-.291-.013-.59-.029-.881-.029-.262 0-.524.016-.787.03l-.032.001v-.284h.073c.272-.001.5-.157.607-.453l1.168-3.352c.094-.27.225-.634.29-.925.229-.08.522-.226.664-.314.019-.007.04-.016.07-.016a.082.082 0 0 1 .079.043c.022.057.044.124.067.183l1.343 3.819c.088.256.175.525.27.743.086.193.218.27.452.272h.075v.284l-.033-.002zm-2.07-.065c.361-.013.717-.027 1.065-.027.34 0 .657.014.976.026l-.001-.153h-.012c-.248.001-.42-.096-.511-.312-.096-.22-.183-.491-.27-.746l-1.344-3.82a7.224 7.224 0 0 1-.062-.175c-.006-.008-.006-.008-.01-.008h-.015c-.015 0-.023.005-.04.01-.144.09-.436.236-.652.291-.045.277-.178.641-.271.912l-1.17 3.351c-.111.318-.366.498-.665.497h-.01v.153c.25-.012.502-.026.756-.026.282 0 .571.014.852.026v-.153h-.05c-.237-.003-.57-.028-.58-.288.003-.144.093-.33.164-.578l.03.01-.03-.01.24-.781h1.702l.294.867c.08.235.147.43.147.536-.01.224-.318.24-.484.244h-.049v.154zm-1.492-2.148l.701-2.13h.038v.032l-.008.002.008-.002v-.032h.022l.69 2.13h-1.45zm.088-.064h1.278l-.635-1.955-.643 1.955zm.62-2.025l.015-.005-.014.005zm4.697 3.554c0 .293.203.38.437.41.299.022.628.022.965-.015.306-.037.569-.211.7-.395.116-.16.182-.365.227-.525h.21c-.08.416-.182.825-.27 1.241-.64 0-1.285-.028-1.927-.028-.643 0-1.285.028-1.927.028v-.22h.1c.264 0 .55-.035.55-.488v-3.753c0-.38-.286-.417-.55-.417h-.1v-.22c.386 0 .766.03 1.153.03.373 0 .737-.03 1.11-.03v.22h-.183c-.277 0-.495.008-.495.395v3.767" fill="#1A1918"/><path d="M80.515 50.94c-.644 0-1.287-.03-1.928-.03-.642 0-1.285.03-1.929.03h-.03v-.283h.133c.264-.006.514-.025.517-.457v-3.754c-.003-.356-.252-.38-.517-.384h-.134v-.283h.031c.39 0 .77.028 1.154.028.372 0 .736-.028 1.112-.028h.029v.283h-.213c-.283.007-.459-.006-.465.363v3.767c.002.273.18.346.409.379a5.923 5.923 0 0 0 .957-.015c.298-.035.554-.207.68-.382.113-.156.177-.356.22-.515l.007-.024h.275l-.006.039c-.083.417-.184.824-.272 1.24l-.006.025h-.024zm-.027-.064c.085-.396.18-.784.26-1.178h-.152c-.044.159-.11.355-.224.514a1.09 1.09 0 0 1-.724.407 5.606 5.606 0 0 1-.97.013c-.238-.026-.468-.128-.467-.44v-3.767c0-.406.257-.427.53-.427h.15v-.156c-.36.003-.715.03-1.079.03-.377 0-.747-.027-1.12-.03v.156h.069c.26 0 .579.045.579.448V50.2c0 .473-.318.521-.58.521h-.069v.155c.63-.001 1.262-.028 1.896-.028.635 0 1.269.027 1.901.028zm.208-5.272c.44 0 .769.338.769.77a.753.753 0 0 1-.77.767.753.753 0 0 1-.768-.767c0-.432.33-.77.769-.77zm0 1.394a.62.62 0 0 0 .608-.624.62.62 0 0 0-.608-.626.621.621 0 0 0-.61.626.62.62 0 0 0 .61.624zm-.383-.218v-.037c.094-.014.112-.011.112-.069v-.57c0-.08-.008-.108-.109-.103v-.04h.394c.135 0 .26.065.26.205 0 .114-.075.199-.182.232l.127.176c.058.08.126.155.169.182v.024h-.15c-.072 0-.135-.151-.276-.354h-.085v.255c0 .05.017.048.112.062v.037h-.372zm.26-.406h.09c.1 0 .145-.075.145-.196 0-.122-.07-.165-.15-.165h-.085v.361z" fill="#1A1918"/><path d="M35.086 20.03c0-6.83 5.537-12.367 12.367-12.367 6.83 0 12.368 5.537 12.368 12.368 0 6.83-5.537 12.368-12.368 12.368-6.83 0-12.367-5.538-12.367-12.368" fill="#FFF"/><path d="M54.933 19.787a7.44 7.44 0 0 0-4.774-6.938v13.876a7.44 7.44 0 0 0 4.774-6.938zm-10.096 6.935V12.85a7.447 7.447 0 0 0-4.77 6.936 7.444 7.444 0 0 0 4.77 6.935zM47.5 8.059c-6.477.003-11.724 5.251-11.725 11.728.001 6.476 5.248 11.724 11.725 11.725 6.477-.001 11.726-5.249 11.727-11.725C59.225 13.31 53.976 8.062 47.5 8.06zm-.028 24.56c-7.088.034-12.921-5.708-12.921-12.698C34.55 12.282 40.383 7 47.47 7h3.322c7.004-.001 13.396 5.28 13.396 12.921 0 6.987-6.392 12.698-13.396 12.698H47.47z" fill="#0069AA"/></g></svg>