<svg width="100" height="60" viewBox="0 0 100 60" xmlns="http://www.w3.org/2000/svg"><title>maestro</title><g fill="none" fill-rule="evenodd"><rect fill="#FFF" width="100" height="60" rx="4"/><path d="M63.715 50.033c-11.01 0-19.938-8.96-19.938-20.016C43.777 18.96 52.704 10 63.715 10c11.014 0 19.94 8.961 19.94 20.017 0 11.055-8.926 20.016-19.94 20.016z" fill="#C00"/><path d="M48.313 42.728a19.871 19.871 0 0 1-1.519-2.12h7.067c.424-.68.807-1.387 1.149-2.12h-9.364a19.911 19.911 0 0 1-.844-2.119h11.05a20.044 20.044 0 0 0 1.026-6.352 20.19 20.19 0 0 0-.448-4.239H44.226c.154-.722.349-1.429.578-2.12h11.047a20.171 20.171 0 0 0-.843-2.118h-9.36a20.11 20.11 0 0 1 1.149-2.12h7.062a20.29 20.29 0 0 0-1.519-2.118h-4.025a20.165 20.165 0 0 1 2.013-2.119A19.824 19.824 0 0 0 36.94 10C25.927 10 17 18.961 17 30.017c0 11.055 8.927 20.016 19.94 20.016 5.152 0 9.85-1.962 13.388-5.182a20.1 20.1 0 0 0 2.014-2.123h-4.029" fill="#06C"/><path d="M50.044 35.426a9.655 9.655 0 0 1-2.548.335c-2.779-.002-4.226-1.273-4.226-3.703 0-2.839 1.842-4.927 4.344-4.927 2.046 0 3.351 1.17 3.351 3.005 0 .609-.088 1.202-.304 2.04h-4.943c-.175 1.187.688 1.708 2.157 1.708.88 0 1.676-.159 2.558-.515l-.39 2.057zm-1.33-4.924c0-.18.276-1.453-1.155-1.48-.79 0-1.356.526-1.585 1.48h2.74zm3.004-.557c0 1.049.588 1.773 1.925 2.313 1.022.42 1.183.542 1.183.917 0 .52-.451.759-1.454.753a8.253 8.253 0 0 1-2.251-.323l-.36 1.913c.722.167 1.733.223 2.628.243 2.67 0 3.902-.877 3.902-2.773 0-1.14-.514-1.81-1.782-2.31-1.06-.425-1.184-.517-1.184-.902 0-.451.42-.68 1.239-.68.496 0 1.175.046 1.82.124l.361-1.923a19.538 19.538 0 0 0-2.23-.165c-2.827 0-3.806 1.278-3.797 2.813m-9.803 5.679h-2.073l.05-.871c-.633.687-1.475 1.008-2.618 1.008-1.352 0-2.279-.929-2.279-2.264 0-2.03 1.61-3.2 4.38-3.2.285 0 .647.021 1.019.063.077-.271.097-.388.097-.536 0-.555-.435-.76-1.6-.76a9.538 9.538 0 0 0-2.645.37l.355-1.862c1.244-.318 2.058-.441 2.98-.441 2.144 0 3.277.845 3.277 2.43.018.424-.129 1.274-.203 1.646-.083.54-.678 3.677-.74 4.417zm-1.82-3.702a4.909 4.909 0 0 0-.557-.034c-1.414 0-2.13.422-2.13 1.256 0 .524.35.852.895.852 1.016 0 1.75-.853 1.792-2.074zm21.564 3.571c-.68.187-1.21.268-1.784.268-1.27 0-1.963-.651-1.963-1.812-.04-.318.27-1.791.34-2.201.07-.412 1.17-6.411 1.17-6.411h2.468l-.373 1.985h1.266l-.344 2.025h-1.271s-.698 3.517-.698 3.786c0 .426.257.611.848.611.283 0 .501-.026.67-.077l-.33 1.826m11.026-8.362c-1.808 0-3.221.748-4.042 1.996l.712-1.851c-1.312-.484-2.159.206-2.924 1.188 0 0-.128.163-.256.312V27.32h-2.317c-.314 2.567-.869 5.171-1.302 7.745l-.105.56h2.492c.237-1.306.43-2.366.624-3.211.53-2.319 1.42-3.028 2.759-2.714-.31.666-.478 1.438-.478 2.292 0 2.073 1.12 3.768 3.904 3.768 2.81 0 4.844-1.506 4.844-4.94 0-2.073-1.356-3.69-3.91-3.69zm-.725 6.616c-.88.013-1.414-.728-1.414-1.838 0-1.314.779-2.8 2.03-2.8 1.01 0 1.356.804 1.356 1.66 0 1.87-.764 2.978-1.972 2.978zm-38.125 1.878h-2.482l1.475-7.802-3.397 7.802h-2.262l-.414-7.756-1.48 7.756h-2.251l1.917-10.148h3.88l.322 5.657 2.458-5.657h4.19l-1.956 10.148" fill="#006"/><path d="M50.666 34.8a9.636 9.636 0 0 1-2.546.336c-2.78-.002-4.227-1.273-4.227-3.703 0-2.839 1.842-4.927 4.343-4.927 2.047 0 3.353 1.17 3.353 3.005 0 .608-.089 1.2-.305 2.04h-4.942c-.176 1.186.686 1.708 2.156 1.708.88 0 1.676-.16 2.558-.516l-.39 2.058zm-1.329-4.923c0-.18.275-1.453-1.154-1.481-.79 0-1.357.527-1.586 1.48h2.74zm3.004-.557c0 1.048.588 1.772 1.925 2.312 1.022.42 1.183.542 1.183.917 0 .521-.452.76-1.454.754a8.26 8.26 0 0 1-2.25-.324l-.36 1.913c.72.168 1.732.223 2.627.244 2.669 0 3.902-.877 3.902-2.774 0-1.14-.514-1.81-1.782-2.31-1.06-.424-1.184-.517-1.184-.9 0-.452.42-.682 1.239-.682.496 0 1.175.047 1.82.125l.361-1.923a19.257 19.257 0 0 0-2.229-.165c-2.828 0-3.806 1.277-3.798 2.812M42.538 35h-2.073l.05-.873c-.633.687-1.475 1.007-2.618 1.007-1.352 0-2.28-.928-2.28-2.263 0-2.029 1.612-3.2 4.381-3.2.285 0 .647.022 1.019.063.077-.271.097-.387.097-.535 0-.557-.435-.76-1.6-.76a9.532 9.532 0 0 0-2.644.37l.353-1.863c1.245-.317 2.059-.44 2.981-.44 2.145 0 3.277.844 3.277 2.43.019.424-.129 1.272-.202 1.646-.085.54-.679 3.677-.74 4.417zm-1.82-3.704a4.637 4.637 0 0 0-.557-.034c-1.413 0-2.13.422-2.13 1.256 0 .525.35.853.894.853 1.017 0 1.75-.854 1.793-2.075zm21.564 3.571c-.68.188-1.21.27-1.784.27-1.27 0-1.963-.653-1.963-1.813-.04-.319.27-1.792.34-2.202.07-.411 1.171-6.41 1.171-6.41h2.467l-.373 1.984h1.266l-.344 2.026H61.79s-.698 3.516-.698 3.784c0 .428.257.612.848.612.283 0 .5-.025.67-.077l-.33 1.826m12.274-4.725c0 1.872-.764 2.98-1.972 2.98-.88.012-1.414-.728-1.414-1.838 0-1.315.779-2.8 2.03-2.8 1.01 0 1.356.803 1.356 1.658zm2.664.053c0-2.072-1.356-3.689-3.91-3.689-2.938 0-4.838 1.966-4.838 4.862 0 2.072 1.12 3.768 3.905 3.768 2.809 0 4.843-1.506 4.843-4.941zm-12.738-3.5c-.314 2.568-.869 5.172-1.302 7.745l-.105.56h2.492c.898-4.97 1.2-6.385 3.082-5.887l.905-2.351c-1.313-.484-2.158.207-2.922 1.189.069-.442.198-.869.167-1.256H64.48M34.457 35h-2.482l1.475-7.802L30.053 35h-2.262l-.414-7.756L25.897 35h-2.251l1.917-10.148h3.88l.204 6.282 2.73-6.282h4.036L34.457 35" fill="#FFF"/></g></svg>