<svg width="16" height="16" viewBox="0 0 16 16" xmlns="http://www.w3.org/2000/svg"><title>[icon]/close/dark</title><path d="M10.828 8l3.892-3.892a.496.496 0 0 0 .004-.697L12.59 1.276a.49.49 0 0 0-.697.004L8 5.172 4.173 1.345a.57.57 0 0 0-.817-.015L1.33 3.356a.573.573 0 0 0 .015.817L5.172 8 1.28 11.892a.496.496 0 0 0-.004.697l2.135 2.135a.49.49 0 0 0 .697-.004L8 10.828l3.827 3.827a.57.57 0 0 0 .817.015l2.026-2.026a.573.573 0 0 0-.015-.817L10.828 8z" fill="currentColor" fill-rule="evenodd"/></svg>