<svg width="100" height="60" viewBox="0 0 100 60" xmlns="http://www.w3.org/2000/svg"><title>visa-mc-hint@3x</title><g fill="none" fill-rule="evenodd"><rect fill="#EEE" width="100" height="60" rx="4"/><path fill="#616161" d="M0 19h100V7H0z"/><path fill="#78909C" d="M7.2 41h52.1V31H7.2z"/><path fill="#000" d="M66.8 32.6l1.9-.5h.9v6.2h-1.4v-4.8l-1.2.3zm13.1.7h-2.4v-1.2h4.3v1l-1.6 1.5c1.133.2 1.7.767 1.7 1.7a1.902 1.902 0 0 1-.6 1.5 2.398 2.398 0 0 1-1.6.6 3.099 3.099 0 0 1-2.5-1.1l.9-.9c.383.429.925.682 1.5.7l.6-.2a.8.8 0 0 0-.1-1.2l-.9-.2h-.5l-.2-.9 1.4-1.3zm-6.2 0l-.6.2-.6.6-1-.8a3.502 3.502 0 0 1 1-1c.4-.211.848-.315 1.3-.3a2.298 2.298 0 0 1 1.6.5c.397.355.617.868.6 1.4 0 .433-.14.854-.4 1.2a6.61 6.61 0 0 1-1.3 1.2l-1 .8H76v1.2h-4.6v-1.1l2.1-1.7.8-.8a1.1 1.1 0 0 0 .2-.7.8.8 0 0 0-.2-.6l-.6-.1z"/><path d="M63.4 41h22.4V30H63.4v11zm-2.1 2h26.6V28H61.3v15z" fill="#FF5252"/></g></svg>