<svg width="16" height="16" viewBox="0 0 16 16" xmlns="http://www.w3.org/2000/svg"><title>[icon]/search/dark</title><path d="M15.645 13.904l-3.299-3.298a6.585 6.585 0 0 0 1.193-3.837 6.65 6.65 0 0 0-.534-2.63 6.766 6.766 0 0 0-1.442-2.163A6.767 6.767 0 0 0 9.399.534 6.653 6.653 0 0 0 6.77 0a6.65 6.65 0 0 0-2.63.534 6.766 6.766 0 0 0-2.163 1.442A6.768 6.768 0 0 0 .534 4.14 6.651 6.651 0 0 0 0 6.77c0 .916.178 1.792.534 2.63a6.767 6.767 0 0 0 1.442 2.163 6.768 6.768 0 0 0 2.164 1.442 6.651 6.651 0 0 0 2.63.534c1.41 0 2.689-.398 3.836-1.193l3.298 3.289c.23.243.52.365.866.365.333 0 .621-.122.865-.365.243-.244.365-.532.365-.866 0-.34-.118-.628-.355-.865zM9.813 9.813c-.843.843-1.858 1.264-3.044 1.264-1.185 0-2.2-.422-3.043-1.264-.843-.843-1.264-1.858-1.264-3.044s.421-2.2 1.264-3.043S5.584 2.462 6.77 2.462s2.2.421 3.044 1.264c.843.843 1.264 1.857 1.264 3.043 0 1.186-.421 2.2-1.264 3.044z" fill="currentColor" fill-rule="evenodd"/></svg>