<svg width="136" height="32" viewBox="0 0 136 32" fill="none" xmlns="http://www.w3.org/2000/svg">
<g clip-path="url(#clip0_0_2197)">
<path fill-rule="evenodd" clip-rule="evenodd" d="M22.7901 0.927915C22.042 1.65827 21.9136 1.95676 21.9136 2.96647C21.9136 5.65333 25.039 6.88678 26.9988 4.97356C27.8547 4.138 27.9001 4.01091 27.7794 2.78652C27.5191 0.139175 24.6809 -0.917853 22.7901 0.927915ZM75.566 0.716511C74.1919 1.84526 74.1761 3.81561 75.5307 5.1379C77.1394 6.70833 80.1426 5.75425 80.5687 3.53726C81.0823 0.864496 77.7045 -1.04017 75.566 0.716511ZM107.792 0.716511C105.685 2.44752 106.953 5.8607 109.703 5.8607C110.73 5.8607 111.038 5.73411 111.785 5.00502C114.453 2.4002 110.678 -1.65425 107.792 0.716511ZM0 15.8018V31.2797H2.70697H5.41394V24.7362V18.1927H11.3435H17.2731V15.9276V13.6626H11.3435H5.41394V9.25829V4.85401H12.2458H19.0777V2.58896V0.323902H9.53885H0V15.8018ZM40.3674 9.40249C28.8689 11.1036 27.3226 27.9563 38.3598 31.2842C46.1523 33.6338 53.5795 29.0511 54.0708 21.5903C54.5836 13.8022 48.315 8.22693 40.3674 9.40249ZM67.3711 9.48051C65.4803 10.0825 63.5099 11.5777 62.6888 13.0334C62.4604 13.4383 62.4034 13.1801 62.397 11.7121L62.3892 9.88747H59.9401H57.4909V20.5836V31.2797H59.9243H62.3575L62.438 24.7991C62.5535 15.462 64.0407 13.4854 70.1879 14.4984L71.4125 14.7002V12.1827C71.4125 10.7983 71.2993 9.59729 71.1608 9.51374C70.604 9.17775 68.3832 9.15837 67.3711 9.48051ZM123.876 9.38085C120.769 9.82833 118.073 11.8294 117.197 14.338C116.491 16.3612 116.532 16.4252 118.591 16.473C119.584 16.4959 120.568 16.5243 120.778 16.5359C120.988 16.5472 121.423 16.0472 121.744 15.4243C123.533 11.9615 130.966 12.8134 130.966 16.481C130.966 17.7915 130.262 18.1713 127.036 18.6014C118.145 19.787 116.03 20.9933 115.798 25.012C115.424 31.4626 124.478 34.4266 129.913 29.633C131.104 28.5827 131.223 28.5666 131.227 29.455C131.236 31.2137 131.328 31.2797 133.771 31.2797H136L135.934 27.6933C135.672 13.5621 135.716 13.9235 134.025 12.0483C132.547 10.4089 127.947 8.86517 125.43 9.16391C125.284 9.18102 124.585 9.27867 123.876 9.38085ZM22.4292 20.5836V31.2797H24.8783H27.3275V20.5836V9.88747H24.8783H22.4292V20.5836ZM75.0218 20.5836V31.2797H77.5998H80.1779V20.5836V9.88747H77.5998H75.0218V20.5836ZM82.7634 10.0762C82.7673 10.1802 84.4892 14.965 86.5895 20.7094L90.4084 31.1538L93.3835 31.2245C96.0358 31.2875 96.3782 31.2464 96.5411 30.847C97.4293 28.6686 104.412 10.262 104.412 10.0994C104.412 9.98285 103.325 9.88747 101.997 9.88747H99.5817L96.6721 17.8184C95.0719 22.1807 93.7231 25.7111 93.6749 25.6638C93.5849 25.5762 87.9121 10.1311 87.9121 9.97404C87.9121 9.92648 86.752 9.88747 85.334 9.88747C83.9161 9.88747 82.7593 9.97228 82.7634 10.0762ZM107.505 20.5836V31.2797H109.955H112.404V20.5836V9.88747H109.955H107.505V20.5836ZM45.7612 14.2789C51.8527 17.7636 49.3671 27.8063 42.4046 27.8426C37.5596 27.8677 34.4703 22.6956 36.2631 17.56C37.5034 14.0058 42.3548 12.33 45.7612 14.2789ZM131.165 22.2006C130.819 26.9305 124.621 29.9171 121.491 26.8625C119.082 24.5117 120.952 22.6183 126.549 21.7418C128.249 21.4752 129.967 21.0894 130.367 20.8843C130.768 20.6789 131.139 20.499 131.194 20.4844C131.248 20.4698 131.235 21.2419 131.165 22.2006Z" fill="#17171B"/>
</g>
<defs>
<clipPath id="clip0_0_2197">
<rect width="68" height="16" fill="white" transform="scale(2)"/>
</clipPath>
</defs>
</svg>
