<svg fill="none" height="410" viewBox="0 0 576 410" width="576" xmlns="http://www.w3.org/2000/svg"><g stroke="#3a49da" visibility="hidden"><path d="m338.047 314.931 28.321 65.178" stroke="#3a49da" stroke-linecap="round" stroke-width="2"/><path d="m342.539 187.922v-28.658l44.069 15.066.589.202.441-.441 34.324-34.323 17.817 12.472c-.269.32-.611.727-1.022 1.211-1.105 1.306-2.698 3.177-4.65 5.435-3.906 4.516-9.244 10.578-14.981 16.764-5.739 6.188-11.864 12.489-17.344 17.489-2.741 2.5-5.308 4.663-7.575 6.321-2.286 1.672-4.198 2.777-5.637 3.232-2.921.922-7.247.546-12.259-.677-4.965-1.211-10.428-3.207-15.521-5.341-5.088-2.132-9.782-4.392-13.205-6.119-1.711-.864-3.104-1.593-4.067-2.107-.405-.215-.734-.393-.979-.526z" fill="#fff" stroke="#3a49da" stroke-width="2"/><rect fill="#fff" height="45.332" rx="7" stroke="#3a49da" stroke-width="2" width="463.559" x="70.963" y="114.577"/><rect fill="#fff" height="29.037" rx="14.519" stroke="#e0e5f8" stroke-width="2" width="258.713" x="181.921" y="122.336"/><circle cx="195.509" cy="135.923" r="6.78" stroke="#3a49da" stroke-width="3.2"/><path d="m200.165 140.579 5.586 5.587" stroke="#3a49da" stroke-width="3.2"/><path clip-rule="evenodd" d="m94.391 129.003c.937-.95 2.204-1.565 3.637-1.565 1.873 0 3.526 1.062 4.408 2.627.771-.336 1.598-.559 2.48-.559 3.416 0 6.171 2.794 6.171 6.259s-2.755 6.259-6.171 6.259c-.441 0-.827-.056-1.213-.112-.771 1.397-2.259 2.347-3.967 2.347-.716 0-1.378-.167-1.984-.447-.771 1.844-2.59 3.13-4.739 3.13-2.204 0-4.133-1.397-4.849-3.409-.331.056-.661.111-.992.111-2.645 0-4.794-2.179-4.794-4.861 0-1.789.937-3.354 2.369-4.192-.275-.67-.44-1.453-.44-2.235 0-3.074 2.479-5.589 5.565-5.589 1.929.056 3.527.895 4.519 2.236" fill="#fff" fill-rule="evenodd"/><path d="m94.391 129.003c.937-.95 2.204-1.565 3.637-1.565 1.873 0 3.526 1.062 4.408 2.627.771-.336 1.598-.559 2.48-.559 3.416 0 6.171 2.794 6.171 6.259s-2.755 6.259-6.171 6.259c-.441 0-.827-.056-1.213-.112-.771 1.397-2.259 2.347-3.967 2.347-.716 0-1.378-.167-1.984-.447-.771 1.844-2.59 3.13-4.739 3.13-2.204 0-4.133-1.397-4.849-3.409-.331.056-.661.111-.992.111-2.645 0-4.794-2.179-4.794-4.861 0-1.789.937-3.354 2.369-4.192-.275-.67-.44-1.453-.44-2.235 0-3.074 2.479-5.589 5.565-5.589 1.929.056 3.527.895 4.519 2.236" stroke="#3a49da" stroke-width="2"/><path d="m502.933 128.319h20.174v1.552h-20.174z" fill="#3a49da"/><path d="m502.933 136.079h20.174v1.552h-20.174z" fill="#3a49da"/><path d="m502.933 143.838h20.174v1.552h-20.174z" fill="#3a49da"/><g stroke-width="2"><path d="m284.509 150.494-65.11 130.219c-.555 1.111-.844 2.336-.844 3.578v65.332c0 5.982 6.324 9.848 11.648 7.12l30.944-15.856c2.671-1.368 4.352-4.118 4.352-7.119v-26.536l48.107-10.087 8.411-8.237c18.728-18.342 29.505-43.305 30.011-69.514l1.151-59.589 19.786-15.579s11.251-8.923 11.251-10.475-12.803-16.683-12.803-16.683v-5.774c0-2.902-1.572-5.576-4.107-6.989l-17.806-9.9201c-3.108-1.7315-6.985-1.2027-9.516 1.2977z" fill="#fff"/><path d="m371.801 117.129-31.037 30.977v11.311h13.191"/><path d="m349.299 139.57 7.371 17.071" stroke-linecap="round"/><path d="m296.924 138.467 25.675 26.001c2.84 2.875 7.379 3.181 10.579.713l7.974-6.152"/><path d="m327.961 167.504-10.475 60.195"/><path d="m291.104 143.899 35.305 34.529"/><path d="m332.059 88.1419 7.428 7.6723-11.481 11.1158-7.428-7.6718c-3.07-3.1704-2.988-8.2289.182-11.2986s8.229-2.9881 11.299.1823z" fill="#fff"/><path d="m329.517 90.4404 7.51 7.7569-6.559 6.3517-7.511-7.7571c-1.754-1.8114-1.707-4.7017.104-6.4557 1.812-1.7539 4.702-1.7073 6.456.1042z" fill="#fff"/><path d="m270.154 179.979 75.653 75.654"/><path d="m229.484 206.578-.21.072-.16.153-26.443 25.31-18.038-18.398c.229-.246.515-.552.854-.915.967-1.032 2.361-2.515 4.072-4.32 3.422-3.61 8.109-8.503 13.171-13.638 5.063-5.135 10.495-10.507 15.409-15.076 4.93-4.585 9.285-8.311 12.209-10.197 2.916-1.882 7.829-4.106 13.628-6.397 5.779-2.282 12.368-4.604 18.591-6.686 6.222-2.082 12.069-3.922 16.362-5.242 2.146-.66 3.903-1.19 5.123-1.554.61-.183 1.086-.324 1.409-.419.044-.013.086-.025.124-.037 6.112 3.034 10.886 9.701 11.752 17.041.87 7.369-2.193 15.504-12.082 21.326z" fill="#fff"/><rect fill="#fff" height="17.528" rx="3" transform="matrix(.73148581 .68185666 -.68185666 .73148581 190.666591 -77.93487)" width="6.09966" x="194.286" y="203.119"/><rect fill="#fff" height="17.528" rx="3" transform="matrix(.73148581 .68185666 -.68185666 .73148581 195.1311 -80.065907)" width="6.09966" x="199.224" y="207.722"/><rect fill="#fff" height="17.528" rx="3" transform="matrix(.73148581 .68185666 -.68185666 .73148581 199.594659 -82.196531)" width="6.09966" x="204.161" y="212.324"/><rect fill="#fff" height="17.528" rx="3" transform="matrix(.73148581 .68185666 -.68185666 .73148581 204.058218 -84.327155)" width="6.09966" x="209.098" y="216.926"/><circle cx="357.446" cy="117.517" r="3.26762"/><path d="m399.347 162.133-35.693 35.693"/><path d="m281.017 266.108c5.82-17.846 16.683-30.261 36.469-39.573"/><path d="m286.836 148.166-57.419 58.971"/><path d="m334.168 304.904-33.365 13.191 24.311 57.204c1.255 2.953 4.154 4.871 7.363 4.871h33.892z" fill="#fff"/><path d="m202.82 352.46h11.467c15.397 0 27.941 12.217 28.468 27.486h-35.211c-3.866 0-7-3.134-7-7v-18.209c0-1.258 1.019-2.277 2.276-2.277z" fill="#fff"/><path d="m203.658 339.482 14.672-8.465v42.256c0 3.866-3.134 7-7 7h-4.174c-3.866 0-7-3.134-7-7v-27.728c0-2.501 1.335-4.813 3.502-6.063z" fill="#fff"/><path d="m225.391 279.462h55.612c5.005 0 8.393 5.099 6.453 9.713l-19.121 45.491c-1.457 3.467-5.394 5.163-8.915 3.84l-36.491-13.71c-2.73-1.026-4.538-3.636-4.538-6.553v-31.781c0-3.866 3.134-7 7-7z" fill="#fff"/><path d="m220.872 278.065 29.763-59.526 80.674 82.41c2.718 2.777 2.654 7.236-.142 9.934l-21.281 20.534c-2.25 2.171-5.668 2.587-8.373 1.018l-77.893-45.185c-3.198-1.855-4.402-5.878-2.748-9.185z" fill="#fff"/><path d="m374.664 379.946h-41.227c-3.621 0-6.889-2.17-8.294-5.508l-9.254-21.978h30.307c15.397 0 27.941 12.217 28.468 27.486z" fill="#fff"/><path d="m338.048 313.767-27.546 27.546"/><path d="m218.555 330.062 36.468 13.578"/><path d="m338.047 314.931 28.321 65.178" stroke-linecap="round"/><path d="m377.62 124.828-1.048 8.734c-.073.609.137 1.218.571 1.652l2.417 2.416" stroke="#3a49da" stroke-linecap="round"/><path d="m366.757 122.112c1.552-15.907-13.578-26.77-23.666-19.01-10.087 7.759-10.863 27.157 8.536 34.14" stroke="#3a49da"/></g></g><g visibility="hidden"><path d="m52.298 255.189c-1.227 1.845-2.959 3.298-4.989 4.184-2.031.886-4.274 1.169-6.461.814s-4.225-1.333-5.871-2.816c-1.646-1.484-2.829-3.41-3.409-5.548-.58-2.139-.531-4.399.14-6.511.672-2.111 1.937-3.984 3.646-5.395 1.708-1.411 3.787-2.3 5.987-2.561 2.2-.26 4.429.119 6.419 1.092l-.091-.07c.005-1.112.268-2.209.771-3.202.502-.993 1.229-1.854 2.123-2.517.895-.662 1.931-1.107 3.027-1.299s2.222-.125 3.287.194l.169.169c0-3.945 1.567-7.729 4.357-10.518 2.789-2.79 6.573-4.357 10.518-4.357s7.728 1.567 10.518 4.357c2.789 2.789 4.357 6.573 4.357 10.518v.301c2.532-.688 5.228-.434 7.587.715 2.359 1.15 4.221 3.116 5.24 5.534 1.089-.441 2.254-.667 3.429-.666 1.68-.004 3.327.462 4.755 1.346h.091c-.034-1.248.182-2.491.637-3.655.454-1.164 1.137-2.225 2.008-3.12s1.913-1.607 3.064-2.093c1.15-.486 2.387-.736 3.636-.736s2.486.25 3.637.736 2.192 1.198 3.064 2.093c.871.895 1.554 1.956 2.008 3.12s.67 2.407.636 3.655l.091-.084c.422-.124.859-.188 1.298-.189 1.19.002 2.33.475 3.172 1.316.841.842 1.314 1.982 1.316 3.172l-.056.042c1.251-.611 2.651-.848 4.034-.684 1.382.164 2.688.723 3.761 1.61s1.868 2.064 2.289 3.391.452 2.747.087 4.09c-.364 1.344-1.108 2.554-2.142 3.485-1.035.932-2.315 1.546-3.69 1.769-1.374.223-2.783.045-4.059-.512-1.275-.557-2.364-1.47-3.134-2.629l-.063-.147h-.056c-.828 1.72-2.097 3.188-3.679 4.256-1.582 1.067-3.42 1.694-5.324 1.817-1.905.122-3.808-.264-5.514-1.119s-3.153-2.149-4.195-3.748h-.175c-.706 1.222-1.721 2.236-2.944 2.942-1.222.705-2.609 1.077-4.02 1.077l-.105-.085c-.211.253-.435.505-.701.751-2.421 2.414-5.699 3.769-9.118 3.769-3.418 0-6.696-1.355-9.117-3.769h-.042c-.774-.76-1.448-1.615-2.006-2.546h-.231c-1.658 2.544-3.962 4.601-6.677 5.96-2.715 1.36-5.742 1.973-8.772 1.777-3.03-.197-5.953-1.195-8.47-2.894-2.516-1.698-4.536-4.035-5.852-6.772l-.091-.049" fill="#fff"/><g stroke="#3a49da" stroke-linecap="round" stroke-linejoin="round" stroke-width="2"><path d="m107.877 238.974c0-1.625.424-3.222 1.23-4.633.805-1.412 1.965-2.589 3.364-3.415 1.4-.827 2.99-1.274 4.615-1.299 1.625-.024 3.228.376 4.652 1.16 1.423.785 2.617 1.927 3.465 3.313.847 1.387 1.318 2.971 1.367 4.595.049 1.625-.327 3.234-1.09 4.669s-1.887 2.646-3.261 3.514"/><path d="m123.79 232.375c1.766 1.767 2.758 4.164 2.758 6.663 0 2.498-.992 4.895-2.758 6.662-1.415 1.412-3.331 2.204-5.33 2.204-1.998 0-3.915-.792-5.33-2.204-1.131-1.132-1.766-2.667-1.766-4.267 0-1.601.635-3.136 1.766-4.268.906-.903 2.133-1.41 3.412-1.41s2.506.507 3.412 1.41c.724.725 1.131 1.707 1.131 2.732 0 1.024-.407 2.007-1.131 2.731"/><path d="m132.388 243.21c1.251-.611 2.651-.848 4.034-.684 1.382.164 2.688.723 3.761 1.61s1.868 2.064 2.289 3.391.452 2.747.087 4.09c-.364 1.344-1.108 2.554-2.142 3.485-1.035.932-2.315 1.546-3.69 1.769-1.374.223-2.783.045-4.059-.512-1.275-.557-2.364-1.47-3.134-2.629"/><path d="m126.679 238.869c.422-.124.859-.188 1.298-.189 1.19.002 2.33.475 3.172 1.316.841.842 1.314 1.982 1.316 3.172"/><path d="m140.594 254.901c-1.346 1.344-3.169 2.099-5.071 2.099-1.901 0-3.725-.755-5.07-2.099-1.074-1.075-1.678-2.533-1.678-4.053s.604-2.978 1.678-4.054c.425-.427.931-.765 1.487-.997.557-.231 1.154-.35 1.756-.35.603 0 1.2.119 1.756.35.557.232 1.062.57 1.488.997.342.34.613.745.798 1.19s.28.923.28 1.405-.095.96-.28 1.405-.456.85-.798 1.19"/><path d="m129.415 253.611c-.828 1.72-2.097 3.188-3.679 4.256-1.583 1.067-3.42 1.694-5.324 1.817-1.905.122-3.808-.264-5.514-1.119s-3.153-2.149-4.195-3.748"/><path d="m110.549 254.824c-.706 1.222-1.721 2.237-2.944 2.942-1.222.705-2.608 1.077-4.02 1.077"/><path d="m109.273 256.444c-1.506 1.51-3.548 2.365-5.681 2.378"/><path d="m99.602 238.273c1.089-.441 2.254-.667 3.429-.666 1.68-.004 3.327.462 4.755 1.346"/><path d="m56.877 231.554c-1.067-.32-2.195-.386-3.292-.193-1.098.193-2.135.639-3.03 1.304-.894.665-1.621 1.53-2.122 2.525-.501.996-.763 2.095-.764 3.209"/><path d="m47.76 238.448c-1.989-.971-4.216-1.348-6.414-1.087-2.198.262-4.274 1.151-5.981 2.561-1.706 1.41-2.97 3.282-3.64 5.392-.671 2.109-.719 4.367-.14 6.504.579 2.136 1.761 4.061 3.405 5.543s3.681 2.46 5.865 2.815c2.185.356 4.426.075 6.456-.81 2.029-.884 3.76-2.335 4.987-4.177"/><path d="m34.702 257.047c2.14 2.138 5.04 3.339 8.065 3.339s5.926-1.201 8.065-3.339c.848-.847 1.521-1.852 1.98-2.959.46-1.108.696-2.294.696-3.493 0-1.198-.236-2.385-.696-3.492-.459-1.107-1.132-2.113-1.98-2.96-.677-.679-1.482-1.217-2.368-1.584-.885-.367-1.835-.557-2.794-.557-.958 0-1.908.19-2.793.557-.886.367-1.691.905-2.368 1.584-1.094 1.096-1.708 2.582-1.708 4.131s.614 3.034 1.708 4.131"/><path d="m52.494 254.992c1.316 2.737 3.336 5.074 5.852 6.772 2.517 1.699 5.44 2.697 8.47 2.894 3.03.196 6.057-.417 8.772-1.777 2.715-1.359 5.019-3.416 6.677-5.96"/><path d="m82.497 256.928c1.17 2.02 2.87 3.682 4.916 4.806s4.361 1.668 6.693 1.572c2.333-.095 4.595-.826 6.542-2.113 1.948-1.287 3.506-3.082 4.508-5.191"/><path d="m84.545 259.509c2.42 2.414 5.699 3.769 9.117 3.769s6.697-1.355 9.117-3.769c.966-.956 1.734-2.093 2.259-3.346.526-1.254.799-2.598.805-3.957.005-1.359-.258-2.706-.774-3.963s-1.275-2.4-2.234-3.364c-.767-.768-1.679-1.377-2.682-1.793s-2.078-.63-3.163-.63c-1.086 0-2.161.214-3.164.63s-1.915 1.025-2.682 1.793c-1.239 1.241-1.935 2.922-1.935 4.675s.696 3.434 1.935 4.674c.994.99 2.339 1.545 3.742 1.545 1.402 0 2.747-.555 3.741-1.545.396-.391.71-.857.924-1.371.214-.513.324-1.064.324-1.62s-.11-1.107-.324-1.621c-.214-.513-.528-.979-.924-1.37"/><path d="m86.768 232.003v-.301c0-3.945-1.568-7.729-4.357-10.518-2.79-2.79-6.573-4.357-10.518-4.357s-7.729 1.567-10.519 4.357c-2.789 2.789-4.356 6.573-4.356 10.518-.011 1.99.377 3.963 1.139 5.802.763 1.839 1.884 3.507 3.3 4.907 2.251 2.249 5.304 3.512 8.486 3.512s6.235-1.263 8.486-3.512c1.798-1.8 2.808-4.241 2.808-6.785 0-2.545-1.01-4.985-2.808-6.786-1.445-1.432-3.397-2.236-5.432-2.236-2.034 0-3.987.804-5.432 2.236-.57.57-1.022 1.247-1.331 1.992s-.468 1.543-.468 2.349c0 .807.159 1.605.468 2.35s.761 1.422 1.331 1.992"/><path d="m86.768 232.003c1.608-.435 3.295-.494 4.93-.172 1.634.322 3.173 1.017 4.496 2.029 1.323 1.013 2.396 2.316 3.134 3.81s1.122 3.138 1.122 4.804v.701"/></g></g><g visibility="hidden"><path d="m420.798 255.189c-1.227 1.845-2.959 3.298-4.99 4.184-2.03.886-4.273 1.169-6.46.814s-4.225-1.333-5.871-2.816c-1.646-1.484-2.829-3.41-3.409-5.548-.58-2.139-.531-4.399.14-6.511.672-2.111 1.937-3.984 3.646-5.395 1.708-1.411 3.787-2.3 5.987-2.561 2.2-.26 4.429.119 6.419 1.092l-.091-.07c.005-1.112.268-2.209.771-3.202.502-.993 1.229-1.854 2.123-2.517.894-.662 1.931-1.107 3.027-1.299s2.222-.125 3.287.194l.169.169c0-3.945 1.567-7.729 4.357-10.518 2.789-2.79 6.573-4.357 10.518-4.357s7.728 1.567 10.518 4.357c2.789 2.789 4.357 6.573 4.357 10.518v.301c2.532-.688 5.228-.434 7.587.715 2.359 1.15 4.221 3.116 5.24 5.534 1.089-.441 2.254-.667 3.429-.666 1.68-.004 3.327.462 4.755 1.346h.091c-.034-1.248.182-2.491.637-3.655.454-1.164 1.137-2.225 2.008-3.12s1.913-1.607 3.064-2.093c1.15-.486 2.387-.736 3.636-.736s2.486.25 3.637.736 2.192 1.198 3.064 2.093c.871.895 1.554 1.956 2.008 3.12s.67 2.407.636 3.655l.091-.084c.422-.124.859-.188 1.298-.189 1.19.002 2.33.475 3.172 1.316.841.842 1.314 1.982 1.316 3.172l-.056.042c1.251-.611 2.651-.848 4.034-.684 1.382.164 2.688.723 3.761 1.61s1.868 2.064 2.289 3.391.452 2.747.087 4.09c-.364 1.344-1.108 2.554-2.142 3.485-1.035.932-2.315 1.546-3.69 1.769-1.374.223-2.783.045-4.059-.512-1.275-.557-2.364-1.47-3.134-2.629l-.063-.147h-.056c-.828 1.72-2.097 3.188-3.679 4.256-1.582 1.067-3.42 1.694-5.324 1.817-1.905.122-3.808-.264-5.514-1.119s-3.153-2.149-4.195-3.748h-.175c-.706 1.222-1.721 2.236-2.944 2.942-1.222.705-2.609 1.077-4.02 1.077l-.105-.085c-.211.253-.435.505-.701.751-2.421 2.414-5.699 3.769-9.118 3.769-3.418 0-6.696-1.355-9.117-3.769h-.042c-.774-.76-1.448-1.615-2.005-2.546h-.232c-1.658 2.544-3.962 4.601-6.677 5.96-2.715 1.36-5.742 1.973-8.772 1.777-3.03-.197-5.953-1.195-8.47-2.894-2.516-1.698-4.536-4.035-5.852-6.772l-.091-.049" fill="#fff"/><g stroke="#3a49da" stroke-linecap="round" stroke-linejoin="round" stroke-width="2"><path d="m476.377 238.974c0-1.625.424-3.222 1.23-4.633.805-1.412 1.965-2.589 3.364-3.415 1.4-.827 2.99-1.274 4.615-1.299 1.625-.024 3.228.376 4.652 1.16 1.423.785 2.617 1.927 3.465 3.313.847 1.387 1.318 2.971 1.367 4.595.049 1.625-.327 3.234-1.09 4.669s-1.887 2.646-3.261 3.514"/><path d="m492.29 232.375c1.766 1.767 2.758 4.164 2.758 6.663 0 2.498-.992 4.895-2.758 6.662-1.415 1.412-3.332 2.204-5.33 2.204-1.999 0-3.916-.792-5.33-2.204-1.131-1.132-1.767-2.667-1.767-4.267 0-1.601.636-3.136 1.767-4.268.905-.903 2.132-1.41 3.411-1.41 1.28 0 2.507.507 3.412 1.41.725.725 1.131 1.707 1.131 2.732 0 1.024-.406 2.007-1.131 2.731"/><path d="m500.888 243.21c1.251-.611 2.651-.848 4.033-.684 1.383.164 2.688.723 3.761 1.61s1.868 2.064 2.29 3.391c.421 1.327.451 2.747.087 4.09-.365 1.344-1.109 2.554-2.143 3.485-1.034.932-2.315 1.546-3.689 1.769s-2.783.045-4.059-.512-2.364-1.47-3.135-2.629"/><path d="m495.179 238.869c.421-.124.858-.188 1.297-.189 1.19.002 2.331.475 3.172 1.316.842.842 1.315 1.982 1.317 3.172"/><path d="m509.093 254.901c-1.345 1.344-3.169 2.099-5.071 2.099-1.901 0-3.725-.755-5.07-2.099-1.074-1.075-1.678-2.533-1.678-4.053s.604-2.978 1.678-4.054c.425-.427.931-.765 1.487-.997.557-.231 1.154-.35 1.756-.35.603 0 1.2.119 1.756.35.557.232 1.062.57 1.488.997.342.34.613.745.798 1.19s.28.923.28 1.405-.095.96-.28 1.405-.456.85-.798 1.19"/><path d="m497.914 253.611c-.827 1.72-2.097 3.188-3.679 4.256-1.582 1.067-3.419 1.694-5.324 1.817-1.904.122-3.807-.264-5.513-1.119s-3.154-2.149-4.195-3.748"/><path d="m479.049 254.824c-.706 1.222-1.722 2.237-2.944 2.942s-2.609 1.077-4.02 1.077"/><path d="m477.772 256.444c-1.506 1.51-3.547 2.365-5.68 2.378"/><path d="m468.102 238.273c1.089-.441 2.254-.667 3.429-.666 1.68-.004 3.327.462 4.755 1.346"/><path d="m425.377 231.554c-1.068-.32-2.195-.386-3.293-.193s-2.135.639-3.029 1.304c-.895.665-1.622 1.53-2.123 2.525-.501.996-.762 2.095-.763 3.209"/><path d="m416.26 238.448c-1.989-.971-4.216-1.348-6.414-1.087-2.198.262-4.274 1.151-5.981 2.561-1.706 1.41-2.97 3.282-3.64 5.392-.671 2.109-.719 4.367-.14 6.504.579 2.136 1.761 4.061 3.405 5.543s3.681 2.46 5.865 2.815c2.185.356 4.426.075 6.455-.81 2.03-.884 3.761-2.335 4.988-4.177"/><path d="m403.202 257.047c2.139 2.138 5.04 3.339 8.065 3.339s5.926-1.201 8.065-3.339c.848-.847 1.521-1.852 1.98-2.959.459-1.108.696-2.294.696-3.493 0-1.198-.237-2.385-.696-3.492s-1.132-2.113-1.98-2.96c-.677-.679-1.482-1.217-2.368-1.584-.885-.367-1.835-.557-2.794-.557-.958 0-1.908.19-2.794.557-.885.367-1.69.905-2.367 1.584-1.094 1.096-1.708 2.582-1.708 4.131s.614 3.034 1.708 4.131"/><path d="m420.994 254.992c1.315 2.737 3.335 5.074 5.852 6.772 2.517 1.699 5.44 2.697 8.47 2.894 3.029.196 6.057-.417 8.772-1.777 2.715-1.359 5.019-3.416 6.677-5.96"/><path d="m450.996 256.928c1.17 2.02 2.87 3.682 4.916 4.806s4.36 1.668 6.693 1.572c2.333-.095 4.595-.826 6.542-2.113 1.948-1.287 3.506-3.082 4.508-5.191"/><path d="m453.044 259.509c2.42 2.414 5.699 3.769 9.117 3.769s6.697-1.355 9.117-3.769c.966-.956 1.734-2.093 2.259-3.346.526-1.254.8-2.598.805-3.957s-.258-2.706-.774-3.963-1.275-2.4-2.234-3.364c-.767-.768-1.679-1.377-2.682-1.793s-2.078-.63-3.163-.63c-1.086 0-2.161.214-3.164.63s-1.915 1.025-2.682 1.793c-1.239 1.241-1.935 2.922-1.935 4.675s.696 3.434 1.935 4.674c.994.99 2.339 1.545 3.742 1.545 1.402 0 2.747-.555 3.741-1.545.396-.391.709-.857.924-1.371.214-.513.324-1.064.324-1.62s-.11-1.107-.324-1.621c-.215-.513-.528-.979-.924-1.37"/><path d="m455.267 232.003v-.301c0-3.945-1.568-7.729-4.357-10.518-2.79-2.79-6.573-4.357-10.518-4.357s-7.729 1.567-10.518 4.357c-2.79 2.789-4.357 6.573-4.357 10.518-.01 1.99.377 3.963 1.139 5.802.763 1.839 1.884 3.507 3.3 4.907 2.251 2.249 5.304 3.512 8.486 3.512s6.235-1.263 8.486-3.512c1.798-1.8 2.808-4.241 2.808-6.785 0-2.545-1.01-4.985-2.808-6.786-1.445-1.432-3.397-2.236-5.432-2.236-2.034 0-3.987.804-5.431 2.236-.571.57-1.023 1.247-1.332 1.992s-.468 1.543-.468 2.349c0 .807.159 1.605.468 2.35s.761 1.422 1.332 1.992"/><path d="m455.268 232.003c1.608-.435 3.295-.494 4.93-.172 1.634.322 3.173 1.017 4.496 2.029 1.323 1.013 2.396 2.316 3.134 3.81s1.122 3.138 1.122 4.804v.701"/></g></g><path d="m115.841 85.159c-.978 1.47-2.358 2.628-3.977 3.334-1.618.707-3.405.932-5.148.649s-3.368-1.063-4.679-2.245c-1.312-1.182-2.255-2.717-2.717-4.421-.462-1.705-.423-3.506.112-5.188.535-1.683 1.544-3.176 2.905-4.3 1.361-1.125 3.018-1.833 4.772-2.041 1.753-.207 3.529.095 5.115.87l-.072-.056c.003-.886.214-1.76.614-2.551.4-.792.98-1.478 1.692-2.007.713-.528 1.539-.882 2.412-1.035.874-.153 1.771-.1 2.62.155l.134.134c0-3.144 1.249-6.159 3.473-8.382 2.223-2.223 5.238-3.472 8.382-3.472s6.159 1.249 8.382 3.472 3.472 5.238 3.472 8.382v.241c2.018-.549 4.167-.346 6.047.57 1.88.915 3.364 2.482 4.176 4.41.868-.352 1.796-.532 2.733-.531 1.339-.004 2.651.368 3.789 1.073h.073c-.027-.995.145-1.986.507-2.913.362-.928.906-1.773 1.601-2.487.694-.713 1.524-1.281 2.441-1.668.918-.387 1.903-.587 2.899-.587.995 0 1.981.2 2.898.587s1.747.955 2.441 1.668c.695.714 1.239 1.559 1.601 2.487.362.927.534 1.918.507 2.913l.073-.067c.335-.1.684-.15 1.034-.151.948.001 1.857.379 2.527 1.049.671.671 1.048 1.58 1.05 2.528l-.045.033c.997-.486 2.113-.676 3.215-.545 1.101.131 2.142.576 2.997 1.283s1.488 1.645 1.824 2.702c.336 1.058.36 2.189.07 3.26-.291 1.071-.884 2.035-1.708 2.778-.824.742-1.845 1.232-2.94 1.409-1.095.178-2.218.036-3.235-.408-1.016-.444-1.884-1.171-2.498-2.095l-.05-.117h-.045c-.659 1.37-1.671 2.541-2.932 3.391-1.261.851-2.725 1.351-4.243 1.448-1.517.098-3.034-.209-4.393-.891-1.36-.682-2.514-1.713-3.344-2.987h-.139c-.563.974-1.372 1.782-2.346 2.344-.975.563-2.08.858-3.204.858l-.084-.067c-.168.202-.347.403-.559.599-1.929 1.923-4.542 3.003-7.266 3.003s-5.337-1.08-7.266-3.003h-.033c-.617-.606-1.154-1.288-1.599-2.029h-.184c-1.321 2.027-3.158 3.666-5.321 4.75-2.164 1.083-4.577 1.572-6.991 1.415-2.415-.156-4.744-.952-6.75-2.305-2.006-1.354-3.615-3.217-4.664-5.397l-.073-.04" fill="#fff"/><g stroke="#3a49da" stroke-linecap="round" stroke-linejoin="round" stroke-width="2"><path d="m160.134 72.237c0-1.296.338-2.568.98-3.693s1.566-2.063 2.681-2.722c1.116-.658 2.383-1.015 3.678-1.034 1.295-.02 2.573.299 3.707.924 1.135.625 2.086 1.535 2.762 2.64.675 1.106 1.051 2.368 1.089 3.662.039 1.295-.26 2.577-.868 3.721-.609 1.143-1.504 2.109-2.599 2.801"/><path d="m172.816 66.977c1.408 1.409 2.198 3.319 2.198 5.31s-.79 3.901-2.198 5.31c-1.127 1.124-2.655 1.756-4.248 1.756-1.592 0-3.12-.632-4.247-1.756-.902-.903-1.408-2.126-1.408-3.401 0-1.276.506-2.499 1.408-3.401.721-.72 1.699-1.124 2.719-1.124 1.019 0 1.997.404 2.719 1.124.577.577.901 1.36.901 2.177 0 .816-.324 1.599-.901 2.177"/><path d="m179.668 75.612c.997-.486 2.113-.676 3.215-.545s2.142.576 2.997 1.283 1.489 1.645 1.825 2.702c.336 1.058.36 2.19.069 3.26-.29 1.071-.883 2.035-1.707 2.778-.825.742-1.845 1.232-2.94 1.409-1.096.178-2.219.036-3.235-.408-1.017-.444-1.884-1.171-2.498-2.095"/><path d="m175.118 72.153c.336-.1.684-.15 1.034-.151.949.001 1.858.379 2.528 1.049.671.671 1.048 1.58 1.049 2.528"/><path d="m186.207 84.93c-1.072 1.071-2.525 1.672-4.041 1.672-1.515 0-2.969-.601-4.041-1.672-.856-.858-1.337-2.02-1.337-3.231s.481-2.373 1.337-3.231c.339-.34.742-.61 1.186-.794.443-.184.919-.279 1.399-.279s.956.095 1.4.279c.443.184.846.454 1.185.794.273.271.489.594.636.949.148.355.224.735.224 1.119 0 .385-.076.765-.224 1.12-.147.355-.363.677-.636.948"/><path d="m177.298 83.901c-.659 1.371-1.671 2.541-2.932 3.392-1.26.85-2.725 1.35-4.243 1.448-1.517.098-3.034-.21-4.393-.892-1.36-.681-2.514-1.712-3.343-2.987"/><path d="m162.264 84.868c-.563.974-1.372 1.782-2.346 2.344-.975.562-2.08.858-3.204.858"/><path d="m161.247 86.159c-1.201 1.204-2.828 1.884-4.528 1.895"/><path d="m153.539 71.678c.868-.352 1.796-.532 2.733-.531 1.339-.004 2.651.368 3.79 1.073"/><path d="m119.49 66.323c-.851-.255-1.749-.308-2.624-.154s-1.702.51-2.414 1.04c-.713.529-1.292 1.219-1.692 2.012-.399.793-.607 1.669-.608 2.557"/><path d="m112.225 71.817c-1.586-.773-3.36-1.074-5.112-.866s-3.407.917-4.766 2.041c-1.36 1.124-2.368 2.615-2.902 4.297-.534 1.681-.573 3.48-.111 5.183.461 1.703 1.403 3.236 2.714 4.418 1.31 1.181 2.933 1.96 4.674 2.243 1.741.284 3.527.06 5.144-.645s2.997-1.861 3.975-3.33"/><path d="m101.817 86.64c1.706 1.703 4.017 2.661 6.428 2.661 2.41 0 4.722-.958 6.427-2.661.676-.675 1.213-1.477 1.578-2.359.366-.882.555-1.828.555-2.783s-.189-1.901-.555-2.784c-.365-.882-.902-1.683-1.578-2.358-.54-.541-1.181-.97-1.887-1.263-.705-.292-1.462-.443-2.226-.443s-1.521.151-2.227.443c-.706.293-1.347.722-1.887 1.263-.872.874-1.361 2.057-1.361 3.292 0 1.234.489 2.418 1.361 3.292"/><path d="m115.997 85.002c1.048 2.181 2.658 4.043 4.664 5.397 2.005 1.354 4.335 2.149 6.75 2.306 2.414.156 4.827-.332 6.991-1.416 2.163-1.083 4-2.723 5.321-4.75"/><path d="m139.907 86.545c.933 1.609 2.288 2.934 3.919 3.83 1.63.895 3.474 1.329 5.333 1.253s3.662-.658 5.214-1.684 2.794-2.457 3.593-4.137"/><path d="m141.539 88.601c1.929 1.924 4.542 3.004 7.266 3.004s5.337-1.08 7.266-3.004c.77-.761 1.382-1.668 1.801-2.666.419-.999.636-2.071.641-3.154.004-1.083-.206-2.156-.617-3.158s-1.016-1.913-1.78-2.68c-.612-.613-1.338-1.098-2.137-1.43-.8-.331-1.657-.502-2.522-.502s-1.722.171-2.521.502c-.8.332-1.526.817-2.137 1.43-.988.988-1.542 2.328-1.542 3.725s.554 2.737 1.542 3.725c.792.789 1.864 1.231 2.981 1.231 1.118 0 2.19-.442 2.982-1.231.315-.312.566-.683.736-1.092.171-.41.259-.849.259-1.292s-.088-.882-.259-1.291c-.17-.41-.421-.781-.736-1.093"/><path d="m143.311 66.681v-.24c0-3.144-1.249-6.16-3.472-8.383s-5.238-3.472-8.382-3.472-6.16 1.249-8.383 3.472-3.472 5.239-3.472 8.383c-.008 1.586.301 3.158.908 4.624.608 1.465 1.502 2.795 2.63 3.91 1.794 1.793 4.227 2.8 6.763 2.8s4.968-1.007 6.763-2.8c1.433-1.435 2.238-3.379 2.238-5.407s-.805-3.973-2.238-5.408c-1.152-1.141-2.708-1.782-4.329-1.782-1.622 0-3.177.641-4.329 1.782-.455.454-.815.994-1.061 1.587-.246.594-.373 1.23-.373 1.873s.127 1.279.373 1.872c.246.594.606 1.133 1.061 1.588"/><path d="m143.311 66.681c1.282-.347 2.626-.394 3.929-.137s2.529.81 3.584 1.617c1.054.807 1.909 1.846 2.497 3.036.588 1.191.894 2.501.894 3.829v.558"/></g></svg>