<svg viewBox="0 0 24 24" fill="none" xmlns="http://www.w3.org/2000/svg">
<path fill-rule="evenodd" clip-rule="evenodd" d="M2 12C2 6.47715 6.47715 2 12 2C14.6522 2 17.1957 3.05357 19.0711 4.92893C20.9464 6.8043 22 9.34784 22 12C22 17.5228 17.5228 22 12 22C6.47715 22 2 17.5228 2 12ZM10.7296 15.35L16.3496 9.72998C16.5338 9.53683 16.5338 9.23313 16.3496 9.03998L15.8196 8.50998C15.6252 8.31941 15.314 8.31941 15.1196 8.50998L10.3796 13.25L8.87963 11.76C8.78889 11.6633 8.66221 11.6085 8.52962 11.6085C8.39704 11.6085 8.27036 11.6633 8.17963 11.76L7.64963 12.29C7.55497 12.3839 7.50173 12.5117 7.50173 12.645C7.50173 12.7783 7.55497 12.9061 7.64963 13L10.0296 15.35C10.1204 15.4467 10.247 15.5015 10.3796 15.5015C10.5122 15.5015 10.6389 15.4467 10.7296 15.35Z" fill="currentColor"/>
</svg>
