<svg viewBox="0 0 24 24" xmlns="http://www.w3.org/2000/svg">
    <path fill-rule="evenodd" clip-rule="evenodd" d="m1.3333 0h8c0.73637 0 1.3334 0.59695 1.3334 1.3333v21.333c0 0.7363-0.597 1.3333-1.3334 1.3333h-8c-0.73638 0-1.3333-0.597-1.3333-1.3333v-21.333c0-0.73638 0.59695-1.3333 1.3333-1.3333zm6.6667 21.333v-18.667h-5.3333v18.667h5.3333zm13.333-18.667v2.6667h-5.3333v-2.6667h5.3333zm-6.6666-2.6667h8c0.7363 0 1.3333 0.59695 1.3333 1.3333v5.3333c0 0.73638-0.597 1.3333-1.3333 1.3333h-8c-0.7364 0-1.3334-0.59695-1.3334-1.3333v-5.3333c0-0.73638 0.597-1.3333 1.3334-1.3333zm6.6666 13.333v8h-5.3333v-8h5.3333zm-6.6666-2.6666h8c0.7363 0 1.3333 0.5969 1.3333 1.3333v10.667c0 0.7363-0.597 1.3333-1.3333 1.3333h-8c-0.7364 0-1.3334-0.597-1.3334-1.3333v-10.667c0-0.7364 0.597-1.3333 1.3334-1.3333z" fill="currentColor" />
</svg>

