<svg viewBox="0 0 18 18" fill="currentColor" xmlns="http://www.w3.org/2000/svg">
<path fill-rule="evenodd" clip-rule="evenodd" d="M5.82291 1.99998H17.4919C17.7677 1.99998 17.9914 2.22383 17.9914 2.49998V3.49998C17.9914 3.77612 17.7677 3.99998 17.4919 3.99998H5.82291C5.33634 5.37752 3.92904 6.20385 2.49033 5.95677C1.05163 5.7097 0 4.46109 0 2.99998C0 1.53887 1.05163 0.290257 2.49033 0.0431805C3.92904 -0.203896 5.33634 0.622429 5.82291 1.99998ZM2.00653 2.99998C2.00653 3.55226 2.45382 3.99998 3.00558 3.99998C3.55734 3.99998 4.00463 3.55226 4.00463 2.99998C4.00463 2.44769 3.55734 1.99998 3.00558 1.99998C2.45382 1.99998 2.00653 2.44769 2.00653 2.99998ZM17.4919 7.99998H11.8172C11.387 6.81352 10.2609 6.0235 8.9999 6.0235C7.73891 6.0235 6.61279 6.81352 6.18257 7.99998H0.507946C0.232065 7.99998 0.00841915 8.22383 0.00841915 8.49998V9.49998C0.00841915 9.77612 0.232065 9.99998 0.507946 9.99998H6.18257C6.61279 11.1864 7.73891 11.9765 8.9999 11.9765C10.2609 11.9765 11.387 11.1864 11.8172 9.99998H17.4919C17.7677 9.99998 17.9914 9.77612 17.9914 9.49998V8.49998C17.9914 8.22383 17.7677 7.99998 17.4919 7.99998ZM8.00085 8.99998C8.00085 9.55226 8.44814 9.99998 8.9999 9.99998C9.55166 9.99998 9.99895 9.55226 9.99895 8.99998C9.99895 8.44769 9.55166 7.99998 8.9999 7.99998C8.44814 7.99998 8.00085 8.44769 8.00085 8.99998ZM14.9942 12C13.7272 12.0035 12.5992 12.8042 12.1769 14H0.507946C0.232065 14 0.00841915 14.2238 0.00841915 14.5V15.5C0.00841915 15.7761 0.232065 16 0.507946 16H12.1769C12.6853 17.4394 14.1926 18.267 15.6786 17.9227C17.1646 17.5783 18.1552 16.1719 17.9799 14.6553C17.8047 13.1387 16.5195 11.9957 14.9942 12ZM13.9952 15C13.9952 15.5523 14.4425 16 14.9942 16C15.546 16 15.9933 15.5523 15.9933 15C15.9933 14.4477 15.546 14 14.9942 14C14.4425 14 13.9952 14.4477 13.9952 15Z" fill="#181818"/>
</svg>
