<svg viewBox="0 0 20 20" fill="none" xmlns="http://www.w3.org/2000/svg">
<path fill-rule="evenodd" clip-rule="evenodd" d="M16 8C16 3.58172 12.4183 0 8 0C3.58172 0 0 3.58172 0 8C0 11.7448 1.83051 13.2169 3.52961 14.5833C4.65265 15.4865 5.71829 16.3434 6.16 17.78L6.67 19.32C6.81299 19.7454 7.22185 20.0234 7.67 20H8.23C8.67815 20.0234 9.08701 19.7454 9.23 19.32L9.74 17.78C10.2178 16.3544 11.2945 15.4996 12.4226 14.604C14.151 13.2317 16 11.7637 16 8ZM8 2C4.68629 2 2 4.68629 2 8C2 10.8 3.18 11.74 4.82 13C6.19881 13.9318 7.29809 15.2212 8 16.73C8.7053 15.2233 9.80387 13.9348 11.18 13C12.82 11.74 14 10.8 14 8C14 4.68629 11.3137 2 8 2ZM10 8C10 9.10457 9.10457 10 8 10C6.89543 10 6 9.10457 6 8C6 6.89543 6.89543 6 8 6C9.10457 6 10 6.89543 10 8Z" fill="currentColor"/>
</svg>
