<svg viewBox="0 0 20 16" fill="none" xmlns="http://www.w3.org/2000/svg">
<path fill-rule="evenodd" clip-rule="evenodd" d="M17.6367 2.52885C18.4961 2.02885 19.1406 1.23077 19.4434 0.288462C18.6621 0.75 17.7734 1.08654 16.8555 1.26923C16.084 0.5 15.0195 0 13.8379 0C11.5723 0 9.74609 1.79808 9.74609 4.02885C9.74609 4.34615 9.76562 4.67308 9.83398 4.96154C6.43555 4.77885 3.42773 3.25962 1.38672 0.817308C1.04492 1.41346 0.830078 2.02885 0.830078 2.77885C0.830078 4.16346 1.55273 5.39423 2.66602 6.125C1.99219 6.10577 1.36719 5.92308 0.810547 5.625V5.67308C0.810547 7.63462 2.22656 9.26923 4.10156 9.63461C3.75 9.73077 3.37891 9.77885 3.00781 9.77885C2.75391 9.77885 2.5 9.75 2.24609 9.70192C2.75391 11.2981 4.28711 12.4904 6.06445 12.5096C4.67773 13.6058 2.89062 14.4231 0.976562 14.4231C0.644531 14.4231 0.322266 14.4038 0 14.3558C1.80664 15.5 3.98438 16 6.29883 16C13.8379 16 17.959 9.84615 17.959 4.50962V3.98077C18.75 3.41346 19.4434 2.71154 20 1.88462C19.2578 2.21154 18.4766 2.43269 17.6367 2.52885Z" fill="currentColor"/>
</svg>
