<svg viewBox="0 0 22 16" fill="none" xmlns="http://www.w3.org/2000/svg">
<path fill-rule="evenodd" clip-rule="evenodd" d="M17.5399 0.339985L18.9999 0.489985C20.7284 0.685348 22.0264 2.1607 21.9999 3.89999V12.1C22.0264 13.8393 20.7284 15.3146 18.9999 15.51L17.5999 15.66C13.2315 16.11 8.82835 16.11 4.45991 15.66L2.99991 15.51C1.27143 15.3146 -0.0265361 13.8393 -9.13677e-05 12.1V3.89999C-0.0265361 2.1607 1.27143 0.685348 2.99991 0.489985L4.39991 0.339985C8.76835 -0.109992 13.1715 -0.109992 17.5399 0.339985ZM10.1099 11.22L13.9999 8.61999H14.0599C14.2695 8.48341 14.3959 8.25017 14.3959 7.99999C14.3959 7.7498 14.2695 7.51656 14.0599 7.37999L10.1699 4.77999C9.94024 4.62475 9.64368 4.60885 9.39873 4.73865C9.15379 4.86845 9.00041 5.12278 8.99991 5.39999V10.6C9.01281 10.8581 9.15765 11.0913 9.38324 11.2173C9.60883 11.3433 9.8834 11.3443 10.1099 11.22Z" fill="currentColor"/>
</svg>
