<svg viewBox="0 0 24 24" fill="none" xmlns="http://www.w3.org/2000/svg">
<path fill-rule="evenodd" clip-rule="evenodd" d="M5.72 4.00002H21.5C21.7761 4.00002 22 4.22387 22 4.50002V5.00002C21.9928 5.8299 21.7687 6.64346 21.35 7.36002L19 11.49C18.4915 12.404 17.5357 12.979 16.49 13H10.26C10.0439 12.9954 9.82904 12.9652 9.62 12.91L8.62 15H19.5C19.7761 15 20 15.2239 20 15.5V16.5C20 16.7762 19.7761 17 19.5 17H7C6.72633 17.0063 6.4704 16.865 6.33 16.63L6.11 16.25C5.99438 16.0275 5.99438 15.7626 6.11 15.54L7.97 11.84C7.86843 11.7328 7.77797 11.6155 7.7 11.49L3.42 4.00002H2.5C2.22386 4.00002 2 3.77616 2 3.50002V2.50002C2 2.22387 2.22386 2.00002 2.5 2.00002H3.42C4.13737 1.99717 4.80132 2.37875 5.16 3.00002L5.72 4.00002ZM16.53 11C16.8452 10.9619 17.1236 10.7763 17.28 10.5L19.64 6.37002C19.678 6.29401 19.708 6.214 19.7376 6.13506C19.7547 6.08936 19.7717 6.04401 19.79 6.00002H6.87L9.44 10.5C9.61755 10.8076 9.94489 10.9979 10.3 11H16.53ZM18 18C16.8954 18 16 18.8954 16 20C16 21.1046 16.8954 22 18 22C19.1046 22 20 21.1046 20 20C20 18.8954 19.1046 18 18 18ZM6 20C6 18.8954 6.89543 18 8 18C9.10457 18 10 18.8954 10 20C10 21.1046 9.10457 22 8 22C6.89543 22 6 21.1046 6 20Z" fill="currentColor"/>
</svg>
