<?xml version="1.0" encoding="utf-8"?><svg version="1.1" id="Layer_1" xmlns="http://www.w3.org/2000/svg" xmlns:xlink="http://www.w3.org/1999/xlink" x="0px" y="0px" viewBox="0 0 122.88 115.49" style="enable-background:new 0 0 122.88 115.49" xml:space="preserve"><g><path d="M36,68.78c0,0.8-0.65,1.44-1.44,1.44c-0.8,0-1.44-0.65-1.44-1.44V33.51H2.88v71.08h4.99c0.8,0,1.44,0.65,1.44,1.44 c0,0.8-0.65,1.44-1.44,1.44H1.44c-0.8,0-1.44-0.65-1.44-1.44V32.74c0-0.58,0.24-1.11,0.62-1.5c0.38-0.38,0.91-0.62,1.5-0.62h31 V2.53c0-0.69,0.28-1.33,0.74-1.78V0.74C34.32,0.28,34.95,0,35.65,0H87c0.7,0,1.33,0.28,1.79,0.74l0.11,0.12 c0.39,0.45,0.64,1.03,0.64,1.67v28.09h31.22c0.58,0,1.11,0.24,1.49,0.62l0.01,0.01c0.38,0.38,0.62,0.91,0.62,1.49v73.29 c0,0.8-0.65,1.44-1.44,1.44h-9.14c-0.8,0-1.44-0.65-1.44-1.44c0-0.8,0.65-1.44,1.44-1.44H120V33.51H89.53v34.85 c0,0.8-0.65,1.44-1.44,1.44c-0.8,0-1.44-0.65-1.44-1.44V2.88H36V68.78L36,68.78z M97.15,68.54h15.9c0.13,0,0.24,0.08,0.24,0.17v4.7 c0,0.1-0.11,0.18-0.24,0.18h-15.9c-0.13,0-0.24-0.08-0.24-0.18v-4.7C96.91,68.62,97.02,68.54,97.15,68.54L97.15,68.54z M9.71,68.54 h15.9c0.13,0,0.24,0.08,0.24,0.17v4.7c0,0.1-0.11,0.18-0.24,0.18H9.71c-0.13,0-0.24-0.08-0.24-0.18v-4.7 C9.47,68.62,9.58,68.54,9.71,68.54L9.71,68.54z M42.46,8.47H80.2c0.63,0,1.15,0.52,1.15,1.15v12.31c0,0.63-0.52,1.15-1.15,1.15 H42.46c-0.63,0-1.15-0.52-1.15-1.15V9.62C41.3,8.99,41.82,8.47,42.46,8.47L42.46,8.47z M97.4,105.02c-1.05-2.11-2.38-3.9-3.94-5.58 c2.92,1.13,5.91,2.25,8.12,3.64c4.02,2.52,4.32,5.57,4.65,9.95H86.3c0-0.03,0-0.07,0-0.1l-0.37-3.13l1.43,1.24l7-6.09L97.4,105.02 L97.4,105.02L97.4,105.02z M26.08,100.08l2.53,7.44l1.27-4.42l-0.62-0.68c-0.28-0.41-0.34-0.77-0.19-1.08 c0.34-0.67,1.04-0.54,1.69-0.54c0.68,0,1.53-0.13,1.74,0.73c0.07,0.29-0.02,0.59-0.22,0.9l-0.62,0.68l1.27,4.42l2.29-7.44 c0.33,0.3,0.8,0.55,1.34,0.77c-0.19,0.4-0.36,0.81-0.51,1.25c-0.39,1.13-0.64,2.38-0.75,3.77l0.01,0c0,0.03,0,0.07-0.01,0.1 l-0.55,7.06H16.44c-1.1-0.08-1.66-0.65-1.75-1.63l0.38-3.9c0.11-1.39,0.5-2.48,1.13-3.32c0.42-0.55,0.94-0.96,1.51-1.28 C19.53,101.86,24.43,101.57,26.08,100.08L26.08,100.08L26.08,100.08z M24.84,89.53c-0.25,0.02-0.43,0.08-0.57,0.16 c-0.08,0.05-0.13,0.12-0.17,0.2c-0.04,0.09-0.06,0.21-0.06,0.34c0.01,0.41,0.23,0.96,0.66,1.59l0.01,0.01l1.41,2.25 c0.56,0.9,1.16,1.81,1.88,2.48c0.69,0.63,1.54,1.06,2.65,1.07c1.21,0,2.09-0.44,2.81-1.11c0.75-0.7,1.35-1.68,1.94-2.65l1.59-2.62 c0.32-0.73,0.42-1.17,0.32-1.38c-0.06-0.13-0.33-0.16-0.76-0.13c-0.28,0.06-0.56,0.01-0.87-0.15l0.79-2.38 c-2.91-0.04-4.91-0.54-7.26-2.05c-0.77-0.49-1.01-1.06-1.78-1.01c-0.59,0.11-1.08,0.38-1.47,0.8c-0.38,0.4-0.66,0.95-0.84,1.66 l0.47,2.86C25.34,89.62,25.09,89.63,24.84,89.53L24.84,89.53L24.84,89.53z M37.45,88.82c0.34,0.1,0.59,0.3,0.75,0.6 c0.24,0.49,0.15,1.21-0.3,2.23l0,0c-0.01,0.02-0.02,0.04-0.03,0.06l-1.61,2.65c-0.62,1.03-1.26,2.06-2.11,2.86 c-0.89,0.83-1.98,1.38-3.48,1.38c-1.4,0-2.45-0.54-3.31-1.33c-0.83-0.76-1.46-1.73-2.05-2.68l-1.41-2.25 c-0.53-0.79-0.8-1.51-0.82-2.1c-0.01-0.29,0.04-0.55,0.15-0.78c0.11-0.24,0.29-0.45,0.52-0.6c0.11-0.08,0.24-0.14,0.39-0.19 c-0.09-1.2-0.12-2.69-0.06-3.95c0.03-0.31,0.09-0.61,0.17-0.92c0.36-1.29,1.27-2.33,2.39-3.04c0.4-0.25,0.83-0.46,1.29-0.63 c2.72-0.98,6.32-0.45,8.25,1.64c0.79,0.85,1.28,1.98,1.38,3.47L37.45,88.82L37.45,88.82L37.45,88.82z M51.68,78.86 c-0.32,0.04-0.56,0.12-0.74,0.23c-0.12,0.08-0.2,0.18-0.25,0.29c-0.06,0.14-0.09,0.31-0.09,0.5c0.02,0.61,0.35,1.43,0.98,2.37 l0.01,0.02l0,0l2.11,3.36c0.84,1.34,1.72,2.7,2.81,3.7c1.04,0.95,2.29,1.59,3.95,1.59c1.8,0,3.12-0.66,4.18-1.66 c1.12-1.05,2.02-2.5,2.89-3.95l2.37-3.9c0.48-1.09,0.62-1.75,0.47-2.05c-0.1-0.2-0.51-0.25-1.21-0.18c-0.05,0-0.11,0-0.16,0 c-0.29,0-0.6-0.07-0.95-0.23l1.07-3.56c-4.35-0.05-7.32-0.81-10.84-3.06c-1.16-0.74-1.5-1.58-2.66-1.5 c-0.87,0.17-1.61,0.56-2.19,1.19c-0.56,0.6-0.98,1.42-1.26,2.48l0.75,4.31C52.49,79.01,52.07,79.03,51.68,78.86L51.68,78.86 L51.68,78.86z M53.64,94.59l3.78,11.11l1.9-6.59l-0.93-1.02c-0.42-0.61-0.51-1.15-0.28-1.61c0.5-1,1.55-0.81,2.52-0.81 c1.02,0,2.28-0.19,2.6,1.08c0.11,0.43-0.03,0.87-0.33,1.34l-0.93,1.02l1.9,6.59l3.42-11.11c2.47,2.22,8.82,2.67,11.54,4.18 c0.74,0.41,1.41,0.92,1.98,1.57c0.01-0.07,0.03-0.15,0.07-0.21c0.3-0.59,0.92-0.48,1.5-0.48c0.61,0,1.36-0.11,1.55,0.65 c0.06,0.25-0.02,0.52-0.19,0.8l-0.55,0.61l1.13,3.92l-1.45,1.15l0.48,6.29c-0.14,1.47-0.97,2.31-2.61,2.44H40.2 c-1.64-0.13-2.47-0.97-2.61-2.44l0.57-7.41c0.16-2.07,0.74-3.71,1.69-4.96c0.62-0.82,1.4-1.43,2.26-1.91 C44.82,97.26,51.17,96.81,53.64,94.59L53.64,94.59L53.64,94.59z M70.6,77.79c0.51,0.15,0.89,0.44,1.12,0.9 c0.36,0.73,0.22,1.8-0.45,3.33l0,0c-0.01,0.03-0.03,0.06-0.04,0.09l-2.41,3.96c-0.93,1.54-1.88,3.07-3.15,4.26 c-1.33,1.24-2.96,2.07-5.19,2.06c-2.09,0-3.66-0.8-4.95-1.98c-1.24-1.13-2.17-2.58-3.07-4l-2.11-3.36 c-0.79-1.17-1.19-2.25-1.22-3.14c-0.01-0.43,0.06-0.82,0.22-1.16c0.17-0.36,0.43-0.67,0.78-0.9c0.17-0.12,0.37-0.21,0.58-0.29 c-0.13-1.8-0.17-4.02-0.09-5.89c0.05-0.46,0.13-0.91,0.26-1.37c0.54-1.93,1.89-3.48,3.57-4.54c0.59-0.38,1.24-0.69,1.92-0.93 c4.05-1.47,9.43-0.67,12.31,2.45c1.17,1.27,1.91,2.95,2.07,5.17L70.6,77.79L70.6,77.79L70.6,77.79z M77.93,96.13l1.86-0.05 l1.55-0.04c-1.8-5.55-1.2-10.65,3.14-14.99c0.74,2.38,2.39,4.35,5.2,5.8c1.34,1,2.64,2.2,3.9,3.59c0.22-0.92-0.63-2.03-1.66-3.18 c0.95,0.47,1.83,1.13,2.45,2.4c0.72,1.47,0.71,2.71,0.47,4.31c-0.11,0.74-0.29,1.44-0.55,2.07h2.57c2.71-5.8,0.99-14.41-4.55-18.06 c-1.7-1.12-2.92-1.08-4.92-1.08c-2.28,0-3.45,0.07-5.41,1.37c-2.88,1.91-4.66,5.21-5.4,9.79C76.43,90.35,76.33,94.3,77.93,96.13 L77.93,96.13L77.93,96.13z M97.15,58.27h15.9c0.13,0,0.24,0.08,0.24,0.18v4.7c0,0.1-0.11,0.18-0.24,0.18h-15.9 c-0.13,0-0.24-0.08-0.24-0.18v-4.7C96.91,58.35,97.02,58.27,97.15,58.27L97.15,58.27z M97.15,47.99h15.9 c0.13,0,0.24,0.08,0.24,0.18v4.7c0,0.1-0.11,0.18-0.24,0.18h-15.9c-0.13,0-0.24-0.08-0.24-0.18v-4.7 C96.91,48.07,97.02,47.99,97.15,47.99L97.15,47.99z M9.71,58.27h15.9c0.13,0,0.24,0.08,0.24,0.18v4.7c0,0.1-0.11,0.18-0.24,0.18 H9.71c-0.13,0-0.24-0.08-0.24-0.18v-4.7C9.47,58.35,9.58,58.27,9.71,58.27L9.71,58.27z M9.71,47.99h15.9 c0.13,0,0.24,0.08,0.24,0.18v4.7c0,0.1-0.11,0.18-0.24,0.18H9.71c-0.13,0-0.24-0.08-0.24-0.18v-4.7 C9.47,48.07,9.58,47.99,9.71,47.99L9.71,47.99z M71.67,49.08h8.49c0.13,0,0.24,0.11,0.24,0.24v8.49c0,0.13-0.11,0.24-0.24,0.24 h-8.49c-0.13,0-0.24-0.11-0.24-0.24v-8.49C71.43,49.19,71.54,49.08,71.67,49.08L71.67,49.08z M57.08,49.08h8.49 c0.13,0,0.24,0.11,0.24,0.24v8.49c0,0.13-0.11,0.24-0.24,0.24h-8.49c-0.13,0-0.24-0.11-0.24-0.24v-8.49 C56.84,49.19,56.95,49.08,57.08,49.08L57.08,49.08z M42.49,49.08h8.49c0.13,0,0.24,0.11,0.24,0.24v8.49c0,0.13-0.11,0.24-0.24,0.24 h-8.49c-0.13,0-0.24-0.11-0.24-0.24v-8.49C42.25,49.19,42.36,49.08,42.49,49.08L42.49,49.08z M71.67,32.61h8.49 c0.13,0,0.24,0.11,0.24,0.24v8.49c0,0.13-0.11,0.24-0.24,0.24h-8.49c-0.13,0-0.24-0.11-0.24-0.24v-8.49 C71.43,32.71,71.54,32.61,71.67,32.61L71.67,32.61z M57.08,32.61h8.49c0.13,0,0.24,0.11,0.24,0.24v8.49c0,0.13-0.11,0.24-0.24,0.24 h-8.49c-0.13,0-0.24-0.11-0.24-0.24v-8.49C56.84,32.71,56.95,32.61,57.08,32.61L57.08,32.61z M42.49,32.61h8.49 c0.13,0,0.24,0.11,0.24,0.24v8.49c0,0.13-0.11,0.24-0.24,0.24h-8.49c-0.13,0-0.24-0.11-0.24-0.24v-8.49 C42.25,32.71,42.36,32.61,42.49,32.61L42.49,32.61z" fill="red"/></g></svg>
