<svg width="44" height="42" viewBox="0 0 46 32" fill="none" xmlns="http://www.w3.org/2000/svg">
  <path d="M1 1.94319C1 1.12982 1.91937 0.656693 2.58124 1.12946L42.5812 29.7009C42.844 29.8886 43 30.1917 43 30.5146V40.0568C43 40.8702 42.0806 41.3433 41.4188 40.8705L1.41876 12.2991C1.15597 12.1114 1 11.8083 1 11.4854V1.94319Z" fill="#0D9DDA"/>
  <path d="M22 1.94319C22 1.12982 22.9194 0.656693 23.5812 1.12946L42.5812 14.7009C42.844 14.8886 43 15.1917 43 15.5146V25.0568C43 25.8702 42.0806 26.3433 41.4188 25.8705L22.4188 12.2991C22.156 12.1114 22 11.8083 22 11.4854V1.94319Z" fill="#8ECAE3"/>
  <path d="M1 16.9432C1 16.1298 1.91937 15.6567 2.58124 16.1295L21.5812 29.7009C21.844 29.8886 22 30.1917 22 30.5146V40.0568C22 40.8702 21.0806 41.3433 20.4188 40.8705L1.41876 27.2991C1.15597 27.1114 1 26.8083 1 26.4854V16.9432Z" fill="#0B5473"/>
</svg>
