<svg width="24" height="24" fill="none" xmlns="http://www.w3.org/2000/svg">
    <g clip-path="url(#clip0)">
        <g clip-path="url(#clip1)">
            <path d="M32 4H4v18.667h28V4z" fill="#EE1C25"/>
            <path d="M8.666 5.867l1.646 5.065-4.309-3.13h5.326l-4.308 3.13 1.645-5.065zM13.698 5.008l-.155 1.768-.914-1.522 1.634.695-1.73.398 1.165-1.34zM15.87 7.083l-.83 1.57-.25-1.758 1.235 1.275-1.749-.305 1.594-.782zM16.076 10.213l-1.398 1.095.488-1.707.609 1.667-1.473-.991 1.774-.064zM13.663 11.527L13.58 13.3l-.975-1.483 1.66.626-1.711.47 1.109-1.386z"
                  fill="#FF0"/>
        </g>
        <path fill-rule="evenodd" clip-rule="evenodd" d="M24 0H0v24h24V0zM12.5 21a8.5 8.5 0 100-17 8.5 8.5 0 000 17z"
              fill="#fff"/>
    </g>
    <defs>
        <clipPath id="clip0">
            <path fill="#fff" d="M0 0h24v24H0z"/>
        </clipPath>
        <clipPath id="clip1">
            <path fill="#fff" transform="translate(4 4)" d="M0 0h28v18.667H0z"/>
        </clipPath>
    </defs>
</svg>