<svg id="amp-logo" data-name="Layer 2" xmlns="http://www.w3.org/2000/svg" viewBox="0 0 2000 354.95">
  <defs>
    <style>
      .cls-1 {
        fill: #f88b8b;
      }

      .cls-1, .cls-2 {
        stroke-width: 0px;
      }

      .cls-2 {
        fill: #002c42;
      }
    </style>
  </defs>
  <g id="Amplience_Logos_RGB">
    <g>
      <path id="Icon" class="cls-1" d="m140.1,210.56c-44.44,0-73,41.85-73,78.78,4.15.65,8.34.97,12.54.96h151.16c10.47.02,20.83-2.03,30.51-6.04,9.67-4,18.46-9.88,25.85-17.29,7.39-7.41,13.24-16.21,17.22-25.89,3.98-9.68,6-20.06,5.96-30.52h-170.22Zm-14.99-78.36c22.22-38.5.23-84.21-31.74-102.62-2.62,3.26-4.97,6.74-7.02,10.39-2.69,4.56-60.54,104.75-75.58,130.99-5.27,9.05-8.69,19.06-10.08,29.44C-.69,210.79,0,221.34,2.72,231.46c2.72,10.12,7.41,19.59,13.81,27.89,6.4,8.29,14.38,15.24,23.48,20.43l85.1-147.58Zm75.34,26.18c22.22,38.5,72.75,42.29,104.72,23.84-1.5-3.91-3.32-7.7-5.43-11.32-2.62-4.68-60.44-104.79-75.58-130.99-5.21-9.09-12.17-17.06-20.48-23.44-8.3-6.39-17.79-11.07-27.91-13.77C165.66-.02,155.1-.69,144.72.71c-10.38,1.4-20.39,4.83-29.44,10.11l85.17,147.55Z"/>
      <g id="Text">
        <path class="cls-2" d="m1918.33,126.33c-50.54,0-86.16,34.23-86.16,83.63s35.62,83.63,86.16,83.63c43.73,0,71.31-24.15,78.91-52.98h-39.63c-6.15,11.54-20.03,18.97-39.28,18.97-25.5,0-43.65-14.01-48.02-37.9h129.59c2.09-59.98-29.17-95.36-81.57-95.36Zm-47.09,67.35c5.77-21.19,23.22-33.83,47.12-33.83l-.02.02c22.98,0,40.45,12.88,42.98,33.81h-90.07Z"/>
        <path class="cls-2" d="m1723.79,160.36c24.82,0,42.49,14.97,44.8,37.03h37.93c-2.31-37.9-32.16-70.99-82.73-70.99s-86.17,34.23-86.17,83.63,35.67,83.57,86.17,83.57,80.42-33.09,82.73-71.01h-37.93c-2.31,22.09-19.98,37.03-44.8,37.03-28.49,0-48.95-20.69-48.95-49.64s20.46-49.63,48.95-49.63Z"/>
        <path class="cls-2" d="m1548.34,126.43c-36.37,0-57.49,23.2-61.18,58.13v-54.91h-38.81v160.89h38.81v-82.26c0-35.89,18.16-49.92,44.59-49.92s39.74,13.8,39.74,46.2v85.98h38.91v-95.4c0-45.26-26.43-68.71-62.05-68.71Z"/>
        <path class="cls-2" d="m1336.56,126.3c-50.54,0-86.16,34.23-86.16,83.63s35.62,83.63,86.16,83.63c43.71,0,71.3-24.15,78.9-52.97l-39.62.03c-6.16,11.54-20.03,18.97-39.28,18.97-25.51,0-43.66-14.01-48.02-37.9h129.66c2.01-59.96-29.24-95.39-81.64-95.39Zm-47.09,67.39c5.74-21.19,23.2-33.83,47.09-33.83v.02c22.99,0,40.45,12.88,42.98,33.81h-90.07Z"/>
        <rect class="cls-2" x="1181.24" y="64.66" width="39.51" height="39.51"/>
        <rect class="cls-2" x="1181.69" y="129.54" width="38.6" height="160.84"/>
        <rect class="cls-2" x="1105.82" y="64.66" width="38.64" height="225.72"/>
        <path class="cls-2" d="m1001.56,126.3c-35.17,0-57.45,21.59-61.59,60.43v-57.21h-38.82v225.43h38.82v-121.7c4.14,38.82,26.42,60.43,61.59,60.43,39.51,0,74.21-31.03,74.21-83.65s-34.7-83.73-74.21-83.73Zm-13.11,135.26v-.13c-29.16,0-49.63-19.63-49.63-51.4s20.45-51.53,49.63-51.53,50.09,19.76,50.09,51.53-20.45,51.53-50.09,51.53Z"/>
        <path class="cls-2" d="m807.66,126.3c-35.42,0-55.21,23.04-59.58,57.97h-.45c-3.75-37.98-27.65-57.97-59.58-57.97-35.42,0-55.21,22.75-59.58,57.21v-53.99h-38.84v160.86h38.82v-82.22c0-35.2,16.76-49.92,42.73-49.92,24.12,0,38.15,13.56,38.15,46.2v85.94h38.64v-82.22c0-35.2,17-49.92,42.98-49.92,23.9,0,37.9,13.56,37.9,46.2v85.94h39v-95.37c0-44.81-25.28-68.71-60.2-68.71Z"/>
        <path class="cls-2" d="m478.69,126.3c-48.79,0-76.98,23.33-80.75,58.59h38.03c2.74-15.91,17.26-25.06,43.64-25.06,31.25,0,36.78,8.74,36.78,17,0,6.67-3.45,10.11-16.78,13.11l-59.29,13.64c-36.07,8.05-46.21,23.14-46.21,45.42,0,27.12,21.83,44.59,56.52,44.59,42.75,0,63.2-24.15,66.65-59.98v56.76h38.82v-98.8c.03-43.67-21.34-65.28-77.4-65.28Zm-17.71,134.19c-20.69,0-29.89-4.83-29.89-15.17,0-7.36,5.52-11.5,16.33-14.25l42.73-10.8c14.25-3.67,23.9-9.87,27.12-18.84l.06,12.19c0,40.43-37.23,46.87-56.36,46.87Z"/>
      </g>
    </g>
  </g>
</svg>