<svg viewBox="0 0 38 22" fill="none" xmlns="http://www.w3.org/2000/svg">
<rect x="0.5" y="0.5" width="37" height="21" rx="3.5" fill="white"/>
<path d="M10 2H28V11.7169L27.109 13.109L28 14.348V20H10V10.8399L10.5568 10.1995L10 9.58701V2Z" fill="#016FD0"/>
<path d="M13.4942 14.5427V11.7167H16.4864L16.8074 12.1352L17.1391 11.7167H28V14.3478C28 14.3478 27.716 14.5399 27.3875 14.5427H21.3735L21.0116 14.0972V14.5427H19.8255V13.7823C19.8255 13.7823 19.6635 13.8884 19.3132 13.8884H18.9095V14.5427H17.1137L16.7931 14.1152L16.4676 14.5427L13.4942 14.5427ZM10 9.58676L10.6747 8.01367H11.8417L12.2246 8.89485V8.01367H13.6752L13.9031 8.65056L14.1241 8.01367H20.6357V8.33386C20.6357 8.33386 20.978 8.01367 21.5406 8.01367L23.6534 8.02107L24.0297 8.8907V8.01367H25.2436L25.5777 8.51321V8.01367H26.8028V10.8397H25.5777L25.2575 10.3385V10.8397H23.474L23.2947 10.3942H22.8152L22.6387 10.8397H21.4292C20.9452 10.8397 20.6357 10.526 20.6357 10.526V10.8397H18.8121L18.4501 10.3942V10.8397H11.6688L11.4896 10.3942H11.0116L10.8337 10.8397H10V9.58676Z" fill="white"/>
<path d="M10.9135 8.36218L10.0034 10.4782H10.5959L10.7639 10.0545H11.7401L11.9071 10.4782H12.5127L11.6035 8.36218H10.9135ZM11.2502 8.85462L11.5478 9.59507H10.9518L11.2502 8.85462ZM12.5753 10.4778V8.36182L13.4173 8.36494L13.9071 9.72922L14.3851 8.36182H15.2204V10.4778H14.6913V8.91866L14.1306 10.4778H13.6667L13.1043 8.91866V10.4778H12.5753ZM15.5823 10.4778V8.36182H17.3085V8.83513H16.1169V9.19707H17.2807V9.64256H16.1169V10.0184H17.3085V10.4778H15.5823ZM17.6148 8.36218V10.4782H18.1438V9.72644H18.3665L19.0008 10.4782H19.6473L18.9512 9.69859C19.2369 9.67449 19.5315 9.42931 19.5315 9.04866C19.5315 8.60338 19.1821 8.36218 18.792 8.36218H17.6148ZM18.1438 8.83549H18.7485C18.8936 8.83549 18.9991 8.94896 18.9991 9.05822C18.9991 9.19879 18.8623 9.28096 18.7563 9.28096H18.1438V8.83549ZM20.2876 10.4778H19.7475V8.36182H20.2876V10.4778ZM21.5684 10.4778H21.4518C20.8877 10.4778 20.5452 10.0334 20.5452 9.42852C20.5452 8.8087 20.8838 8.36182 21.5962 8.36182H22.1809V8.86298H21.5748C21.2857 8.86298 21.0811 9.08866 21.0811 9.43373C21.0811 9.84353 21.315 10.0156 21.6519 10.0156H21.7911L21.5684 10.4778ZM22.7195 8.36218L21.8094 10.4782H22.4019L22.5698 10.0545H23.546L23.7131 10.4782H24.3187L23.4094 8.36218H22.7195ZM23.0562 8.85462L23.3538 9.59507H22.7578L23.0562 8.85462ZM24.3804 10.4778V8.36182H25.053L25.9118 9.69129V8.36182H26.4408V10.4778H25.79L24.9094 9.11356V10.4778H24.3804ZM13.8561 14.1808V12.0648H15.5823V12.5381H14.3907V12.9001H15.5545V13.3456H14.3907V13.7214H15.5823V14.1808H13.8561ZM22.3146 14.1808V12.0648H24.0408V12.5381H22.8491V12.9001H24.0074V13.3456H22.8491V13.7214H24.0407V14.1808H22.3146ZM15.6493 14.1808L16.4898 13.1359L15.6293 12.0648H16.2958L16.8082 12.7269L17.3225 12.0648H17.9628L17.1136 13.1228L17.9557 14.1808H17.2893L16.7917 13.5292L16.3062 14.1808H15.6493ZM18.0185 12.0652V14.1812H18.5614V13.513H19.1183C19.5894 13.513 19.9466 13.263 19.9466 12.7769C19.9466 12.3742 19.6665 12.0652 19.187 12.0652H18.0185ZM18.5614 12.5437H19.1478C19.3001 12.5437 19.4089 12.637 19.4089 12.7873C19.4089 12.9286 19.3006 13.031 19.1461 13.031H18.5614V12.5437ZM20.1763 12.0648V14.1808H20.7053V13.4291H20.928L21.5623 14.1808H22.2087L21.5127 13.4013C21.7983 13.3772 22.093 13.132 22.093 12.7513C22.093 12.306 21.7435 12.0648 21.3535 12.0648H20.1763ZM20.7053 12.5381H21.31C21.455 12.5381 21.5606 12.6516 21.5606 12.7609C21.5606 12.9015 21.4238 12.9836 21.3178 12.9836H20.7053V12.5381ZM24.2858 14.1808V13.7214H25.3445C25.5011 13.7214 25.569 13.6368 25.569 13.5439C25.569 13.455 25.5013 13.3651 25.3445 13.3651H24.8661C24.4502 13.3651 24.2186 13.1117 24.2186 12.7313C24.2186 12.392 24.4307 12.0648 25.0487 12.0648H26.0788L25.8561 12.5409H24.9651C24.7948 12.5409 24.7424 12.6303 24.7424 12.7156C24.7424 12.8033 24.8072 12.9001 24.9373 12.9001H25.4384C25.902 12.9001 26.1032 13.1631 26.1032 13.5074C26.1032 13.8776 25.879 14.1808 25.4132 14.1808H24.2858ZM26.2273 14.1808V13.7214H27.286C27.4427 13.7214 27.5105 13.6368 27.5105 13.5439C27.5105 13.455 27.4429 13.3651 27.286 13.3651H26.8076C26.3918 13.3651 26.1602 13.1117 26.1602 12.7313C26.1602 12.392 26.3723 12.0648 26.9902 12.0648H28.0204L27.7976 12.5409H26.9067C26.7364 12.5409 26.6839 12.6303 26.6839 12.7156C26.6839 12.8033 26.7487 12.9001 26.8788 12.9001H27.38C27.8436 12.9001 28.0447 13.1631 28.0447 13.5074C28.0447 13.8776 27.8206 14.1808 27.3548 14.1808H26.2273Z" fill="#016FD0"/>
<rect x="0.5" y="0.5" width="37" height="21" rx="3.5" stroke="#DDDDDD"/>
</svg>
