<svg viewBox="0 0 41 24" fill="none" xmlns="http://www.w3.org/2000/svg">
<rect x="0.0449219" width="40" height="24" rx="2" fill="#EEEEEE"/>
<path fill-rule="evenodd" clip-rule="evenodd" d="M0.0449219 7.60005H40.0449V2.80005H0.0449219V7.60005Z" fill="#747474"/>
<path fill-rule="evenodd" clip-rule="evenodd" d="M2.9248 16.3999H23.7648V12.3999H2.9248V16.3999Z" fill="#78909C"/>
<path fill-rule="evenodd" clip-rule="evenodd" d="M26.7646 13.0401L27.5246 12.8401H27.8846V15.3201H27.3246V13.4001L26.8446 13.5201L26.7646 13.0401Z" fill="#181818"/>
<path fill-rule="evenodd" clip-rule="evenodd" d="M32.0045 13.3199H31.0445V12.8399H32.7645V13.2399L32.1245 13.8399C32.5777 13.9199 32.8045 14.1467 32.8045 14.5199C32.8177 14.7455 32.7297 14.9655 32.5645 15.1199C32.3877 15.2759 32.1601 15.3611 31.9245 15.3599C31.5409 15.3759 31.1717 15.2135 30.9245 14.9199L31.2845 14.5599C31.4377 14.7315 31.6545 14.8327 31.8845 14.8399L32.1245 14.7599C32.2473 14.6327 32.2441 14.4303 32.1169 14.3075C32.1069 14.2975 32.0961 14.2883 32.0845 14.2799L31.7245 14.1999H31.5245L31.4445 13.8399L32.0045 13.3199ZM29.5245 13.3199L29.2845 13.3999L29.0445 13.6399L28.6445 13.3199C28.7493 13.1607 28.8853 13.0247 29.0445 12.9199C29.2045 12.8355 29.3837 12.7939 29.5645 12.7999C29.7953 12.7835 30.0241 12.8551 30.2045 12.9999C30.3633 13.1419 30.4513 13.3471 30.4445 13.5599C30.4445 13.7331 30.3885 13.9015 30.2845 14.0399C30.1333 14.2227 29.9585 14.3839 29.7645 14.5199L29.3645 14.8399H30.4445V15.3199H28.6045V14.8799L29.4445 14.1999L29.7645 13.8799C29.8221 13.7983 29.8505 13.6995 29.8445 13.5999C29.8521 13.5123 29.8229 13.4255 29.7645 13.3599L29.5245 13.3199Z" fill="#181818"/>
<path fill-rule="evenodd" clip-rule="evenodd" d="M25.4045 16.4H34.3645V12H25.4045V16.4ZM24.5645 17.2H35.2045V11.2H24.5645V17.2Z" fill="#FF5252"/>
</svg>
