<svg fill="none" viewBox="0 0 28 40" xmlns="http://www.w3.org/2000/svg">
<g clip-path="url(#a)">
    <path d="m7.34 39.999c3.68 0 6.6667-2.9867 6.6667-6.6667v-6.6667h-6.6667c-3.68 0-6.6667 2.9867-6.6667 6.6667s2.9867 6.6667 6.6667 6.6667z" fill="#0ACF83"/>
    <path d="m0.67334 20.001c0-3.68 2.9867-6.6666 6.6667-6.6666h6.6667v13.333h-6.6667c-3.68 0-6.6667-2.9867-6.6667-6.6667z" fill="#A259FF"/>
    <path d="m0.67383 6.6667c0-3.68 2.9867-6.6667 6.6667-6.6667h6.6667v13.333h-6.6667c-3.68 0-6.6667-2.9866-6.6667-6.6666z" fill="#F24E1E"/>
    <path d="m14.006 0h6.6667c3.68 0 6.6666 2.9867 6.6666 6.6667 0 3.68-2.9866 6.6666-6.6666 6.6666h-6.6667v-13.333z" fill="#FF7262"/>
    <path d="m27.339 20.001c0 3.68-2.9866 6.6667-6.6666 6.6667-3.6801 0-6.6667-2.9867-6.6667-6.6667s2.9866-6.6666 6.6667-6.6666c3.68 0 6.6666 2.9866 6.6666 6.6666z" fill="#1ABCFE"/>
</g>
<defs>
    <clipPath id="a">
        <rect transform="translate(.66992)" width="26.672" height="40" fill="#fff"/>
    </clipPath>
</defs>
</svg>
