<svg viewBox="0 0 20 19" fill="none" xmlns="http://www.w3.org/2000/svg">
 <g>
  <path stroke="null" fill-rule="evenodd" clip-rule="evenodd" d="m10,2.07c1.1586,-1.26976 2.7819,-2.01646 4.5,-2.07c3.0376,0 5.5,2.46243 5.5,5.5c0,3.59623 -3.9978,7.5375 -6.3954,9.9013c-0.2159,0.2128 -0.4188,0.4129 -0.6046,0.5987l-2.28,2.28c-0.1405,0.1407 -0.3312,0.2198 -0.53,0.22l-0.38,0c-0.19884,-0.0002 -0.38948,-0.0793 -0.53,-0.22l-2.28,-2.28c-0.18584,-0.1858 -0.38873,-0.3859 -0.6046,-0.5987c-2.39765,-2.3638 -6.3954,-6.30507 -6.3954,-9.9013c0,-3.03757 2.46243,-5.5 5.5,-5.5c1.7181,0.05354 3.34137,0.80024 4.5,2.07z" fill="#181818" id="svg_1"/>
  <path id="svg_2" d="m4.37505,1.62507l0.74991,-0.18758" fill="currentColor"/>
 </g>

</svg>