<svg width="20" height="20" viewBox="0 0 20 20" fill="none" xmlns="http://www.w3.org/2000/svg">
    <path fill-rule="evenodd" clip-rule="evenodd" d="M4.16667 15.8333H8.75C8.98012 15.8333 9.16667 16.0199 9.16667 16.25V17.0833C9.16667 17.3135 8.98012 17.5 8.75 17.5H4.16667C3.24619 17.5 2.5 16.7538 2.5 15.8333L2.5 4.16667C2.5 3.24619 3.24619 2.5 4.16667 2.5L8.75 2.5C8.98012 2.5 9.16667 2.68655 9.16667 2.91667V3.75C9.16667 3.98012 8.98012 4.16667 8.75 4.16667L4.16667 4.16667L4.16667 15.8333ZM13.0333 5.125L17.3167 9.4C17.4324 9.5181 17.4981 9.67632 17.5 9.84167V10.1583C17.4999 10.324 17.4339 10.4829 17.3167 10.6L13.0333 14.875C12.9551 14.9539 12.8486 14.9983 12.7375 14.9983C12.6264 14.9983 12.5199 14.9539 12.4417 14.875L11.85 14.2917C11.7711 14.2134 11.7268 14.1069 11.7268 13.9958C11.7268 13.8847 11.7711 13.7782 11.85 13.7L14.725 10.8333L6.25 10.8333C6.01988 10.8333 5.83333 10.6468 5.83333 10.4167V9.58333C5.83333 9.35322 6.01988 9.16667 6.25 9.16667L14.725 9.16667L11.85 6.3C11.7716 6.2232 11.7274 6.11807 11.7274 6.00833C11.7274 5.89859 11.7716 5.79347 11.85 5.71667L12.4417 5.125C12.5199 5.04612 12.6264 5.00175 12.7375 5.00175C12.8486 5.00175 12.9551 5.04612 13.0333 5.125Z" fill="currentColor"/>
</svg>
