<svg viewBox="0 0 20 20" fill="none" xmlns="http://www.w3.org/2000/svg">
<path fill-rule="evenodd" clip-rule="evenodd" d="M10 0C15.5229 0 20 4.47715 20 10C20 14.9912 16.3432 19.1283 11.5625 19.8785V12.8906H13.8926L14.3359 10H11.5625V8.125C11.5625 7.345 11.9387 6.58509 13.1381 6.56299C13.156 6.56267 13.174 6.5625 13.1922 6.5625H14.4531V4.10156C14.4531 4.10156 13.5767 3.95203 12.6249 3.91464C12.4889 3.9093 12.3514 3.90625 12.2146 3.90625C9.93047 3.90625 8.4375 5.29063 8.4375 7.79688V10H5.89844V12.8906H8.4375V19.8785C3.65684 19.1283 0 14.9912 0 10C0 4.47715 4.47715 0 10 0Z" fill="currentColor"/>
</svg>
