<svg viewBox="0 0 24 24" fill="none" xmlns="http://www.w3.org/2000/svg">
<path d="M21.92 9.42C21.94 9.3 21.95 9.17 21.95 9.04C21.95 8.68 21.64 7.25 21.02 4.76C20.91 4.31 20.51 4 20.05 4H3.9C3.44 4 3.04 4.31 2.93 4.76C2.32 7.24 2 8.68 2 9.04C2 9.17 2.01 9.29 2.03 9.44L2.06 9.69C2.28 10.75 3.01 11.6 3.97 12.01V19.53C3.97 20.08 4.42 20.53 4.97 20.53H13.97C14.52 20.53 14.97 20.08 14.97 19.53V12.18C15.53 12.04 16.05 11.77 16.46 11.38C16.88 11.78 17.4 12.06 17.97 12.19V19.53C17.97 20.08 18.42 20.53 18.97 20.53C19.52 20.53 19.97 20.08 19.97 19.53V12.01C20.92 11.59 21.67 10.73 21.89 9.59L21.91 9.44M12.98 18.53H5.98V12.19C6.47 12.07 6.92 11.84 7.31 11.53C7.37 11.48 7.44 11.44 7.5 11.38C7.56 11.44 7.63 11.48 7.69 11.53C8.26 12 8.96999 12.28 9.74999 12.28C10.53 12.28 11.24 11.99 11.81 11.53C11.87 11.48 11.94 11.44 12 11.38C12.06 11.44 12.13 11.48 12.19 11.53C12.44 11.73 12.7 11.91 13 12.03V18.53H12.98ZM19.94 9.14V9.2V9.22V9.27C19.9 9.47 19.8 9.64 19.68 9.79C19.45 10.08 19.11 10.27 18.72 10.27C18.49 10.27 18.28 10.19 18.1 10.08C17.8 9.91 17.57 9.63 17.5 9.27C17.41 8.8 16.91 8.47 16.43 8.47C15.95 8.47 15.54 8.81 15.45 9.27C15.38 9.61 15.16 9.89 14.87 10.06C14.68 10.18 14.46 10.26 14.23 10.26C13.73 10.26 13.3 9.95 13.11 9.51C13.08 9.43 13.03 9.36 13.02 9.27C12.93 8.8 12.43 8.47 11.95 8.47C11.47 8.47 11.06 8.8 10.97 9.27C10.95 9.36 10.91 9.43 10.88 9.51C10.69 9.95 10.26 10.26 9.76 10.26C9.26 10.26 8.83 9.95 8.64 9.51C8.61 9.43 8.56 9.36 8.55 9.27C8.46 8.8 7.95 8.47 7.48 8.47C7.01 8.47 6.59 8.8 6.5 9.27C6.48 9.36 6.44 9.43 6.41 9.51C6.22 9.95 5.79 10.26 5.29 10.26C4.89 10.26 4.54 10.06 4.32 9.79C4.21 9.66 4.12 9.52 4.09 9.36L4.06 9.12L4.05 9.05C4.07 8.78 4.39 7.37 4.73 5.97H19.31C19.65 7.36 19.97 8.77 19.99 9.01C19.99 9.05 19.99 9.08 19.98 9.12L19.94 9.14Z" fill="black"/>
</svg>
