<svg viewBox="0 0 18 18" fill="none" xmlns="http://www.w3.org/2000/svg">
<path fill-rule="evenodd" clip-rule="evenodd" d="M13.1704 4.83341C13.1704 7.1346 11.3044 9.00008 9.00252 9.00008C6.70063 9.00008 4.83459 7.1346 4.83459 4.83341C4.83459 2.53223 6.70063 0.666748 9.00252 0.666748C11.3044 0.666748 13.1704 2.53223 13.1704 4.83341ZM11.5033 4.83341C11.5033 3.4527 10.3836 2.33341 9.00251 2.33341C7.62138 2.33341 6.50176 3.4527 6.50176 4.83341C6.50176 6.21413 7.62138 7.33341 9.00251 7.33341C10.3836 7.33341 11.5033 6.21413 11.5033 4.83341ZM17.2467 16.1251L15.6712 12.9667C14.9646 11.557 13.5224 10.6668 11.9451 10.6667H6.05997C4.48264 10.6668 3.04048 11.557 2.33384 12.9667L0.758362 16.1251C0.628348 16.383 0.641206 16.6899 0.792341 16.936C0.943477 17.1822 1.21134 17.3325 1.50025 17.3334H16.5048C16.7937 17.3325 17.0616 17.1822 17.2127 16.936C17.3638 16.6899 17.3767 16.383 17.2467 16.1251ZM3.82595 13.7167L2.85066 15.6667H15.1544L14.1791 13.7167C13.7563 12.8701 12.8916 12.3347 11.9451 12.3334H6.05996C5.11343 12.3347 4.24874 12.8701 3.82595 13.7167Z" fill="#181818"/>
</svg>
