<svg width="67px" height="28px" viewBox="0 0 67 28" xmlns="http://www.w3.org/2000/svg">
    <g fill="currentColor" stroke="none" stroke-width="1" fill="none" fill-rule="evenodd">
        <path d="M34.7020589,3.40472516 L34.7020589,27.4726323 L36.3999345,27.4726323 L36.3999345,0.38656317 L33.8531211,0.38656317 L28.2192613,24.3383871 L22.5468134,0.38656317 L20,0.38656317 L20,27.4726323 L21.5821113,27.4726323 L21.5821113,3.48211392 L27.2931473,27.4339379 L29.0681991,27.4339379 L34.7020589,3.40472516 Z M39.9252951,0.38656317 L39.9252951,27.4726323 L42.9351655,27.4726323 L42.9351655,16.7929822 L45.5977431,16.7929822 C49.8810201,16.7929822 51.8876003,14.5487079 51.8876003,10.2536312 L51.8876003,7.00330291 C51.8876003,2.90169816 50.0739605,0.38656317 45.8292716,0.38656317 L39.9252951,0.38656317 Z M42.9351655,14.0843753 L42.9351655,3.13386446 L45.8292716,3.13386446 C48.0287922,3.13386446 48.9163181,4.37208477 48.9163181,6.84852537 L48.9163181,10.4471031 C48.9163181,13.0396269 47.8358518,14.0843753 45.5977431,14.0843753 L42.9351655,14.0843753 Z"></path>
        <g id="logo-sparkle-1" transform="translate(50.000000, 1.000000)">
            <path d="M10.9295795,0.411803314 L12.33005,3.191019 L15.1093442,4.59156802 C15.4790697,4.77643076 15.6263638,5.22913665 15.4414226,5.59886214 C15.3662069,5.74772488 15.2470697,5.8605092 15.1093442,5.931019 L12.33005,7.33156802 L10.9295795,10.1107837 C10.7447951,10.4805092 10.2919324,10.6293719 9.92220691,10.4429406 C9.77342259,10.3677249 9.66063828,10.2486661 9.59012848,10.1107837 L8.19114808,7.33156802 L5.41177554,5.931019 C5.04205005,5.74458763 4.89483436,5.29337194 5.07977554,4.92364645 C5.15499122,4.77486214 5.27412848,4.66207782 5.41177554,4.59156802 L8.19114808,3.191019 L9.59012848,0.411803314 C9.77655985,0.0420778234 10.2277755,-0.105137863 10.597501,0.0797248822 C10.7462853,0.153371941 10.8591481,0.272430765 10.9295795,0.411803314 L10.9295795,0.411803314 L10.9295795,0.411803314 Z M11.1018932,4.08709743 L10.2604814,2.41705822 L9.41922652,4.08709743 C9.34871671,4.22497978 9.23585397,4.34403861 9.08706965,4.41925429 L7.41554024,5.2605092 L9.08706965,6.10341116 C9.22495201,6.17392096 9.34401083,6.28670527 9.41922652,6.43548959 L10.2604814,8.10709743 L11.1018932,6.43548959 C11.1723246,6.29760724 11.2851873,6.17854841 11.4338932,6.10341116 L13.105501,5.2605092 L11.4338932,4.41925429 C11.2961677,4.34874449 11.1771089,4.23596018 11.1018932,4.08709743 L11.1018932,4.08709743 Z"></path>
            <polygon id="Shape" points="7.72183784 21.0888649 4.63313514 21.0888649 4.63313514 18 3.0887027 18 3.0887027 21.0888649 0 21.0888649 0 22.6332973 3.0887027 22.6332973 3.0887027 25.7221622 4.63313514 25.7221622 4.63313514 22.6332973 7.72183784 22.6332973"></polygon>
            <polygon id="Shape-Copy" points="16.5211819 16.6881128 13.8332102 16.6881128 13.8332102 14 12.4891538 14 12.4891538 16.6881128 9.80118214 16.6881128 9.80118214 18.0321692 12.4891538 18.0321692 12.4891538 20.720282 13.8332102 20.720282 13.8332102 18.0321692 16.5211819 18.0321692"></polygon>
        </g>
        <g id="logo-sparkle-2" transform="translate(0.000000, 2.000000)">
            <path d="M5.92957946,8.41180331 L7.33005005,11.191019 L10.1093442,12.591568 C10.4790697,12.7764308 10.6263638,13.2291366 10.4414226,13.5988621 C10.3662069,13.7477249 10.2470697,13.8605092 10.1093442,13.931019 L7.33005005,15.331568 L5.92957946,18.1107837 C5.74479514,18.4805092 5.2919324,18.6293719 4.92220691,18.4429406 C4.77342259,18.3677249 4.66063828,18.2486661 4.59012848,18.1107837 L3.19114808,15.331568 L0.411775536,13.931019 C0.0420500456,13.7445876 -0.105165641,13.2933719 0.0797755358,12.9236465 C0.154991222,12.7748621 0.274128477,12.6620778 0.411775536,12.591568 L3.19114808,11.191019 L4.59012848,8.41180331 C4.77655985,8.04207782 5.22777554,7.89486214 5.59750103,8.07972488 C5.74628534,8.15337194 5.85914808,8.27243076 5.92957946,8.41180331 L5.92957946,8.41180331 L5.92957946,8.41180331 Z M6.10189318,12.0870974 L5.26048142,10.4170582 L4.41922652,12.0870974 C4.34871671,12.2249798 4.23585397,12.3440386 4.08706965,12.4192543 L2.41554024,13.2605092 L4.08706965,14.1034112 C4.22495201,14.173921 4.34401083,14.2867053 4.41922652,14.4354896 L5.26048142,16.1070974 L6.10189318,14.4354896 C6.17232456,14.2976072 6.2851873,14.1785484 6.43389318,14.1034112 L8.10550103,13.2605092 L6.43389318,12.4192543 C6.29616769,12.3487445 6.17710887,12.2359602 6.10189318,12.0870974 L6.10189318,12.0870974 Z"></path>
            <polygon id="Shape-Copy-3" points="16.7218378 3.08886486 13.6331351 3.08886486 13.6331351 0 12.0887027 0 12.0887027 3.08886486 9 3.08886486 9 4.6332973 12.0887027 4.6332973 12.0887027 7.72216216 13.6331351 7.72216216 13.6331351 4.6332973 16.7218378 4.6332973"></polygon>
            <polygon id="Shape-Copy-4" points="15.7199998 19.288096 13.4320239 19.288096 13.4320239 17 12.2879759 17 12.2879759 19.288096 10 19.288096 10 20.432144 12.2879759 20.432144 12.2879759 22.72024 13.4320239 22.72024 13.4320239 20.432144 15.7199998 20.432144"></polygon>
        </g>
    </g>
</svg>
