<?xml version="1.0" encoding="UTF-8"?>
<svg width="22px" height="21px" viewBox="0 0 22 21" version="1.1" xmlns="http://www.w3.org/2000/svg" xmlns:xlink="http://www.w3.org/1999/xlink">
    <!-- Generator: sketchtool 53.2 (72643) - https://sketchapp.com -->
    <title>971867EC-694F-46E7-8441-0C11ABC1FA5B</title>
    <desc>Created with sketchtool.</desc>
    <defs>
        <path d="M11.0340453,0.699891666 L19.8476005,17.4456465 C20.4134926,18.5208414 19.8841628,19.4091218 18.6544913,19.4091218 L1.34678324,19.4091218 C0.111825567,19.4091218 -0.417061449,18.5300439 0.153674058,17.4456465 L8.96722921,0.699891666 C9.53312131,-0.375303321 10.4633098,-0.384505797 11.0340453,0.699891666 Z M10.0006373,13.0904485 C10.6679667,13.0904485 11.2095674,12.545662 11.2095674,11.8744071 L11.2095674,5.79419959 C11.2095674,5.12294469 10.6679667,4.5781581 10.0006373,4.5781581 C9.33330782,4.5781581 8.79170712,5.12294469 8.79170712,5.79419959 L8.79170712,11.8744071 C8.79170712,12.545662 9.33330782,13.0904485 10.0006373,13.0904485 Z M10.0006373,16.738573 C10.6679667,16.738573 11.2095674,16.1937864 11.2095674,15.5225315 C11.2095674,14.8512766 10.6679667,14.30649 10.0006373,14.30649 C9.33330782,14.30649 8.79170712,14.8512766 8.79170712,15.5225315 C8.79170712,16.1937864 9.33330782,16.738573 10.0006373,16.738573 Z" id="path-1"></path>
    </defs>
    <g id="Call-Outs" stroke="none" stroke-width="1" fill="none" fill-rule="evenodd">
        <g transform="translate(-75.000000, -80.000000)" id="Message-">
            <g transform="translate(60.000000, 65.000000)">
                <g id="Content-">
                    <g id="important" transform="translate(16.000000, 16.000000)">
                        <g id="icon/warning">
                            <mask id="mask-2" fill="white">
                                <use xlink:href="#path-1"></use>
                            </mask>
                            <use id="Combined-Shape" fill="#DC0A3C" xlink:href="#path-1"></use>
                        </g>
                    </g>
                </g>
            </g>
        </g>
    </g>
</svg>