<?xml version="1.0" encoding="UTF-8"?>
<svg width="11px" height="11px" viewBox="0 0 11 11" version="1.1" xmlns="http://www.w3.org/2000/svg" xmlns:xlink="http://www.w3.org/1999/xlink">
    <!-- Generator: Sketch 48.2 (47327) - http://www.bohemiancoding.com/sketch -->
    <title>icon/close/dark</title>
    <desc>Created with Sketch.</desc>
    <defs>
        <polygon id="path-1" points="12 3.9 11.1 3 7.5 6.6 3.9 3 3 3.9 6.6 7.5 3 11.1 3.9 12 7.5 8.4 11.1 12 12 11.1 8.4 7.5"></polygon>
    </defs>
    <g id="Search-active---autocomplete" stroke="none" stroke-width="1" fill="none" fill-rule="evenodd" transform="translate(-288.000000, -13.000000)" opacity="0.75">
        <g id="icon/close/black" transform="translate(285.000000, 10.000000)">
            <g id="icon/plus" transform="translate(8.500000, 8.500000) rotate(-45.000000) translate(-8.500000, -8.500000) translate(1.000000, 1.000000)">
                <g id="Shape" transform="translate(7.500000, 7.500000) rotate(-315.000000) translate(-7.500000, -7.500000) ">
                    <use fill="#000000" fill-rule="evenodd" xlink:href="#path-1"></use>
                    <path stroke="#000000" stroke-width="0.5" d="M8.75355339,7.5 L12.3535534,11.1 L11.1,12.3535534 L7.5,8.75355339 L3.9,12.3535534 L2.64644661,11.1 L6.24644661,7.5 L2.64644661,3.9 L3.9,2.64644661 L7.5,6.24644661 L11.1,2.64644661 L12.3535534,3.9 L8.75355339,7.5 Z"></path>
                </g>
            </g>
        </g>
    </g>
</svg>
